<?xml version="1.0" encoding="utf-8"?>
<!-- Generator: Adobe Illustrator 21.0.0, SVG Export Plug-In . SVG Version: 6.00 Build 0)  -->
<svg version="1.1" id="图层_1" xmlns="http://www.w3.org/2000/svg" xmlns:xlink="http://www.w3.org/1999/xlink" x="0px" y="0px"
	 width="40px" height="40px" viewBox="0 0 40 40" style="enable-background:new 0 0 40 40;" xml:space="preserve">
<style type="text/css">
	.st0{fill:#4A9215;}
	.st1{opacity:0.35;}
	.st2{opacity:0.24;fill:#FFFFFF;}
	.st3{fill:#FFFFFF;}
</style>
<g>
	<g>
		<g>
			<g>
				<path class="st0" d="M40,33.8c0,3.5-2.7,6.2-6.2,6.2H6.3C2.9,40,0,37.2,0,33.8V6.3C0,2.8,2.9,0,6.3,0h27.5C37.3,0,40,2.8,40,6.3
					V33.8z"/>
			</g>
		</g>
	</g>
</g>
<g>
	<path class="st1" d="M40,6.3v27.5c0,3.4-2.8,6.3-6.3,6.3H6.3c-2,0-3.7-0.9-4.9-2.3c1.1,0.9,2.4,1.4,3.9,1.4h27.5
		c3.4,0,6.3-2.8,6.3-6.3V5.3c0-1.5-0.5-2.8-1.4-3.9C39.1,2.5,40,4.3,40,6.3z"/>
	<path class="st2" d="M38.6,2.3c-1.1-0.9-2.4-1.4-3.9-1.4H7.2c-3.4,0-6.3,2.8-6.3,6.3v27.5c0,1.5,0.5,2.8,1.4,3.9
		C0.9,37.5,0,35.7,0,33.8V6.3C0,2.8,2.8,0,6.3,0h27.5C35.7,0,37.5,0.9,38.6,2.3z"/>
</g>
<g>
	<path class="st3" d="M5.1,18h0.6h0.6v0.9l0.2-0.3c0.3-0.5,0.7-0.8,1.3-0.8c0.5,0,0.9,0.2,1.2,0.5s0.4,0.8,0.4,1.4v4H8.7H8.1v-3.6
		c0-0.3-0.1-0.6-0.2-0.8c-0.1-0.2-0.3-0.3-0.6-0.3c-0.3,0-0.6,0.1-0.7,0.4c-0.2,0.3-0.3,0.6-0.3,1.1v3.1H5.7H5.1V18z"/>
	<path class="st3" d="M13,23.9c-0.8,0-1.4-0.3-1.8-0.8c-0.4-0.5-0.6-1.3-0.6-2.4c0-0.9,0.2-1.6,0.6-2.1c0.4-0.5,0.9-0.8,1.6-0.8
		c0.7,0,1.3,0.3,1.7,0.8c0.4,0.5,0.6,1.3,0.6,2.3l0,0.4h-3.2c0,0.4,0.1,0.7,0.2,1c0.2,0.3,0.4,0.4,0.8,0.4c0.2,0,0.4-0.1,0.5-0.2
		c0.1-0.1,0.2-0.3,0.3-0.5h1.3c-0.1,0.6-0.4,1-0.7,1.3C14,23.7,13.6,23.9,13,23.9z M13.8,20.3c0-0.4-0.1-0.7-0.2-0.9
		c-0.2-0.3-0.4-0.4-0.7-0.4c-0.3,0-0.6,0.1-0.7,0.4c-0.1,0.2-0.2,0.5-0.2,0.8H13.8z"/>
	<path class="st3" d="M18.6,23.8c-0.2,0-0.5,0-0.8,0c-0.4,0-0.7-0.1-0.9-0.3c-0.2-0.2-0.3-0.5-0.3-1v-3.4H16V18h0.6v-1.5h1.2V18h0.8
		v1.1h-0.8v3.2c0,0.2,0,0.3,0.1,0.3c0.1,0.1,0.2,0.1,0.4,0.1h0.3V23.8z"/>
	<path class="st3" d="M22.5,18.3c0-0.3-0.1-0.6-0.2-0.8s-0.4-0.3-0.6-0.3c-0.3,0-0.4,0.1-0.6,0.3s-0.2,0.5-0.2,0.9h-1.2
		c0-0.7,0.2-1.3,0.6-1.8c0.4-0.4,0.8-0.7,1.4-0.7c0.6,0,1.1,0.2,1.5,0.6c0.4,0.4,0.5,0.9,0.5,1.6c0,0.6-0.2,1-0.5,1.3L23,19.7
		c0.1,0.1,0.3,0.2,0.4,0.3c0.4,0.3,0.6,0.8,0.6,1.5c0,0.8-0.2,1.4-0.6,1.8c-0.4,0.5-0.9,0.7-1.6,0.7c-0.7,0-1.2-0.2-1.6-0.7
		c-0.4-0.4-0.6-1.1-0.6-1.9h1.2c0,0.5,0.1,0.8,0.2,1s0.4,0.3,0.7,0.3c0.3,0,0.5-0.1,0.7-0.3c0.2-0.2,0.3-0.5,0.3-0.9
		c0-0.3-0.1-0.6-0.3-0.8s-0.5-0.3-0.9-0.3h-0.2v-1.1h0.2c0.3,0,0.6-0.1,0.8-0.3C22.4,18.9,22.5,18.6,22.5,18.3z"/>
	<path class="st3" d="M27.4,16.1c0.6,0,1,0.2,1.3,0.5c0.3,0.3,0.5,0.8,0.5,1.4h-1.2c0-0.2-0.1-0.4-0.2-0.5c-0.1-0.1-0.3-0.2-0.5-0.2
		c-0.4,0-0.6,0.2-0.8,0.7c-0.1,0.3-0.2,0.8-0.2,1.4c0.3-0.4,0.7-0.6,1.2-0.6c0.6,0,1.1,0.2,1.4,0.6c0.3,0.4,0.5,1,0.5,1.7
		c0,0.8-0.2,1.5-0.6,2c-0.4,0.5-0.9,0.7-1.5,0.7c-0.8,0-1.3-0.3-1.7-1s-0.6-1.6-0.6-2.9c0-1.3,0.2-2.4,0.6-3
		C26.1,16.4,26.7,16.1,27.4,16.1z M26.4,21.4c0,0.4,0.1,0.7,0.3,1c0.2,0.3,0.4,0.4,0.7,0.4c0.3,0,0.5-0.1,0.6-0.4
		c0.1-0.2,0.2-0.6,0.2-1c0-0.5-0.1-0.8-0.2-1c-0.1-0.2-0.4-0.3-0.7-0.3c-0.3,0-0.5,0.1-0.7,0.3C26.4,20.6,26.4,20.9,26.4,21.4z"/>
	<path class="st3" d="M31.1,23c-0.3-0.6-0.5-1.6-0.5-3c0-1.4,0.2-2.4,0.5-3c0.3-0.6,0.9-0.9,1.7-0.9c0.8,0,1.3,0.3,1.7,0.9
		c0.3,0.6,0.5,1.6,0.5,2.9v0c0,1.4-0.2,2.4-0.5,3s-0.9,0.9-1.7,0.9C32,23.9,31.4,23.6,31.1,23z M33.5,22.1c0.1-0.4,0.2-1.1,0.2-2.1
		c0-1-0.1-1.7-0.2-2.1c-0.1-0.4-0.4-0.6-0.7-0.6c-0.3,0-0.6,0.2-0.7,0.6c-0.1,0.4-0.2,1.1-0.2,2.1c0,1,0.1,1.7,0.2,2.1
		c0.1,0.4,0.4,0.6,0.7,0.6C33.1,22.7,33.3,22.5,33.5,22.1z"/>
</g>
</svg>
