<svg id="图层_1" data-name="图层 1" xmlns="http://www.w3.org/2000/svg" viewBox="0 0 128 128"><defs><style>.cls-1{fill:#4a9215;}.cls-2{opacity:0.35;}.cls-3,.cls-4{fill:#fff;}.cls-3{opacity:0.24;}.cls-4{font-size:40px;font-family:Tensentype-ZhiHeiJ-W2, Tensentype ZhiHeiJ-W2;}</style></defs><title>resin-01</title><path class="cls-1" d="M127.92,108.65a19.78,19.78,0,0,1-19.75,20h-88a20.2,20.2,0,0,1-20.25-20v-88A20.22,20.22,0,0,1,20.17.64h88a19.8,19.8,0,0,1,19.75,20Z" transform="translate(0.08 -0.64)"/><path class="cls-2" d="M127.92,20.64v88a20.06,20.06,0,0,1-20,20h-88a19.94,19.94,0,0,1-15.54-7.46,19.82,19.82,0,0,0,12.54,4.46h88a20.06,20.06,0,0,0,20-20v-88A19.82,19.82,0,0,0,120.46,5.1,19.94,19.94,0,0,1,127.92,20.64Z" transform="translate(0.08 -0.64)"/><path class="cls-3" d="M123.46,8.1a19.82,19.82,0,0,0-12.54-4.46h-88a20.06,20.06,0,0,0-20,20v88a19.82,19.82,0,0,0,4.46,12.54A19.94,19.94,0,0,1-.08,108.64v-88a20.06,20.06,0,0,1,20-20h88A19.94,19.94,0,0,1,123.46,8.1Z" transform="translate(0.08 -0.64)"/><text class="cls-4" transform="translate(21.51 75.52)">resin</text></svg>