<?xml version="1.0" encoding="utf-8"?>
<!-- Generator: Adobe Illustrator 21.0.0, SVG Export Plug-In . SVG Version: 6.00 Build 0)  -->
<svg version="1.1" id="图层_1" xmlns="http://www.w3.org/2000/svg" xmlns:xlink="http://www.w3.org/1999/xlink" x="0px" y="0px"
	 width="40px" height="40px" viewBox="0 0 40 40" enable-background="new 0 0 40 40" xml:space="preserve">
<path fill="#0167B2" d="M40,33.8c0,3.5-2.8,6.3-6.3,6.3H6.3C2.8,40,0,37.2,0,33.8V6.3C0,2.8,2.8,0,6.3,0h27.5C37.2,0,40,2.8,40,6.3
	V33.8z"/>
<g>
	<path opacity="0.35" enable-background="new    " d="M40,6.2v27.5c0,3.4-2.8,6.3-6.3,6.3H6.2c-2,0-3.7-0.9-4.9-2.3
		c1.1,0.9,2.4,1.4,3.9,1.4h27.5c3.4,0,6.3-2.8,6.3-6.3V5.3c0-1.5-0.5-2.8-1.4-3.9C39.1,2.5,40,4.3,40,6.2z"/>
	<path opacity="0.24" fill="#FFFFFF" enable-background="new    " d="M38.6,2.3c-1.1-0.9-2.4-1.4-3.9-1.4H7.2
		c-3.4,0-6.3,2.8-6.3,6.3v27.5c0,1.5,0.5,2.8,1.4,3.9C0.9,37.5,0,35.7,0,33.7V6.2c0-3.4,2.8-6.3,6.3-6.3h27.5
		C35.7,0,37.5,0.9,38.6,2.3z"/>
</g>
<g>
	<g>
		<path opacity="0.55" fill-rule="evenodd" clip-rule="evenodd" fill="#FFFFFF" d="M35.7,11.2c-1-0.4-2-0.4-3.1-0.3
			c-1.8,0.2-3.6,0.7-5.3,1.5c0.1,0.4,0.3,0.7,0.4,1.1c0.2,0.9,0.3,1.9,0.3,2.9c0,0.2-0.1,0.4-0.1,0.6c-0.1,0.3-0.1,0.6-0.2,0.9
			c-0.3,1.2-0.7,2.2-1.4,3.2l0,0c-0.2,0.2-0.3,0.4-0.5,0.6c-0.1,0.1-0.3,0.3-0.4,0.4c0,0-0.1,0.1-0.1,0.1c-0.1,0.1-0.3,0.2-0.4,0.4
			l0,0l0,0c-0.8,0.7-1.7,1.3-2.7,1.7c-0.1,0-0.2,0.1-0.3,0.1c-0.1,0-0.1,0-0.2,0c-0.1,0-0.2,0-0.2,0.1c0.1,0,0.1,0,0.2,0l0,0
			c0.1,0,0.1,0,0.2-0.1h0c0.1,0,0.3,0,0.4-0.1l0,0c0.3,0,0.5-0.1,0.7-0.2c2.4-0.8,4.7-1.8,6.8-3.2c2.1-1.4,4.1-3,5.6-5
			c0.6-0.8,1.1-1.6,1.3-2.6C37,12.4,36.6,11.6,35.7,11.2z"/>
		<path fill-rule="evenodd" clip-rule="evenodd" fill="#FFFFFF" d="M15,13.4c-0.1-0.2-0.4-0.2-0.6,0c-0.1,0.2-0.2,0.3-0.2,0.6
			c0,0.1,0,0.2,0.1,0.2c0.1,0.1,0.2-0.1,0.2-0.1c0.2-0.1,0.3-0.2,0.5-0.3C15.2,13.6,15.2,13.5,15,13.4z M15,13.4
			c-0.1-0.2-0.4-0.2-0.6,0c-0.1,0.2-0.2,0.3-0.2,0.6c0,0.1,0,0.2,0.1,0.2c0.1,0.1,0.2-0.1,0.2-0.1c0.2-0.1,0.3-0.2,0.5-0.3
			C15.2,13.6,15.2,13.5,15,13.4z M15,13.4c-0.1-0.2-0.4-0.2-0.6,0c-0.1,0.2-0.2,0.3-0.2,0.6c0,0.1,0,0.2,0.1,0.2
			c0.1,0.1,0.2-0.1,0.2-0.1c0.2-0.1,0.3-0.2,0.5-0.3C15.2,13.6,15.2,13.5,15,13.4z M15,13.4c-0.1-0.2-0.4-0.2-0.6,0
			c-0.1,0.2-0.2,0.3-0.2,0.6c0,0.1,0,0.2,0.1,0.2c0.1,0.1,0.2-0.1,0.2-0.1c0.2-0.1,0.3-0.2,0.5-0.3C15.2,13.6,15.2,13.5,15,13.4z
			 M28,15.7c0-0.1,0-0.2,0-0.4c0-0.1,0-0.2,0-0.3c0-0.1,0-0.2,0-0.4c0-0.2-0.1-0.4-0.1-0.7c0-0.2-0.1-0.4-0.1-0.6
			c-0.1-0.2-0.1-0.4-0.2-0.6c-0.1-0.2-0.1-0.4-0.2-0.6c0-0.1-0.1-0.1-0.1-0.2c-0.4-0.9-0.9-1.7-1.6-2.4c-1.7-1.8-3.8-2.8-6.2-2.9
			c-2.9-0.1-5.3,0.9-7.2,3.1c-0.1,0.1-0.1,0.1-0.1,0.3h5.4c0,0,0,0,0,0.1c-0.2,0.1-0.3,0.2-0.4,0.4c-0.2,0.2-0.5,0.3-0.8,0.3
			c-1.5,0-3,0-4.5,0c-0.2,0-0.3,0.1-0.4,0.2c-1.2,1.9-1.7,4-1.3,6.3c0.5,2.7,1.9,4.8,4.2,6.3c1.8,1.1,3.7,1.5,5.8,1.3
			c0.5-0.1,1.1-0.2,1.6-0.3c0,0,0,0,0,0c0,0,0,0,0.1,0c0,0,0.1,0,0.1,0c0,0,0,0,0.1,0c0.1,0,0.1,0,0.2,0c0,0,0.1,0,0.2-0.1
			c0,0,0,0,0.1,0c0,0,0,0,0,0c0,0,0,0,0,0c0,0,0,0,0,0c0.5-0.2,1-0.5,1.4-0.8c0.1-0.1,0.2-0.1,0.3-0.2c0.1-0.1,0.2-0.2,0.3-0.2
			c0.1-0.1,0.2-0.2,0.3-0.3c0.1-0.1,0.2-0.2,0.3-0.3c0.1-0.1,0.1-0.1,0.2-0.2c0,0,0.1-0.1,0.1-0.1c0,0,0.1-0.1,0.1-0.1c0,0,0,0,0,0
			c0,0,0,0,0,0c0,0,0,0,0,0c0,0,0,0,0,0c0,0,0.1-0.1,0.1-0.1c0,0,0.1-0.1,0.1-0.1c0,0,0.1-0.1,0.1-0.1c0,0,0.1-0.1,0.1-0.1v0
			c0,0,0,0,0-0.1c0,0,0,0,0,0c0,0,0-0.1,0.1-0.1c0-0.1,0.1-0.1,0.1-0.2v0c0.1-0.1,0.2-0.2,0.2-0.3c0,0,0-0.1,0.1-0.1
			c0.1-0.1,0.1-0.2,0.2-0.3c0.1-0.1,0.1-0.3,0.2-0.4c0.2-0.4,0.4-0.8,0.6-1.2c0.1-0.1,0.1-0.3,0.1-0.4c0.1-0.3,0.2-0.6,0.2-0.8
			c0-0.1,0-0.2,0.1-0.3c0-0.2,0.1-0.4,0.1-0.6v0c0-0.2,0-0.4,0.1-0.6C28,16.1,28,15.9,28,15.7z M14.7,18.6c-0.1,0-0.2,0-0.2-0.1
			c-1.4-1-2.8-2-4.1-3c-0.2-0.1-0.2-0.2,0-0.3c0.5-0.3,0.5-0.3,0.9,0c0.6,0.5,1.2,0.9,1.9,1.4c0.1,0,0.1,0.1,0.2,0.1c0,0,0,0,0,0
			c-0.3-0.9-0.6-1.8-0.9-2.7c-0.1-0.2,0-0.3,0.1-0.4c0.4-0.3,0.4-0.3,0.6,0.2c0.5,1.5,0.9,3,1.4,4.5C14.7,18.4,14.7,18.5,14.7,18.6z
			 M15.5,15.6c-0.3,0.3-0.8,0.3-1.1,0c-0.5-0.5-0.6-1.6-0.2-2.2c0.1-0.2,0.3-0.3,0.5-0.4c0.4-0.2,0.8,0,0.9,0.4c0,0.1,0,0.2-0.1,0.2
			c-0.3,0.2-0.7,0.5-1,0.7c-0.2,0.1-0.2,0.2-0.1,0.4c0.2,0.3,0.5,0.5,0.8,0.5c0.3,0,0.5-0.3,0.6-0.7c0-0.1,0-0.1,0-0.2
			c0-0.1-0.1-0.2,0.1-0.2c0.1,0,0.1,0.1,0.1,0.2c0,0,0,0.1,0,0.1C16,14.9,15.9,15.3,15.5,15.6z M18.6,13.2c-0.3,0.2-0.6,0.4-0.9,0.6
			c0,0-0.1,0-0.1,0c0,0,0-0.1,0-0.1c0.2-0.2,0.2-0.4,0.1-0.6c-0.1-0.4-0.3-0.8-0.4-1.2c0-0.1-0.1-0.3-0.3-0.3
			c-0.2,0-0.3,0.1-0.3,0.3c-0.1,0.2-0.2,0.5-0.1,0.8c0.2,0.3,0.3,0.7,0.4,1.1c0.1,0.2,0.1,0.3,0.4,0.2c0,0,0.1,0,0.1,0
			c0,0,0,0.1,0,0.1c-0.3,0.2-0.6,0.4-0.9,0.6c0,0-0.1,0-0.1,0c0,0,0-0.1,0-0.1c0.2-0.1,0.2-0.3,0.1-0.5c-0.2-0.5-0.3-0.9-0.5-1.4
			c-0.1-0.1-0.1-0.3-0.3-0.1c0,0-0.1,0.1-0.1,0c0,0,0-0.1,0-0.1c0.1-0.2,0.3-0.5,0.4-0.6c0.2-0.2,0.2,0.1,0.2,0.1
			c0,0.1,0,0.1,0.1,0.1c0,0,0-0.1,0-0.1c0.1-0.2,0.1-0.4,0.3-0.6c0.3-0.4,0.7-0.4,0.9,0.1c0.2,0.4,0.3,0.8,0.5,1.3
			c0.1,0.2,0.1,0.5,0.4,0.3C18.6,13.1,18.6,13.2,18.6,13.2z M20.8,11.4c-0.1,0.2-0.3,0.5-0.5,0.7c-0.2,0.2-0.1-0.1-0.2-0.2
			c0-0.1,0-0.1-0.1-0.1c-0.1,0,0,0.1,0,0.1c-0.1,0.2-0.1,0.5-0.3,0.6c-0.3,0.4-0.7,0.3-0.9-0.1c-0.2-0.4-0.3-0.9-0.5-1.3
			c-0.1-0.2-0.1-0.5-0.4-0.3c0,0-0.1,0-0.1,0c0,0,0-0.1,0-0.1c0.2-0.1,0.4-0.3,0.6-0.4c0.1-0.1,0.1,0.1,0.2,0.1
			c0.2,0.5,0.3,0.9,0.5,1.4c0.1,0.2,0.1,0.4,0.3,0.4c0.3,0,0.3-0.2,0.4-0.4c0.1-0.2,0.1-0.4,0-0.6c-0.1-0.4-0.3-0.7-0.4-1.1
			c-0.1-0.2-0.1-0.3-0.3-0.2c0,0-0.1,0-0.1,0c0,0,0-0.1,0-0.1c0.2-0.1,0.3-0.3,0.5-0.4c0.1-0.1,0.1,0,0.2,0.1c0.2,0.5,0.4,1,0.5,1.4
			c0,0.1,0.1,0.2,0.1,0.3c0.1,0.1,0.1,0.3,0.3,0.1c0,0,0.1-0.1,0.1,0C20.8,11.3,20.8,11.3,20.8,11.4z M22.3,10.1
			c-0.1,0.4-0.3,0.7-0.7,0.9c-0.1,0.1-0.3,0.1-0.4,0.2c-0.1,0.1-0.1,0-0.1,0c-0.1-0.2-0.2-0.4-0.2-0.6c0-0.1,0-0.1,0-0.2
			c0.1,0,0.1,0,0.1,0.1c0,0,0.1,0.1,0.1,0.1c0.2,0.2,0.4,0.2,0.6,0c0.2-0.1,0.3-0.3,0.2-0.6c-0.1-0.3-0.3-0.3-0.5-0.3
			c-0.2,0-0.4,0.1-0.6,0c-0.2,0-0.3-0.1-0.4-0.3c-0.2-0.5,0-1.1,0.5-1.4c0.1,0,0.2,0,0.3-0.2c0.1-0.2,0.2-0.1,0.2,0
			c0.1,0.2,0.1,0.3,0.2,0.5c0,0.1,0,0.1,0,0.2c-0.1,0.1-0.1,0-0.2-0.1c-0.3-0.3-0.6-0.3-0.8,0c-0.2,0.3,0,0.6,0.3,0.6
			c0.1,0,0.3,0,0.5,0C22.1,9.2,22.4,9.6,22.3,10.1z M15,13.7c0.2-0.1,0.2-0.2,0-0.4c-0.1-0.2-0.4-0.2-0.6,0
			c-0.1,0.2-0.2,0.3-0.2,0.6c0,0.1,0,0.2,0.1,0.2c0.1,0.1,0.2-0.1,0.2-0.1C14.7,14,14.8,13.8,15,13.7z M15,13.4
			c-0.1-0.2-0.4-0.2-0.6,0c-0.1,0.2-0.2,0.3-0.2,0.6c0,0.1,0,0.2,0.1,0.2c0.1,0.1,0.2-0.1,0.2-0.1c0.2-0.1,0.3-0.2,0.5-0.3
			C15.2,13.6,15.2,13.5,15,13.4z M15,13.4c-0.1-0.2-0.4-0.2-0.6,0c-0.1,0.2-0.2,0.3-0.2,0.6c0,0.1,0,0.2,0.1,0.2
			c0.1,0.1,0.2-0.1,0.2-0.1c0.2-0.1,0.3-0.2,0.5-0.3C15.2,13.6,15.2,13.5,15,13.4z"/>
		<path fill-rule="evenodd" clip-rule="evenodd" fill="#FFFFFF" d="M5.8,18.5C6,18,6.2,17.5,6.3,17c0.4-1.1,0.7-2.2,1.1-3.3
			c0.1-0.2,0-0.3-0.1-0.4c-1.3-1-2.7-1.9-4-2.9c-0.1,0-0.1-0.1-0.2-0.2c0.1-0.1,0.2,0,0.3,0c1.6,0,3.2,0,4.9,0c0.3,0,0.3,0,0.2,0.3
			c-0.1,0.3-0.2,0.3-0.5,0.3c-0.9,0-1.7,0-2.6,0c-0.1,0-0.2,0-0.3,0c0.4,0.3,0.8,0.6,1.2,0.9c0.6,0.4,1.2,0.9,1.8,1.3
			c0.1,0.1,0.2,0.2,0.1,0.4c-0.5,1.4-1,2.9-1.4,4.3c-0.1,0.2-0.2,0.4-0.4,0.5C6.2,18.3,6,18.4,5.8,18.5C5.9,18.5,5.8,18.5,5.8,18.5z
			"/>
		<path fill-rule="evenodd" clip-rule="evenodd" fill="#FFFFFF" d="M10.3,5c0.3,0.8,0.5,1.6,0.8,2.3c0.3,0.8,0.5,1.6,0.8,2.5
			c0.1,0.2,0.1,0.4-0.1,0.6c-0.1,0.1-0.2,0.3-0.3,0.3c-0.1,0-0.1-0.2-0.2-0.4c-0.5-1.4-0.9-2.8-1.4-4.2c0-0.1-0.1-0.2,0-0.4
			C10.1,5.5,10.1,5.2,10.3,5C10.2,5,10.3,5,10.3,5z"/>
		<g>
			<path fill-rule="evenodd" clip-rule="evenodd" fill="#0167B2" d="M16.4,12.1C16.4,12.1,16.4,12.2,16.4,12.1
				C16.3,12.2,16.3,12.1,16.4,12.1C16.4,12.1,16.4,12.1,16.4,12.1z"/>
			<path fill-rule="evenodd" clip-rule="evenodd" fill="#0167B2" d="M20.1,11.9c0,0,0-0.1-0.1-0.1c0,0,0-0.1,0-0.1
				C20.1,11.7,20.1,11.8,20.1,11.9z"/>
		</g>
		<path fill-rule="evenodd" clip-rule="evenodd" fill="#FFFFFF" d="M20.1,11.9c0,0-0.1,0-0.1-0.1c0,0,0-0.1,0-0.1
			C20.1,11.7,20.1,11.8,20.1,11.9z"/>
		<path fill-rule="evenodd" clip-rule="evenodd" fill="#FFFFFF" d="M16.4,12.1C16.4,12.1,16.4,12.2,16.4,12.1
			C16.3,12.2,16.3,12.1,16.4,12.1C16.4,12,16.4,12.1,16.4,12.1z"/>
	</g>
	<g>
		<path fill="#FFFFFF" d="M16.3,32.6c0,0.9-0.2,1.5-0.6,1.9c-0.4,0.4-1,0.6-1.9,0.6c-0.8,0-1.4-0.2-1.8-0.6c-0.4-0.4-0.6-1-0.6-1.8
			v-3.8h0.6h0.6v3.8c0,0.4,0.1,0.8,0.3,1c0.2,0.2,0.5,0.3,0.9,0.3c0.4,0,0.7-0.1,0.9-0.3c0.2-0.2,0.3-0.5,0.3-1v-3.8h0.6h0.6V32.6z"
			/>
		<path fill="#FFFFFF" d="M18.9,29.9h-1.8v-0.5v-0.5H22v0.5v0.5h-1.8v5h-0.6h-0.6V29.9z"/>
		<path fill="#FFFFFF" d="M23.9,34.9h-0.6h-0.6v-6.1h0.9h0.9l1.1,4.8h0l1.1-4.8h0.9h0.9v6.1H28h-0.6v-5.1h0l-1.1,5.1h-0.6H25
			l-1.1-5.2h0V34.9z"/>
	</g>
</g>
</svg>
