<?xml version="1.0" encoding="utf-8"?>
<!-- Generator: Adobe Illustrator 18.1.0, SVG Export Plug-In . SVG Version: 6.00 Build 0)  -->
<svg version="1.1" id="图层_1" xmlns="http://www.w3.org/2000/svg" xmlns:xlink="http://www.w3.org/1999/xlink" x="0px" y="0px"
	 width="40px" height="40px" viewBox="0 0 40 40" style="enable-background:new 0 0 40 40;" xml:space="preserve">
<style type="text/css">
	.st0{fill:#0F893E;}
	.st1{opacity:0.35;}
	.st2{opacity:0.24;fill:#FFFFFF;}
	.st3{fill:#FFFFFF;}
</style>
<g>
	<path class="st0" d="M40,33.8c0,3.5-2.8,6.3-6.3,6.3H6.3C2.8,40,0,37.2,0,33.8V6.3C0,2.8,2.8,0,6.3,0h27.5C37.2,0,40,2.8,40,6.3
		V33.8z"/>
	<path class="st1" d="M40,6.3v27.5c0,3.4-2.8,6.3-6.3,6.3H6.3c-2,0-3.7-0.9-4.9-2.3c1.1,0.9,2.4,1.4,3.9,1.4h27.5
		c3.4,0,6.3-2.8,6.3-6.3V5.3c0-1.5-0.5-2.8-1.4-3.9C39.1,2.5,40,4.3,40,6.3z"/>
	<path class="st2" d="M38.6,2.3c-1.1-0.9-2.4-1.4-3.9-1.4H7.2c-3.4,0-6.3,2.8-6.3,6.3v27.5c0,1.5,0.5,2.8,1.4,3.9
		C0.9,37.5,0,35.7,0,33.8V6.3C0,2.8,2.8,0,6.3,0h27.5C35.7,0,37.5,0.9,38.6,2.3z"/>
	<g>
		<path class="st3" d="M7,16.9c0,0.2,0,0.3-0.1,0.5c0,0.1-0.1,0.3-0.2,0.4s-0.2,0.3-0.3,0.4s-0.3,0.2-0.4,0.3
			c-0.2,0.1-0.3,0.1-0.5,0.2s-0.4,0.1-0.6,0.1c-0.2,0-0.3,0-0.5,0c-0.2,0-0.3,0-0.4-0.1s-0.3-0.1-0.4-0.1s-0.3-0.1-0.5-0.2l0.3-1.1
			c0.1,0.1,0.2,0.1,0.4,0.1c0.1,0,0.3,0.1,0.4,0.1c0.1,0,0.3,0.1,0.4,0.1c0.1,0,0.3,0,0.4,0c0.1,0,0.2,0,0.3,0
			c0.1,0,0.2-0.1,0.2-0.1c0.1,0,0.1-0.1,0.1-0.1s0-0.1,0-0.2c0-0.1,0-0.1,0-0.2c0-0.1-0.1-0.1-0.1-0.1c-0.1,0-0.1-0.1-0.2-0.1
			c-0.1,0-0.2-0.1-0.4-0.1c-0.2,0-0.4-0.1-0.5-0.1S4.1,16.4,4,16.3c-0.1-0.1-0.2-0.1-0.3-0.2c-0.1-0.1-0.2-0.2-0.2-0.3
			c-0.1-0.1-0.1-0.2-0.1-0.4c0-0.1,0-0.3,0-0.5c0-0.3,0-0.5,0.1-0.7s0.2-0.4,0.4-0.6s0.4-0.3,0.6-0.4c0.2-0.1,0.5-0.1,0.8-0.1
			c0.4,0,0.7,0,1,0.1c0.3,0.1,0.6,0.1,0.8,0.2l-0.3,1c-0.1,0-0.2-0.1-0.3-0.1c-0.1,0-0.2-0.1-0.4-0.1c-0.1,0-0.2,0-0.4-0.1
			c-0.1,0-0.2,0-0.3,0c-0.1,0-0.2,0-0.3,0c-0.1,0-0.1,0-0.2,0.1c-0.1,0-0.1,0.1-0.1,0.1c0,0.1,0,0.1,0,0.2c0,0.1,0,0.1,0,0.2
			c0,0.1,0,0.1,0.1,0.1c0,0,0.1,0.1,0.2,0.1c0.1,0,0.2,0.1,0.4,0.1c0.2,0.1,0.4,0.1,0.6,0.2c0.2,0.1,0.3,0.1,0.5,0.2
			c0.1,0.1,0.2,0.1,0.3,0.2c0.1,0.1,0.1,0.2,0.2,0.3C7,16.3,7,16.4,7,16.5C7,16.7,7,16.8,7,16.9z"/>
		<path class="st3" d="M10.8,18.7l-0.4-1.2H8.9l-0.4,1.2H7.2l1.9-5.3H10c0.2,0,0.4,0.1,0.5,0.4l1.8,5H10.8z M9.2,16.6h1l-0.4-1.4
			c0-0.1,0-0.1,0-0.2c0-0.1,0-0.1,0-0.2c0,0.1,0,0.1,0,0.2c0,0.1,0,0.1-0.1,0.2L9.2,16.6z"/>
		<path class="st3" d="M16.2,18.7l-2.1-2.8C14,15.8,14,15.7,14,15.7c0,0-0.1-0.1-0.1-0.1v3.1h-1.2v-5.3h1.1l2.1,3
			c0,0,0.1,0.1,0.1,0.1c0,0,0,0.1,0.1,0.1s0,0,0,0.1c0,0,0,0,0,0v-3.3h1.2v5.3H16.2z"/>
		<path class="st3" d="M22.1,18.4c-0.2,0.1-0.3,0.1-0.5,0.2c-0.2,0-0.4,0.1-0.6,0.1c-0.2,0-0.4,0-0.6,0c-0.4,0-0.7,0-1-0.1
			c-0.3-0.1-0.5-0.3-0.7-0.5c-0.2-0.2-0.4-0.5-0.5-0.8S18,16.6,18,16.1c0-0.5,0.1-0.9,0.2-1.2c0.1-0.4,0.3-0.6,0.5-0.9
			c0.2-0.2,0.5-0.4,0.8-0.5s0.7-0.2,1.1-0.2c0.1,0,0.2,0,0.4,0s0.2,0,0.3,0c0.1,0,0.2,0,0.3,0s0.2,0,0.3,0.1s0.2,0,0.3,0.1
			c0.1,0,0.2,0.1,0.3,0.1l-0.3,1c-0.1,0-0.2-0.1-0.3-0.1c-0.1,0-0.2-0.1-0.3-0.1s-0.2,0-0.3,0c-0.1,0-0.2,0-0.3,0
			c-0.2,0-0.4,0-0.5,0.1c-0.2,0.1-0.3,0.2-0.4,0.3s-0.2,0.3-0.3,0.5s-0.1,0.5-0.1,0.7c0,0.3,0,0.6,0.1,0.8c0.1,0.2,0.1,0.4,0.3,0.5
			c0.1,0.1,0.2,0.2,0.4,0.3c0.2,0.1,0.3,0.1,0.5,0.1c0.1,0,0.1,0,0.2,0s0.1,0,0.1,0c0,0,0.1,0,0.1,0c0,0,0.1,0,0.1,0v-0.9h-0.8
			l0.1-0.9h2v2.4C22.4,18.3,22.2,18.3,22.1,18.4z"/>
		<path class="st3" d="M26.6,14.3h-2v1.2h1.8l-0.1,1h-1.8v2.1h-1.3v-5.3h3.4L26.6,14.3z"/>
		<path class="st3" d="M32,15.9c0,0.3,0,0.5-0.1,0.8c0,0.2-0.1,0.5-0.2,0.7s-0.2,0.4-0.4,0.6c-0.1,0.2-0.3,0.3-0.5,0.4
			s-0.4,0.2-0.6,0.3c-0.2,0.1-0.5,0.1-0.8,0.1c-0.3,0-0.5,0-0.7-0.1s-0.4-0.1-0.6-0.2c-0.2-0.1-0.3-0.2-0.5-0.3
			c-0.1-0.1-0.2-0.3-0.3-0.5c-0.1-0.2-0.2-0.4-0.2-0.7c0-0.3-0.1-0.5-0.1-0.9c0-0.4,0.1-0.8,0.2-1.2s0.3-0.6,0.5-0.9
			c0.2-0.2,0.5-0.4,0.8-0.5s0.7-0.2,1.1-0.2c0.3,0,0.5,0,0.7,0.1c0.2,0,0.4,0.1,0.6,0.2s0.3,0.2,0.5,0.3c0.1,0.1,0.2,0.3,0.3,0.5
			s0.2,0.4,0.2,0.7C32,15.3,32,15.6,32,15.9z M30.6,15.9c0-0.3,0-0.5-0.1-0.7c0-0.2-0.1-0.4-0.2-0.5s-0.2-0.2-0.3-0.3
			c-0.1-0.1-0.3-0.1-0.4-0.1c-0.2,0-0.3,0-0.4,0.1c-0.1,0.1-0.2,0.2-0.3,0.3s-0.2,0.3-0.2,0.5c0,0.2-0.1,0.5-0.1,0.7
			c0,0.3,0,0.6,0.1,0.8s0.1,0.4,0.2,0.5c0.1,0.1,0.2,0.2,0.3,0.3s0.3,0.1,0.4,0.1c0.2,0,0.4,0,0.5-0.1c0.1-0.1,0.2-0.2,0.3-0.3
			c0.1-0.1,0.1-0.3,0.2-0.5S30.6,16.2,30.6,15.9z"/>
		<path class="st3" d="M35.4,18.7l-0.9-1.9H34v1.9h-1.3v-5.3h1.9c0.3,0,0.6,0,0.9,0.1s0.4,0.2,0.6,0.3c0.2,0.1,0.3,0.3,0.4,0.5
			c0.1,0.2,0.1,0.4,0.1,0.7c0,0.3-0.1,0.5-0.2,0.8c-0.1,0.2-0.3,0.5-0.6,0.8l1.2,2.3H35.4z M35.2,14.9c0-0.1,0-0.2,0-0.3
			c0-0.1-0.1-0.1-0.1-0.2c-0.1-0.1-0.1-0.1-0.2-0.1c-0.1,0-0.2,0-0.4,0H34v1.5h0.9c0.1-0.1,0.1-0.2,0.1-0.2c0-0.1,0.1-0.1,0.1-0.2
			c0-0.1,0-0.1,0.1-0.2C35.2,15.1,35.2,15,35.2,14.9z"/>
	</g>
	<g>
		<path class="st3" d="M16.3,24.9H17h0.7l2.1,6.1h-0.7h-0.7l-0.4-1.2h-2.3l-0.4,1.2h-0.7h-0.7L16.3,24.9z M16.2,28.7h1.6L17,26.2h0
			L16.2,28.7z"/>
		<path class="st3" d="M25.8,28.8c-0.1,0.7-0.4,1.3-0.8,1.7s-1.1,0.6-1.8,0.6c-0.9,0-1.5-0.3-2-0.9c-0.5-0.6-0.8-1.3-0.8-2.3
			c0-1,0.3-1.8,0.8-2.4c0.5-0.6,1.2-0.9,2-0.9c0.7,0,1.3,0.2,1.8,0.6c0.5,0.4,0.8,0.9,0.8,1.6h-1.3c0-0.3-0.2-0.6-0.4-0.8
			c-0.2-0.2-0.5-0.3-0.9-0.3c-0.5,0-0.8,0.2-1.1,0.6c-0.3,0.4-0.4,0.9-0.4,1.6c0,0.6,0.1,1.2,0.4,1.5c0.3,0.4,0.6,0.5,1.1,0.5
			c0.4,0,0.7-0.1,0.9-0.3c0.2-0.2,0.4-0.5,0.4-0.9H25.8z"/>
	</g>
</g>
</svg>
