<?xml version="1.0" encoding="utf-8"?>
<!-- Generator: Adobe Illustrator 21.0.0, SVG Export Plug-In . SVG Version: 6.00 Build 0)  -->
<svg version="1.1" id="图层_1" xmlns="http://www.w3.org/2000/svg" xmlns:xlink="http://www.w3.org/1999/xlink" x="0px" y="0px"
	 width="40px" height="40px" viewBox="0 0 40 40" style="enable-background:new 0 0 40 40;" xml:space="preserve">
<style type="text/css">
	.st0{fill:#316BB4;}
	.st1{opacity:0.35;}
	.st2{opacity:0.24;fill:#FFFFFF;}
	.st3{fill:#FFFFFF;}
</style>
<g>
	<g>
		<g>
			<path class="st0" d="M40,33.8c0,3.5-2.7,6.2-6.2,6.2H6.3C2.9,40,0,37.2,0,33.8V6.3C0,2.8,2.9,0,6.3,0h27.5C37.3,0,40,2.8,40,6.3
				V33.8z"/>
		</g>
	</g>
	<g>
		<path class="st1" d="M40,6.3v27.5c0,3.4-2.8,6.3-6.3,6.3H6.3c-2,0-3.7-0.9-4.9-2.3c1.1,0.9,2.4,1.4,3.9,1.4h27.5
			c3.4,0,6.3-2.8,6.3-6.3V5.3c0-1.5-0.5-2.8-1.4-3.9C39.1,2.5,40,4.3,40,6.3z"/>
		<path class="st2" d="M38.6,2.3c-1.1-0.9-2.4-1.4-3.9-1.4H7.2c-3.4,0-6.3,2.8-6.3,6.3v27.5c0,1.5,0.5,2.8,1.4,3.9
			C0.9,37.5,0,35.7,0,33.8V6.3C0,2.8,2.8,0,6.3,0h27.5C35.7,0,37.5,0.9,38.6,2.3z"/>
	</g>
	<g>
		<path class="st3" d="M17.4,24.6h-0.7l-2,6.9h0.6h0.6l0.4-1.4h2.1l0.4,1.4h0.6h0.6l-2-6.9H17.4z M16.6,28.8l0.7-2.7l0.7,2.7H16.6z"
			/>
		<polygon class="st3" points="21.3,31.5 21.9,31.5 22.5,31.5 22.5,28.6 25,28.6 25,28 25,27.4 22.5,27.4 22.5,25.8 25.3,25.8 
			25.3,25.2 25.3,24.6 21.3,24.6 		"/>
		<path class="st3" d="M14.5,16.1c0.6,0.9,1.1,1.7,1.7,2.6c0.1,0.1,0.1,0.1,0.2,0.1c0.3,0,0.6,0,0.9,0c0.1,0,0.2,0,0.2-0.2
			c0-1.6,0-3.4,0-5c0,0,0-0.2,0-0.2c-0.4,0-0.9,0-1.2,0c0,1.3,0,2.2,0,3.2c-0.3-0.3-0.4-0.5-0.6-0.8c-0.4-0.6-0.8-1.2-1.2-1.8
			c-0.1-0.1-0.2-0.3-0.3-0.3c-0.3-0.1-1,0-1-0.1c0,1.8,0,3.5,0,5.3c0.3,0,0.7,0,1,0c0.1,0,0.2,0,0.2-0.2
			C14.3,17.8,14.4,17,14.5,16.1c-0.1-0.1-0.1-0.1-0.1-0.2c0,0,0,0,0,0C14.4,16,14.4,16.1,14.5,16.1z"/>
		<path class="st3" d="M35.6,16.6c0.4-0.2,0.7-0.4,0.9-0.8c0.3-0.6,0.3-1.3-0.1-1.7c-0.3-0.3-0.7-0.5-1.1-0.5
			c-0.8-0.1-1.6-0.1-2.3,0c-0.2,0-0.2,0.1-0.2,0.2c0,1.6,0,3.2,0,4.8c0,0,0,0.1,0,0.1c0,0,0,0.1,0,0.1c0.4,0,0.7,0,1.1,0
			c0-1.4,0-2.8,0-4.3c0.3,0,0.8-0.1,1.2,0.1c0.3,0.1,0.5,0.5,0.3,0.8c-0.2,0.4-0.6,0.6-1.1,0.6c-0.2,0-0.2,0-0.1,0.2
			c0,0,0,0.1,0,0.1c0.4,0.8,0.9,1.6,1.4,2.4c0,0,0.1,0.1,0.2,0.1c0.4,0,0.8,0,1.2,0c0,0,0.1,0,0.1,0C36.4,18.1,36,17.4,35.6,16.6z"
			/>
		<path class="st3" d="M29.7,13.6c-1.1-0.1-2,0.5-2.4,1.5c-0.3,0.8-0.3,1.6,0,2.4c0.7,1.6,2.8,1.9,4,0.7c0.5-0.5,0.7-1.2,0.7-1.9
			c0-0.2,0-0.4-0.1-0.6C31.8,14.5,30.9,13.6,29.7,13.6z M30.3,17.5c-0.3,0.4-0.7,0.6-1.2,0.4c-0.2-0.1-0.4-0.3-0.5-0.6
			c-0.3-0.7-0.3-1.3,0-2c0-0.1,0.1-0.2,0.2-0.3c0.4-0.5,1.1-0.5,1.5,0c0.2,0.3,0.4,0.8,0.4,1.3C30.6,16.7,30.6,17.1,30.3,17.5z"/>
		<path class="st3" d="M10.9,14.8c-0.1-0.2-0.2-0.5-0.3-0.7c-0.1-0.3-0.3-0.4-0.6-0.4c-0.3,0-0.7,0-1,0c-0.6,1.7-1.3,3.5-1.9,5.2
			c0.4,0,0.8,0,1.2,0c0,0,0.1-0.1,0.1-0.1c0.1-0.4,0.3-0.8,0.4-1.3c0-0.1,0.1-0.1,0.2-0.1c0.5,0,1,0,1.5,0c0.1,0,0.1,0,0.2,0.1
			c0.1,0.4,0.3,0.8,0.4,1.3c0,0.1,0.1,0.1,0.2,0.1c0.4,0,0.7,0,1.1,0c0,0,0.1,0,0.1,0c0,0,0-0.1,0-0.1
			C11.9,17.4,11.4,16.1,10.9,14.8z M9.2,16.3c0.2-0.3,0.3-0.9,0.5-1.4c0,0,0,0,0,0c0.2,0.5,0.3,1.1,0.5,1.4
			C9.9,16.3,9.6,16.3,9.2,16.3z"/>
		<path class="st3" d="M22.4,18.8c0.1,0,0.2-0.1,0.2-0.2c0-0.8,0-1.6,0-2.4c0,0,0-0.1,0-0.1c-0.6,0-1.2,0-1.8,0
			c-0.2,0-0.3,0.1-0.3,0.3c0,0.2,0,0.4,0,0.6c0,0.1,0,0,0.1,0c0.2,0,0.3-0.1,0.5-0.1c0.1,0,0.2,0,0.2,0c0,0.3,0,0.7,0,1
			c-0.3,0-0.6,0-1-0.1c-0.3-0.1-0.5-0.3-0.7-0.6c-0.3-0.6-0.2-1.3,0-1.9c0.2-0.3,0.4-0.6,0.8-0.7c0.4-0.1,0.8-0.1,1.2-0.1
			c0.2,0,0.4,0,0.6,0c0-0.3,0.1-0.5,0.1-0.8c0,0,0,0-0.1,0c-0.6-0.2-1.3-0.2-1.9-0.1c-0.8,0.1-1.4,0.5-1.8,1.2
			c-0.4,0.6-0.4,1.3-0.3,2c0.1,1.1,0.8,1.8,2,2C20.9,19,21.6,18.9,22.4,18.8z"/>
		<path class="st3" d="M6.1,16c-0.4-0.2-0.8-0.4-1.2-0.6c-0.1-0.1-0.3-0.2-0.4-0.3c-0.1-0.2-0.1-0.4,0.1-0.5c0.1,0,0.2-0.1,0.2-0.1
			c0.3,0,0.6,0,0.9,0c0.2,0,0.4,0,0.6,0.1c0-0.3,0.1-0.6,0.1-0.9c-0.6-0.2-1.7-0.3-2.3-0.1c-0.6,0.2-0.9,0.6-1,1.2
			c-0.1,0.6,0.1,1.1,0.6,1.4c0.3,0.2,0.6,0.3,0.9,0.5c0.2,0.1,0.4,0.2,0.6,0.4c0.2,0.1,0.2,0.4,0,0.5c-0.1,0-0.1,0.1-0.2,0.1
			c-0.4,0.1-0.7,0.1-1.1,0c-0.2,0-0.5-0.1-0.7-0.2c0,0.3,0,0.6-0.1,0.9c0,0.1,0,0.1,0.1,0.2c0.3,0.1,0.6,0.2,0.9,0.2
			c0.6,0.1,1.2,0,1.7-0.2c0.6-0.3,0.8-0.8,0.9-1.4C6.8,16.7,6.6,16.3,6.1,16z"/>
		<path class="st3" d="M24.4,14.7c0,0,0.2,0,0.3,0c0.6,0,1.2-0.1,1.7,0c0.1,0,0.1-0.1,0.1-0.2c0-0.2,0-0.5,0-0.7
			c0-0.1,0-0.2-0.2-0.2c-1,0-1.9,0-2.8,0c0,0-0.1,0-0.1,0c0,1.7,0,3.5,0,5.2c0.3,0,0.6,0,1,0c0.1,0,0,0,0-0.1c0-0.6-0.1-1.2-0.1-1.8
			c0-0.1,0-0.1,0-0.1c0.6,0,1.3,0,2.2,0c0-0.3,0-0.6,0-0.9c-0.9,0-1.6,0-2.2,0C24.4,15.3,24.4,15,24.4,14.7z"/>
	</g>
</g>
</svg>
