<?xml version="1.0" encoding="utf-8"?>
<!-- Generator: Adobe Illustrator 21.0.0, SVG Export Plug-In . SVG Version: 6.00 Build 0)  -->
<svg version="1.1" id="图层_1" xmlns="http://www.w3.org/2000/svg" xmlns:xlink="http://www.w3.org/1999/xlink" x="0px" y="0px"
	 width="40px" height="40px" viewBox="0 0 40 40" style="enable-background:new 0 0 40 40;" xml:space="preserve">
<style type="text/css">
	.st0{fill:#074739;}
	.st1{opacity:0.35;}
	.st2{opacity:0.24;fill:#FFFFFF;}
	.st3{fill:#FFFFFF;}
</style>
<g>
	<path class="st0" d="M40,33.8c0,3.5-2.7,6.2-6.2,6.2H6.3C2.9,40,0,37.2,0,33.8V6.3C0,2.8,2.9,0,6.3,0h27.5C37.3,0,40,2.8,40,6.3
		V33.8z"/>
</g>
<g>
	<path class="st1" d="M40,6.3v27.5c0,3.4-2.8,6.3-6.3,6.3H6.3c-2,0-3.7-0.9-4.9-2.3c1.1,0.9,2.4,1.4,3.9,1.4h27.5
		c3.4,0,6.3-2.8,6.3-6.3V5.3c0-1.5-0.5-2.8-1.4-3.9C39.1,2.5,40,4.3,40,6.3z"/>
	<path class="st2" d="M38.6,2.3c-1.1-0.9-2.4-1.4-3.9-1.4H7.2c-3.4,0-6.3,2.8-6.3,6.3v27.5c0,1.5,0.5,2.8,1.4,3.9
		C0.9,37.5,0,35.7,0,33.8V6.3C0,2.8,2.8,0,6.3,0h27.5C35.7,0,37.5,0.9,38.6,2.3z"/>
</g>
<g>
	<path class="st3" d="M22.5,18.3c0.8,0,1.5,0,2.3,0c-0.1,0-0.1-0.1-0.2-0.1c-1.4-0.5-2.8-0.8-4.3-0.9c-1.6-0.1-3.2,0-4.7,0.6
		c-1.6,0.6-3.1,1.5-4.3,2.8c-0.3,0.3-0.5,0.7-0.3,1.1c0,0,0,0.1,0,0.1c0.1,0.4,0.1,0.8,0.2,1.2c0.1-0.1,0.2-0.2,0.3-0.3
		c1.1-1.3,2.5-2.3,4-3C17.6,18.8,20,18.3,22.5,18.3z"/>
	<path class="st3" d="M15.2,17.4c1.9-0.6,3.9-0.8,6-0.7c0.3,0,0.5,0,0.8,0c0,0,0-0.1,0-0.1c-0.8-0.2-1.7-0.5-2.5-0.7
		c-1.2-0.3-2.5-0.4-3.8-0.2c-2,0.3-3.8,1.1-5.3,2.5c-0.1,0-0.1,0.1-0.1,0.2c0.1,0.5,0.2,1,0.4,1.5c0.3-0.3,0.6-0.5,0.9-0.7
		C12.6,18.5,13.8,17.8,15.2,17.4z"/>
	<path class="st3" d="M11.5,12.2c0-0.1,0-0.3,0-0.4c0,0,0,0,0.1,0c0.1,0.1,0.1,0.2,0.2,0.3c0.1,0.2,0.2,0.2,0.5,0.2
		c0.9-0.1,1.9-0.1,2.8,0c0.5,0,0.9,0.1,1.4,0.2c-0.1-0.1-0.2-0.1-0.3-0.1c-0.7-0.2-1.3-0.5-2-0.7c-1.8-0.5-3.5-0.5-5.2,0.3
		c-0.5,0.2-0.9,0.6-1.3,0.9c0,0-0.1,0.2-0.1,0.2c0.2,0.3,0.3,0.6,0.5,0.8c0,0,0,0,0,0c1-0.7,2-1.1,3.2-1.4
		C11.4,12.4,11.5,12.3,11.5,12.2z"/>
	<path class="st3" d="M12,10.8c0.7,0,1.5,0.1,2.2,0.1c0,0,0,0,0,0c-0.9-0.4-1.9-0.7-2.9-0.8c-1.1-0.1-2.2,0-3.2,0.6
		c-0.5,0.2-0.9,0.6-1.2,1c0.1,0.2,0.2,0.3,0.4,0.5c0.1,0.1,0.2,0.1,0.3,0.1c0.3-0.2,0.6-0.4,0.9-0.5C9.4,11,10.7,10.8,12,10.8z"/>
	<path class="st3" d="M14.2,15.5c1.7-0.4,3.5-0.5,5.2-0.3c0.1,0,0.1,0,0.2,0c-2-0.8-4.1-1.3-6.4-0.9c0.2,0.4,0.4,0.7,0.7,1.1
		C14,15.5,14,15.5,14.2,15.5z"/>
	<path class="st3" d="M12.6,15c-0.2-0.1-0.2,0-0.3,0.1c-0.3,0.3-0.5,0.7-0.8,1c0,0.1-0.1,0.1-0.2,0.2c0-0.4,0-0.8,0-1.3
		c-0.7,0.3-1.3,0.7-1.7,1.3c0,0-0.1,0.1-0.1,0.2c0.1,0.4,0.3,0.7,0.4,1.1c1.2-1,2.5-1.7,3.9-2.1C13.4,15.4,13,15.2,12.6,15z"/>
	<path class="st3" d="M22.8,17.2C22.8,17.2,22.8,17.2,22.8,17.2c1.1,0.4,2.1,0.6,3.1,0.4c1-0.1,1.9-0.5,2.6-1.3
		c0.4-0.5,0.6-1,0.8-1.7C27.5,16.7,25.3,17.3,22.8,17.2z"/>
	<path class="st3" d="M29.9,11.1c-0.3,0.1-0.6,0.2-0.8,0.2c-0.4,0.1-0.4,0.1-0.7-0.3c-0.1-0.2-0.2-0.4-0.4-0.6c0,0.4,0,0.6-0.1,0.9
		c0,0.2-0.1,0.3-0.2,0.3c-0.3,0.1-0.7,0.2-1,0.3c0.4,0.2,0.7,0.3,1,0.4c0.2,0.1,0.2,0.2,0.2,0.4c0,0.3,0,0.7,0,1
		c0.2-0.2,0.4-0.5,0.5-0.7c0.2-0.3,0.2-0.3,0.6-0.2c0.3,0.1,0.5,0.2,0.8,0.3c-0.2-0.3-0.3-0.6-0.5-0.9c-0.1-0.1-0.1-0.3,0-0.4
		C29.5,11.7,29.7,11.4,29.9,11.1z"/>
	<path class="st3" d="M20.5,15.6C20.6,15.6,20.6,15.6,20.5,15.6c0.2,0.1,0.3,0.1,0.5,0.2c1.1,0.4,2.3,0.5,3.4,0.2
		c1.1-0.3,1.9-1.1,2.3-2.2C24.9,15.4,22.8,15.8,20.5,15.6z"/>
	<path class="st3" d="M18.7,14.3c1.3,0.6,2.6,0.9,4,0.4c1-0.4,1.6-1.1,1.9-2c-0.8,0.8-1.7,1.3-2.7,1.5
		C20.9,14.4,19.8,14.4,18.7,14.3z"/>
	<path class="st3" d="M9.7,13.9C9.7,13.9,9.7,13.8,9.7,13.9c0.1-0.1,0.2-0.1,0.2-0.1c0.4-0.1,0.8-0.2,1.2-0.3
		c0.3-0.1,0.3-0.1,0.2-0.4c-0.2,0-0.3,0.1-0.4,0.1c-0.8,0.3-1.5,0.7-2.2,1.3c-0.1,0.1-0.1,0.2-0.1,0.2c0.1,0.3,0.3,0.6,0.4,0.9
		c0.6-0.4,1.2-0.8,1.8-1.1C10.5,14.2,10.1,14.1,9.7,13.9z"/>
	<path class="st3" d="M17.9,13.8C17.8,13.8,17.8,13.8,17.9,13.8c-1.2-0.6-2.3-0.9-3.6-1.1c-0.1,0-0.1,0-0.2,0
		c-0.2,0.3-0.5,0.6-0.7,0.9c0,0,0,0,0,0.1C14.9,13.5,16.4,13.6,17.9,13.8z"/>
	<path class="st3" d="M17.4,13c0.1,0,0.1,0.1,0.2,0.1c0.5,0.1,1,0.3,1.6,0.4c1.3,0.2,2.5-0.3,3.2-1.5c0.1-0.1,0.1-0.2,0.1-0.3
		c-0.7,0.6-1.5,1-2.4,1.2C19.2,13,18.3,13.1,17.4,13z"/>
	<path class="st3" d="M32.8,14.8c0.2-0.2,0.3-0.4,0.5-0.6c-0.3,0.1-0.5,0.1-0.8,0.2c-0.1,0-0.3,0-0.3-0.1c-0.1-0.2-0.2-0.3-0.4-0.5
		c0,0-0.1,0-0.1,0c0,0.2,0,0.4,0,0.6c0,0.2-0.1,0.3-0.2,0.3c-0.2,0.1-0.5,0.1-0.8,0.2c0.3,0.1,0.5,0.2,0.7,0.3
		c0.2,0.1,0.3,0.2,0.2,0.4c0,0.2,0,0.5,0,0.7c0.2-0.2,0.3-0.4,0.4-0.5c0.1-0.2,0.2-0.2,0.4-0.1c0.2,0.1,0.4,0.1,0.6,0.2
		c-0.1-0.2-0.2-0.4-0.3-0.6C32.7,15,32.7,14.9,32.8,14.8z"/>
	<path class="st3" d="M15.8,11.7c0.6,0.3,1.2,0.5,1.8,0.5c1,0.1,1.8-0.1,2.5-0.8c0.3-0.3,0.5-0.6,0.6-1.1
		C19.3,11.6,17.6,11.9,15.8,11.7z"/>
	<path class="st3" d="M19,9.5c-1.2,1-2.6,1.2-4.1,1.1C16.3,11.4,18.7,10.8,19,9.5z"/>
	<path class="st3" d="M12.3,12.7c0,0,0,0.1,0,0.1c0.1,0.1,0.2,0.2,0.3,0.2c0.4-0.1,0.7-0.2,1.1-0.3c0,0,0,0,0-0.1
		C13.2,12.7,12.8,12.7,12.3,12.7z"/>
	<polygon class="st3" points="14.6,24.5 14.6,30.3 15.1,30.3 15.6,30.3 15.6,24.5 15.1,24.5 	"/>
	<path class="st3" d="M19,24.5h-1.6h-0.5v5.8h0.5h0.5v-2.1h1.1c0.5,0,0.8-0.2,1.1-0.5c0.3-0.3,0.4-0.8,0.4-1.4
		c0-0.6-0.1-1.1-0.4-1.4C19.9,24.6,19.5,24.5,19,24.5z M19.4,27c-0.1,0.1-0.3,0.2-0.5,0.2h-1v-1.7h0.9c0.2,0,0.4,0.1,0.5,0.2
		c0.1,0.1,0.2,0.4,0.2,0.6C19.6,26.6,19.5,26.8,19.4,27z"/>
	<path class="st3" d="M23.6,26.8c-0.4-0.1-0.7-0.2-0.8-0.3c-0.1-0.1-0.2-0.2-0.2-0.4c0-0.2,0.1-0.4,0.2-0.5c0.2-0.1,0.4-0.2,0.6-0.2
		s0.5,0.1,0.7,0.2c0.2,0.2,0.3,0.4,0.3,0.7h1c0-0.6-0.2-1.1-0.5-1.4s-0.8-0.5-1.4-0.5c-0.6,0-1,0.2-1.3,0.5
		c-0.3,0.3-0.5,0.8-0.5,1.3c0,0.5,0.1,0.9,0.4,1.1c0.2,0.3,0.7,0.5,1.3,0.6c0.5,0.1,0.8,0.2,1,0.4c0.2,0.1,0.3,0.3,0.3,0.5
		c0,0.2-0.1,0.4-0.3,0.5c-0.2,0.1-0.4,0.2-0.7,0.2c-0.3,0-0.6-0.1-0.8-0.2c-0.2-0.2-0.3-0.4-0.3-0.7h-1c0,0.6,0.2,1.1,0.5,1.4
		c0.3,0.3,0.8,0.5,1.5,0.5c0.6,0,1.1-0.2,1.4-0.5c0.3-0.3,0.5-0.8,0.5-1.4c0-0.5-0.1-0.9-0.4-1.1C24.8,27.2,24.3,27,23.6,26.8z"/>
</g>
</svg>
