<?xml version="1.0" encoding="utf-8"?>
<!-- Generator: Adobe Illustrator 21.0.0, SVG Export Plug-In . SVG Version: 6.00 Build 0)  -->
<svg version="1.1" id="图层_1" xmlns="http://www.w3.org/2000/svg" xmlns:xlink="http://www.w3.org/1999/xlink" x="0px" y="0px"
	 width="40px" height="40px" viewBox="0 0 40 40" style="enable-background:new 0 0 40 40;" xml:space="preserve">
<style type="text/css">
	.st0{fill:#1F5FA3;}
	.st1{opacity:0.35;}
	.st2{opacity:0.24;fill:#FFFFFF;}
	.st3{fill:#FFFFFF;}
</style>
<g>
	<path class="st0" d="M40,33.8c0,3.5-2.7,6.2-6.2,6.2H6.3C2.9,40,0,37.2,0,33.8V6.3C0,2.8,2.9,0,6.3,0h27.5C37.3,0,40,2.8,40,6.3
		V33.8z"/>
</g>
<g>
	<path class="st1" d="M40,6.3v27.5c0,3.4-2.8,6.3-6.3,6.3H6.3c-2,0-3.7-0.9-4.9-2.3c1.1,0.9,2.4,1.4,3.9,1.4h27.5
		c3.4,0,6.3-2.8,6.3-6.3V5.3c0-1.5-0.5-2.8-1.4-3.9C39.1,2.5,40,4.3,40,6.3z"/>
	<path class="st2" d="M38.6,2.3c-1.1-0.9-2.4-1.4-3.9-1.4H7.2c-3.4,0-6.3,2.8-6.3,6.3v27.5c0,1.5,0.5,2.8,1.4,3.9
		C0.9,37.5,0,35.7,0,33.8V6.3C0,2.8,2.8,0,6.3,0h27.5C35.7,0,37.5,0.9,38.6,2.3z"/>
</g>
<g>
	<g>
		<path class="st3" d="M7.2,17.7H6.3L4.5,15c-0.1-0.1-0.2-0.3-0.2-0.3h0c0,0.1,0,0.4,0,0.7v2.4H3.5v-4.3h1l1.7,2.7
			c0.1,0.2,0.2,0.3,0.2,0.3h0c0-0.1,0-0.3,0-0.6v-2.4h0.9V17.7z"/>
		<path class="st3" d="M10.7,17.7H8.2v-4.3h2.4v0.7H9.1v1h1.4V16H9.1v1h1.6V17.7z"/>
		<path class="st3" d="M14.4,14.2h-1.2v3.5h-0.9v-3.5h-1.2v-0.7h3.3V14.2z"/>
		<path class="st3" d="M17.5,17.7H15v-4.3h2.4v0.7h-1.5v1h1.4V16h-1.4v1h1.6V17.7z"/>
		<path class="st3" d="M22,17.7h-0.9L19.3,15c-0.1-0.1-0.2-0.3-0.2-0.3h0c0,0.1,0,0.4,0,0.7v2.4h-0.9v-4.3h1l1.7,2.7
			c0.1,0.2,0.2,0.3,0.2,0.3h0c0-0.1,0-0.3,0-0.6v-2.4H22V17.7z"/>
		<path class="st3" d="M25.9,14.2h-1.2v3.5h-0.9v-3.5h-1.2v-0.7h3.3V14.2z"/>
		<path class="st3" d="M26.3,16.7c0.3,0.3,0.7,0.4,1.2,0.4c0.2,0,0.4,0,0.6-0.1s0.2-0.2,0.2-0.3c0-0.1,0-0.2-0.1-0.3
			c-0.1-0.1-0.4-0.2-0.8-0.4c-0.7-0.3-1-0.7-1-1.2c0-0.4,0.2-0.7,0.5-0.9c0.3-0.2,0.7-0.3,1.2-0.3c0.4,0,0.8,0.1,1,0.2v0.9
			c-0.3-0.2-0.6-0.3-1-0.3c-0.2,0-0.4,0-0.5,0.1c-0.1,0.1-0.2,0.2-0.2,0.3c0,0.1,0,0.2,0.1,0.3c0.1,0.1,0.3,0.2,0.7,0.4
			c0.4,0.2,0.7,0.4,0.9,0.6c0.2,0.2,0.2,0.4,0.2,0.7c0,0.4-0.1,0.7-0.4,0.9c-0.3,0.2-0.7,0.3-1.2,0.3c-0.5,0-0.9-0.1-1.2-0.2V16.7z"
			/>
		<path class="st3" d="M32.4,17.7h-2.5v-4.3h2.4v0.7h-1.5v1h1.4V16h-1.4v1h1.6V17.7z"/>
		<path class="st3" d="M36.5,17.7h-1.1l-1.3-1.9c0,0-0.1-0.1-0.1-0.2h0v2.1h-0.9v-4.3H34v2h0c0-0.1,0.1-0.2,0.1-0.2l1.2-1.8h1.1
			l-1.5,2L36.5,17.7z"/>
	</g>
	<g>
		<path class="st3" d="M15.6,22.3v4.3h-0.9v-4.3H15.6z"/>
		<path class="st3" d="M19.5,23.1h-1.2v3.5h-0.9v-3.5h-1.2v-0.7h3.3V23.1z"/>
		<path class="st3" d="M23.9,26.6V24c0-0.2,0-0.5,0-0.9h0c-0.1,0.3-0.1,0.5-0.1,0.5l-1,2.9h-0.7L21,23.7c0-0.1-0.1-0.3-0.1-0.6h0
			c0,0.4,0,0.7,0,1.1v2.4h-0.8v-4.3h1.3l0.9,2.6c0.1,0.2,0.1,0.4,0.2,0.6h0c0.1-0.2,0.1-0.4,0.2-0.6l0.9-2.6h1.3v4.3H23.9z"/>
	</g>
</g>
</svg>
