<?xml version="1.0" encoding="utf-8"?>
<!-- Generator: Adobe Illustrator 21.0.0, SVG Export Plug-In . SVG Version: 6.00 Build 0)  -->
<svg version="1.1" id="图层_1" xmlns="http://www.w3.org/2000/svg" xmlns:xlink="http://www.w3.org/1999/xlink" x="0px" y="0px"
	 width="40px" height="40px" viewBox="0 0 40 40" style="enable-background:new 0 0 40 40;" xml:space="preserve">
<style type="text/css">
	.st0{fill:#606060;}
</style>
<path class="st0" d="M6.1,15.8h4.3l1.4,3.6c0,0,16.7-14.6,26.2-3.6c-6.2-3.8-11-3.3-17.9,0.3c0,2.8,0,12.2,0,12.2h-3.6v-9.7h-0.7
	l-3.3,2.9l2.2,6.8h-3.9L10,24.4l-2.9,3.9h-5L6.1,15.8z M8.2,19l-1.4,5.4l2.5-2.5L8.2,19z M21.5,16.1h4.3l1.8,2.9l1.8-2.9h4.3
	l-3.9,5.4v1.1l3.9,5.7h-4.3l-2.2-3.6L25,28.3h-4.2l4.3-6.1v-0.7L21.5,16.1z"/>
</svg>
