<?xml version="1.0" encoding="utf-8"?>
<!-- Generator: Adobe Illustrator 21.0.0, SVG Export Plug-In . SVG Version: 6.00 Build 0)  -->
<svg version="1.1" id="图层_1" xmlns="http://www.w3.org/2000/svg" xmlns:xlink="http://www.w3.org/1999/xlink" x="0px" y="0px"
	 width="40px" height="40px" viewBox="0 0 40 40" style="enable-background:new 0 0 40 40;" xml:space="preserve">
<style type="text/css">
	.st0{fill:#606060;}
</style>
<g>
	<path class="st0" d="M8.6,11.7c0.2-0.3,0.7-0.3,0.9,0c0.1,0.1,6.1,5.6,13.6,7.1c5.2,1,10.3,1.5,13.1,1.7c-0.1-0.9-0.9-1-3.4-2.2
		c-1.5-0.7-3.8-2.1-6.2-3.5c-1.5,1.2-3.5,2-4,2.1l0,0c-0.3,0.1-0.7-0.1-0.8-0.5c-0.1-0.3,0.1-0.7,0.4-0.8l0,0c0.1,0,1-0.4,2.1-0.9
		c0.4-0.2,0.8-0.5,1.1-0.7c-0.6-0.3-1.2-0.7-1.8-1c-0.8,0.4-1.7,0.7-2.5,1c-1.4,0.5-2.7,0.8-2.8,0.9c-0.3,0.1-0.7-0.1-0.7-0.5
		c-0.1-0.3,0.1-0.7,0.4-0.8c0,0,2.2-0.6,4.2-1.4c-1-0.5-1.9-0.9-2.7-1.2C15.8,9.7,10.8,9.4,8,10.6L4.9,7C4.7,6.8,4.4,6.8,4.1,7
		C3.8,7.2,3.8,7.6,4,7.8l3.1,3.6c0,0-2.1,8.1,9,11.5c9.8,3,17.7,0.6,19.6-1.1C32.9,21.5,28,21,22.9,20c-7.9-1.5-14-7.1-14.2-7.3
		C8.4,12.4,8.4,12,8.6,11.7z"/>
	<path class="st0" d="M11.2,31.5H9.8l-0.5-1.4H6.8l-0.5,1.4H5l2.4-6.2h1.3L11.2,31.5z M8.9,29L8,26.7L7.2,29H8.9z"/>
	<path class="st0" d="M11.8,27h1.1v0.7c0.1-0.2,0.3-0.4,0.6-0.5c0.2-0.2,0.5-0.3,0.8-0.3c0.5,0,1,0.2,1.3,0.6c0.4,0.4,0.5,1,0.5,1.7
		c0,0.8-0.1,1.3-0.5,1.8c-0.4,0.4-0.8,0.6-1.3,0.6c-0.2,0-0.5,0-0.7-0.1c-0.2-0.1-0.4-0.3-0.6-0.5v2.3h-1.2V27L11.8,27z M12.9,29.2
		c0,0.5,0.1,0.9,0.3,1.1s0.4,0.4,0.7,0.4c0.3,0,0.5-0.1,0.7-0.3c0.2-0.2,0.3-0.6,0.3-1.1s-0.1-0.8-0.3-1c-0.2-0.2-0.4-0.3-0.7-0.3
		c-0.3,0-0.5,0.1-0.7,0.3S12.9,28.7,12.9,29.2z"/>
	<path class="st0" d="M18,28.4l-1.1-0.2c0.1-0.4,0.3-0.8,0.6-1s0.7-0.3,1.3-0.3c0.5,0,0.9,0.1,1.2,0.2c0.3,0.1,0.4,0.3,0.5,0.5
		s0.2,0.5,0.2,1.1v1.4c0,0.4,0,0.7,0.1,0.9c0,0.2,0.1,0.4,0.2,0.6h-1.2c0-0.1-0.1-0.2-0.1-0.3c0-0.1,0-0.1,0-0.1
		c-0.2,0.2-0.4,0.3-0.6,0.4s-0.5,0.1-0.7,0.1c-0.5,0-0.8-0.1-1.1-0.4c-0.3-0.3-0.4-0.6-0.4-0.9s0.1-0.5,0.2-0.7s0.3-0.4,0.5-0.5
		c0.1-0.2,0.4-0.3,0.8-0.4c0.6-0.1,0.9-0.2,1.2-0.3v-0.1c0-0.2-0.1-0.4-0.2-0.5c-0.1-0.1-0.3-0.1-0.6-0.1c-0.2,0-0.4,0-0.5,0.1
		C18.1,28,18,28.2,18,28.4z M19.5,29.3c-0.2,0.1-0.4,0.1-0.7,0.2c-0.3,0.1-0.5,0.1-0.6,0.2C18,29.8,18,30,18,30.1
		c0,0.2,0.1,0.3,0.2,0.4c0.1,0.1,0.3,0.2,0.5,0.2c0.2,0,0.4-0.1,0.6-0.2c0.1-0.1,0.2-0.2,0.3-0.4c0-0.1,0-0.3,0-0.6v-0.2H19.5z"/>
	<path class="st0" d="M25.8,28.3l-1.2,0.2c0-0.2-0.1-0.4-0.3-0.5c-0.1-0.1-0.3-0.2-0.5-0.2c-0.3,0-0.5,0.1-0.7,0.3
		c-0.2,0.2-0.3,0.5-0.3,1s0.1,0.9,0.3,1.1s0.4,0.3,0.7,0.3c0.2,0,0.4-0.1,0.6-0.2c0.1-0.1,0.2-0.3,0.3-0.7l1.2,0.2
		c-0.1,0.5-0.4,0.9-0.7,1.2c-0.3,0.3-0.8,0.4-1.4,0.4c-0.7,0-1.2-0.2-1.6-0.6c-0.4-0.4-0.6-1-0.6-1.7s0.2-1.3,0.6-1.7
		c0.4-0.4,0.9-0.6,1.6-0.6c0.5,0,1,0.1,1.3,0.4C25.4,27.5,25.6,27.8,25.8,28.3z"/>
	<path class="st0" d="M27.9,25.3v2.3c0.4-0.4,0.8-0.7,1.4-0.7c0.3,0,0.5,0.1,0.7,0.2s0.4,0.2,0.5,0.4s0.2,0.3,0.2,0.5
		s0.1,0.5,0.1,0.9v2.6h-1.2v-2.4c0-0.5,0-0.8-0.1-0.9c0-0.1-0.1-0.2-0.2-0.3c-0.1-0.1-0.3-0.1-0.4-0.1c-0.2,0-0.4,0-0.5,0.1
		C28.2,28,28,28.2,28,28.4c-0.1,0.2-0.1,0.5-0.1,0.9v2.2h-1.2v-6.2H27.9z"/>
	<path class="st0" d="M34.5,30.1l1.2,0.2c-0.2,0.4-0.4,0.8-0.7,1c-0.3,0.2-0.7,0.3-1.2,0.3c-0.8,0-1.4-0.3-1.7-0.8
		c-0.3-0.4-0.4-0.9-0.4-1.5c0-0.7,0.2-1.3,0.6-1.7c0.4-0.4,0.9-0.6,1.5-0.6c0.7,0,1.2,0.2,1.6,0.7c0.4,0.4,0.6,1.1,0.6,2h-3
		c0,0.4,0.1,0.6,0.3,0.8c0.2,0.2,0.4,0.3,0.7,0.3c0.2,0,0.3-0.1,0.5-0.2C34.4,30.4,34.5,30.3,34.5,30.1z M34.6,28.9
		c0-0.3-0.1-0.6-0.3-0.8c-0.2-0.2-0.4-0.3-0.6-0.3c-0.3,0-0.5,0.1-0.6,0.3c-0.2,0.2-0.3,0.4-0.2,0.8H34.6L34.6,28.9z"/>
</g>
</svg>
