<?xml version="1.0" encoding="utf-8"?>
<!-- Generator: Adobe Illustrator 21.0.0, SVG Export Plug-In . SVG Version: 6.00 Build 0)  -->
<svg version="1.1" id="图层_1" xmlns="http://www.w3.org/2000/svg" xmlns:xlink="http://www.w3.org/1999/xlink" x="0px" y="0px"
	 width="40px" height="40px" viewBox="0 0 40 40" style="enable-background:new 0 0 40 40;" xml:space="preserve">
<style type="text/css">
	.st0{fill:#606060;}
</style>
<g>
	<path class="st0" d="M10.5,16H8.3C7.5,16,7,16.5,7,16.5l-5,6.8h2l1.5-2h2.8l-0.3,2h1.8c0,0,1.3-5.5,1.5-6.5S10.5,16,10.5,16z
		 M8.7,20H6.2l2-2.8h1.3L8.7,20z"/>
	<path class="st0" d="M16.3,18h-3.8c-1.3,0-1.5,1-1.5,1l-1,6c1.5,0,1.5-0.8,1.5-0.8l0.2-0.8c0,0,2.3,0,3.3,0s1.3-1.3,1.3-1.3
		s0.3-1.7,0.5-3C17,17.8,16.3,18,16.3,18z M14.8,22.8H12l0.8-4h2.7L14.8,22.8z"/>
	<path class="st0" d="M21.5,19.2L21,22.8h-2.7c0,0,0.2-1.8,0.7-3.8s-1.2-1.7-1.2-1.7s-0.3,2.5-0.8,4.2c-0.3,1.7,0.5,1.7,0.5,1.7
		s1.7,0,3.5,0c1.3,0,1.5-1.3,1.5-1.3l0.8-4.5C21.8,17.5,21.5,19.2,21.5,19.2z"/>
	<path class="st0" d="M25.3,20c-0.3-0.8,0.3-1.3,0.3-1.3s2.5,0,3.3,0C29.5,18.8,30,18,30,18h-5c-2,0.8-1.5,3.3-1.5,3.3h3.8
		c0.3,0.8-0.3,1.3-0.3,1.3s-3,0-3.5,0s-1,0.8-1,0.8H28c0.8,0,1-3.3,1-3.3h-3.7V20z"/>
	<path class="st0" d="M30.3,18l-1,5.2c1.5,0,1.8-1,1.8-1l0.7-4.2C31.5,18,30.3,18,30.3,18z"/>
	<polygon class="st0" points="32.3,16 30.5,16 30.3,17.3 31.8,17.3 	"/>
	<path class="st0" d="M32.8,17.5c-1.3,2.8-1.3,5.8-1.3,5.8H37l-0.8-0.8h-3c-0.3-0.8,0.5-4,0.5-4s2.8,0,3.5,0s0.5-1,0.5-1H32.8z"/>
</g>
</svg>
