<?xml version="1.0" encoding="utf-8"?>
<!-- Generator: Adobe Illustrator 21.0.0, SVG Export Plug-In . SVG Version: 6.00 Build 0)  -->
<svg version="1.1" id="图层_1" xmlns="http://www.w3.org/2000/svg" xmlns:xlink="http://www.w3.org/1999/xlink" x="0px" y="0px"
	 width="40px" height="40px" viewBox="0 0 40 40" style="enable-background:new 0 0 40 40;" xml:space="preserve">
<style type="text/css">
	.st0{fill:#606060;}
</style>
<g>
	<g>
		<path class="st0" d="M10.8,11.4H8.6c-0.8,0-1.2,0.6-1.2,0.6l-4.7,6.5h1.9l1.5-2.2H9l-0.5,2.2H10c0,0,1.2-5.3,1.4-6.3
			C11.6,11.3,10.8,11.4,10.8,11.4z M9.2,15.1H6.8l2-2.5h1.1L9.2,15.1z"/>
		<path class="st0" d="M16.3,13.2h-3.4c-1.3,0-1.4,1.2-1.4,1.2l-1,5.7c1.5,0,1.5-0.7,1.5-0.7l0.2-0.8c0,0,2.1,0,3.1,0
			s1.2-1.2,1.2-1.2s0.3-1.8,0.6-3S16.3,13.2,16.3,13.2z M14.9,17.9h-2.6l0.8-3.8h2.6L14.9,17.9z"/>
		<path class="st0" d="M21.4,14.5l-0.5,3.4h-2.6c0,0,0.3-1.6,0.7-3.5c0.4-1.9-1.2-1.6-1.2-1.6s-0.3,2.3-0.7,4
			c-0.3,1.7,0.5,1.7,0.5,1.7s1.7,0,3.3,0c1.2,0,1.4-1.2,1.4-1.2l0.9-4.4C21.8,13,21.4,14.5,21.4,14.5z"/>
		<path class="st0" d="M25,15.1c-0.3-0.6,0.2-0.9,0.2-0.9s2.4,0,3.1,0s1.1-0.9,1.1-0.9h-4.8c-1.5,0.9-1,3.1-1,3.1h3.6
			c0.1,0.6-0.4,1.6-0.4,1.6s-2.8,0-3.3,0c-0.4,0-1,0.6-1,0.6h5.3c0.7,0,0.9-3.4,0.9-3.4H25V15.1z"/>
		<path class="st0" d="M29.7,13.2l-1.1,5.2c1.6,0,1.8-1,1.8-1l0.7-4.2H29.7z"/>
		<polygon class="st0" points="31.7,11.4 30.1,11.4 29.8,12.6 31.4,12.6 		"/>
		<path class="st0" d="M32.1,13c-1.3,2.6-1.2,5.6-1.2,5.6h5.3L35.5,18h-2.9c-0.3-0.9,0.5-3.8,0.5-3.8s2.7,0,3.3,0s0.7-1.2,0.7-1.2
			H32.1z"/>
	</g>
	<g>
		<path class="st0" d="M15,30.7h-0.6h-0.6v-6.1h0.9h0.9l1.1,4.8l0,0l1.1-4.8h0.9h0.9v6.1H19h-0.6v-5.1l0,0l-1.1,5.1h-0.6h-0.6
			L15,25.5l0,0V30.7z"/>
		<path class="st0" d="M25.9,31.1l-0.7-0.7c-0.4,0.3-1,0.4-1.6,0.4c-0.9,0-1.6-0.3-2.1-0.9s-0.8-1.3-0.8-2.3s0.3-1.8,0.8-2.4
			s1.2-0.9,2.1-0.9s1.6,0.3,2.1,0.9s0.8,1.4,0.8,2.4c0,0.9-0.2,1.6-0.6,2.1l0.7,0.6L25.9,31.1z M23.6,29.1l0.6-0.7l0.7,0.6
			c0.2-0.3,0.3-0.8,0.3-1.3c0-0.7-0.1-1.2-0.4-1.6s-0.7-0.6-1.2-0.6s-0.9,0.2-1.2,0.6C22.1,26.5,22,27,22,27.7s0.1,1.2,0.4,1.5
			c0.3,0.4,0.7,0.6,1.2,0.6c0.3,0,0.5,0,0.7-0.1L23.6,29.1z"/>
	</g>
</g>
</svg>
