<?xml version="1.0" encoding="utf-8"?>
<!-- Generator: Adobe Illustrator 21.0.0, SVG Export Plug-In . SVG Version: 6.00 Build 0)  -->
<svg version="1.1" id="图层_1" xmlns="http://www.w3.org/2000/svg" xmlns:xlink="http://www.w3.org/1999/xlink" x="0px" y="0px"
	 width="40px" height="40px" viewBox="0 0 40 40" style="enable-background:new 0 0 40 40;" xml:space="preserve">
<style type="text/css">
	.st0{fill:#606060;}
</style>
<g>
	<path class="st0" d="M6.2,16H7h0.8l2.4,8.1H9.5H8.8l-0.4-1.6H5.9L5.3,24H4.6H3.9L6.2,16z M6.1,21h1.7L7,17.8l0,0L6.1,21z"/>
	<path class="st0" d="M11,16h0.7h2.4c0.7,0,1.3,0.2,1.7,0.6s0.6,0.9,0.6,1.7c0,0.7-0.2,1.3-0.6,1.7c-0.1,0-0.2,0.1-0.3,0.2
		c0.1,0,0.1,0.1,0.2,0.1c0.4,0.3,0.6,0.9,0.6,1.6v0.9c0,0.3,0,0.6,0.1,0.7c0,0.1,0.1,0.2,0.2,0.3V24H15c0-0.2-0.1-0.4-0.1-0.6
		s0-0.5,0-0.8v-0.5c0-0.5-0.1-0.8-0.2-1c-0.2-0.1-0.4-0.2-0.8-0.2h-1.5V24h-0.7H11V16z M12.4,19.5H14c0.4,0,0.6-0.1,0.8-0.3
		c0.2-0.1,0.3-0.4,0.3-0.7s-0.1-0.7-0.3-0.9c-0.1-0.1-0.4-0.2-0.7-0.2h-1.7V19.5z"/>
	<path class="st0" d="M17.7,16h0.7h2.4c0.7,0,1.3,0.2,1.7,0.6c0.4,0.4,0.6,0.9,0.6,1.7c0,0.7-0.2,1.3-0.6,1.7
		c-0.1,0.1-0.2,0.2-0.4,0.3c0.1,0,0.1,0.1,0.2,0.1c0.4,0.3,0.6,0.9,0.6,1.6v0.9c0,0.3,0,0.6,0.1,0.7c0,0.1,0.1,0.2,0.2,0.3V24h-1.5
		c0-0.2-0.1-0.4-0.1-0.6c0-0.3,0-0.5,0-0.8v-0.5c0-0.5-0.1-0.8-0.2-1c-0.2-0.1-0.5-0.2-0.8-0.2h-1.5V24h-0.7h-0.7V16z M19.1,19.5
		h1.6c0.4,0,0.6-0.1,0.8-0.3c0.2-0.2,0.3-0.5,0.3-0.8s-0.2-0.6-0.3-0.8c-0.2-0.1-0.4-0.2-0.8-0.2h-1.6V19.5z"/>
	<path class="st0" d="M26.2,16H27h0.8l2.4,8.1h-0.7h-0.7l-0.4-1.6h-2.5L25.3,24h-0.7h-0.7L26.2,16z M26.1,21h1.7L27,17.8l0,0
		L26.1,21z"/>
	<path class="st0" d="M32.7,21l-2.3-5h0.8H32l1.4,3.6l0,0l1.4-3.6h0.8h0.8l-2.2,5v3h-0.7h-0.7L32.7,21L32.7,21z"/>
</g>
</svg>
