<?xml version="1.0" encoding="utf-8"?>
<!-- Generator: Adobe Illustrator 21.0.0, SVG Export Plug-In . SVG Version: 6.00 Build 0)  -->
<svg version="1.1" id="图层_1" xmlns="http://www.w3.org/2000/svg" xmlns:xlink="http://www.w3.org/1999/xlink" x="0px" y="0px"
	 width="40px" height="40px" viewBox="0 0 40 40" style="enable-background:new 0 0 40 40;" xml:space="preserve">
<style type="text/css">
	.st0{fill:#606060;}
</style>
<g>
	<g>
		<path class="st0" d="M2.3,29.3c0-1.9,0-3.7,0-5.5c0.9,0,1.9,0,2.8,0c0.6,0,1,0.4,1.1,1c0.2,0.7,0,1.1-0.7,1.6
			c0.8,0.5,1.1,1,0.9,1.8c-0.2,0.7-0.7,1.1-1.7,1.1C3.9,29.3,3.1,29.3,2.3,29.3z M3.3,28.4c0.5,0,0.9,0,1.4,0c0.4,0,0.8-0.3,0.8-0.7
			c0-0.5-0.3-0.8-0.8-0.8c-0.4,0-0.9,0-1.4,0C3.3,27.4,3.3,27.9,3.3,28.4z M3.3,26c0.5,0,0.9,0,1.4,0c0.4,0,0.6-0.3,0.6-0.7
			c0-0.4-0.2-0.7-0.6-0.7s-0.9,0-1.3,0C3.3,25.1,3.3,25.5,3.3,26z"/>
		<path class="st0" d="M10.9,26.9c0.3,0.8,0.6,1.5,0.9,2.3c-0.9,0.3-1,0.2-1.3-0.6c-0.2-0.4-0.3-0.8-0.5-1.2c0-0.2-0.3-0.4-0.5-0.4
			c-1.2,0-1-0.1-1,0.9c0,0.4,0,0.9,0,1.3c-0.4,0-0.6,0-1,0c0-1.8,0-3.6,0-5.5c1,0,2-0.1,3,0c0.6,0,1.1,0.4,1.3,1.1
			C12,25.7,11.8,26.2,10.9,26.9z M8.5,24.6c0,0.5,0,0.9,0,1.3c0,0.1,0.2,0.3,0.3,0.3c0.4,0,0.9,0,1.3,0c0.4-0.1,0.7-0.3,0.7-0.8
			s-0.3-0.8-0.8-0.8C9.6,24.5,9.1,24.6,8.5,24.6z"/>
		<path class="st0" d="M28.7,29.3c0-1.9,0-3.7,0-5.6c0.9,0,1.7-0.1,2.5,0c1.2,0.2,2,1.3,2,2.6c0,1.4-0.7,2.5-2,2.8
			C30.4,29.3,29.6,29.3,28.7,29.3z M29.7,28.4c1.1,0.2,1.7,0,2.1-0.7c0.5-0.7,0.4-2-0.1-2.7c-0.4-0.6-1.1-0.7-2-0.5
			C29.7,25.9,29.7,27.1,29.7,28.4z"/>
		<path class="st0" d="M17.5,26.7c-0.2,0.5-0.3,1.2-0.7,1.8c-0.9,1.4-2.9,1.3-3.7-0.1c-0.6-1.1-0.6-2.3-0.1-3.4
			c0.4-0.9,1.2-1.3,2.1-1.2c1,0.1,1.6,0.6,2,1.5C17.3,25.6,17.4,26,17.5,26.7z M13.7,26.5c0.1,0.5,0.2,0.9,0.3,1.4
			c0.2,0.4,0.5,0.7,1,0.7s0.9-0.2,1.1-0.7c0.3-0.9,0.3-1.8,0-2.7c-0.2-0.4-0.5-0.7-1-0.7s-0.9,0.2-1,0.7
			C13.9,25.6,13.8,26,13.7,26.5z"/>
		<path class="st0" d="M27.9,29.2c-1,0.1-1.1,0.1-1.3-0.8c-0.1-0.4-0.3-0.6-0.7-0.5c-0.1,0-0.3,0-0.4,0c-1.1,0-1.1,0-1.4,1
			c-0.2,0.6-0.6,0.3-1,0.3c0.1-0.2,0.1-0.3,0.1-0.5c0.5-1.5,1-3.1,1.5-4.6c0.1-0.4,0.4-0.5,0.7-0.5c0.3,0,0.7-0.1,0.8,0.4
			C26.7,25.8,27.3,27.5,27.9,29.2z M24.6,27.1c0.5,0,1,0,1.5,0c-0.2-0.8-0.5-1.5-0.8-2.3C25,25.7,24.8,26.4,24.6,27.1z"/>
		<path class="st0" d="M37.3,26.9c-0.6,0-1.3,0-2,0c0,0.5,0,1,0,1.5c0.8,0,1.6,0,2.5,0c0,0.3,0,0.6,0,0.9c-1,0-2,0-3,0
			c-0.2,0-0.3,0-0.5,0c0-1.8,0-3.7,0-5.5c1.2,0,2.3,0,3.5,0c0,0.3,0,0.5,0,0.8c-0.8,0-1.6,0-2.5,0c0,0.5,0,0.9,0,1.5
			c0.6,0,1.3,0,2,0C37.3,26.3,37.3,26.6,37.3,26.9z"/>
		<path class="st0" d="M21.6,27.4c0.3,0,0.6,0.1,0.8,0.1c0,0.9-0.5,1.6-1.3,1.8c-0.9,0.3-1.8,0-2.3-0.6c-0.9-1-0.9-3.1-0.1-4.2
			c0.5-0.7,1.4-1,2.3-0.8c0.8,0.2,1.3,0.9,1.4,1.9c-0.3,0-0.5,0.1-0.8,0.1c-0.1-0.2-0.1-0.4-0.2-0.6c-0.2-0.4-0.5-0.7-1-0.7
			c-0.3,0.1-0.8,0.3-0.9,0.6c-0.4,0.8-0.4,1.7-0.1,2.6c0.2,0.4,0.4,0.8,1,0.8c0.5,0,0.8-0.3,1-0.8C21.5,27.6,21.6,27.5,21.6,27.4z"
			/>
	</g>
	<g>
		<path class="st0" d="M12.7,20.4c2-2,4.3-3.6,7-4.7c-2.8-1-5-2.6-7-4.7c0.2,0,0.3,0,0.5,0c3.2,0,6.5,0,9.7,0c1.2,0,2.1,0.5,2.5,1.6
			c0.5,1.1,0.2,2.1-0.6,3c0,0-0.1,0.1,0,0c0.3,0.6,0.6,1.1,0.8,1.6c0.4,1.7-0.8,3.2-2.6,3.2c-3.4,0-6.7,0-10.1,0
			C12.9,20.4,12.9,20.4,12.7,20.4z M16.4,12.3c0.1,0.1,0.1,0.1,0.1,0.2c1.2,0.8,2.4,1.6,3.7,2c0.9,0.2,1.8,0.4,2.7,0.5
			c0.7,0.1,1.3-0.6,1.3-1.3s-0.5-1.3-1.3-1.3C20.8,12.3,18.6,12.3,16.4,12.3z M16.5,19.1c0.1,0,0.1,0,0.2,0c2,0,4,0,6,0
			c0.9,0,1.5-0.6,1.5-1.4c0-0.8-0.7-1.4-1.6-1.3C20.3,16.5,18.3,17.7,16.5,19.1z"/>
		<circle class="st0" cx="26.5" cy="11.5" r="0.9"/>
	</g>
</g>
</svg>
