<?xml version="1.0" encoding="utf-8"?>
<!-- Generator: Adobe Illustrator 21.0.0, SVG Export Plug-In . SVG Version: 6.00 Build 0)  -->
<svg version="1.1" id="图层_1" xmlns="http://www.w3.org/2000/svg" xmlns:xlink="http://www.w3.org/1999/xlink" x="0px" y="0px"
	 width="40px" height="40px" viewBox="0 0 40 40" style="enable-background:new 0 0 40 40;" xml:space="preserve">
<style type="text/css">
	.st0{fill:#606060;}
</style>
<g>
	<g>
		<path class="st0" d="M10.2,13.8c0-0.4-0.1-0.7-0.4-0.9c-0.2-0.2-0.5-0.3-0.9-0.3c-0.4,0-0.7,0-0.9,0.2s-0.3,0.4-0.3,0.8
			c0,0.2,0.1,0.4,0.3,0.6c0.2,0.1,0.6,0.3,1.1,0.4c1,0.3,1.7,0.6,2.1,0.9c0.4,0.4,0.6,0.9,0.6,1.6c-0.1,0.8-0.3,1.4-0.8,1.9
			s-1.1,0.7-2,0.7S7.4,19.5,7,19c-0.5-0.5-0.7-1.1-0.7-2h1.3c0,0.4,0.1,0.8,0.4,1c0.2,0.1,0.6,0.3,1,0.3s0.7-0.1,1-0.3
			c0.2-0.2,0.4-0.4,0.4-0.7c0-0.3-0.1-0.6-0.4-0.7c-0.2-0.2-0.7-0.3-1.3-0.5c-0.9-0.2-1.5-0.5-1.8-0.9c-0.3-0.3-0.5-0.9-0.5-1.6
			c0-0.8,0.2-1.4,0.7-1.8c0.4-0.4,1.1-0.7,1.8-0.7c0.8,0,1.4,0.2,1.9,0.7s0.7,1.1,0.7,1.9h-1.3V13.8z"/>
		<path class="st0" d="M14.6,19.4h-0.7h-0.6v-8.1H14h0.7l2.6,5.6v-5.6H18h0.7v8.1H18h-0.7l-2.7-5.8V19.4z"/>
		<path class="st0" d="M21.8,19.4h-0.7h-0.6v-8.1h1h1l1.2,6.4l0,0l1.2-6.4h1h1v8.1h-0.6h-0.6v-6.7l0,0l-1.2,6.7h-0.7H23l-1.2-6.8
			l0,0V19.4z"/>
		<path class="st0" d="M28.8,11.4h0.7h2.2c0.7,0,1.3,0.2,1.6,0.7c0.3,0.5,0.6,1.1,0.6,1.9s-0.2,1.4-0.6,1.9
			c-0.4,0.5-0.9,0.7-1.5,0.7h-1.6v2.9h-0.7h-0.7V11.4z M30.2,15.1h1.4c0.3,0,0.5-0.1,0.7-0.3c0.2-0.2,0.2-0.5,0.2-0.9
			c0-0.4-0.1-0.7-0.2-0.9c-0.1-0.2-0.4-0.3-0.8-0.3h-1.3C30.2,12.7,30.2,15.1,30.2,15.1z"/>
	</g>
	<g>
		<path class="st0" d="M8.1,26.7c-0.1,0.7-0.3,1.2-0.7,1.6C7,28.7,6.6,28.9,6,28.9c-0.7,0-1.2-0.3-1.6-0.8c-0.4-0.6-0.6-1.3-0.6-2.2
			c0-0.9,0.2-1.7,0.6-2.2c0.4-0.6,0.9-0.8,1.6-0.8c0.6,0,1,0.2,1.4,0.6C7.8,23.9,8,24.4,8.1,25h-1c0-0.3-0.1-0.6-0.3-0.8
			c-0.2-0.2-0.4-0.3-0.7-0.3c-0.4,0-0.7,0.2-0.9,0.5c-0.2,0.4-0.3,0.9-0.3,1.5c0,0.6,0.1,1.1,0.3,1.5c0.2,0.4,0.5,0.5,0.9,0.5
			c0.3,0,0.5-0.1,0.7-0.3s0.3-0.5,0.3-0.8L8.1,26.7L8.1,26.7z"/>
		<path class="st0" d="M9.7,28c-0.4-0.6-0.6-1.3-0.6-2.2c0-0.9,0.2-1.7,0.6-2.2c0.4-0.6,1-0.8,1.7-0.8s1.3,0.3,1.7,0.8
			c0.4,0.6,0.6,1.3,0.6,2.2c0,0.9-0.2,1.7-0.6,2.2c-0.4,0.6-1,0.8-1.7,0.8C10.7,28.9,10.1,28.6,9.7,28z M12.3,27.3
			c0.2-0.4,0.4-0.9,0.4-1.5c0-0.6-0.1-1.1-0.3-1.5c-0.2-0.4-0.5-0.5-0.9-0.5s-0.7,0.2-0.9,0.5c-0.2,0.4-0.3,0.9-0.3,1.5
			c0,0.6,0.1,1.1,0.3,1.5c0.2,0.4,0.5,0.5,0.9,0.5C11.8,27.8,12.1,27.6,12.3,27.3z"/>
		<path class="st0" d="M15.8,28.7h-0.5h-0.4v-5.8h0.7h0.7l0.9,4.6l0,0l0.8-4.6h0.7h0.7v5.8H19h-0.4v-4.9l0,0l-0.9,4.9h-0.5h-0.5
			l-0.9-4.9l0,0C15.8,23.8,15.8,28.7,15.8,28.7z"/>
		<path class="st0" d="M21.7,28.7h-0.4h-0.5v-5.8h0.7h0.7l0.9,4.6l0,0l0.8-4.6h0.7h0.7v5.8H25h-0.5v-4.9l0,0l-0.9,4.9h-0.5h-0.5
			l-0.9-4.9l0,0C21.7,23.8,21.7,28.7,21.7,28.7z"/>
		<path class="st0" d="M27.2,28c-0.4-0.6-0.6-1.3-0.6-2.2c0-0.9,0.2-1.7,0.6-2.2c0.4-0.6,1-0.8,1.7-0.8c0.7,0,1.3,0.3,1.7,0.8
			c0.4,0.6,0.6,1.3,0.6,2.2c0,0.9-0.2,1.7-0.6,2.2c-0.4,0.6-1,0.8-1.7,0.8C28.2,28.9,27.6,28.6,27.2,28z M29.8,27.3
			c0.2-0.4,0.4-0.9,0.4-1.5c0-0.6-0.1-1.1-0.3-1.5c-0.2-0.4-0.5-0.5-0.9-0.5s-0.7,0.2-0.9,0.5c-0.2,0.4-0.3,0.9-0.3,1.5
			c0,0.6,0.1,1.1,0.3,1.5c0.2,0.4,0.5,0.5,0.9,0.5C29.3,27.8,29.6,27.6,29.8,27.3z"/>
		<path class="st0" d="M33.3,28.7h-0.5h-0.5v-5.8h0.5h0.5l1.9,4v-4h0.5h0.5v5.8h-0.5h-0.5l-2-4.2v4.2H33.3z"/>
	</g>
</g>
</svg>
