<?xml version="1.0" encoding="utf-8"?>
<!-- Generator: Adobe Illustrator 21.0.0, SVG Export Plug-In . SVG Version: 6.00 Build 0)  -->
<svg version="1.1" id="图层_1" xmlns="http://www.w3.org/2000/svg" xmlns:xlink="http://www.w3.org/1999/xlink" x="0px" y="0px"
	 width="40px" height="40px" viewBox="0 0 40 40" style="enable-background:new 0 0 40 40;" xml:space="preserve">
<style type="text/css">
	.st0{fill:#606060;}
</style>
<g>
	<g>
		<path class="st0" d="M6.8,14.7c-0.1,0.6-0.3,1.1-0.6,1.5c-0.3,0.4-0.8,0.5-1.3,0.5c-0.6,0-1.1-0.2-1.4-0.7c-0.4-0.4-0.6-1-0.6-1.8
			c0-0.9,0.2-1.6,0.5-2.1s0.8-0.7,1.5-0.7c0.5,0,1,0.2,1.3,0.5c0.3,0.3,0.5,0.8,0.6,1.5H5.7c0-0.3-0.1-0.5-0.2-0.6
			c-0.1-0.2-0.3-0.2-0.5-0.2c-0.3,0-0.5,0.1-0.6,0.4c-0.3,0.1-0.3,0.5-0.3,1c0,0.6,0.1,1,0.2,1.3s0.4,0.4,0.7,0.4
			c0.2,0,0.4-0.1,0.5-0.2c0-0.3,0.1-0.5,0.1-0.8H6.8z"/>
		<path class="st0" d="M8.3,16c-0.3-0.5-0.5-1.1-0.5-1.9c0-0.8,0.2-1.5,0.6-2c0.4-0.5,0.9-0.7,1.6-0.7s1.2,0.2,1.6,0.7
			c0.2,0.5,0.4,1.1,0.4,2c0,0.8-0.2,1.4-0.5,1.9s-0.9,0.7-1.6,0.7C9.2,16.7,8.7,16.5,8.3,16z M10.6,15.2c0.2-0.2,0.3-0.6,0.3-1.1
			s-0.1-0.9-0.3-1.2c-0.2-0.3-0.4-0.4-0.7-0.4c-0.3,0-0.6,0.1-0.7,0.4c-0.2,0.3-0.3,0.6-0.3,1.2c0,0.5,0.1,0.9,0.2,1.1
			c0.2,0.3,0.4,0.4,0.7,0.4C10.2,15.6,10.5,15.5,10.6,15.2z"/>
		<path class="st0" d="M13.3,11.5h0.5h0.5v0.8c0-0.1,0.1-0.2,0.2-0.3c0.3-0.4,0.6-0.6,1-0.6s0.7,0.1,0.9,0.4
			c0.1,0.1,0.2,0.2,0.3,0.4l0.1-0.2c0.2-0.4,0.6-0.6,1-0.6c0.4,0,0.8,0.1,1,0.4c0.3,0.3,0.4,0.7,0.4,1.2v3.6h-0.5h-0.6v-3.3
			c0-0.3,0-0.5-0.1-0.6c-0.1-0.1-0.3-0.2-0.5-0.2s-0.4,0.1-0.5,0.3c-0.1,0.1-0.2,0.4-0.2,0.8v3h-0.6h-0.5v-3.2
			c0-0.3-0.1-0.5-0.2-0.7c-0.1-0.1-0.2-0.2-0.5-0.2c-0.2,0-0.4,0.1-0.5,0.3c-0.1,0.1-0.2,0.4-0.2,0.8v3h-0.5h-0.5V11.5z"/>
		<path class="st0" d="M20.7,11.5h0.5h0.5v0.8c0.1-0.1,0.2-0.2,0.2-0.3c0.3-0.4,0.6-0.6,1-0.6s0.7,0.1,0.9,0.4
			c0.2,0.1,0.3,0.2,0.3,0.4l0.2-0.2c0.2-0.4,0.6-0.6,1-0.6c0.4,0,0.8,0.1,1,0.4c0.3,0.3,0.4,0.7,0.4,1.2v3.6h-0.5h-0.6v-3.3
			c0-0.3-0.1-0.5-0.2-0.6c-0.1-0.1-0.2-0.2-0.4-0.2s-0.4,0.1-0.6,0.3c-0.1,0.2-0.2,0.4-0.2,0.8v3h-0.5h-0.6v-3.2
			c0-0.3-0.1-0.5-0.2-0.7s-0.3-0.2-0.5-0.2s-0.4,0.1-0.5,0.3c0,0.1-0.1,0.4-0.1,0.8v3h-0.6h-0.5V11.5z"/>
		<path class="st0" d="M28.5,16c-0.4-0.5-0.6-1.1-0.6-1.9c0-0.8,0.2-1.5,0.6-2s0.9-0.7,1.6-0.7s1.2,0.2,1.6,0.7
			c0.4,0.5,0.6,1.1,0.6,2c0,0.8-0.2,1.5-0.6,1.9c-0.4,0.5-0.9,0.7-1.6,0.7S28.9,16.5,28.5,16z M30.8,15.2C31,15,31,14.6,31,14.1
			s-0.1-0.9-0.3-1.2c-0.2-0.3-0.4-0.4-0.7-0.4c-0.3,0-0.6,0.1-0.7,0.4c-0.2,0.3-0.3,0.6-0.3,1.2c0,0.5,0.1,0.9,0.3,1.2
			c0.2,0.3,0.4,0.4,0.7,0.4C30.4,15.6,30.6,15.5,30.8,15.2z"/>
		<path class="st0" d="M33.4,11.5h0.5h0.5v0.8l0.2-0.3c0.3-0.4,0.7-0.7,1.1-0.7s0.8,0.2,1.1,0.5c0.3,0.3,0.4,0.7,0.4,1.2v3.6h-0.5
			h-0.6v-3.2c0-0.3-0.1-0.5-0.2-0.7c-0.1-0.2-0.3-0.2-0.5-0.2c-0.3,0-0.5,0.1-0.7,0.3c-0.2,0.2-0.2,0.6-0.2,1v2.8H34h-0.6V11.5z"/>
	</g>
	<g>
		<path class="st0" d="M2.9,21.4h0.5h0.5v0.8L4,22c0.3-0.5,0.7-0.7,1.3-0.7c0.5,0,1,0.2,1.3,0.7s0.5,1.2,0.5,2s-0.2,1.5-0.5,2
			s-0.7,0.7-1.3,0.7c-0.5,0-0.9-0.2-1.2-0.7v-0.1v2.7H3.5H2.9V21.4z M4.9,25.6c0.3,0,0.6-0.1,0.7-0.4c0.2-0.3,0.2-0.7,0.2-1.2
			s-0.1-0.9-0.2-1.2c-0.2-0.3-0.4-0.4-0.7-0.4c-0.3,0-0.5,0.1-0.7,0.4C4,23.1,4,23.5,4,24s0.1,0.9,0.2,1.2
			C4.4,25.5,4.6,25.6,4.9,25.6z"/>
		<path class="st0" d="M8.3,21.4h0.5h0.5v0.9L9.4,22c0.3-0.5,0.6-0.7,1-0.7c0.1,0,0.2,0,0.2,0v1.4c-0.1,0-0.2,0-0.3,0
			c-0.4,0-0.6,0.1-0.8,0.3c-0.2,0.2-0.3,0.5-0.3,1v2.7H8.6H8v-5.3H8.3z"/>
		<path class="st0" d="M12.2,26c-0.4-0.5-0.6-1.2-0.6-2s0.2-1.5,0.6-2c0.4-0.5,0.9-0.7,1.6-0.7s1.2,0.2,1.6,0.7
			c0.4,0.5,0.6,1.2,0.6,2s-0.2,1.5-0.6,2c-0.4,0.5-0.9,0.7-1.6,0.7S12.6,26.5,12.2,26z M14.6,25.2c0.2-0.3,0.3-0.7,0.3-1.2
			s-0.1-0.9-0.3-1.2c-0.2-0.3-0.4-0.4-0.8-0.4c-0.3,0-0.6,0.1-0.8,0.4c-0.2,0.3-0.3,0.7-0.3,1.2s0.1,0.9,0.3,1.2
			c0.2,0.3,0.4,0.4,0.8,0.4C14.1,25.6,14.4,25.5,14.6,25.2z"/>
		<path class="st0" d="M19.2,26.6c-0.2,0-0.4,0-0.7,0c-0.4,0-0.7-0.1-0.9-0.3c-0.2-0.2-0.3-0.5-0.3-0.9v-3.1h-0.5v-1h0.6V20h1.1v1.4
			h0.7v1h-0.7v2.9c0,0.2,0,0.2,0.1,0.3c0.1,0,0.2,0.1,0.4,0.1h0.2V26.6z"/>
		<path class="st0" d="M20.7,26c-0.4-0.5-0.6-1.2-0.6-2s0.2-1.5,0.6-2c0.4-0.5,0.9-0.7,1.6-0.7s1.2,0.2,1.6,0.7
			c0.4,0.5,0.6,1.2,0.6,2s-0.2,1.5-0.6,2c-0.4,0.5-0.9,0.7-1.6,0.7C21.7,26.7,21.1,26.5,20.7,26z M23.1,25.2
			c0.2-0.3,0.3-0.7,0.3-1.2s-0.1-0.9-0.3-1.2c-0.2-0.3-0.4-0.4-0.8-0.4c-0.3,0-0.6,0.1-0.8,0.4c-0.2,0.3-0.3,0.7-0.3,1.2
			s0.1,0.9,0.3,1.2c0.2,0.3,0.4,0.4,0.8,0.4C22.7,25.6,22.9,25.5,23.1,25.2z"/>
		<path class="st0" d="M29.5,24.7c-0.1,0.6-0.3,1.1-0.6,1.5c-0.4,0.4-0.8,0.6-1.3,0.6c-0.6,0-1.1-0.2-1.4-0.7
			c-0.3-0.5-0.5-1.1-0.5-1.9c0-0.9,0.2-1.6,0.5-2.1c0.4-0.5,0.9-0.8,1.5-0.8c0.6,0,1,0.2,1.3,0.5c0.3,0.3,0.5,0.8,0.6,1.5h-1.1
			c0-0.3-0.1-0.5-0.2-0.6c-0.1-0.2-0.3-0.2-0.5-0.2c-0.3,0-0.5,0.1-0.7,0.4c-0.2,0.3-0.2,0.6-0.2,1.1c0,0.6,0.1,1,0.2,1.3
			c0.1,0.3,0.4,0.4,0.7,0.4c0.2,0,0.4-0.1,0.5-0.2c0.1-0.2,0.2-0.4,0.2-0.7L29.5,24.7L29.5,24.7z"/>
		<path class="st0" d="M31.1,26c-0.4-0.5-0.6-1.2-0.6-2s0.2-1.5,0.6-2s0.9-0.7,1.6-0.7s1.2,0.2,1.6,0.7c0.4,0.5,0.6,1.2,0.6,2
			s-0.2,1.5-0.6,2c-0.4,0.5-0.9,0.7-1.6,0.7S31.4,26.5,31.1,26z M33.4,25.2c0.2-0.3,0.3-0.7,0.3-1.2s-0.1-0.9-0.3-1.2
			c-0.2-0.3-0.4-0.4-0.8-0.4c-0.3,0-0.6,0.1-0.8,0.4c-0.2,0.3-0.3,0.7-0.3,1.2s0.1,0.9,0.3,1.2c0.2,0.3,0.4,0.4,0.8,0.4
			C33,25.6,33.2,25.5,33.4,25.2z"/>
		<path class="st0" d="M36.1,19.6h0.6h0.6v7h-0.6h-0.6V19.6z"/>
	</g>
</g>
</svg>
