<?xml version="1.0" encoding="utf-8"?>
<!-- Generator: Adobe Illustrator 21.0.0, SVG Export Plug-In . SVG Version: 6.00 Build 0)  -->
<svg version="1.1" id="图层_1" xmlns="http://www.w3.org/2000/svg" xmlns:xlink="http://www.w3.org/1999/xlink" x="0px" y="0px"
	 width="40px" height="40px" viewBox="0 0 40 40" style="enable-background:new 0 0 40 40;" xml:space="preserve">
<style type="text/css">
	.st0{fill:#606060;}
</style>
<g>
	<g>
		<path class="st0" d="M8.1,26.6c-0.1,0.7-0.3,1.2-0.7,1.6C7,28.6,6.6,28.8,6,28.8c-0.7,0-1.2-0.3-1.6-0.8c-0.4-0.6-0.6-1.3-0.6-2.2
			c0-0.9,0.2-1.7,0.6-2.2C4.8,23,5.3,22.8,6,22.8c0.6,0,1,0.2,1.4,0.6c0.4,0.4,0.6,0.9,0.7,1.5h-1c0-0.3-0.1-0.6-0.3-0.8
			c-0.2-0.2-0.4-0.3-0.7-0.3c-0.4,0-0.7,0.2-0.9,0.5c-0.2,0.4-0.3,0.9-0.3,1.5c0,0.6,0.1,1.1,0.3,1.5c0.2,0.4,0.5,0.5,0.9,0.5
			c0.3,0,0.5-0.1,0.7-0.3s0.3-0.5,0.3-0.8h1V26.6z"/>
		<path class="st0" d="M9.7,27.9c-0.4-0.6-0.6-1.3-0.6-2.2c0-0.9,0.2-1.7,0.6-2.2c0.4-0.6,1-0.8,1.7-0.8s1.3,0.3,1.7,0.8
			c0.4,0.6,0.6,1.3,0.6,2.2c0,0.9-0.2,1.7-0.6,2.2c-0.4,0.6-1,0.8-1.7,0.8C10.7,28.8,10.1,28.5,9.7,27.9z M12.3,27.2
			c0.2-0.4,0.4-0.9,0.4-1.5c0-0.6-0.1-1.1-0.3-1.5c-0.2-0.4-0.5-0.5-0.9-0.5s-0.7,0.2-0.9,0.5c-0.2,0.4-0.3,0.9-0.3,1.5
			c0,0.6,0.1,1.1,0.3,1.5c0.2,0.4,0.5,0.5,0.9,0.5C11.8,27.7,12.1,27.5,12.3,27.2z"/>
		<path class="st0" d="M15.8,28.6h-0.5h-0.4v-5.8h0.7h0.7l0.9,4.6l0,0l0.8-4.6h0.7h0.7v5.8H19h-0.4v-4.9l0,0l-0.9,4.9h-0.5h-0.5
			l-0.9-4.9l0,0C15.8,23.7,15.8,28.6,15.8,28.6z"/>
		<path class="st0" d="M21.7,28.6h-0.4h-0.5v-5.8h0.7h0.7l0.9,4.6l0,0l0.8-4.6h0.7h0.7v5.8H25h-0.5v-4.9l0,0l-0.9,4.9h-0.5h-0.5
			l-0.9-4.9l0,0C21.7,23.7,21.7,28.6,21.7,28.6z"/>
		<path class="st0" d="M27.2,27.9c-0.4-0.6-0.6-1.3-0.6-2.2c0-0.9,0.2-1.7,0.6-2.2c0.4-0.6,1-0.8,1.7-0.8c0.7,0,1.3,0.3,1.7,0.8
			c0.4,0.6,0.6,1.3,0.6,2.2c0,0.9-0.2,1.7-0.6,2.2c-0.4,0.6-1,0.8-1.7,0.8C28.2,28.8,27.6,28.5,27.2,27.9z M29.8,27.2
			c0.2-0.4,0.4-0.9,0.4-1.5c0-0.6-0.1-1.1-0.3-1.5c-0.2-0.4-0.5-0.5-0.9-0.5s-0.7,0.2-0.9,0.5c-0.2,0.4-0.3,0.9-0.3,1.5
			c0,0.6,0.1,1.1,0.3,1.5c0.2,0.4,0.5,0.5,0.9,0.5C29.3,27.7,29.6,27.5,29.8,27.2z"/>
		<path class="st0" d="M33.3,28.6h-0.5h-0.5v-5.8h0.5h0.5l1.9,4v-4h0.5h0.5v5.8h-0.5h-0.5l-2-4.2v4.2H33.3z"/>
	</g>
</g>
<g>
	<path class="st0" d="M13,11.3h0.7h0.7V17c0,0.9-0.2,1.5-0.5,1.9c-0.4,0.4-0.9,0.6-1.6,0.6s-1.3-0.2-1.6-0.6s-0.5-1.1-0.5-2.1v-0.5
		h1.3v0.5c0,0.5,0.1,0.8,0.2,1.1c0.1,0.2,0.3,0.3,0.5,0.3c0.3,0,0.5-0.1,0.6-0.3c0.1-0.2,0.2-0.5,0.2-0.9V11.3z"/>
	<path class="st0" d="M17.5,19.3h-0.6h-0.6v-8.1h1h1l1.2,6.4l0,0l1.2-6.4h1h1v8.1H22h-0.6v-6.7l0,0l-1.3,6.7h-0.6h-0.7l-1.3-6.8l0,0
		V19.3z"/>
	<path class="st0" d="M26.1,15.2l-2-4h0.8h0.8l1.2,2.6l1.2-2.6h0.8h0.8l-2,3.9l2.2,4.2H29h-0.8l-1.3-2.7l-1.3,2.7h-0.8H24L26.1,15.2
		z"/>
</g>
</svg>
