<?xml version="1.0" encoding="utf-8"?>
<!-- Generator: Adobe Illustrator 21.0.0, SVG Export Plug-In . SVG Version: 6.00 Build 0)  -->
<svg version="1.1" id="图层_1" xmlns="http://www.w3.org/2000/svg" xmlns:xlink="http://www.w3.org/1999/xlink" x="0px" y="0px"
	 width="40px" height="40px" viewBox="0 0 40 40" style="enable-background:new 0 0 40 40;" xml:space="preserve">
<style type="text/css">
	.st0{fill:#606060;}
</style>
<g>
	<g>
		<path class="st0" d="M6.7,14.3c-0.1,0.6-0.3,1.1-0.6,1.5c-0.3,0.4-0.8,0.5-1.3,0.5c-0.6,0-1.1-0.2-1.4-0.7
			c-0.4-0.5-0.5-1.1-0.5-1.9c0-0.9,0.2-1.6,0.5-2.1s0.8-0.7,1.5-0.7c0.5,0,1,0.2,1.3,0.5c0.3,0.3,0.5,0.8,0.6,1.5H5.7
			c0-0.3-0.1-0.5-0.2-0.6C5.2,12.1,5.1,12,4.9,12c-0.3,0-0.5,0.1-0.6,0.4C4.1,12.7,4,13,4,13.5c0,0.6,0.1,1,0.2,1.3
			c0.1,0.2,0.4,0.4,0.7,0.4c0.2,0,0.4-0.1,0.5-0.2c0.1-0.2,0.2-0.4,0.2-0.7H6.7z"/>
		<path class="st0" d="M8.3,15.5c-0.4-0.5-0.6-1.1-0.6-2c0-0.8,0.2-1.5,0.6-2c0.4-0.5,0.9-0.7,1.6-0.7s1.2,0.2,1.6,0.7
			c0.4,0.5,0.5,1.3,0.5,2.1c0,0.8-0.2,1.5-0.6,2c-0.4,0.4-0.9,0.7-1.5,0.7C9.2,16.3,8.7,16,8.3,15.5z M10.6,14.7
			c0.2-0.3,0.3-0.7,0.3-1.2s-0.1-0.9-0.3-1.2c-0.2-0.1-0.4-0.3-0.7-0.3c-0.3,0-0.6,0.1-0.7,0.4c-0.2,0.3-0.3,0.7-0.3,1.2
			s0.1,0.9,0.3,1.2c0.1,0.2,0.3,0.3,0.7,0.3C10.2,15.1,10.4,15,10.6,14.7z"/>
		<path class="st0" d="M13.2,11h0.5h0.5v0.8c0.1-0.1,0.1-0.3,0.2-0.4c0.3-0.4,0.6-0.6,1-0.6c0.4,0,0.7,0.1,0.9,0.4
			c0.1,0.1,0.2,0.3,0.2,0.4l0.1-0.2c0.2-0.4,0.6-0.6,1-0.6s0.8,0.1,1,0.4c0.5,0.4,0.6,0.8,0.6,1.3v3.6h-0.5h-0.6v-3.3
			c0-0.3-0.1-0.5-0.2-0.6c0-0.1-0.2-0.2-0.4-0.2s-0.4,0.1-0.5,0.3c-0.2,0.2-0.2,0.4-0.2,0.8v3h-0.6h-0.5v-3.2c0-0.3-0.1-0.5-0.2-0.7
			C15.4,12.1,15.2,12,15,12s-0.4,0.1-0.5,0.3s-0.2,0.4-0.2,0.8v3h-0.5h-0.6V11z"/>
		<path class="st0" d="M20.7,11h0.5h0.5v0.8c0.1-0.1,0.1-0.3,0.2-0.4c0.3-0.4,0.6-0.6,1-0.6s0.7,0.1,0.9,0.4
			c0.1,0.1,0.2,0.3,0.2,0.4l0.1-0.2c0.2-0.4,0.6-0.6,1-0.6c0.4,0,0.8,0.1,1,0.4c0.3,0.3,0.4,0.7,0.4,1.2V16H26h-0.6v-3.2
			c0-0.3-0.1-0.5-0.2-0.6c0.1-0.1,0-0.2-0.2-0.2s-0.4,0.1-0.6,0.3c-0.1,0.2-0.2,0.4-0.2,0.8v3h-0.5h-0.6v-3.2c0-0.3-0.1-0.5-0.2-0.7
			c0-0.1-0.2-0.2-0.4-0.2s-0.4,0.1-0.5,0.3s-0.2,0.4-0.2,0.8v3h-0.5h-0.6V11z"/>
		<path class="st0" d="M28.5,15.5c-0.4-0.5-0.6-1.1-0.6-2c0-0.8,0.2-1.5,0.6-2s0.9-0.7,1.6-0.7s1.2,0.2,1.6,0.7
			c0.4,0.5,0.6,1.1,0.6,2c0,0.8-0.2,1.5-0.6,2c-0.4,0.5-0.9,0.7-1.6,0.7C29.4,16.3,28.9,16,28.5,15.5z M30.8,14.7
			c0.2-0.3,0.3-0.7,0.3-1.2s-0.1-0.9-0.3-1.2c-0.1-0.1-0.4-0.3-0.7-0.3s-0.6,0.1-0.7,0.4c-0.2,0.3-0.3,0.7-0.3,1.2s0.1,0.9,0.3,1.2
			c0.2,0.3,0.4,0.4,0.7,0.4S30.7,15,30.8,14.7z"/>
		<path class="st0" d="M33.5,11H34h0.5v0.8l0.1-0.2c0.3-0.4,0.7-0.7,1.1-0.7s0.8,0.2,1.1,0.5c0.3,0.3,0.4,0.7,0.4,1.2v3.6h-0.5h-0.6
			V13c0-0.3-0.1-0.5-0.2-0.7c-0.1-0.2-0.2-0.3-0.5-0.3c-0.3,0-0.5,0.1-0.7,0.3c-0.2,0.2-0.2,0.6-0.2,1v2.8H34h-0.6L33.5,11L33.5,11z
			"/>
	</g>
	<g>
		<path class="st0" d="M10,22.9c0-0.2-0.1-0.4-0.2-0.5c-0.1-0.1-0.3-0.2-0.6-0.2c-0.2,0-0.4,0-0.6,0.1c-0.1,0.1-0.2,0.2-0.2,0.4
			c0,0.1,0.1,0.2,0.2,0.3c0.1,0.1,0.4,0.2,0.7,0.3c0.8,0.2,1.3,0.4,1.6,0.7c0.3,0.3,0.4,0.6,0.4,1.1c0,0.6-0.2,1.1-0.6,1.4
			C10.4,26.9,9.8,27,9.2,27c-0.7,0-1.2-0.2-1.6-0.5S7,25.7,7,25.1h1.3c0,0.3,0.1,0.5,0.2,0.6c0.2,0.1,0.4,0.2,0.7,0.2
			s0.5-0.1,0.7-0.2c0.1-0.1,0.2-0.3,0.2-0.5c0-0.1-0.1-0.2-0.2-0.3c-0.2-0.1-0.4-0.2-0.9-0.3c-0.7-0.2-1.2-0.4-1.4-0.6
			c-0.3-0.2-0.4-0.6-0.4-1.1c0-0.6,0.2-1.1,0.5-1.4S8.5,21,9.1,21c0.6,0,1.1,0.2,1.5,0.5c0.3,0.3,0.5,0.8,0.6,1.4H10z"/>
		<path class="st0" d="M16.8,24.8c-0.1,0.7-0.3,1.2-0.7,1.6c-0.4,0.4-0.9,0.6-1.5,0.6c-0.7,0-1.2-0.2-1.6-0.7s-0.6-1.2-0.6-2.1
			c0-1,0.2-1.8,0.6-2.4c0.4-0.5,1-0.8,1.7-0.8c0.6,0,1.1,0.2,1.4,0.5c0.3,0.4,0.6,0.9,0.6,1.6h-1.2c0-0.3-0.1-0.5-0.3-0.7
			c-0.1-0.2-0.3-0.3-0.5-0.3c-0.3,0-0.5,0.1-0.7,0.4s-0.3,0.7-0.3,1.2c0,0.7,0.1,1.1,0.2,1.4c0.1,0.3,0.4,0.4,0.7,0.4
			c0.2,0,0.4-0.1,0.5-0.3c0.1-0.2,0.2-0.4,0.3-0.7h1.4V24.8z"/>
		<path class="st0" d="M18.1,21.2h0.6h0.6v1l0.2-0.3c0.3-0.6,0.6-0.9,1.1-0.9c0.1,0,0.2,0,0.3,0v1.5c-0.1,0-0.2,0-0.3,0
			c-0.4,0-0.7,0.1-0.9,0.3c-0.2,0.2-0.3,0.6-0.3,1v2.9h-0.7h-0.6V21.2z"/>
		<path class="st0" d="M22.1,21.2h0.6h0.6v5.7h-0.6h-0.6V21.2z M22.1,19.1h1.2v1.4h-1.2V19.1z"/>
		<path class="st0" d="M25.1,21.2h0.6h0.6V22l0.1-0.2c0.3-0.5,0.7-0.8,1.3-0.8c0.6,0,1,0.3,1.4,0.8c0.3,0.5,0.5,1.3,0.5,2.2
			s-0.2,1.6-0.5,2.2c-0.3,0.5-0.8,0.8-1.4,0.8s-1-0.3-1.4-0.8v-0.1V29h-0.6h-0.6V21.2z M27.3,25.8c0.3,0,0.6-0.1,0.8-0.4
			c0.2-0.3,0.3-0.7,0.3-1.3s-0.1-1-0.3-1.3c-0.2-0.3-0.4-0.4-0.8-0.4c-0.3,0-0.6,0.1-0.8,0.4c-0.2,0.3-0.3,0.7-0.3,1.3
			s0.1,1,0.3,1.3C26.7,25.7,26.9,25.8,27.3,25.8z"/>
		<path class="st0" d="M33.1,26.9c-0.2,0-0.5,0-0.8,0c-0.4,0-0.7-0.1-0.9-0.3c-0.2-0.2-0.3-0.5-0.3-1v-3.4h-0.6v-1h0.6v-1.5h1.2v1.5
			h0.8v1.1h-0.8v3.1c0,0.2,0,0.3,0.1,0.3c0.1,0.1,0.2,0.1,0.4,0.1h0.3C33.1,25.8,33.1,26.9,33.1,26.9z"/>
	</g>
</g>
</svg>
