<?xml version="1.0" encoding="utf-8"?>
<!-- Generator: Adobe Illustrator 21.0.0, SVG Export Plug-In . SVG Version: 6.00 Build 0)  -->
<svg version="1.1" id="图层_1" xmlns="http://www.w3.org/2000/svg" xmlns:xlink="http://www.w3.org/1999/xlink" x="0px" y="0px"
	 width="40px" height="40px" viewBox="0 0 40 40" style="enable-background:new 0 0 40 40;" xml:space="preserve">
<style type="text/css">
	.st0{fill:#606060;}
</style>
<g>
	<g>
		<path class="st0" d="M13.7,11.3h0.7h2.1c0.9,0,1.6,0.3,2.1,1s0.7,1.6,0.7,2.9s-0.2,2.3-0.7,3.1c-0.5,0.8-1.2,1-2.1,1h-2.1h-0.7
			V11.3z M15.1,17.9h1.4c0.5,0,0.8-0.2,1.1-0.7c0.3-0.5,0.4-1.1,0.4-2c0-0.9-0.1-1.5-0.4-2c-0.3-0.3-0.7-0.6-1.3-0.6h-1.2V17.9z"/>
		<path class="st0" d="M20.9,11.3h0.7H24c0.7,0,1.2,0.2,1.6,0.5c0.4,0.4,0.6,0.9,0.6,1.5c0,0.6-0.2,1.1-0.6,1.5
			c-0.1,0.1-0.2,0.1-0.2,0.2c0.2,0.1,0.3,0.2,0.4,0.3c0.4,0.4,0.6,0.9,0.6,1.6c0,0.8-0.2,1.3-0.6,1.8c-0.4,0.4-1,0.7-1.7,0.7h-2.5
			h-0.7V11.3z M22.3,14.4h1.6c0.3,0,0.6-0.1,0.8-0.2c0.2-0.1,0.3-0.4,0.3-0.7s-0.1-0.5-0.3-0.7c-0.2-0.1-0.5-0.2-0.9-0.2h-1.5
			C22.3,12.6,22.3,14.4,22.3,14.4z M22.3,17.9h1.8c0.3,0,0.6-0.1,0.7-0.3c0.1-0.2,0.2-0.4,0.2-0.7c0-0.4-0.1-0.6-0.3-0.8
			c-0.2-0.2-0.5-0.3-0.8-0.3h-1.6C22.3,15.8,22.3,17.9,22.3,17.9z"/>
	</g>
	<g>
		<path class="st0" d="M8.1,26.6c-0.1,0.7-0.3,1.2-0.7,1.6C7,28.6,6.6,28.8,6,28.8c-0.7,0-1.2-0.3-1.6-0.8c-0.4-0.6-0.6-1.3-0.6-2.2
			c0-0.9,0.2-1.7,0.6-2.2C4.8,23,5.3,22.8,6,22.8c0.6,0,1,0.2,1.4,0.6c0.4,0.4,0.6,0.9,0.7,1.5h-1c0-0.3-0.1-0.6-0.3-0.8
			c-0.2-0.2-0.4-0.3-0.7-0.3c-0.4,0-0.7,0.2-0.9,0.5c-0.2,0.4-0.3,0.9-0.3,1.5c0,0.6,0.1,1.1,0.3,1.5c0.2,0.4,0.5,0.5,0.9,0.5
			c0.3,0,0.5-0.1,0.7-0.3s0.3-0.5,0.3-0.8h1V26.6z"/>
		<path class="st0" d="M9.7,27.9c-0.4-0.6-0.6-1.3-0.6-2.2c0-0.9,0.2-1.7,0.6-2.2c0.4-0.6,1-0.8,1.7-0.8s1.3,0.3,1.7,0.8
			c0.4,0.6,0.6,1.3,0.6,2.2c0,0.9-0.2,1.7-0.6,2.2c-0.4,0.6-1,0.8-1.7,0.8C10.7,28.8,10.1,28.5,9.7,27.9z M12.3,27.2
			c0.2-0.4,0.4-0.9,0.4-1.5c0-0.6-0.1-1.1-0.3-1.5c-0.2-0.4-0.5-0.5-0.9-0.5s-0.7,0.2-0.9,0.5c-0.2,0.4-0.3,0.9-0.3,1.5
			c0,0.6,0.1,1.1,0.3,1.5c0.2,0.4,0.5,0.5,0.9,0.5S12.1,27.5,12.3,27.2z"/>
		<path class="st0" d="M15.8,28.6h-0.5h-0.4v-5.8h0.7h0.7l0.9,4.6l0,0l0.8-4.6h0.7h0.7v5.8H19h-0.4v-4.9l0,0l-0.9,4.9h-0.5h-0.5
			l-0.9-4.9l0,0C15.8,23.7,15.8,28.6,15.8,28.6z"/>
		<path class="st0" d="M21.7,28.6h-0.4h-0.5v-5.8h0.7h0.7l0.9,4.6l0,0l0.8-4.6h0.7h0.7v5.8H25h-0.5v-4.9l0,0l-0.9,4.9h-0.5h-0.5
			l-0.9-4.9l0,0C21.7,23.7,21.7,28.6,21.7,28.6z"/>
		<path class="st0" d="M27.2,27.9c-0.4-0.6-0.6-1.3-0.6-2.2c0-0.9,0.2-1.7,0.6-2.2c0.4-0.6,1-0.8,1.7-0.8c0.7,0,1.3,0.3,1.7,0.8
			c0.4,0.6,0.6,1.3,0.6,2.2c0,0.9-0.2,1.7-0.6,2.2c-0.4,0.6-1,0.8-1.7,0.8C28.2,28.8,27.6,28.5,27.2,27.9z M29.8,27.2
			c0.2-0.4,0.4-0.9,0.4-1.5c0-0.6-0.1-1.1-0.3-1.5c-0.2-0.4-0.5-0.5-0.9-0.5s-0.7,0.2-0.9,0.5c-0.2,0.4-0.3,0.9-0.3,1.5
			c0,0.6,0.1,1.1,0.3,1.5c0.2,0.4,0.5,0.5,0.9,0.5C29.3,27.7,29.6,27.5,29.8,27.2z"/>
		<path class="st0" d="M33.3,28.6h-0.5h-0.5v-5.8h0.5h0.5l1.9,4v-4h0.5h0.5v5.8h-0.5h-0.5l-2-4.2v4.2H33.3z"/>
	</g>
</g>
</svg>
