<?xml version="1.0" encoding="utf-8"?>
<!-- Generator: Adobe Illustrator 21.0.0, SVG Export Plug-In . SVG Version: 6.00 Build 0)  -->
<svg version="1.1" id="图层_1" xmlns="http://www.w3.org/2000/svg" xmlns:xlink="http://www.w3.org/1999/xlink" x="0px" y="0px"
	 width="40px" height="40px" viewBox="0 0 40 40" style="enable-background:new 0 0 40 40;" xml:space="preserve">
<style type="text/css">
	.st0{fill:#606060;}
</style>
<g>
	<g>
		<path class="st0" d="M6.7,14.9c0,0.6-0.2,1.1-0.6,1.4c-0.3,0.4-0.8,0.5-1.3,0.5c-0.6,0-1.1-0.2-1.4-0.7c-0.4-0.4-0.5-1-0.5-1.8
			c0-0.9,0.2-1.6,0.5-2.1s0.8-0.7,1.5-0.7c0.5,0,1,0.2,1.3,0.5s0.5,0.8,0.6,1.5H5.7c0-0.3-0.1-0.5-0.2-0.6c-0.1-0.2-0.3-0.2-0.5-0.2
			c-0.3,0-0.5,0.1-0.6,0.4c-0.3,0.2-0.4,0.5-0.4,1c0,0.6,0.1,1,0.2,1.3c0.1,0.3,0.4,0.4,0.7,0.4c0.2,0,0.4-0.1,0.5-0.2
			c0.1-0.2,0.2-0.4,0.2-0.7C5.6,14.9,6.7,14.9,6.7,14.9z"/>
		<path class="st0" d="M8.3,16.1c-0.4-0.5-0.6-1.1-0.6-2c0-0.8,0.2-1.5,0.6-2c0.4-0.5,0.9-0.7,1.6-0.7s1.2,0.2,1.6,0.7
			c0.3,0.6,0.5,1.3,0.5,2.1s-0.2,1.5-0.6,2c-0.4,0.4-0.9,0.7-1.5,0.7C9.2,16.9,8.7,16.6,8.3,16.1z M10.6,15.3
			c0.2-0.3,0.3-0.6,0.3-1.2c0-0.5-0.1-0.9-0.3-1.2c-0.2-0.3-0.4-0.4-0.7-0.4c-0.3,0-0.6,0.1-0.7,0.4c-0.2,0.3-0.3,0.7-0.3,1.2
			S9,15,9.2,15.3s0.4,0.4,0.7,0.4C10.2,15.7,10.4,15.6,10.6,15.3z"/>
		<path class="st0" d="M13.2,11.6h0.5h0.5v0.8c0.1-0.1,0.1-0.3,0.2-0.4c0.3-0.4,0.6-0.6,1-0.6c0.4,0,0.7,0.1,0.9,0.4
			c0.2,0.2,0.3,0.4,0.4,0.5l0.1-0.2c0.2-0.4,0.6-0.6,1-0.6c0.4,0,0.8,0.1,1,0.4c0.3,0.3,0.4,0.7,0.4,1.2v3.6h-0.5h-0.6v-3.3
			c0-0.2,0-0.4-0.1-0.6c-0.1-0.1-0.3-0.2-0.5-0.2s-0.4,0.1-0.5,0.3c-0.2,0.2-0.2,0.4-0.2,0.8v3.1h-0.6h-0.5v-3.3
			c0-0.3-0.1-0.5-0.2-0.7c-0.1-0.1-0.3-0.2-0.5-0.2s-0.4,0.1-0.5,0.3c-0.1,0.2-0.2,0.4-0.2,0.8v3.1h-0.5h-0.6V11.6z"/>
		<path class="st0" d="M20.7,11.6h0.5h0.5v0.8c0.1-0.1,0.1-0.3,0.2-0.4c0.3-0.4,0.6-0.6,1-0.6s0.7,0.1,0.9,0.4
			c0.2,0.2,0.3,0.4,0.3,0.5l0.1-0.2c0.2-0.4,0.6-0.6,1-0.6s0.8,0.1,1,0.4c0.3,0.3,0.4,0.7,0.4,1.2v3.6h-0.5h-0.6v-3.3
			c0-0.3-0.1-0.5-0.2-0.6c-0.1-0.1-0.2-0.2-0.4-0.2c-0.2,0-0.4,0.1-0.6,0.3c-0.2,0.2-0.2,0.4-0.2,0.8v3.1h-0.5H23v-3.3
			c0-0.3-0.1-0.5-0.2-0.7c-0.1-0.2-0.3-0.2-0.5-0.2c-0.2,0-0.4,0.1-0.5,0.3c-0.1,0.2,0,0.4,0,0.8v3.1h-0.5h-0.6V11.6z"/>
		<path class="st0" d="M28.5,16.1c-0.4-0.5-0.6-1.1-0.6-2c0-0.8,0.2-1.5,0.6-2s0.9-0.7,1.6-0.7s1.2,0.2,1.6,0.7
			c0.4,0.5,0.6,1.1,0.6,2c0,0.8-0.2,1.5-0.6,2c-0.4,0.5-0.9,0.7-1.6,0.7C29.4,16.9,28.9,16.6,28.5,16.1z M30.8,15.3
			c0.2-0.3,0.3-0.6,0.3-1.2c0-0.5-0.1-0.9-0.3-1.2c-0.2-0.3-0.4-0.4-0.7-0.4c-0.3,0-0.6,0.1-0.7,0.4c-0.2,0.3-0.3,0.7-0.3,1.2
			s0.1,0.9,0.3,1.2c0.2,0.3,0.4,0.4,0.7,0.4S30.7,15.6,30.8,15.3z"/>
		<path class="st0" d="M33.5,11.6H34h0.5v0.8l0.1-0.2c0.3-0.4,0.7-0.7,1.1-0.7s0.8,0.2,1.1,0.5c0.3,0.3,0.4,0.7,0.4,1.2v3.6h-0.5
			h-0.6v-3.2c0-0.3-0.1-0.5-0.2-0.7c-0.1-0.2-0.3-0.2-0.5-0.2c-0.3,0-0.5,0.1-0.7,0.3c-0.2,0.2-0.2,0.6-0.2,1v2.8H34h-0.6L33.5,11.6
			L33.5,11.6z"/>
	</g>
	<g>
		<path class="st0" d="M15.2,25.9c0,0.4,0.1,0.7,0.2,0.9c0.1,0.2,0.4,0.3,0.6,0.3c0.4,0,0.6-0.1,0.8-0.4c0.2-0.3,0.3-0.6,0.3-1.1
			v-3.7h0.7h0.7v6.4h-0.6h-0.7v-0.9c0,0.1-0.1,0.2-0.2,0.3c-0.4,0.5-0.8,0.8-1.4,0.8s-1-0.2-1.3-0.6s-0.5-1-0.5-1.7v-4.3h0.7h0.7
			V25.9z"/>
		<path class="st0" d="M20.4,21.9h0.7h0.7V23l0.2-0.4c0.3-0.6,0.7-0.9,1.3-0.9c0.1,0,0.2,0,0.3,0v1.7c-0.1,0-0.2,0-0.4,0
			c-0.4,0-0.8,0.1-1,0.4c-0.2,0.3-0.3,0.6-0.3,1.2v3.3h-0.8h-0.7V21.9z"/>
		<path class="st0" d="M24.9,19.7h0.7h0.7v8.6h-0.7h-0.7V19.7z"/>
	</g>
</g>
</svg>
