<?xml version="1.0" encoding="utf-8"?>
<!-- Generator: Adobe Illustrator 21.0.0, SVG Export Plug-In . SVG Version: 6.00 Build 0)  -->
<svg version="1.1" id="图层_1" xmlns="http://www.w3.org/2000/svg" xmlns:xlink="http://www.w3.org/1999/xlink" x="0px" y="0px"
	 width="40px" height="40px" viewBox="0 0 40 40" style="enable-background:new 0 0 40 40;" xml:space="preserve">
<style type="text/css">
	.st0{fill:#606060;}
</style>
<g>
	<path class="st0" d="M7,14.6h1h3.2c1.4,0,2.4,0.4,3.1,1.3s1.1,2.2,1.1,3.9c0,1.8-0.4,3.1-1.1,4.1s-1.8,1.5-3.1,1.5H8H7V14.6z
		 M9.1,23.5h2.1c0.7,0,1.2-0.3,1.6-1c0.4-0.6,0.6-1.5,0.6-2.6c0-1.2-0.2-2.1-0.6-2.6c-0.4-0.6-1-0.8-1.8-0.8H9.1V23.5z"/>
	<path class="st0" d="M17,14.6h1h3.7c1,0,1.8,0.2,2.4,0.7s0.9,1.2,0.9,2c0,0.8-0.3,1.5-0.9,2c-0.1,0.1-0.2,0.2-0.4,0.3
		c0.2,0.1,0.4,0.2,0.6,0.4c0.6,0.5,1,1.2,1,2.2s-0.3,1.8-1,2.4c-0.6,0.6-1.5,0.9-2.6,0.9H18h-1V14.6z M19.1,18.8h2.4
		c0.5,0,0.9-0.1,1.2-0.3c0.1-0.1,0.3-0.4,0.3-0.8c0-0.4-0.1-0.7-0.4-0.9c-0.3-0.2-0.7-0.3-1.3-0.3h-2.2V18.8z M19.1,23.5h2.7
		c0.5,0,0.9-0.1,1.1-0.4c0.2-0.2,0.4-0.6,0.4-1.1s-0.1-0.9-0.4-1.1c-0.3-0.2-0.7-0.4-1.2-0.4h-2.6V23.5z"/>
	<path class="st0" d="M33.1,18.1c0,0.8-0.2,1.4-0.6,1.9s-1.1,1.2-2.1,1.9c-0.9,0.6-1.5,1.2-1.9,1.7H33v1.9h-6.7l0,0
		c0-1,0.2-1.8,0.7-2.5c0.4-0.7,1.3-1.4,2.5-2.3c0.6-0.4,1-0.8,1.3-1.2c0.2-0.3,0.3-0.7,0.3-1.2s-0.1-0.9-0.4-1.2
		c-0.3-0.3-0.6-0.5-1-0.5c-0.5,0-0.9,0.2-1.1,0.5c-0.2,0.3-0.3,0.8-0.3,1.5h-1.9c0-1.2,0.3-2.1,0.9-2.7c0.6-0.7,1.4-1,2.5-1
		c1,0,1.8,0.3,2.4,0.9C32.8,16.3,33.1,17.1,33.1,18.1z"/>
</g>
</svg>
