<?xml version="1.0" encoding="utf-8"?>
<!-- Generator: Adobe Illustrator 21.0.0, SVG Export Plug-In . SVG Version: 6.00 Build 0)  -->
<svg version="1.1" id="图层_1" xmlns="http://www.w3.org/2000/svg" xmlns:xlink="http://www.w3.org/1999/xlink" x="0px" y="0px"
	 width="40px" height="40px" viewBox="0 0 40 40" style="enable-background:new 0 0 40 40;" xml:space="preserve">
<style type="text/css">
	.st0{fill:#606060;}
</style>
<g>
	<g>
		<path class="st0" d="M3.3,10.9H4h2.1c0.9,0,1.6,0.3,2.1,1s0.7,1.6,0.7,2.9s-0.2,2.3-0.7,3.1S7,19,6.1,19H4H3.3V10.9z M4.7,17.6H6
			c0.5,0,0.8-0.2,1.1-0.7s0.4-1.1,0.4-2s-0.1-1.5-0.4-2s-0.7-0.6-1.2-0.6H4.7V17.6z"/>
		<path class="st0" d="M10.5,10.9h0.7h2.4c0.7,0,1.2,0.2,1.6,0.5s0.6,0.9,0.6,1.5s-0.2,1.1-0.6,1.5c-0.1,0.1-0.2,0.1-0.2,0.2
			c0.2,0.1,0.3,0.2,0.4,0.3c0.4,0.4,0.6,0.9,0.6,1.6c0,0.8-0.2,1.3-0.6,1.8s-1,0.7-1.7,0.7h-2.5h-0.7V10.9z M11.8,14.1h1.6
			c0.3,0,0.6-0.1,0.8-0.2s0.3-0.4,0.3-0.7s-0.1-0.5-0.3-0.7s-0.5-0.2-0.9-0.2h-1.5C11.8,12.3,11.8,14.1,11.8,14.1z M11.8,17.6h1.8
			c0.3,0,0.6-0.1,0.7-0.3s0.2-0.4,0.2-0.8s-0.1-0.6-0.3-0.8s-0.5-0.3-0.8-0.3h-1.6C11.8,15.4,11.8,17.6,11.8,17.6z"/>
		<path class="st0" d="M19.6,10.9h0.8h0.8l2.4,8.1h-0.7H22l-0.4-1.6h-2.5L18.6,19h-0.7h-0.7L19.6,10.9z M19.5,15.9h1.7l-0.9-3.2l0,0
			L19.5,15.9z"/>
		<path class="st0" d="M24.9,10.9h0.7h2.2c0.7,0,1.3,0.2,1.6,0.7s0.6,1.1,0.6,1.9c0,0.8-0.2,1.4-0.6,1.9s-0.9,0.7-1.5,0.7h-1.6V19
			h-0.7h-0.7V10.9z M26.3,14.7h1.4c0.3,0,0.5-0.1,0.7-0.3s0.2-0.5,0.2-0.9s-0.1-0.7-0.2-0.9s-0.4-0.3-0.7-0.3h-1.3v2.4H26.3z"/>
		<path class="st0" d="M31.6,10.9h0.7h2.2c0.7,0,1.3,0.2,1.6,0.7s0.6,1.1,0.6,1.9c0,0.8-0.2,1.4-0.6,1.9s-0.9,0.7-1.5,0.7H33V19
			h-0.7h-0.7C31.6,19,31.6,10.9,31.6,10.9z M33,14.7h1.4c0.3,0,0.5-0.1,0.7-0.3s0.2-0.5,0.2-0.9s-0.1-0.7-0.2-0.9s-0.4-0.3-0.7-0.3
			H33V14.7z"/>
	</g>
	<g>
		<path class="st0" d="M16.4,26.9c0,0.7-0.2,1.2-0.5,1.6c-0.3,0.4-0.8,0.6-1.4,0.6c-0.6,0-1.1-0.2-1.4-0.6c-0.3-0.4-0.5-0.9-0.5-1.6
			V23h0.5h0.5v3.8c0,0.4,0.1,0.7,0.2,0.9c0.2,0.2,0.4,0.3,0.7,0.3s0.5-0.1,0.7-0.3c0.2-0.2,0.2-0.5,0.2-0.9V23h0.5h0.5V26.9z"/>
		<path class="st0" d="M20.4,24.8c0-0.3-0.1-0.5-0.3-0.7c-0.2-0.2-0.4-0.2-0.7-0.2S19,24,18.8,24.1s-0.2,0.3-0.2,0.5
			s0.1,0.3,0.2,0.4s0.4,0.2,0.8,0.3c0.7,0.2,1.2,0.4,1.5,0.7c0.3,0.3,0.4,0.6,0.4,1.1c0,0.6-0.2,1-0.5,1.4c-0.3,0.3-0.8,0.5-1.4,0.5
			s-1.1-0.2-1.5-0.5c-0.3-0.3-0.5-0.8-0.5-1.5h1c0,0.3,0.1,0.5,0.3,0.7c0.2,0.2,0.4,0.2,0.8,0.2c0.3,0,0.5-0.1,0.7-0.2
			s0.3-0.3,0.3-0.5s-0.1-0.4-0.3-0.5c-0.2-0.1-0.5-0.2-1-0.4c-0.6-0.2-1.1-0.4-1.3-0.6c-0.2-0.2-0.4-0.6-0.4-1.1
			c0-0.6,0.2-1,0.5-1.3s0.8-0.5,1.3-0.5c0.6,0,1,0.2,1.4,0.5s0.5,0.8,0.5,1.4L20.4,24.8L20.4,24.8z"/>
		<path class="st0" d="M23.6,28.9h-0.5h-0.5v-5.8h0.7H24l0.9,4.6l0,0l0.8-4.6h0.7h0.7v5.8h-0.5h-0.5V24l0,0l-0.9,4.9H25h-0.5
			L23.6,24l0,0V28.9z"/>
	</g>
</g>
</svg>
