<?xml version="1.0" encoding="utf-8"?>
<!-- Generator: Adobe Illustrator 21.0.0, SVG Export Plug-In . SVG Version: 6.00 Build 0)  -->
<svg version="1.1" id="图层_1" xmlns="http://www.w3.org/2000/svg" xmlns:xlink="http://www.w3.org/1999/xlink" x="0px" y="0px"
	 width="40px" height="40px" viewBox="0 0 40 40" style="enable-background:new 0 0 40 40;" xml:space="preserve">
<style type="text/css">
	.st0{fill:#606060;}
</style>
<g>
	<g>
		<path class="st0" d="M3.3,10.8H4h2.1c0.9,0,1.6,0.3,2.1,1s0.7,1.6,0.7,2.9S8.7,17,8.2,17.8S7,18.9,6.1,18.9H4H3.3V10.8z M4.7,17.5
			H6c0.5,0,0.8-0.2,1.1-0.7s0.4-1.1,0.4-2s-0.1-1.5-0.4-2s-0.7-0.6-1.2-0.6H4.7V17.5z"/>
		<path class="st0" d="M10.5,10.8h0.7h2.4c0.7,0,1.2,0.2,1.6,0.5s0.6,0.9,0.6,1.5s-0.2,1.1-0.6,1.5c-0.1,0.1-0.2,0.1-0.2,0.2
			c0.2,0.1,0.3,0.2,0.4,0.3c0.4,0.4,0.6,0.9,0.6,1.6c0,0.8-0.2,1.3-0.6,1.8s-1,0.7-1.7,0.7h-2.5h-0.7V10.8z M11.8,14h1.6
			c0.3,0,0.6-0.1,0.8-0.2s0.3-0.4,0.3-0.7s-0.1-0.5-0.3-0.7s-0.5-0.2-0.9-0.2h-1.5C11.8,12.2,11.8,14,11.8,14z M11.8,17.5h1.8
			c0.3,0,0.6-0.1,0.7-0.3s0.2-0.4,0.2-0.8s-0.1-0.6-0.3-0.8s-0.5-0.3-0.8-0.3h-1.6C11.8,15.3,11.8,17.5,11.8,17.5z"/>
		<path class="st0" d="M19.6,10.8h0.8h0.8l2.4,8.1h-0.7H22l-0.4-1.6h-2.5l-0.4,1.6H18h-0.7L19.6,10.8z M19.5,15.8h1.7l-0.9-3.2l0,0
			L19.5,15.8z"/>
		<path class="st0" d="M24.9,10.8h0.7h2.2c0.7,0,1.3,0.2,1.6,0.7s0.6,1.1,0.6,1.9c0,0.8-0.2,1.4-0.6,1.9S28.6,16,27.9,16h-1.6v2.9
			h-0.7h-0.7C24.9,18.9,24.9,10.8,24.9,10.8z M26.3,14.6h1.4c0.3,0,0.5-0.1,0.7-0.3s0.2-0.5,0.2-0.9s-0.1-0.7-0.2-0.9
			s-0.4-0.3-0.7-0.3h-1.3v2.4H26.3z"/>
		<path class="st0" d="M31.6,10.8h0.7h2.2c0.7,0,1.3,0.2,1.6,0.7s0.6,1.1,0.6,1.9c0,0.8-0.2,1.4-0.6,1.9S35.3,16,34.6,16H33v2.9
			h-0.7h-0.7C31.6,18.9,31.6,10.8,31.6,10.8z M33,14.6h1.4c0.3,0,0.5-0.1,0.7-0.3s0.2-0.5,0.2-0.9s-0.1-0.7-0.2-0.9
			s-0.4-0.3-0.7-0.3H33V14.6z"/>
	</g>
	<g>
		<path class="st0" d="M5.6,28.2l-1.4-5.8h0.5h0.5L6,26.6l0,0l0.7-4.2h0.5h0.5l0.7,4.3l0,0l0.8-4.3h0.5h0.5L9,28.2H8.5H8l-0.8-4.6
			l0,0l-0.8,4.6H6H5.6z"/>
		<path class="st0" d="M11.3,28.2v-5.8h3.5v0.5v0.5h-2.5v1.2h2.3v0.5v0.5h-2.3v1.5h2.6v0.5v0.5L11.3,28.2L11.3,28.2z"/>
		<path class="st0" d="M16.1,22.3h0.5h1.8c0.5,0,0.9,0.1,1.1,0.4s0.4,0.6,0.4,1.1s-0.1,0.8-0.4,1.1C19.4,25,19.4,25,19.3,25
			c0.1,0.1,0.2,0.1,0.3,0.2c0.3,0.3,0.5,0.7,0.5,1.2s-0.2,1-0.5,1.3s-0.7,0.5-1.2,0.5h-1.8h-0.5C16.1,28.2,16.1,22.3,16.1,22.3z
			 M17.1,24.6h1.1c0.3,0,0.4-0.1,0.6-0.2c0.1-0.1,0.2-0.3,0.2-0.5s-0.1-0.4-0.2-0.5s-0.3-0.1-0.6-0.1h-1.1V24.6z M17.1,27.2h1.3
			c0.2,0,0.4-0.1,0.5-0.2s0.2-0.3,0.2-0.6c0-0.3-0.1-0.5-0.2-0.6s-0.3-0.2-0.6-0.2h-1.2C17.1,25.6,17.1,27.2,17.1,27.2z"/>
		<path class="st0" d="M20.9,29.2v-0.4h3.7v0.4H20.9z"/>
		<path class="st0" d="M25.5,28.2v-5.8h3.4v0.5v0.5h-2.4v1.3h2.1v0.5v0.5h-2.1v2.5H26H25.5z"/>
		<path class="st0" d="M30.9,28.2l-1.4-5.8H30h0.5l0.8,4.2l0,0l0.7-4.2h0.5H33l0.7,4.3l0,0l0.8-4.3H35h0.5l-1.3,5.8h-0.5h-0.5
			l-0.8-4.6l0,0l-0.8,4.6h-0.5H30.9z"/>
	</g>
</g>
</svg>
