<?xml version="1.0" encoding="utf-8"?>
<!-- Generator: Adobe Illustrator 21.0.0, SVG Export Plug-In . SVG Version: 6.00 Build 0)  -->
<svg version="1.1" id="图层_1" xmlns="http://www.w3.org/2000/svg" xmlns:xlink="http://www.w3.org/1999/xlink" x="0px" y="0px"
	 width="40px" height="40px" viewBox="0 0 40 40" style="enable-background:new 0 0 40 40;" xml:space="preserve">
<style type="text/css">
	.st0{fill:#606060;}
	.st1{opacity:0.24;fill:#FFFFFF;enable-background:new    ;}
</style>
<g>
	<g>
		<path class="st0" d="M11.6,14c-0.4-1.7-1.8-2.9-3.5-2.9c-2.3,0-3.6,0-3.6,0l-0.2,1h2.6c0,0,0,0,0.1,0l0,0c0,0,0,0,0.1,0
			c0,0,0,0,0.1,0c0,0,0,0,0.1,0s0.1,0,0.2,0l0,0c0,0,0,0,0.1,0l0,0c0,0,0,0,0.1,0l0,0c0,0,0,0,0.1,0c0,0,0,0,0.1,0c0,0,0,0,0.1,0
			c0.1,0,0.1,0,0.1,0s0,0,0.1,0c0,0,0,0,0.1,0c0,0,0,0,0.1,0c0,0,0,0,0.1,0c0,0,0,0,0.1,0c0,0,0,0,0.1,0l0,0c0,0,0,0,0.1,0
			c0,0,0,0,0.1,0c0,0,0,0,0.1,0l0,0c0,0,0,0,0.1,0c0,0,0,0,0.1,0l0,0c0,0,0,0,0.1,0l0,0c-0.5,0.6-0.4,0.7-0.3,0.8
			c0.6,0.7,0.8,1.7,0.5,3c-0.5,2.2-2,2.8-3.6,2.8H5.1l1.1-5.8h-2L3,18.7l-0.2,1c0,0,2.8,0,4,0c1.1,0,4-0.7,4.7-3.6
			c0.1-0.4,0.2-0.9,0.2-1.3C11.7,14.5,11.6,14.2,11.6,14z"/>
		<path class="st0" d="M18.3,12.6c-0.7,1.4-0.8,2.6-0.9,3.2c-1.4,0.8-3.5,0.6-3.5,0.6l-0.7,3.3h-2l1.3-6.8h2L14,15.6
			c0,0,2,0.4,2.2-1.6c0.1-1.1-0.4-1.7-0.8-1.7s-0.4,0-0.4,0h-2.4l0.2-1c0,0,2.3,0,3.3,0C16.8,11.2,18.1,11.8,18.3,12.6z"/>
		<path class="st0" d="M18.2,16c0,0-0.2-5.5,5.5-8s9.8,2.4,10.3,3.5c0,0-6-6.6-12,1C22,12.6,19.2,12.9,18.2,16z"/>
		<polygon class="st0" points="34.2,11.6 34.6,12 35.1,11.8 34.8,12.3 35.2,12.8 34.6,12.6 34.3,13.1 34.2,12.5 33.7,12.4 
			34.2,12.1 		"/>
		<path class="st0" d="M22.4,15.3c0.4,0,0.8,0,0.8,0l0.1-0.5h-0.8c0.2-1,0.4-1.8,0.4-1.8l-1.6,0.6c0,0-0.1,0.5-0.2,1.1h-0.6
			l-0.2,0.6c0.1,0,0.3,0.1,0.7,0.1c-0.3,1.1-0.6,2.4-0.6,2.6c0,0.3-0.2,1.2,0.3,1.5c0.5,0.4,1.8-0.1,1.8-0.1v-0.3
			c-1,0.2-0.7-0.6-0.6-1.1C21.9,17.6,22.2,16.5,22.4,15.3z"/>
		<path class="st0" d="M27.5,17.1c0,0,0.7-2.7-1.6-2.5c-2.3,0.2-2.7,1.9-2.8,2.5c-0.1,0.6-0.2,3.6,3.6,2.1l0.3-0.6
			c0,0-2.7,1.5-2.4-1.5H27.5z M25.9,15c0.8,0.1,0.3,1.7,0.3,1.7l-1.5-0.1C24.7,16.6,25.1,14.9,25.9,15z"/>
		<path class="st0" d="M32.7,15c0,0-2.4-1.4-4.2,0.8c-1.7,2.2,0,4.9,3.1,3.4l0.3-0.7h-0.2c0,0-2.7,1.4-2.3-1.5
			c0.4-2.7,2.6-2.5,2.5-1.1l0.1,0.3L32.7,15z"/>
		<path class="st0" d="M36.1,14.7c-0.8-0.1-1.6,0.4-2,0.8l0.4-1.9H34l-0.3-0.9h-0.4l-1.4,7h1.4l0.2-1.2c0.2-1,0.5-2.2,0.6-2.5
			c0.3-0.4,1-0.5,1.2-0.4c0.2,0.2,0.3,0.8,0.1,1.7c-0.2,0.9-0.5,2.3-0.5,2.3h1.4c0,0,0.6-2.9,0.7-3.3C37.2,16,37.4,14.8,36.1,14.7z"
			/>
	</g>
	<g>
		<path class="st0" d="M13.8,32.7v-6.1h4.3v0.5v0.5h-3V29h2.7v0.5V30h-2.7v2.6h-0.6h-0.7V32.7z"/>
		<path class="st0" d="M20.2,32.7l-1.7-6.1h0.7h0.7l1,4.4l0,0l0.9-4.4h0.7H23l0.9,4.4l0,0l1-4.4h0.6h0.6l-1.7,6.1h-0.6h-0.6l-1-4.8
			l0,0l-1,4.8h-0.4H20.2z"/>
	</g>
</g>
<path class="st1" d="M38.6,2.3c-1.1-0.9-2.4-1.4-3.9-1.4H7.2c-3.4,0-6.3,2.8-6.3,6.3v27.5c0,1.5,0.5,2.8,1.4,3.9
	C0.9,37.5,0,35.7,0,33.7V6.2c0-3.4,2.8-6.3,6.3-6.3h27.5C35.7,0,37.5,0.9,38.6,2.3z"/>
</svg>
