<?xml version="1.0" encoding="utf-8"?>
<!-- Generator: Adobe Illustrator 21.0.0, SVG Export Plug-In . SVG Version: 6.00 Build 0)  -->
<svg version="1.1" id="图层_1" xmlns="http://www.w3.org/2000/svg" xmlns:xlink="http://www.w3.org/1999/xlink" x="0px" y="0px"
	 width="40px" height="40px" viewBox="0 0 40 40" style="enable-background:new 0 0 40 40;" xml:space="preserve">
<style type="text/css">
	.st0{fill:#606060;}
</style>
<g>
	<path class="st0" d="M13.9,24.2c-1,0-1.9,0-2.8,0c0-0.1,0-0.2,0-0.2c0-1.1,0-2.2,0-3.4c-0.1-0.1-0.1-0.2-0.3-0.2
		c-1.5,0-3.1,0-4.6,0c-0.1,0-0.1,0-0.2,0c0,1.3,0,2.5,0,3.8c-1,0-1.9,0-2.9,0c0-2.8,0-5.6,0-8.4c1,0,1.9,0,2.8,0C6,15.9,6,15.9,6,16
		c0,1,0,1.9,0,2.8c0,0.2,0.1,0.3,0.2,0.3c1.5,0,3,0,4.5,0c0.3,0,0.3-0.1,0.3-0.3c0-0.9,0-1.8,0-2.7c0-0.1,0-0.2,0-0.3
		c0.1,0,0.1,0,0.2,0c0.8,0,1.6,0,2.5,0c0.2,0,0.2,0,0.2,0.2c0,2.7,0,5.4,0,8C13.9,24.1,13.9,24.1,13.9,24.2z"/>
	<path class="st0" d="M37,15.8c0,0.4,0,0.9,0,1.3c0,0-0.1,0.1-0.2,0.1c-0.7,0-1.5,0-2.2,0c-0.8,0-1.6,0-2.4,0
		c-0.7,0-1.4,0.2-1.9,0.7c-0.8,0.7-1,1.6-0.8,2.7c0.1,0.6,0.4,1.2,0.8,1.7c0.4,0.4,0.9,0.6,1.5,0.6c1.7,0,3.3,0,5,0
		c0.3,0,0.3,0,0.3,0.3c0,0.4,0,0.7,0,1.1c-0.1,0-0.2,0-0.2,0c-1.6,0-3.3,0-4.9,0c-0.9,0-1.8-0.1-2.6-0.3c-2.1-0.5-3.3-2.1-3.3-4.3
		c0-0.5,0.1-1.1,0.3-1.6c0.4-0.9,1.1-1.4,2-1.7c0.9-0.4,1.9-0.6,2.9-0.6C33.2,15.8,35.1,15.8,37,15.8C36.9,15.8,36.9,15.8,37,15.8z"
		/>
	<path class="st0" d="M22.5,19.8c0.3,0.1,0.6,0.1,0.8,0.2c0.3,0.1,0.6,0.2,0.9,0.3c0.7,0.3,0.9,0.9,0.8,1.6c0,0.2-0.1,0.5-0.2,0.7
		c-0.3,0.7-0.8,1.1-1.5,1.3c-0.5,0.1-1,0.2-1.6,0.2c-2.3,0-4.6,0-6.8-0.1h-0.1c0-0.3,0-0.6,0-1c0.1,0,0.2,0,0.2,0c1.6,0,3.3,0,4.9,0
		c0.3,0,0.7,0,1-0.1c0.8-0.2,1.2-0.9,1-1.7c-0.1-0.2-0.3-0.4-0.7-0.5c-0.4-0.1-0.7-0.2-1.1-0.3c-1.2,0-2.5,0-3.7,0
		c-0.1,0-0.2,0-0.3,0c0-0.4,0-0.8,0-1.1c0.1,0,0.2,0,0.2,0c1.3,0,2.5,0,3.8,0c0.3,0,0.5,0,0.8-0.1c0.5-0.1,0.8-0.5,0.8-1
		s-0.3-0.9-0.8-1.1c-0.3-0.1-0.6-0.2-0.9-0.2c-1.6,0-3.1,0-4.7,0c-0.1,0-0.2,0-0.3,0c0-0.4,0-0.7,0-1.1c0.2,0,0.5,0,0.7,0
		c1.8,0,3.7,0,5.5,0c0.8,0,1.6,0.1,2.3,0.5c0.6,0.2,1,0.6,1,1.3c0.1,0.9-0.3,1.5-1.1,1.9C23.2,19.6,22.9,19.7,22.5,19.8z"/>
</g>
</svg>
