<?xml version="1.0" encoding="utf-8"?>
<!-- Generator: Adobe Illustrator 21.0.0, SVG Export Plug-In . SVG Version: 6.00 Build 0)  -->
<svg version="1.1" id="图层_1" xmlns="http://www.w3.org/2000/svg" xmlns:xlink="http://www.w3.org/1999/xlink" x="0px" y="0px"
	 width="40px" height="40px" viewBox="0 0 40 40" style="enable-background:new 0 0 40 40;" xml:space="preserve">
<style type="text/css">
	.st0{fill:#606060;}
</style>
<path class="st0" d="M11.9,18.4c1.9,1.4,6.4,3.8,6.5,3.6c0.1-0.2-1.8-3.5-3.3-5.9c-1.5-2.4-3.4-4.9-3.7-4.9c-0.2,0-1.9,1.6-2,3.2
	C9.3,16.1,10,17.1,11.9,18.4z"/>
<path class="st0" d="M18.3,7.9c0,0-2-0.1-3.2,1.5s-0.3,4.1,0.3,5.4c0.6,1.3,3.7,6.3,3.9,6.4c0.1,0.1,0.3,0.1,0.3,0s0.4-7.3,0.1-9.1
	S18.4,8.1,18.3,7.9z"/>
<path class="st0" d="M11.7,22.9c0.9,0.1,6.2,0.1,6.1,0c0-0.1-4.2-2.6-5.6-3.3c-1.4-0.7-4.2-2.3-4.3-2.3s-0.5,2,0.3,3.5
	C9.1,22.4,10.9,22.8,11.7,22.9z"/>
<path class="st0" d="M9.9,23.7c0,0,0.7,1.5,2.1,2.1c1.4,0.6,3.5-0.8,4.1-1.2c0.5-0.4,1.6-1.2,1.6-1.2L9.9,23.7z"/>
<path class="st0" d="M27.9,19.6c-1.4,0.7-5.5,3.2-5.6,3.3c0,0.1,5.2,0.2,6.1,0c0.8-0.1,2.5-0.6,3.4-2.1s0.5-3.5,0.4-3.5
	C32.1,17.3,29.3,18.9,27.9,19.6z"/>
<path class="st0" d="M20.9,21.3c0.1-0.1,3.3-5.1,3.9-6.4s1.5-3.8,0.3-5.4s-3.2-1.5-3.2-1.5c-0.1,0.2-1,2.5-1.3,4.2s0.1,9,0.1,9.1
	C20.7,21.4,20.8,21.4,20.9,21.3z"/>
<path class="st0" d="M28.1,25.9c1.4-0.6,2.1-2.1,2.1-2.1l-7.8-0.2c0,0,1,0.8,1.6,1.2C24.6,25.1,26.7,26.5,28.1,25.9z"/>
<path class="st0" d="M21.8,22c0.1,0.2,4.6-2.3,6.5-3.6c1.9-1.3,2.6-2.3,2.4-3.9s-1.8-3.2-2-3.2c-0.2,0-2.2,2.5-3.7,4.9
	C23.5,18.5,21.7,21.8,21.8,22z"/>
<g>
	<path class="st0" d="M6.4,31.8c-0.3-0.4-0.5-1-0.5-1.7s0.2-1.3,0.5-1.7s0.8-0.6,1.3-0.6s1,0.2,1.3,0.6c0.3,0.4,0.5,1,0.5,1.7
		S9.3,31.4,9,31.8c-0.3,0.4-0.8,0.6-1.3,0.6C7.1,32.5,6.7,32.2,6.4,31.8z M8.4,31.2c0.2-0.3,0.3-0.7,0.3-1.1c0-0.5-0.1-0.9-0.3-1.1
		c-0.2-0.3-0.4-0.4-0.7-0.4s-0.6,0.1-0.7,0.4c-0.2,0.3-0.3,0.7-0.3,1.1s0.1,0.9,0.3,1.1c0.2,0.3,0.4,0.4,0.7,0.4
		C8,31.6,8.2,31.5,8.4,31.2z"/>
	<path class="st0" d="M12.7,31.1c0,0.4-0.2,0.7-0.4,1c-0.2,0.2-0.5,0.3-0.9,0.3c-0.4,0-0.7-0.2-0.9-0.4c-0.2-0.3-0.3-0.7-0.3-1.2
		c0-0.6,0.1-1.1,0.3-1.4s0.6-0.5,1-0.5c0.4,0,0.6,0.1,0.8,0.3s0.3,0.5,0.4,1H12c0-0.2-0.1-0.3-0.2-0.4s-0.2-0.1-0.3-0.1
		c-0.2,0-0.3,0.1-0.4,0.3s-0.1,0.4-0.1,0.7c0,0.4,0,0.7,0.1,0.8s0.2,0.3,0.4,0.3c0.1,0,0.2,0,0.3-0.2s0.1-0.3,0.2-0.4
		C12,31.1,12.7,31.1,12.7,31.1z"/>
	<path class="st0" d="M14.7,32.4c-0.5,0-0.8-0.2-1.1-0.5c-0.2-0.3-0.4-0.8-0.4-1.4c0-0.5,0.1-0.9,0.4-1.2c0.2-0.3,0.6-0.5,0.9-0.5
		c0.4,0,0.8,0.1,1,0.5s0.3,0.7,0.3,1.3v0.3H14c0,0.2,0.1,0.4,0.1,0.6c0.1,0.2,0.3,0.3,0.5,0.3c0.1,0,0.2,0,0.3-0.1
		c0.1-0.1,0.1-0.1,0.1-0.3h0.8c-0.1,0.3-0.2,0.6-0.4,0.8S15,32.4,14.7,32.4z M15.1,30.4c0-0.2-0.1-0.4-0.1-0.5
		c-0.1-0.1-0.2-0.2-0.4-0.2c-0.2,0-0.3,0.1-0.4,0.3c-0.1,0.1-0.1,0.3-0.1,0.5H15.1z"/>
	<path class="st0" d="M17.4,32.4c-0.3,0-0.5-0.1-0.6-0.3c-0.1-0.2-0.2-0.4-0.2-0.7s0.1-0.5,0.2-0.7c0.1-0.2,0.3-0.3,0.6-0.3l0.6-0.1
		c0.1,0,0.2-0.1,0.3-0.1c0,0,0,0,0-0.1c0,0,0-0.1,0-0.1v0c0-0.1,0-0.2-0.1-0.3c-0.1-0.1-0.2-0.1-0.4-0.1c-0.1,0-0.2,0-0.3,0.1
		s-0.1,0.2-0.1,0.3h-0.7c0-0.4,0.2-0.7,0.3-0.9s0.5-0.3,0.9-0.3c0.4,0,0.6,0.1,0.8,0.3c0.2,0.2,0.3,0.4,0.3,0.7v1.8
		c0,0.2,0,0.3,0,0.4s0.1,0.1,0.1,0.2l0,0v0.1h-0.4h-0.4l0,0c0-0.1,0-0.3-0.1-0.4l0,0C18,32.3,17.7,32.4,17.4,32.4z M18.2,31.1v-0.4
		c0,0-0.1,0.1-0.2,0.1l-0.3,0.1c-0.2,0-0.3,0.1-0.4,0.2c-0.1,0.1-0.1,0.2-0.1,0.3c0,0.1,0,0.2,0.1,0.3c0.1,0.1,0.1,0.1,0.2,0.1
		c0.3,0,0.4-0.1,0.6-0.3l0,0c0,0,0-0.1,0-0.1C18.2,31.2,18.2,31.2,18.2,31.1z"/>
	<path class="st0" d="M19.9,29h0.3h0.3v0.5l0.1-0.2c0.2-0.3,0.4-0.4,0.8-0.4c0.3,0,0.5,0.1,0.7,0.3c0.2,0.2,0.3,0.5,0.3,0.8v2.3H22
		h-0.4v-2.1c0-0.2,0-0.4-0.1-0.5s-0.2-0.2-0.3-0.2c-0.2,0-0.3,0.1-0.4,0.2s-0.1,0.4-0.1,0.6v1.8h-0.4h-0.4
		C19.9,32.3,19.9,29,19.9,29z"/>
	<path class="st0" d="M25.4,29.2c0-0.2-0.1-0.4-0.2-0.5c-0.1-0.1-0.3-0.2-0.5-0.2s-0.4,0-0.5,0.1S24,28.9,24,29c0,0.1,0,0.2,0.2,0.3
		c0.1,0.1,0.3,0.2,0.6,0.2c0.6,0.1,1,0.3,1.2,0.5s0.3,0.5,0.3,0.9c0,0.5-0.1,0.8-0.4,1.1c-0.3,0.3-0.6,0.4-1.1,0.4
		c-0.5,0-0.9-0.1-1.1-0.4c-0.3-0.3-0.4-0.6-0.4-1.1H24c0,0.2,0.1,0.4,0.2,0.5c0.1,0.1,0.3,0.2,0.6,0.2c0.2,0,0.4,0,0.5-0.1
		s0.2-0.2,0.2-0.4c0-0.2-0.1-0.3-0.2-0.4c-0.1-0.1-0.4-0.2-0.8-0.3c-0.5-0.1-0.8-0.3-1-0.5c-0.2-0.2-0.3-0.5-0.3-0.9
		c0-0.4,0.1-0.8,0.4-1s0.6-0.4,1-0.4c0.5,0,0.8,0.1,1,0.4s0.4,0.6,0.4,1.1C26.1,29.2,25.4,29.2,25.4,29.2z"/>
	<path class="st0" d="M28.4,32.4c-0.1,0-0.3,0-0.5,0c-0.3,0-0.4-0.1-0.5-0.2c-0.1-0.1-0.2-0.3-0.2-0.6v-2h-0.4V29h0.4v-0.9h0.7V29
		h0.4v0.6h-0.4v1.8c0,0.1,0,0.2,0.1,0.2c0,0,0.1,0,0.2,0h0.1C28.4,31.7,28.4,32.4,28.4,32.4z"/>
	<path class="st0" d="M29.4,32c-0.3-0.3-0.4-0.7-0.4-1.3s0.1-1,0.4-1.3s0.6-0.5,1-0.5s0.8,0.2,1,0.5s0.4,0.8,0.4,1.3s-0.1,1-0.4,1.3
		c-0.3,0.3-0.6,0.5-1,0.5C30,32.4,29.6,32.3,29.4,32z M30.9,31.4C31,31.3,31,31,31,30.7c0-0.3-0.1-0.6-0.2-0.8
		c-0.1-0.2-0.3-0.3-0.5-0.3s-0.4,0.1-0.5,0.3s-0.2,0.4-0.2,0.8c0,0.3,0.1,0.6,0.2,0.8s0.3,0.3,0.5,0.3S30.8,31.6,30.9,31.4z"/>
	<path class="st0" d="M32.6,29h0.3h0.3v0.6l0.1-0.2c0.2-0.3,0.4-0.5,0.7-0.5c0.1,0,0.1,0,0.2,0v0.9c-0.1,0-0.1,0-0.2,0
		c-0.2,0-0.4,0.1-0.5,0.2c-0.1,0.1-0.2,0.3-0.2,0.6v1.7H33h-0.4V29z"/>
</g>
</svg>
