<?xml version="1.0" encoding="utf-8"?>
<!-- Generator: Adobe Illustrator 21.0.0, SVG Export Plug-In . SVG Version: 6.00 Build 0)  -->
<svg version="1.1" id="图层_1" xmlns="http://www.w3.org/2000/svg" xmlns:xlink="http://www.w3.org/1999/xlink" x="0px" y="0px"
	 width="40px" height="40px" viewBox="0 0 40 40" style="enable-background:new 0 0 40 40;" xml:space="preserve">
<style type="text/css">
	.st0{fill:#606060;}
</style>
<g>
	<g>
		<path class="st0" d="M6.3,27.3h0.5h1.7c0.7,0,1.3,0.2,1.6,0.6c0.4,0.4,0.6,1,0.6,1.8c0,0.9-0.2,1.6-0.6,2
			c-0.4,0.5-0.9,0.7-1.7,0.7H6.8H6.3V27.3z M7.4,31.6h0.9c0.4,0,0.8-0.1,1-0.4s0.3-0.7,0.3-1.3c0-0.5-0.1-0.9-0.3-1.2
			c-0.2-0.3-0.5-0.4-0.9-0.4h-1V31.6z"/>
		<path class="st0" d="M14.4,28.8c0-0.2-0.1-0.4-0.3-0.6c-0.3-0.1-0.5-0.2-0.8-0.2s-0.5,0.1-0.6,0.2c-0.2,0.1-0.2,0.3-0.2,0.5
			s0.1,0.3,0.2,0.4c0.2,0.1,0.5,0.2,1,0.3c0.8,0.2,1.3,0.4,1.5,0.6c0.3,0.2,0.4,0.6,0.4,1.1S15.4,32,15,32.3
			c-0.4,0.3-0.9,0.4-1.6,0.4c-0.7,0-1.2-0.2-1.5-0.5c-0.4-0.3-0.6-0.7-0.6-1.3h1c0,0.3,0.1,0.5,0.3,0.6c0.2,0.1,0.4,0.2,0.8,0.2
			c0.3,0,0.6-0.1,0.8-0.2s0.3-0.3,0.3-0.5s-0.1-0.3-0.2-0.4c-0.1-0.1-0.4-0.2-0.9-0.3c-0.8-0.2-1.4-0.4-1.6-0.6
			c-0.3-0.2-0.4-0.5-0.4-1s0.2-0.9,0.5-1.2c0.4-0.3,0.9-0.4,1.5-0.4c0.6,0,1.1,0.2,1.4,0.5c0.4,0.3,0.6,0.7,0.6,1.2
			C15.4,28.8,14.4,28.8,14.4,28.8z"/>
		<path class="st0" d="M21.6,30.8c0,0.6-0.2,1-0.5,1.3s-0.8,0.5-1.4,0.5c-0.5,0-0.8-0.1-1.1-0.4c-0.3-0.3-0.5-0.6-0.5-1.1h1
			c0,0.2,0.1,0.4,0.2,0.5c0.1,0.1,0.3,0.2,0.5,0.2c0.2,0,0.4-0.1,0.5-0.3c0.1-0.2,0.2-0.4,0.2-0.7c0-0.3-0.1-0.5-0.2-0.7
			c-0.1-0.1-0.3-0.2-0.5-0.2c-0.1,0-0.3,0-0.4,0.1s-0.2,0.1-0.3,0.3h-0.9l0.3-2.8h2.8v0.9h-2l-0.2,1.1c0.3-0.2,0.6-0.3,0.9-0.3
			c0.5,0,0.8,0.2,1.1,0.5C21.4,29.9,21.6,30.3,21.6,30.8z"/>
		<path class="st0" d="M22.5,32c-0.3-0.4-0.4-1.1-0.4-2s0.1-1.6,0.4-2s0.7-0.7,1.3-0.7c0.6,0,1.1,0.2,1.3,0.7c0.3,0.4,0.4,1.1,0.4,2
			l0,0c0,0.9-0.1,1.5-0.4,2c-0.3,0.4-0.7,0.6-1.3,0.6C23.2,32.6,22.8,32.4,22.5,32z M24.4,31.4c0.1-0.3,0.2-0.7,0.2-1.4
			c0-0.7-0.1-1.1-0.2-1.4s-0.3-0.4-0.6-0.4s-0.5,0.1-0.6,0.4S23,29.4,23,30c0,0.7,0.1,1.1,0.2,1.4s0.3,0.4,0.6,0.4
			C24.1,31.8,24.3,31.6,24.4,31.4z"/>
		<path class="st0" d="M29.6,28.9c0,0.4-0.1,0.7-0.3,1c-0.2,0.3-0.5,0.5-1,0.9c-0.5,0.3-0.8,0.6-0.9,0.8l0,0h2.3v0.9H26l0,0
			c0-0.5,0.1-0.9,0.4-1.2c0.2-0.3,0.7-0.7,1.3-1.2c0.3-0.2,0.5-0.4,0.6-0.6c0.1-0.2,0.2-0.4,0.2-0.6s-0.1-0.4-0.2-0.5
			s-0.3-0.2-0.5-0.2s-0.4,0.1-0.5,0.3c-0.1,0.2-0.2,0.4-0.2,0.7h-1c0-0.6,0.1-1,0.4-1.3c0.3-0.3,0.7-0.5,1.3-0.5
			c0.5,0,0.9,0.2,1.2,0.5C29.4,28.1,29.6,28.5,29.6,28.9z"/>
		<path class="st0" d="M30.5,32c-0.3-0.4-0.4-1.1-0.4-2s0.1-1.6,0.4-2s0.7-0.7,1.3-0.7c0.6,0,1.1,0.2,1.3,0.7c0.3,0.4,0.4,1.1,0.4,2
			l0,0c0,0.9-0.1,1.5-0.4,2c-0.3,0.4-0.7,0.6-1.3,0.6C31.3,32.6,30.8,32.4,30.5,32z M32.5,31.4c0.1-0.3,0.2-0.7,0.2-1.4
			c0-0.7-0.1-1.1-0.2-1.4s-0.3-0.4-0.6-0.4c-0.3,0-0.5,0.1-0.6,0.4s-0.2,0.8-0.2,1.4c0,0.7,0.1,1.1,0.2,1.4s0.3,0.4,0.6,0.4
			S32.3,31.6,32.5,31.4z"/>
	</g>
	<g>
		<path class="st0" d="M29.5,13.6c0.1-0.2,0.1-0.4,0.2-0.6c0-0.1,0.2-0.2,0.3-0.2c1.6,0,3.3,0,4.9,0c0.2,0,0.2,0.1,0.2,0.2
			c0,0.6,0,0.6-0.6,0.6s-1.3,0-1.9,0c-0.2,0-0.3-0.1-0.3-0.3c0-0.1,0-0.2,0-0.4c0,0,0,0-0.1,0c0,0.1-0.1,0.2-0.1,0.4
			c-0.1,0.2-0.2,0.3-0.4,0.3c-1.5,0-3,0-4.5,0c-0.2,0-0.3-0.1-0.4-0.3c0-0.1-0.1-0.2-0.2-0.4c0,0.1,0,0.3,0,0.4c0,0.2,0,0.2-0.2,0.2
			c-0.8,0-1.6,0-2.4,0c-0.1,0-0.2,0-0.2-0.2c0-0.8-0.1-0.7,0.6-0.7c1.5,0,2.9,0,4.4,0c0.3,0,0.4,0.1,0.5,0.3
			C29.3,13.3,29.4,13.5,29.5,13.6L29.5,13.6z"/>
		<path class="st0" d="M21,10.1c-0.3,0-0.6,0-0.8,0c-3.1,0-6.2,0-9.3,0c-0.3,0-0.3-0.1-0.3-0.3c0-0.7-0.1-0.5,0.5-0.5
			c3.1,0,6.2,0,9.3,0c0.3,0,0.5,0.1,0.5,0.4C20.9,9.8,21,9.9,21,10.1z"/>
		<path class="st0" d="M15.8,18.3c1.6,0,3.3,0,4.9,0c0.3,0,0.3,0,0.2,0.3c-0.1,0.5-0.1,0.5-0.7,0.5c-3.1,0-6.2,0-9.3,0
			c-0.2,0-0.3-0.1-0.3-0.3c0-0.7-0.1-0.6,0.6-0.6C12.7,18.3,14.2,18.3,15.8,18.3z"/>
		<path class="st0" d="M19.9,20.1c-0.6,0.5-1.2,0.7-1.9,0.8C17.5,21,17,21,16.5,21c-1.9,0-3.8,0-5.6,0c-0.2,0-0.3-0.1-0.3-0.3
			c0-0.7-0.1-0.6,0.6-0.6c2.8,0,5.6,0,8.4,0C19.7,20.1,19.8,20.1,19.9,20.1z"/>
		<path class="st0" d="M19.8,8.3c-0.2,0-0.5,0-0.7,0c-2.7,0-5.5,0-8.2,0c-0.4,0-0.4,0-0.4-0.4c0-0.5,0-0.5,0.5-0.5
			c2.1,0,4.2,0,6.3,0c0.7,0,1.4,0.1,2,0.5C19.5,8,19.7,8.1,19.8,8.3C19.9,8.2,19.8,8.3,19.8,8.3z"/>
		<path class="st0" d="M20.5,15.6c-2.7,0-5.2,0-7.8,0c-0.2,0-0.3-0.1-0.3-0.3c0-0.7,0-0.7,0.7-0.7c2.1,0,4.1,0,6.2,0
			c0.3,0,0.5,0.1,0.7,0.4C20.2,15.1,20.4,15.3,20.5,15.6z"/>
		<path class="st0" d="M20.5,12.9c-0.2,0.3-0.5,0.5-0.7,0.8c-0.1,0-0.2,0-0.3,0c-2.3,0-4.5,0-6.8,0c-0.2,0-0.3,0-0.3-0.2
			c0-0.6,0-0.6,0.6-0.6c2.4,0,4.9,0,7.3,0C20.4,12.9,20.4,12.9,20.5,12.9z"/>
		<path class="st0" d="M6.3,7.4c1,0,2,0,3,0c0.2,0,0.3,0,0.3,0.3c0,0.6,0,0.6-0.6,0.6c-1.9,0-3.8,0-5.6,0C3.1,8.3,3,8.2,3,8
			c0-0.5,0-0.6,0.5-0.6C4.4,7.4,5.4,7.4,6.3,7.4z"/>
		<path class="st0" d="M6.3,18.3c1,0,2,0,3,0c0.2,0,0.3,0.1,0.3,0.3c0,0.6,0,0.6-0.6,0.6c-1.9,0-3.8,0-5.7,0C3,19.2,3,19.1,3,18.8
			c0-0.6,0-0.6,0.6-0.6C4.4,18.3,5.4,18.3,6.3,18.3z"/>
		<path class="st0" d="M6.3,10.1c-1,0-2,0-3.1,0C3,10.1,3,10,3,9.8c0-0.6,0-0.6,0.6-0.6c1.9,0,3.8,0,5.7,0c0.2,0,0.3,0.1,0.3,0.3
			c0,0.6,0,0.6-0.6,0.6C8.1,10.1,7.2,10.1,6.3,10.1z"/>
		<path class="st0" d="M6.3,20.1c1,0,2,0,2.9,0c0.2,0,0.3,0,0.3,0.3C9.6,21,9.6,21,9,21c-1.9,0-3.8,0-5.7,0C3,21,3,20.9,3,20.6
			C3,20,3,20,3.5,20C4.4,20.1,5.4,20.1,6.3,20.1L6.3,20.1z"/>
		<path class="st0" d="M28.2,10.1c-0.1,0-0.2,0-0.2,0c-1.9,0-3.8,0-5.7,0c-0.3,0-0.4-0.1-0.4-0.3c0-0.5,0-0.6,0.6-0.6
			c1.7,0,3.4,0,5.1,0c0.2,0,0.3,0.1,0.4,0.3C28,9.7,28.1,9.9,28.2,10.1z"/>
		<path class="st0" d="M30.8,10.1C30.9,9.8,31,9.6,31,9.3c0-0.1,0.1-0.1,0.2-0.1c1.9,0,3.7,0,5.6,0C37,9.2,37,9.3,37,9.4
			c0,0.7,0,0.7-0.6,0.7c-1.7,0-3.4,0-5.2,0C31.1,10.1,31,10.1,30.8,10.1z"/>
		<path class="st0" d="M27.5,8.3c-0.1,0-0.2,0-0.2,0c-1.7,0-3.4,0-5,0c-0.3,0-0.4-0.1-0.4-0.3c0-0.6,0-0.6,0.5-0.6c1.5,0,3,0,4.5,0
			c0.2,0,0.3,0.1,0.4,0.3C27.4,7.8,27.4,8,27.5,8.3z"/>
		<path class="st0" d="M31.5,8.3C31.4,8.2,31.4,8.2,31.5,8.3c0.2-0.9,0.2-0.9,1-0.9c1.4,0,2.8,0,4.2,0c0.2,0,0.3,0.1,0.3,0.3
			c0,0.6,0,0.6-0.6,0.6c-1.5,0-3,0-4.5,0C31.8,8.3,31.6,8.3,31.5,8.3z"/>
		<path class="st0" d="M28.8,11.9c-0.1,0-0.2,0-0.3,0c-1.5,0-3,0-4.4,0c-0.2,0-0.3-0.1-0.3-0.3c0-0.2,0-0.4,0-0.6c0.1,0,0.2,0,0.3,0
			c1.4,0,2.8,0,4.2,0c0.2,0,0.3,0.1,0.3,0.2C28.7,11.5,28.7,11.7,28.8,11.9z"/>
		<path class="st0" d="M30.1,11.9c0.1-0.3,0.2-0.5,0.3-0.7c0-0.1,0.1-0.1,0.2-0.1c1.4,0,2.9,0,4.3,0c0.2,0,0.2,0.1,0.2,0.2
			c0,0.7,0,0.7-0.6,0.7c-1.3,0-2.7,0-4,0C30.4,11.9,30.3,11.9,30.1,11.9z"/>
		<path class="st0" d="M24.3,19.1c-0.7,0-1.4,0-2.1,0c-0.2,0-0.3-0.1-0.3-0.3c0-0.6,0-0.6,0.6-0.6c1.3,0,2.5,0,3.8,0
			c0.2,0,0.3,0,0.3,0.3c0,0.6,0,0.6-0.6,0.6C25.4,19.1,24.9,19.1,24.3,19.1z"/>
		<path class="st0" d="M24.3,21c-0.7,0-1.4,0-2.1,0c-0.2,0-0.3-0.1-0.3-0.3c0-0.6,0-0.6,0.6-0.6c1.2,0,2.5,0,3.7,0
			c0.3,0,0.3,0,0.3,0.4c0,0.5,0,0.5-0.5,0.5S24.9,21,24.3,21z"/>
		<path class="st0" d="M34.7,21c-0.7,0-1.4,0-2.1,0c-0.2,0-0.3,0-0.3-0.3c0-0.6,0-0.6,0.6-0.6c1.2,0,2.5,0,3.7,0
			c0.3,0,0.4,0.1,0.4,0.3c0,0.6,0,0.6-0.5,0.6C35.9,21,35.3,21,34.7,21L34.7,21z"/>
		<path class="st0" d="M34.7,19.1c-0.7,0-1.4,0-2.1,0c-0.2,0-0.2,0-0.3-0.2c0-0.6,0-0.6,0.6-0.6c1.3,0,2.5,0,3.8,0
			c0.2,0,0.3,0.1,0.3,0.3c0,0.6,0,0.6-0.6,0.6C35.8,19.1,35.2,19.1,34.7,19.1z"/>
		<path class="st0" d="M31.7,14.6C31.7,14.7,31.7,14.7,31.7,14.6c-0.2,0.9-0.2,0.9-1.1,0.9s-1.8,0-2.7,0c-0.2,0-0.3-0.1-0.4-0.2
			c-0.1-0.2-0.1-0.4-0.2-0.7C28.7,14.6,30.2,14.6,31.7,14.6z"/>
		<path class="st0" d="M25.2,15.6c-0.4,0-0.8,0-1.2,0c-0.2,0-0.2,0-0.2-0.2c0-0.7,0-0.7,0.7-0.7c0.6,0,1.2,0,1.9,0
			c0.2,0,0.2,0.1,0.2,0.2c0,0.7,0,0.7-0.7,0.7C25.7,15.6,25.5,15.6,25.2,15.6L25.2,15.6z"/>
		<path class="st0" d="M33.7,14.6c0.4,0,0.7,0,1.1,0c0.2,0,0.3,0,0.3,0.2c0,0.7,0,0.7-0.7,0.7c-0.6,0-1.2,0-1.9,0
			c-0.2,0-0.3,0-0.3-0.3c0-0.7,0-0.7,0.6-0.7C33.2,14.6,33.5,14.6,33.7,14.6z"/>
		<path class="st0" d="M18.1,16.5c0.3,0,0.5,0,0.7,0c0.7,0,1.3,0,2,0c0.1,0,0.2,0,0.2,0.2l0,0c0.2,0.6,0.1,0.7-0.5,0.7
			c-0.7,0-1.4,0-2.1,0c-0.2,0-0.3-0.1-0.3-0.3C18.1,16.9,18.1,16.7,18.1,16.5z"/>
		<path class="st0" d="M21.1,11c0,0.3-0.1,0.5-0.1,0.8c0,0.1-0.1,0.1-0.2,0.1c-0.8,0-1.6,0-2.5,0c-0.1,0-0.2-0.1-0.2-0.2
			c0-0.7,0-0.7,0.7-0.7c0.7,0,1.3,0,2,0C20.9,11,21,11,21.1,11z"/>
		<path class="st0" d="M7.6,14.6c0,0.3,0,0.5,0,0.8c0,0.1-0.1,0.2-0.2,0.2c-0.8,0-1.6,0-2.4,0c-0.1,0-0.2-0.1-0.2-0.2
			c-0.1-0.7-0.1-0.7,0.7-0.7C6.2,14.6,6.9,14.6,7.6,14.6z"/>
		<path class="st0" d="M31.1,16.5c-0.1,0.2-0.2,0.5-0.3,0.7c0,0.1-0.1,0.1-0.2,0.1c-0.7,0-1.5,0-2.2,0c-0.1,0-0.2-0.1-0.2-0.1
			C28,17,28,16.7,27.9,16.5C28.9,16.5,30,16.5,31.1,16.5z"/>
		<path class="st0" d="M12.5,11c0.2,0,0.5,0,0.7,0c0.6,0,1.2,0,1.8,0c0.2,0,0.2,0,0.2,0.2c0,0.8,0.1,0.6-0.6,0.7c-0.6,0-1.3,0-1.9,0
			c-0.2,0-0.3,0-0.2-0.2C12.5,11.5,12.5,11.3,12.5,11z"/>
		<path class="st0" d="M13.9,16.5c0.4,0,0.8,0,1.1,0c0.2,0,0.3,0,0.3,0.2c0,0.8,0.1,0.6-0.6,0.6c-0.6,0-1.3,0-1.9,0
			c-0.2,0-0.3-0.1-0.3-0.3c0-0.6,0-0.6,0.6-0.6C13.3,16.5,13.6,16.5,13.9,16.5z"/>
		<path class="st0" d="M25.2,16.5c0.4,0,0.8,0,1.2,0c0.2,0,0.2,0,0.2,0.2c0,0.8,0.1,0.7-0.6,0.7c-0.6,0-1.3,0-1.9,0
			c-0.2,0-0.3-0.1-0.3-0.3c0-0.6,0-0.6,0.6-0.6C24.7,16.5,24.9,16.5,25.2,16.5L25.2,16.5z"/>
		<path class="st0" d="M33.7,16.5c0.4,0,0.8,0,1.2,0c0.2,0,0.3,0,0.2,0.2c0,0.8,0.1,0.6-0.6,0.6c-0.6,0-1.3,0-1.9,0
			c-0.2,0-0.3-0.1-0.3-0.3c0-0.6,0-0.6,0.6-0.6C33.2,16.5,33.5,16.5,33.7,16.5z"/>
		<path class="st0" d="M6.3,11.9c-0.4,0-0.8,0-1.2,0c-0.2,0-0.2,0-0.2-0.2c0-0.8-0.1-0.6,0.6-0.6c0.6,0,1.3,0,1.9,0
			c0.2,0,0.2,0.1,0.2,0.2c0,0.6,0,0.6-0.6,0.6C6.8,11.9,6.5,11.9,6.3,11.9z"/>
		<path class="st0" d="M6.3,16.5c0.4,0,0.7,0,1.1,0c0.2,0,0.3,0.1,0.3,0.3c0,0.7,0.1,0.6-0.6,0.6c-0.6,0-1.2,0-1.8,0
			c-0.2,0-0.3-0.1-0.3-0.3c0-0.6,0-0.6,0.6-0.6C5.7,16.5,6,16.5,6.3,16.5L6.3,16.5z"/>
		<path class="st0" d="M7.6,13.7c-0.9,0-1.8,0-2.7,0c-0.2-0.9-0.2-0.9,0.7-0.9c0.6,0,1.2,0,1.8,0c0.2,0,0.3,0.1,0.3,0.3
			C7.6,13.3,7.6,13.5,7.6,13.7z"/>
		<path class="st0" d="M28.5,18.3c0.6,0,1.3,0,1.9,0c-0.1,0.3-0.2,0.5-0.3,0.7c0,0.1-0.1,0.1-0.2,0.1c-0.3,0-0.6,0-1,0
			c-0.1,0-0.2-0.1-0.2-0.1C28.7,18.8,28.6,18.6,28.5,18.3z"/>
		<path class="st0" d="M29.4,20.9c-0.1-0.3-0.2-0.5-0.3-0.8c0.2,0,0.4,0,0.6,0C29.7,20.4,29.6,20.7,29.4,20.9
			C29.5,20.9,29.5,20.9,29.4,20.9z"/>
	</g>
</g>
</svg>
