<?xml version="1.0" encoding="utf-8"?>
<!-- Generator: Adobe Illustrator 21.0.0, SVG Export Plug-In . SVG Version: 6.00 Build 0)  -->
<svg version="1.1" id="图层_1" xmlns="http://www.w3.org/2000/svg" xmlns:xlink="http://www.w3.org/1999/xlink" x="0px" y="0px"
	 width="40px" height="40px" viewBox="0 0 40 40" style="enable-background:new 0 0 40 40;" xml:space="preserve">
<style type="text/css">
	.st0{fill:#606060;}
</style>
<g>
	<g>
		<path class="st0" d="M9.2,27.1h0.6h0.6l1.2,4.2l0,0l1.2-4.2h0.6H14l-1.8,5.5h-0.5h-0.5L9.2,27.1z"/>
		<path class="st0" d="M15.1,32.5c0.1-0.8,0.3-1.6,0.7-2.4c0.3-0.7,0.8-1.4,1.3-2h-2.8v-0.9h3.8v0.4V28c-0.5,0.6-1,1.3-1.3,2.1
			c-0.3,0.8-0.6,1.6-0.6,2.4H15.1z"/>
		<path class="st0" d="M19.1,32c-0.3-0.4-0.5-1.1-0.5-2.1s0.2-1.7,0.5-2.1c0.3-0.5,0.8-0.7,1.4-0.7s1.1,0.2,1.4,0.7
			c0.3,0.5,0.5,1.2,0.5,2.1l0,0c0,0.9-0.1,1.6-0.5,2.1c-0.3,0.4-0.8,0.7-1.4,0.7C19.8,32.7,19.4,32.4,19.1,32z M21.1,31.4
			c0.1-0.3,0.2-0.8,0.2-1.5s-0.1-1.2-0.2-1.5S20.8,28,20.5,28s-0.5,0.1-0.6,0.4s-0.2,0.8-0.2,1.5s0.1,1.2,0.2,1.5s0.3,0.4,0.6,0.4
			S21,31.7,21.1,31.4z"/>
		<path class="st0" d="M23.3,32c-0.3-0.4-0.5-1.1-0.5-2.1s0.2-1.7,0.5-2.1c0.3-0.5,0.8-0.7,1.4-0.7c0.6,0,1.1,0.2,1.4,0.7
			c0.3,0.5,0.5,1.2,0.5,2.1l0,0c0,0.9-0.1,1.6-0.5,2.1c-0.3,0.4-0.8,0.7-1.4,0.7C24.1,32.7,23.6,32.4,23.3,32z M25.3,31.4
			c0.1-0.3,0.2-0.8,0.2-1.5s-0.1-1.2-0.2-1.5C25.2,28.1,25,28,24.7,28c-0.3,0-0.5,0.1-0.6,0.4c-0.1,0.3-0.2,0.8-0.2,1.5
			s0.1,1.2,0.2,1.5c0.1,0.3,0.3,0.4,0.6,0.4C25,31.8,25.2,31.7,25.3,31.4z"/>
		<path class="st0" d="M27.5,32c-0.3-0.4-0.5-1.1-0.5-2.1s0.2-1.7,0.5-2.1c0.3-0.5,0.8-0.7,1.4-0.7s1.1,0.2,1.4,0.7s0.5,1.2,0.5,2.1
			l0,0c0,0.9-0.1,1.6-0.5,2.1c-0.3,0.4-0.8,0.7-1.4,0.7S27.8,32.4,27.5,32z M29.5,31.4c0.1-0.3,0.2-0.8,0.2-1.5s-0.1-1.2-0.2-1.5
			S29.2,28,28.9,28c-0.3,0-0.5,0.1-0.6,0.4s-0.2,0.8-0.2,1.5s0.1,1.2,0.2,1.5s0.3,0.4,0.6,0.4S29.4,31.7,29.5,31.4z"/>
	</g>
	<g>
		<path class="st0" d="M29.5,13.6c0.1-0.2,0.1-0.4,0.2-0.6c0-0.1,0.2-0.2,0.3-0.2c1.6,0,3.3,0,4.9,0c0.2,0,0.2,0.1,0.2,0.2
			c0,0.6,0,0.6-0.6,0.6s-1.3,0-1.9,0c-0.2,0-0.3-0.1-0.3-0.3c0-0.1,0-0.2,0-0.4c0,0,0,0-0.1,0c0,0.1-0.1,0.2-0.1,0.4
			c-0.1,0.2-0.2,0.3-0.4,0.3c-1.5,0-3,0-4.5,0c-0.2,0-0.3-0.1-0.4-0.3c0-0.1-0.1-0.2-0.2-0.4c0,0.1,0,0.3,0,0.4c0,0.2,0,0.2-0.2,0.2
			c-0.8,0-1.6,0-2.4,0c-0.1,0-0.2,0-0.2-0.2c0-0.8-0.1-0.7,0.6-0.7c1.5,0,2.9,0,4.4,0c0.3,0,0.4,0.1,0.5,0.3
			C29.3,13.3,29.4,13.4,29.5,13.6L29.5,13.6z"/>
		<path class="st0" d="M21,10c-0.3,0-0.5,0-0.8,0c-3.1,0-6.2,0-9.3,0c-0.3,0-0.3,0-0.3-0.3c0-0.7-0.1-0.5,0.5-0.5c3.1,0,6.2,0,9.3,0
			c0.3,0,0.5,0.1,0.5,0.4C20.9,9.7,21,9.9,21,10z"/>
		<path class="st0" d="M15.8,18.2c1.6,0,3.3,0,4.9,0c0.3,0,0.3,0,0.2,0.3c-0.1,0.6-0.1,0.6-0.7,0.6c-3.1,0-6.2,0-9.3,0
			c-0.2,0-0.3-0.1-0.3-0.3c0-0.7-0.1-0.6,0.6-0.6C12.7,18.2,14.2,18.2,15.8,18.2z"/>
		<path class="st0" d="M19.9,20c-0.6,0.5-1.2,0.8-1.9,0.8c-0.5,0-1,0.1-1.5,0.1c-1.9,0-3.8,0-5.6,0c-0.2,0-0.3-0.1-0.3-0.3
			c0-0.7-0.1-0.6,0.6-0.6c2.8,0,5.6,0,8.4,0C19.7,20,19.8,20,19.9,20z"/>
		<path class="st0" d="M19.8,8.2c-0.2,0-0.5,0-0.7,0c-2.7,0-5.5,0-8.2,0c-0.4,0-0.4,0-0.4-0.4c0-0.5,0-0.5,0.5-0.5
			c2.1,0,4.2,0,6.3,0c0.7,0,1.4,0.1,2,0.5C19.5,7.9,19.7,8,19.8,8.2C19.9,8.2,19.8,8.2,19.8,8.2z"/>
		<path class="st0" d="M20.5,15.5c-2.7,0-5.2,0-7.8,0c-0.2,0-0.3-0.1-0.3-0.3c0-0.7,0-0.7,0.7-0.7c2.1,0,4.1,0,6.2,0
			c0.3,0,0.5,0.1,0.7,0.3C20.2,15.1,20.4,15.3,20.5,15.5z"/>
		<path class="st0" d="M20.5,12.8c-0.2,0.3-0.5,0.6-0.7,0.8c-0.1,0.1-0.2,0.1-0.3,0.1c-2.3,0-4.5,0-6.8,0c-0.2,0-0.3,0-0.3-0.2
			c0-0.6,0-0.6,0.6-0.6c2.4,0,4.9,0,7.3,0C20.4,12.8,20.4,12.8,20.5,12.8z"/>
		<path class="st0" d="M6.3,7.3c1,0,2,0,3,0c0.2,0,0.3,0,0.3,0.3c0,0.6,0,0.6-0.6,0.6c-1.9,0-3.8,0-5.6,0c-0.3,0-0.4,0-0.3-0.3
			c0-0.5,0-0.6,0.5-0.6C4.4,7.3,5.4,7.3,6.3,7.3z"/>
		<path class="st0" d="M6.3,18.2c1,0,2,0,3,0c0.2,0,0.3,0.1,0.3,0.3c0,0.6,0,0.6-0.6,0.6c-1.9,0-3.8,0-5.7,0C3,19.1,3,19,3,18.8
			c0-0.6,0-0.6,0.6-0.6C4.4,18.2,5.4,18.2,6.3,18.2z"/>
		<path class="st0" d="M6.3,10c-1,0-2,0-3.1,0C3,10,3,10,3,9.8c0-0.6,0-0.6,0.6-0.6c1.9,0,3.8,0,5.7,0c0.2,0,0.3,0.1,0.3,0.3
			C9.6,10,9.6,10,9,10C8.1,10,7.2,10,6.3,10z"/>
		<path class="st0" d="M6.3,20c1,0,2,0,2.9,0c0.2,0,0.3,0,0.3,0.3c0,0.6,0,0.6-0.6,0.6c-1.9,0-3.8,0-5.7,0C3,20.9,3,20.8,3,20.6
			C3,20,3,20,3.5,20C4.4,20,5.4,20,6.3,20L6.3,20z"/>
		<path class="st0" d="M28.2,10c-0.1,0-0.2,0-0.2,0c-1.9,0-3.8,0-5.7,0c-0.3,0-0.4,0-0.4-0.3c0-0.5,0-0.5,0.6-0.5c1.7,0,3.4,0,5.1,0
			c0.2,0,0.3,0.1,0.4,0.3C28,9.6,28.1,9.8,28.2,10z"/>
		<path class="st0" d="M30.8,10C30.9,9.7,31,9.5,31,9.3c0-0.1,0.1-0.1,0.2-0.1c1.9,0,3.7,0,5.6,0c0.2,0,0.2,0,0.2,0.2
			c0,0.7,0,0.7-0.6,0.7c-1.7,0-3.4,0-5.2,0C31.1,10,31,10,30.8,10z"/>
		<path class="st0" d="M27.5,8.2c-0.1,0-0.2,0-0.2,0c-1.7,0-3.4,0-5,0C22,8.2,22,8.1,22,7.9c0-0.6,0-0.6,0.5-0.6c1.5,0,3,0,4.5,0
			c0.2,0,0.3,0.1,0.4,0.3C27.4,7.8,27.4,8,27.5,8.2z"/>
		<path class="st0" d="M31.5,8.2C31.4,8.2,31.4,8.2,31.5,8.2c0.2-0.9,0.2-0.9,1-0.9c1.4,0,2.8,0,4.2,0c0.2,0,0.3,0.1,0.3,0.3
			c0,0.6,0,0.6-0.6,0.6c-1.5,0-3,0-4.5,0C31.8,8.2,31.6,8.2,31.5,8.2z"/>
		<path class="st0" d="M28.8,11.9c-0.1,0-0.2,0-0.3,0c-1.5,0-3,0-4.4,0c-0.2,0-0.3-0.1-0.3-0.3c0-0.2,0-0.4,0-0.6c0.1,0,0.2,0,0.3,0
			c1.4,0,2.8,0,4.2,0c0.2,0,0.3,0.1,0.3,0.2C28.7,11.4,28.7,11.6,28.8,11.9z"/>
		<path class="st0" d="M30.1,11.9c0.1-0.3,0.2-0.5,0.3-0.7c0-0.2,0.1-0.2,0.2-0.2c1.4,0,2.9,0,4.3,0c0.2,0,0.2,0.1,0.2,0.2
			c0,0.7,0,0.7-0.6,0.7c-1.3,0-2.7,0-4,0C30.4,11.9,30.3,11.9,30.1,11.9z"/>
		<path class="st0" d="M24.3,19.1c-0.7,0-1.4,0-2.1,0c-0.2,0-0.3-0.1-0.3-0.3c0-0.6,0-0.6,0.6-0.6c1.3,0,2.5,0,3.8,0
			c0.2,0,0.3,0,0.3,0.3c0,0.6,0,0.6-0.6,0.6S24.9,19.1,24.3,19.1z"/>
		<path class="st0" d="M24.3,20.9c-0.7,0-1.4,0-2.1,0c-0.2,0-0.3-0.1-0.3-0.3c0-0.6,0-0.6,0.6-0.6c1.2,0,2.5,0,3.7,0
			c0.3,0,0.3,0,0.3,0.4c0,0.5,0,0.5-0.5,0.5S24.9,20.9,24.3,20.9z"/>
		<path class="st0" d="M34.7,20.9c-0.7,0-1.4,0-2.1,0c-0.2,0-0.3,0-0.3-0.3c0-0.6,0-0.6,0.6-0.6c1.2,0,2.5,0,3.7,0
			c0.3,0,0.4,0.1,0.4,0.4c0,0.5,0,0.5-0.6,0.5C35.9,20.9,35.3,20.9,34.7,20.9L34.7,20.9z"/>
		<path class="st0" d="M34.7,19.1c-0.7,0-1.4,0-2.1,0c-0.2,0-0.2,0-0.3-0.2c0-0.6,0-0.6,0.6-0.6c1.3,0,2.5,0,3.8,0
			c0.2,0,0.3,0.1,0.3,0.3c0,0.6,0,0.6-0.6,0.6C35.8,19.1,35.2,19.1,34.7,19.1z"/>
		<path class="st0" d="M31.7,14.6L31.7,14.6c-0.2,0.9-0.2,0.9-1.1,0.9s-1.8,0-2.7,0c-0.2,0-0.3-0.1-0.4-0.2
			c-0.1-0.2-0.1-0.4-0.2-0.7C28.7,14.6,30.2,14.6,31.7,14.6z"/>
		<path class="st0" d="M25.2,15.5c-0.4,0-0.8,0-1.2,0c-0.2,0-0.2,0-0.2-0.2c0-0.7,0-0.7,0.7-0.7c0.6,0,1.2,0,1.9,0
			c0.2,0,0.2,0.1,0.2,0.2c0,0.7,0,0.7-0.7,0.7C25.7,15.5,25.5,15.5,25.2,15.5L25.2,15.5z"/>
		<path class="st0" d="M33.7,14.6c0.4,0,0.7,0,1.1,0c0.2,0,0.3,0,0.3,0.2c0,0.7,0,0.7-0.7,0.7c-0.6,0-1.2,0-1.9,0
			c-0.2,0-0.3,0-0.3-0.3c0-0.7,0-0.7,0.6-0.7C33.2,14.6,33.5,14.6,33.7,14.6z"/>
		<path class="st0" d="M18.1,16.4c0.3,0,0.5,0,0.7,0c0.7,0,1.3,0,2,0c0.1,0,0.2,0,0.2,0.2l0,0c0.2,0.6,0.1,0.7-0.5,0.7
			c-0.7,0-1.4,0-2.1,0c-0.2,0-0.3-0.1-0.3-0.3S18.1,16.6,18.1,16.4z"/>
		<path class="st0" d="M21.1,11c0,0.3-0.1,0.5-0.1,0.7c0,0.1-0.1,0.1-0.2,0.1c-0.8,0-1.6,0-2.5,0c-0.1,0-0.2-0.1-0.2-0.2
			c0-0.6,0-0.6,0.7-0.6c0.7,0,1.3,0,2,0C20.9,11,21,11,21.1,11z"/>
		<path class="st0" d="M7.6,14.6c0,0.3,0,0.5,0,0.8c0,0.1-0.1,0.2-0.2,0.2c-0.8,0-1.6,0-2.4,0c-0.1,0-0.2-0.1-0.2-0.2
			c-0.1-0.7-0.1-0.7,0.7-0.7C6.2,14.6,6.9,14.6,7.6,14.6z"/>
		<path class="st0" d="M31.1,16.4c-0.1,0.3-0.2,0.5-0.3,0.7c0,0.1-0.1,0.1-0.2,0.1c-0.7,0-1.5,0-2.2,0c-0.1,0-0.2-0.1-0.2-0.1
			c-0.2-0.2-0.2-0.4-0.3-0.7C28.9,16.4,30,16.4,31.1,16.4z"/>
		<path class="st0" d="M12.5,11c0.2,0,0.5,0,0.7,0c0.6,0,1.2,0,1.8,0c0.2,0,0.2,0,0.2,0.2c0,0.8,0.1,0.6-0.6,0.7c-0.6,0-1.3,0-1.9,0
			c-0.2,0-0.3,0-0.2-0.2C12.5,11.4,12.5,11.2,12.5,11z"/>
		<path class="st0" d="M13.9,16.4c0.4,0,0.8,0,1.1,0c0.2,0,0.3,0,0.3,0.2c0,0.8,0.1,0.6-0.6,0.6c-0.6,0-1.3,0-1.9,0
			c-0.3,0.1-0.4,0-0.3-0.2c0-0.6,0-0.6,0.6-0.6C13.3,16.4,13.6,16.4,13.9,16.4z"/>
		<path class="st0" d="M25.2,16.4c0.4,0,0.8,0,1.2,0c0.2,0,0.2,0,0.2,0.2c0,0.8,0.1,0.7-0.6,0.7c-0.6,0-1.3,0-1.9,0
			c-0.2,0-0.3-0.1-0.3-0.3c0-0.6,0-0.6,0.6-0.6C24.7,16.4,24.9,16.4,25.2,16.4L25.2,16.4z"/>
		<path class="st0" d="M33.7,16.4c0.4,0,0.8,0,1.2,0c0.2,0,0.3,0,0.2,0.2c0,0.8,0.1,0.6-0.6,0.6c-0.6,0-1.3,0-1.9,0
			c-0.2,0-0.3-0.1-0.3-0.3c0-0.6,0-0.6,0.6-0.6C33.2,16.4,33.5,16.4,33.7,16.4z"/>
		<path class="st0" d="M6.3,11.9c-0.4,0-0.8,0-1.2,0c-0.2,0-0.2,0-0.2-0.2c0-0.9-0.1-0.7,0.6-0.7c0.6,0,1.3,0,1.9,0
			c0.2,0,0.3,0,0.3,0.2c0,0.6,0,0.6-0.6,0.6C6.8,11.9,6.5,11.9,6.3,11.9z"/>
		<path class="st0" d="M6.3,16.4c0.4,0,0.7,0,1.1,0c0.2,0,0.3,0.1,0.3,0.3c0,0.7,0.1,0.6-0.6,0.6c-0.6,0-1.2,0-1.8,0
			C5.1,17.3,5,17.2,5,17c0-0.6,0-0.6,0.6-0.6C5.7,16.4,6,16.4,6.3,16.4L6.3,16.4z"/>
		<path class="st0" d="M7.6,13.7c-0.9,0-1.8,0-2.7,0c-0.2-0.9-0.2-0.9,0.7-0.9c0.6,0,1.2,0,1.8,0c0.2,0,0.3,0.1,0.3,0.3
			C7.6,13.3,7.6,13.4,7.6,13.7z"/>
		<path class="st0" d="M28.5,18.2c0.6,0,1.3,0,1.9,0c-0.1,0.3-0.2,0.5-0.3,0.7c0,0.1-0.1,0.2-0.1,0.2c-0.3,0-0.6,0-1,0
			c-0.1,0-0.2-0.1-0.2-0.1C28.7,18.7,28.6,18.5,28.5,18.2z"/>
		<path class="st0" d="M29.4,20.9c-0.1-0.3-0.2-0.5-0.3-0.8c0.2,0,0.4,0,0.6,0C29.7,20.3,29.6,20.6,29.4,20.9
			C29.5,20.9,29.5,20.9,29.4,20.9z"/>
	</g>
</g>
</svg>
