<?xml version="1.0" encoding="utf-8"?>
<!-- Generator: Adobe Illustrator 21.0.0, SVG Export Plug-In . SVG Version: 6.00 Build 0)  -->
<svg version="1.1" id="图层_1" xmlns="http://www.w3.org/2000/svg" xmlns:xlink="http://www.w3.org/1999/xlink" x="0px" y="0px"
	 width="40px" height="40px" viewBox="0 0 40 40" style="enable-background:new 0 0 40 40;" xml:space="preserve">
<style type="text/css">
	.st0{fill:#606060;}
</style>
<g>
	<path class="st0" d="M13.5,14.8h-1.3v10.4h1.3v2.6h-6v-2.6h1.3V14.8H7.5v-2.6h6V14.8z"/>
	<path class="st0" d="M20.4,14.8h-1.3v10.4h1.3v2.6h-6v-2.6h1.3V14.8h-1.2v-2.6h6v2.6H20.4z"/>
	<path class="st0" d="M22,23.9c1.3,1,2.7,1.6,4.3,1.6c0.9,0,1.6-0.2,2-0.5c0.5-0.3,0.7-0.7,0.7-1.2c0-0.4-0.2-0.8-0.5-1.2
		c-0.5-0.4-1.4-0.9-3-1.6c-2.4-1-3.6-2.5-3.6-4.5c0-1.4,0.6-2.6,1.7-3.4c1.1-0.7,2.5-1.1,4.3-1.1c1.5,0,2.8,0.2,3.8,0.6v3.1
		c-1-0.7-2.3-1.1-3.7-1.1c-0.8,0-1.5,0.1-2,0.4s-0.7,0.7-0.7,1.2c0,0.4,0.2,0.8,0.5,1.1c0.3,0.3,1.2,0.8,2.5,1.4
		c1.5,0.7,2.6,1.4,3.2,2.1c0.6,0.7,0.9,1.6,0.9,2.6c0,1.5-0.5,2.6-1.6,3.4S28.2,28,26.3,28c-1.8,0-3.2-0.3-4.4-0.9v-3.2H22z"/>
</g>
</svg>
