<?xml version="1.0" encoding="utf-8"?>
<!-- Generator: Adobe Illustrator 21.0.0, SVG Export Plug-In . SVG Version: 6.00 Build 0)  -->
<svg version="1.1" id="图层_1" xmlns="http://www.w3.org/2000/svg" xmlns:xlink="http://www.w3.org/1999/xlink" x="0px" y="0px"
	 width="40px" height="40px" viewBox="0 0 40 40" style="enable-background:new 0 0 40 40;" xml:space="preserve">
<style type="text/css">
	.st0{fill:#606060;}
</style>
<g>
	<path class="st0" d="M4.4,14.2h1.2h1.2v11.6H5.6H4.4V14.2z"/>
	<path class="st0" d="M9.1,14.2h1.2H14c1.3,0,2.3,0.3,3,0.9c0.7,0.6,1,1.5,1,2.7c0,1.3-0.3,2.2-1,2.9c-0.7,0.7-1.7,1-3,1
		c-0.9,0-1.8,0-2.4,0v4.1h-1.2H9.1V14.2z M11.5,19.7h2c0.7,0,1.2-0.2,1.5-0.5s0.5-0.8,0.5-1.4s-0.2-1-0.5-1.2
		c-0.3-0.3-0.9-0.4-1.5-0.4h-2V19.7z"/>
	<path class="st0" d="M22,25.8h-1.1h-1.1V14.2h1.8h1.8l2.1,9.2l0,0l2.1-9.2h1.8h1.8v11.6h-1.1H29V16l0,0l-2.2,9.8h-1.2h-1.2l-2.2-10
		l0,0v10H22z"/>
	<path class="st0" d="M33.2,14.2h1.2h1.2v11.6h-1.2h-1.2V14.2z"/>
</g>
</svg>
