<?xml version="1.0" encoding="utf-8"?>
<!-- Generator: Adobe Illustrator 21.0.0, SVG Export Plug-In . SVG Version: 6.00 Build 0)  -->
<svg version="1.1" id="图层_1" xmlns="http://www.w3.org/2000/svg" xmlns:xlink="http://www.w3.org/1999/xlink" x="0px" y="0px"
	 width="40px" height="40px" viewBox="0 0 40 40" style="enable-background:new 0 0 40 40;" xml:space="preserve">
<style type="text/css">
	.st0{fill:#606060;}
</style>
<g>
	<g>
		<path class="st0" d="M13,28.2c-0.3,0-0.7,0-1.1,0c0,0.2,0,0.4,0,0.6c0,2.1,0,4.2,0,6.3c0,0.9-0.3,1.5-1,2l-0.1,0.1
			c0.2,0.2,0.4,0.4,0.5,0.6c0,0,0,0,0.1,0l0.1-0.1c1.1-0.5,1.6-1.4,1.6-2.6c0-2.1,0-4.3,0-6.4c0-0.1,0-0.2,0-0.3
			C13.1,28.2,13,28.2,13,28.2z"/>
		<path class="st0" d="M28.8,31.5c0-0.7-0.4-1.2-1.1-1.4c-1-0.3-1.9-0.1-2.9,0.3c-0.1,0-0.1,0.1-0.1,0.2c0,0.2,0.1,0.4,0.1,0.6
			c0.1,0,0.2-0.1,0.3-0.1c0.4-0.1,0.9-0.2,1.3-0.2c1,0,1.3,0.3,1.3,1.3c0,0.2-0.1,0.2-0.2,0.2c-0.4,0-0.8,0-1.1,0.1
			c-0.6,0.1-1.2,0.3-1.6,0.8s-0.4,1.1-0.2,1.7c0.2,0.5,0.6,0.7,1.1,0.8c0.7,0.1,1.3-0.1,1.9-0.5c0.1-0.1,0.1-0.1,0.2-0.2
			c0,0.2,0.1,0.4,0.1,0.5c0.3,0,0.6,0,0.8,0c0-0.1,0-0.1,0-0.1C28.8,34.2,28.8,32.8,28.8,31.5z M27.4,34.7c-0.4,0.2-0.9,0.4-1.3,0.2
			c-0.3-0.1-0.4-0.4-0.5-0.7c0-0.4,0.1-0.7,0.4-0.9c0.5-0.3,1-0.2,1.6-0.2c0,0,0.1,0.1,0.1,0.2c0,0.2,0,0.3,0,0.5l0,0v0.1
			C27.7,34.2,27.7,34.5,27.4,34.7z"/>
		<path class="st0" d="M17.4,30.2C17,30,16.5,30,16,30c-0.6,0-1.2,0.2-1.7,0.4c0.1,0.2,0.1,0.4,0.2,0.7c0.3-0.1,0.5-0.2,0.8-0.2
			s0.5-0.1,0.8-0.1c0.9,0,1.2,0.3,1.2,1.3c0,0.2-0.1,0.3-0.3,0.3c-0.5,0-1,0.1-1.5,0.2c-0.9,0.2-1.4,0.8-1.4,1.6
			c-0.1,0.8,0.3,1.4,1.1,1.6c0.7,0.2,1.4,0,2-0.4c0.1-0.1,0.2-0.1,0.3-0.2c0,0.2,0.1,0.4,0.1,0.6c0.2,0,0.4,0,0.7,0
			c0.1,0,0.2-0.1,0.2-0.2c0-1.3,0-2.7,0-4C18.3,30.8,18,30.4,17.4,30.2z M16.9,34.7c-0.4,0.2-0.9,0.4-1.3,0.2
			c-0.3-0.1-0.4-0.4-0.4-0.8c0-0.3,0.1-0.6,0.4-0.8c0.5-0.3,1-0.2,1.6-0.2c0,0,0.1,0.1,0.1,0.2c0,0.2,0,0.4,0,0.5l0,0v0.1
			C17.3,34.2,17.3,34.5,16.9,34.7z"/>
		<path class="st0" d="M23,30.1c-0.2,0-0.3,0-0.3,0.2c-0.2,1.3-0.5,2.6-1,3.9c0,0.1-0.1,0.2-0.1,0.3c0-0.1-0.1-0.2-0.1-0.2
			c-0.4-1.3-0.8-2.6-1.2-4c0-0.1-0.1-0.2-0.2-0.2c-0.3,0-0.7,0-1.1,0c0.1,0.4,0.2,0.7,0.3,1.1c0.4,1.4,0.9,2.8,1.3,4.2
			c0.1,0.2,0.1,0.2,0.3,0.2c0.3,0,0.6,0,0.9,0c0.2,0,0.3-0.1,0.3-0.2c0.6-1.4,1.1-2.9,1.4-4.4c0.1-0.3,0.1-0.6,0.2-0.9
			C23.6,30.1,23.3,30.1,23,30.1z"/>
	</g>
	<g>
		<path class="st0" d="M19.5,14.8c0.2,0.2,0.4,0.4,0.7,0.6l0,0c0-0.1-0.1-0.1-0.1-0.2c-0.4-0.6-0.8-1.2-1.2-1.8
			c-0.9-1.4-0.8-2.6,0.4-3.8c0.3-0.3,0.6-0.6,1-0.9c0.7-0.6,1.5-1.2,2-2c0.7-0.9,1.2-1.9,1-3.1c-0.1-0.5-0.3-1-0.6-1.3
			c0.4,1.7-0.2,3-1.4,4.1c-0.5,0.4-1,0.8-1.5,1.3c-0.7,0.6-1.4,1.2-2.1,1.9c-0.3,0.3-0.6,0.7-0.7,1.2c-0.1,0.7,0.1,1.3,0.4,1.8
			C18.1,13.4,18.8,14.1,19.5,14.8z"/>
		<path class="st0" d="M22.4,25.2c1.3-0.1,2.6-0.3,3.9-0.6c0.6-0.2,1.2-0.3,1.7-0.7c0.3-0.3,0.3-0.5-0.1-0.7
			c0.1,0.4-0.2,0.6-0.5,0.7C27,24,26.5,24.1,26,24.2c-1.9,0.4-3.8,0.5-5.8,0.5c-0.8,0-1.6,0-2.4,0c-1.2,0-2.4-0.1-3.6-0.3
			c-0.4-0.1-0.8-0.2-1.2-0.4c-0.3-0.1-0.3-0.3-0.1-0.5c0.1,0,0.1-0.1,0.2-0.1c0.6-0.3,1.2-0.5,1.9-0.5c-0.1,0-0.1,0-0.1-0.1
			c-0.1,0-0.1,0-0.2,0c-0.9,0-1.8,0.2-2.7,0.6c-0.2,0.1-0.4,0.3-0.6,0.4c-0.3,0.2-0.2,0.5,0.1,0.7c0.2,0.1,0.5,0.2,0.8,0.3
			c1.9,0.3,3.9,0.5,5.8,0.6C19.5,25.4,21,25.3,22.4,25.2z"/>
		<path class="st0" d="M24.6,7.8c0.1-0.1,0.3-0.2,0.4-0.3c0.1-0.1,0.3-0.2,0.4-0.3c-1,0.2-1.9,0.6-2.7,1.1C22,8.7,21.4,9.1,21,9.7
			c-0.7,0.8-0.9,1.8-0.4,2.8c0.2,0.5,0.5,0.9,0.8,1.3c0.6,0.8,0.6,1.5,0.1,2.2c-0.1,0.1-0.1,0.1-0.2,0.2c0.6-0.4,1.2-0.8,1.5-1.4
			c0.3-0.6,0.3-1.1,0-1.7c-0.2-0.3-0.4-0.6-0.6-0.9c-0.2-0.4-0.5-0.7-0.5-1.2c0-0.6,0.3-1.1,0.7-1.5C23,8.8,23.8,8.3,24.6,7.8z"/>
		<path class="st0" d="M16.4,21.3c-0.1,0-0.2,0.1-0.3,0.2c-0.3,0.2-0.3,0.5,0,0.7c0.1,0.1,0.3,0.2,0.5,0.3c0.8,0.4,1.8,0.5,2.7,0.5
			c1.1,0.1,2.2,0,3.3-0.3c0.5-0.1,1-0.3,1.6-0.5c-0.5-0.2-0.8-0.4-1.2-0.6c-0.1,0-0.2,0-0.3,0c-1.4,0.3-2.8,0.4-4.2,0.3
			c-0.4,0-0.9-0.1-1.3-0.2c-0.3-0.1-0.4-0.2-0.3-0.5C16.7,21.2,16.5,21.2,16.4,21.3z"/>
		<path class="st0" d="M13.4,17.1c0.2,0.1,0.5,0.2,0.7,0.3c0.8,0.1,1.7,0.3,2.6,0.3c2.1,0.1,4.1,0,6.2-0.3c0.8-0.1,1.6-0.3,2.3-0.8
			c-0.3,0-0.6,0.1-0.9,0.1c-0.8,0.1-1.7,0.2-2.5,0.3c-0.6,0.1-1.3,0.1-1.9,0.1c-1.2,0-2.5,0-3.7,0c-0.3,0-0.7-0.1-1-0.2
			s-0.3-0.3-0.1-0.4c0.1-0.1,0.2-0.1,0.3-0.2c0.6-0.2,1.2-0.4,1.7-0.6c-1,0-2,0.3-3,0.7c-0.3,0.1-0.6,0.3-0.9,0.4
			C13.2,16.8,13.2,17,13.4,17.1z"/>
		<path class="st0" d="M23.6,19.1c-0.1,0-0.2,0-0.2,0c-1.4,0.3-2.8,0.5-4.2,0.4c-0.9,0-1.7-0.1-2.6-0.2c-0.5-0.1-0.5-0.3-0.3-0.7
			c0,0,0,0,0-0.1c-0.3,0.2-0.6,0.3-0.9,0.5c-0.3,0.2-0.3,0.5,0,0.7c0.1,0.1,0.2,0.2,0.4,0.2c0.9,0.4,1.8,0.4,2.7,0.5
			c1.4,0.1,2.9,0,4.3-0.3c0.5-0.1,1.1-0.2,1.6-0.4C24.1,19.4,23.9,19.2,23.6,19.1z"/>
		<path class="st0" d="M20.9,26.2c-2.1,0.1-4.1,0-6.2-0.3c0.1,0.1,0.3,0.1,0.4,0.2c1.3,0.4,2.7,0.4,4,0.5c1.1,0,2.2,0,3.2,0
			c1.2-0.1,2.4-0.2,3.5-0.4c0.9-0.1,1.7-0.4,2.5-0.8c0.4-0.2,0.7-0.5,0.8-0.9c-0.5,0.4-1.1,0.6-1.7,0.8
			C25.4,25.9,23.1,26.1,20.9,26.2z"/>
		<path class="st0" d="M26.4,19.5c-0.3,0.2-0.6,0.4-0.9,0.5l0,0c0.3-0.1,0.6-0.2,0.9-0.3c0.9-0.3,1.7-0.7,2.3-1.5
			c0.6-0.7,0.6-1.6,0.1-2.2c-0.6-0.8-2-0.9-2.7-0.4c0,0,0,0-0.1,0.1c0.1,0,0.2-0.1,0.3-0.1c0.4-0.1,0.8,0,1.2,0.2
			c0.7,0.5,0.9,1.3,0.4,2.1C27.6,18.6,27.1,19.1,26.4,19.5z"/>
	</g>
</g>
</svg>
