<?xml version="1.0" encoding="utf-8"?>
<!-- Generator: Adobe Illustrator 21.0.0, SVG Export Plug-In . SVG Version: 6.00 Build 0)  -->
<svg version="1.1" id="图层_1" xmlns="http://www.w3.org/2000/svg" xmlns:xlink="http://www.w3.org/1999/xlink" x="0px" y="0px"
	 width="40px" height="40px" viewBox="0 0 40 40" style="enable-background:new 0 0 40 40;" xml:space="preserve">
<style type="text/css">
	.st0{fill:#606060;}
</style>
<g>
	<g>
		<g>
			<g>
				<path class="st0" d="M11.9,30.5l-0.5,2.7H4.7v-0.3c0.4,0,0.6-0.1,0.7-0.1c0.2-0.1,0.3-0.3,0.3-0.6v-5.5c0-0.3-0.1-0.5-0.3-0.6
					C5.3,26,5,26,4.7,26v-0.3h4.1V26c-0.5,0-0.8,0.1-0.9,0.2c-0.2,0.1-0.3,0.4-0.3,0.8v5.4c0,0.3,0.1,0.5,0.3,0.5
					C8,32.9,8.3,33,8.6,33c0.8,0,1.4-0.2,1.8-0.6c0.4-0.3,0.8-0.9,1-1.7h0.5V30.5z"/>
				<path class="st0" d="M15.7,33.2h-3v-0.3c0.4-0.1,0.7-0.3,0.7-0.6v-3.4c0-0.2-0.1-0.4-0.4-0.4v-0.3l2.1-0.4v4.5
					c0,0.4,0.2,0.6,0.6,0.6C15.7,32.9,15.7,33.2,15.7,33.2z M15.2,26.3c0,0.3-0.1,0.5-0.3,0.7c-0.2,0.2-0.4,0.3-0.7,0.3
					s-0.5-0.1-0.7-0.3s-0.3-0.4-0.3-0.7c0-0.7,0.3-1,1-1c0.3,0,0.5,0.1,0.7,0.3C15.1,25.8,15.2,26,15.2,26.3z"/>
				<path class="st0" d="M22.7,33.2h-2.9v-0.3c0.4,0,0.6-0.2,0.6-0.6v-2.8c0-0.6-0.2-0.9-0.6-0.9c-0.3,0-0.7,0.2-0.9,0.5
					c-0.1,0.1-0.1,0.1-0.1,0.2v3.1c0,0.3,0.2,0.5,0.6,0.6v0.3h-2.9V33c0.3-0.1,0.4-0.1,0.5-0.2s0.2-0.2,0.2-0.5v-3.4
					c0-0.2-0.1-0.3-0.4-0.4v-0.3l2-0.4v0.9c0.4-0.6,0.9-0.9,1.6-0.9c0.5,0,0.9,0.2,1.2,0.5c0.3,0.3,0.4,0.7,0.4,1.2v2.9
					c0,0.4,0.2,0.6,0.6,0.6v0.2H22.7z"/>
				<path class="st0" d="M29.2,33c-0.5,0-0.9,0.1-1.2,0.1c-0.4,0.1-0.8,0.2-1.1,0.3v-0.7c-0.6,0.5-1.1,0.7-1.6,0.7s-0.9-0.1-1.2-0.4
					c-0.3-0.3-0.4-0.7-0.4-1.2v-2.9c0-0.2-0.1-0.3-0.4-0.4v-0.3l2-0.4v4c0,0.5,0.2,0.8,0.6,0.8c0.3,0,0.6-0.2,1-0.5v-3.3
					c0-0.2-0.1-0.3-0.4-0.4v-0.3l2-0.4V32c0,0.3,0.2,0.6,0.7,0.6V33z"/>
				<path class="st0" d="M35.6,33.2h-3v-0.3c0.4,0,0.5-0.1,0.5-0.1s-0.3-0.5-0.9-1.4l-0.8,0.9c-0.1,0.1-0.2,0.2-0.2,0.3
					c0,0.1,0.2,0.2,0.6,0.3v0.3h-2v-0.3c0.3,0,0.6-0.2,0.9-0.5l1.1-1.4l-1.4-2.2c-0.2-0.3-0.4-0.4-0.7-0.5V28h3.1v0.3
					c-0.4,0-0.6,0.1-0.6,0.2s0.3,0.5,0.8,1.3l0.8-0.9c0.1-0.1,0.1-0.2,0.1-0.3c0-0.1-0.1-0.2-0.2-0.2c0,0-0.1,0-0.4,0v-0.3h2v0.3
					c-0.3,0-0.6,0.2-0.8,0.4l-1.2,1.4l1.8,2.6c0.1,0.1,0.2,0.2,0.4,0.2L35.6,33.2L35.6,33.2z"/>
			</g>
			<g>
				<g>
					<path class="st0" d="M23.9,24.5c-0.3,0-0.6-0.1-0.8-0.2c-0.3-0.1-0.4-0.3-0.4-0.4c-0.1-0.2-0.2-0.3-0.7-0.3s-0.9,0-1.4,0
						c-0.4,0-0.8,0-1.2,0c-0.8,0-1.1,0.3-1.5,0.5c-0.3,0.2-0.5,0.4-1,0.4c-0.3,0-0.7-0.1-1.1-0.3c-0.4-0.1-1-0.3-1.6-0.5
						c-0.2,0-0.4-0.1-0.6-0.1c-0.7-0.1-1.3-0.2-1.4-0.5c-0.1-0.3,0-0.5,0.1-0.8c0.1-0.2,0.1-0.3,0.1-0.4c0-0.2,0-0.4-0.1-0.6
						c-0.1-0.4-0.2-0.7,0-0.9c0.2-0.2,0.4-0.2,0.7-0.2c0.2,0,0.4,0,0.6-0.1c0.4-0.2,0.5-0.3,0.5-0.8v-0.4l0.1,0.4
						c0.2,0.5,0,0.9-0.4,1.1c-0.2,0.1-0.5,0.2-0.9,0.1c-0.2,0-0.3,0-0.4,0.1s0,0.3,0.1,0.5c0,0.1,0.1,0.1,0.1,0.2
						c0.1,0.2,0.2,0.3,0.2,0.6c0,0.2-0.1,0.3-0.2,0.5c-0.1,0.2-0.2,0.3-0.2,0.5c0,0.1,0.1,0.2,0.3,0.2c0.2,0.1,0.5,0.1,0.8,0.2
						c0.3,0.1,0.7,0.1,1.1,0.2c0.3,0.1,0.5,0.1,0.8,0.2c0.5,0.2,1,0.3,1.4,0.3c0.4-0.1,0.7-0.2,0.8-0.5c0.3-0.6-0.3-1.5-0.4-1.6
						c-1-1.7-1.9-3-2.5-3c-0.1,0-0.2,0.1-0.3,0.1c-0.1,0.1-0.1,0-0.2,0c-0.1-0.1-0.1-0.4-0.1-0.5c0-0.4,0.2-0.7,0.4-1
						c0.1-0.1,0.2-0.3,0.2-0.5c0.1-0.2,0.2-0.4,0.3-0.6c0.3-0.8,0.6-1.6,1.1-2c0.7-0.9,1.2-1.5,1.3-1.9c-0.2-1-0.2-2.2-0.2-3
						c0-1.1,0.2-2,1.4-2.6c0.3-0.1,0.6-0.2,1.1-0.2l0,0c0.8,0,1.6,0.2,2,0.6c0.9,0.6,1.4,1.9,1.3,2.7c0,0.6,0.1,1.3,0.3,2.1
						c0.3,0.8,0.6,1.4,1.4,2.1c0.8,0.8,1.5,2.4,1.7,3.5c0.1,0.8,0,1.3-0.1,1.5c-0.1,0.1-0.1,0.1-0.2,0.1c-0.1,0-0.2,0.1-0.3,0.3
						c-0.2,0.3-0.6,0.7-1.2,0.7l0,0c0,0,0,0-0.1,0c-0.6,0-0.8-0.3-0.9-0.6c0-0.1-0.1-0.1-0.1-0.2c-0.1-0.2-0.2-0.3-0.3-0.3
						s-0.2,0.2-0.3,0.4c0,0.4,0,0.8,0.1,1.1c0.2,0.6,0.1,1.3,0,1.9c-0.1,0.4,0,0.7,0.2,1c0.2,0.2,0.4,0.3,0.7,0.3s0.6-0.1,0.9-0.3
						c0.8-0.6,1-0.7,2.1-1.1c0.8-0.3,1-0.5,1-0.6c0-0.2-0.3-0.3-0.8-0.5c-0.3-0.1-0.6-0.4-0.7-0.9c-0.1-0.4,0-0.8,0.1-0.9l0.1-0.1
						v0.1c0.1,1.1,0.6,1.4,0.9,1.5c0,0,0.1,0,0.1,0.1c0.3,0.2,0.5,0.4,0.5,0.6c0,0.5-0.8,0.8-1.4,1.1c-0.1,0-0.2,0.1-0.3,0.1
						c-0.6,0.3-1.3,0.9-1.7,1.2C24.6,24.4,24.3,24.5,23.9,24.5z M20.9,23.4c0.3,0,0.6,0,1,0c0.6,0,0.7,0.2,0.8,0.4
						c0.1,0.1,0.2,0.3,0.4,0.4c0.2,0.1,0.5,0.1,0.8,0.1c0.4,0,0.7-0.1,0.8-0.2c0.3-0.2,1.1-0.9,1.7-1.2c0.1,0,0.2-0.1,0.3-0.1
						c0.5-0.2,1.4-0.6,1.4-1c0-0.2-0.1-0.3-0.4-0.5c0,0-0.1,0-0.1-0.1c-0.3-0.2-0.9-0.4-1-1.4c0,0.1-0.1,0.4,0,0.6
						c0,0.2,0.2,0.6,0.6,0.8c0.5,0.2,0.8,0.4,0.8,0.7c0,0.3-0.3,0.5-1,0.7c-1,0.3-1.2,0.4-2,1.1c-0.3,0.2-0.6,0.4-1,0.4
						c-0.3,0-0.6-0.1-0.8-0.3c-0.2-0.2-0.3-0.6-0.2-1.1c0.1-0.7,0.2-1.3,0-1.9c-0.1-0.3-0.1-0.7-0.1-1c0.1-0.3,0.2-0.5,0.4-0.5
						c0.1,0,0.3,0.1,0.4,0.3c0,0.1,0.1,0.1,0.1,0.2c0.2,0.2,0.3,0.4,0.8,0.4c0,0,0,0,0.1,0l0,0c0.6,0,0.9-0.4,1.1-0.7
						c0.1-0.2,0.2-0.3,0.4-0.3c0,0,0.1,0,0.1-0.1c0.1-0.2,0.3-0.7,0.1-1.4c-0.2-1.1-0.9-2.7-1.6-3.5c-0.8-0.7-1.2-1.3-1.4-2.2
						c-0.3-0.8-0.4-1.5-0.3-2.1c0.1-0.8-0.4-2-1.2-2.6c-0.6-0.3-1.3-0.5-2.1-0.5l0,0c-0.5,0-0.8,0.1-1.1,0.2
						c-1.1,0.6-1.3,1.4-1.3,2.5c0,0.9,0,2,0.2,3.1l0,0l0,0c-0.2,0.4-0.8,1.3-1.4,1.9c-0.5,0.4-0.8,1.2-1.1,2c0,0.2-0.1,0.4-0.2,0.6
						c0,0.2-0.1,0.3-0.2,0.5c-0.2,0.2-0.3,0.5-0.3,0.9c0,0.3,0,0.5,0.1,0.5l0,0c0.1-0.1,0.2-0.1,0.4-0.1c0.7,0,1.5,1.2,2.7,2.9
						c0.1,0.1,0.7,1.1,0.4,1.8c-0.2,0.2-0.5,0.4-1,0.4c-0.4,0-0.9-0.1-1.4-0.3c-0.3-0.1-0.5-0.2-0.8-0.2c-0.4-0.1-0.8-0.2-1.1-0.2
						c-0.3-0.1-0.6-0.1-0.8-0.2c-0.3-0.1-0.4-0.2-0.4-0.3c0-0.2,0.1-0.3,0.2-0.5c0.1-0.1,0.2-0.3,0.2-0.4c0-0.2-0.1-0.4-0.1-0.5
						c0-0.1-0.1-0.1-0.1-0.2c-0.1-0.3-0.2-0.5,0-0.6c-0.2-0.2,0-0.2,0.3-0.2s0.6,0,0.8-0.1c0.2-0.1,0.3-0.3,0.3-0.6
						c0,0.2-0.2,0.3-0.5,0.5c-0.2,0.1-0.4,0.1-0.6,0.1s-0.4,0-0.6,0.1c-0.2,0.1-0.1,0.4,0,0.7c0.1,0.2,0.1,0.5,0.1,0.7
						c0,0.2-0.1,0.3-0.2,0.5c-0.1,0.2-0.2,0.5-0.1,0.7c0.1,0.3,0.7,0.4,1.4,0.5c0.2,0,0.4,0.1,0.6,0.1c0.7,0.1,1.2,0.3,1.6,0.5
						c0.4,0.1,0.8,0.3,1.1,0.3c0.4,0,0.6-0.1,0.9-0.3c0.3-0.2,0.7-0.5,1.5-0.5c0.4,0,0.8,0,1.2,0C20.7,23.4,20.8,23.4,20.9,23.4z
						 M18.3,23.6v-0.1c0-0.7-0.2-0.9-0.4-1.2c-0.1-0.2-0.2-0.3-0.3-0.5v-0.1h0.1c0.3,0,0.5-0.2,0.5-0.4c0.1-0.2,0-0.4-0.1-0.5
						c-0.1-0.1-0.4-0.3-0.7-0.5c-0.5-0.4-1.2-0.9-1.4-1.1c-0.1-0.1-0.1-0.2-0.2-0.2c-0.1-0.1-0.2-0.2-0.3-0.3
						c-0.1-0.3-0.5-1.1-0.1-1.7c0,0,0-0.1,0.1-0.1l0,0l0,0c0,0,0,0.1,0,0.2c-0.1,0.6,0,1.1,0.2,1.3c0.2,0.2,0.3,0.2,0.3,0.2
						s0,0,0.1-0.1c0.1-0.2,0.1-0.4,0-0.7c0-0.2,0-0.4,0-0.6c0.1-0.6,0.8-2,1.2-2.2c-0.3-0.5,0-1,0.2-1.4c0.2-0.3,0.4-0.6,0.4-0.9
						c0-0.1,0-0.1,0-0.2c0,0,0,0,0.1,0s0.2,0.1,0.3,0.3c0.2,0.2,0.4,0.5,0.6,0.6c0.3,0.3,0.6,0,1.1-0.3c0.2-0.1,0.5-0.3,0.8-0.5h0.1
						c0.1-0.1,0.3-0.2,0.3-0.2s0-0.1-0.1-0.1c-0.1,0-0.3,0.1-0.6,0.2c-0.3,0.3-0.7,0.5-1.2,0.5c-0.4,0-0.5,0-0.7-0.2
						c-0.2-0.2-0.2-0.2-0.2-0.3s0.1-0.1,0.2,0c0.1,0,0.3,0,0.4,0s0.2,0,0.3,0c0.3,0,0.4-0.1,0.6-0.2H20c0.1,0,0.2-0.1,0.3-0.1h0.1
						c-0.1,0-0.3,0.1-0.4,0.1c-0.1,0-0.1,0-0.1,0c-0.2,0-0.5,0.1-1,0.1c-0.4,0-0.6-0.1-0.7-0.3c-0.1-0.1-0.1-0.2-0.3-0.3
						c-0.1,0-0.1-0.1-0.1-0.2c0-0.1,0.1-0.3,0.2-0.4c0,0,0.1-0.1,0.2-0.1c0,0,0.2-0.1,0.2-0.2c0,0,0.2-0.2,0.3-0.3
						c0-0.1,0-0.4-0.1-0.6c0,0-0.1-0.1-0.1-0.1l0,0c-0.2,0-0.3,0.1-0.3,0.1c-0.1,0.1-0.1,0.2-0.1,0.4c0,0.2,0.2,0.4,0.2,0.4
						c0.1,0,0.1,0.1,0.1,0.1c0,0.1-0.1,0.2-0.2,0.3c-0.1,0-0.1,0-0.2-0.1c-0.1-0.2-0.3-0.7-0.2-0.9c0-0.3,0.2-0.9,0.7-0.9
						c0.4,0,0.7,0.5,0.7,1.3c0,0,0.1,0,0.2,0s0.1,0,0.2,0c0.1,0,0.2,0,0.3,0.1l0,0c0-0.2-0.1-0.7,0.2-1.1c0.2-0.2,0.4-0.3,0.8-0.4
						l0,0l0,0c0.4,0.1,0.8,0.2,1,1.1l0,0l0,0c0,0,0,0.1,0,0.2c0,0.2,0,0.5-0.2,0.6c-0.3,0-0.4,0-0.5-0.1c0-0.1,0-0.1,0.1-0.3
						c0.1-0.1,0-0.4-0.1-0.6c-0.1-0.2-0.3-0.2-0.5-0.2c-0.2,0-0.3,0.2-0.4,0.4c-0.1,0.3,0,0.5,0,0.6c0.1,0,0.2,0.1,0.3,0.1
						c0.3,0,0.5,0.1,0.6,0.1c0.3,0,0.4,0.1,0.5,0.2c0.1,0.1,0,0.3,0,0.5s-0.1,0.4-0.1,0.6c0,0.2,0.1,0.4,0.3,0.5
						c0.2,0.3,0.5,0.6,0.8,1.7l0,0c0.1,0.1,0.5,0.4,0.8,1.6c0.1,0.5,0.1,0.9,0.1,1.2c0,0.6,0,0.8,0.4,0.8c0.2,0,0.4-0.1,0.5-0.4
						c0.3-1-0.3-2.2-0.6-2.7c-0.2-0.4-0.5-0.7-0.6-0.8l0.1-0.1c0.5,0.3,1.1,1.2,1.3,1.8l0.1,0.2c0.2,0.7,0.2,1,0,1.8l0,0
						c0.3,0.1,0.5,0.3,0.5,0.5v0.1l-0.1-0.1c-0.2-0.1-0.5-0.2-0.8-0.2c-0.2,0-0.8,0-0.9,0.6V19h-0.1c-0.2,0-0.4,0-0.5,0.2
						c-0.3,0.4-0.2,1-0.1,1.6c0,0.3,0.1,0.6,0.1,0.8c0,0.3-0.1,0.7-0.2,1c0,0.2-0.1,0.4-0.1,0.6v0.1h-0.1c-0.1,0-0.2,0-0.3-0.1
						c-0.1-0.1,0-0.3,0-0.5c0-0.1,0-0.1,0.1-0.2c0.1-0.2,0.2-0.5,0.2-0.7c0-0.4-0.1-0.5-0.1-0.5s-0.1,0-0.3,0.3
						c-0.4,0.6-1.3,0.8-1.9,0.9c-0.9,0.1-1.5,0-1.8-0.4c-0.1-0.1-0.2,0-0.2,0s0,0,0,0.1s0.1,0.1,0.2,0.2c0.1,0.2,0.2,0.5,0.2,0.7
						C18.6,23.4,18.5,23.4,18.3,23.6L18.3,23.6z M17.8,21.8c0.1,0.2,0.1,0.3,0.2,0.4c0.2,0.3,0.4,0.5,0.4,1.2c0.1,0,0.1-0.1,0.1-0.2
						c0.1-0.2-0.1-0.4-0.1-0.6c-0.1-0.1-0.1-0.2-0.2-0.2c-0.1-0.1-0.1-0.1-0.1-0.2c0,0,0.2-0.1,0.3-0.1c0.1,0,0.1,0,0.2,0.1
						c0.3,0.3,0.9,0.4,1.7,0.3c0.6-0.1,1.4-0.3,1.8-0.8c0.2-0.3,0.3-0.4,0.4-0.3c0.1,0,0.1,0.1,0.1,0.6c0,0.3-0.1,0.5-0.2,0.8
						c0,0.1,0,0.1-0.1,0.2c0,0.1-0.1,0.3,0,0.4c0,0,0.1,0,0.1,0.1c0-0.2,0.1-0.4,0.1-0.6c0.1-0.3,0.1-0.7,0.2-1c0-0.2,0-0.5-0.1-0.7
						c-0.1-0.6-0.2-1.3,0.2-1.7c0.3-0.4,0.4-0.5,0.6-0.5c0-0.3,0.2-0.5,0.5-0.5c-0.4,0-0.4-0.4-0.4-0.9c0-0.3,0-0.8-0.1-1.2
						c-0.3-1.2-0.6-1.4-0.7-1.5c0,0-0.1,0-0.1-0.1l0,0c-0.3-1.1-0.6-1.5-0.8-1.7c-0.1-0.2-0.2-0.4-0.3-0.6c0-0.2,0-0.4,0.1-0.6
						c0-0.2,0.1-0.3,0-0.4c0-0.1-0.2-0.2-0.4-0.2c-0.1-0.1-0.3-0.2-0.5-0.3c-0.1,0-0.3-0.1-0.3-0.1c-0.1,0-0.2-0.2-0.2-0.5
						c0-0.3,0.2-0.7,0.5-0.7c0.3,0,0.5,0.2,0.6,0.3c0.1,0.2,0.2,0.5,0.1,0.7c-0.1,0.1-0.1,0.2-0.1,0.2s0.1,0.1,0.3,0
						c0.1,0,0.1-0.3,0.1-0.5c0-0.1,0-0.2,0-0.2c-0.2-0.7-0.5-0.8-0.9-0.9c-0.3,0-0.6,0.1-0.7,0.3c-0.2,0.3-0.2,0.8-0.1,1
						c0,0.1,0,0.1,0,0.2c0,0,0,0,0,0c0.1,0.1,0,0.2,0,0.2l0,0l0,0c-0.1,0-0.1,0-0.1-0.1c0,0-0.1-0.1-0.1,0v-0.1c0.1,0,0.1,0,0.2,0
						c-0.1,0-0.2,0-0.3,0c-0.1,0-0.1,0-0.2,0s-0.3,0-0.3,0s0,0,0-0.1c0-0.7-0.2-1.1-0.6-1.2l0,0c-0.6-0.1-0.7,0.5-0.7,0.7
						c0,0.3,0.2,0.8,0.3,0.8l0.1-0.1l0,0c-0.2,0-0.3-0.3-0.4-0.5c0-0.1,0-0.3,0.1-0.4s0.2-0.1,0.4-0.1l0,0c0.2,0,0.3,0.2,0.4,0.4
						c0,0.2,0.1,0.5,0,0.5l0,0h0.1v0.1c-0.1,0-0.2,0.1-0.2,0.1v0.1h-0.1V11l0,0l0,0c0-0.1,0,0-0.1,0c0,0.1-0.2,0.2-0.3,0.3
						c-0.1,0-0.1,0-0.2,0.1c-0.1,0.1-0.1,0.2-0.1,0.2v0.1c0.2,0.1,0.3,0.2,0.4,0.3c0.1,0.1,0.2,0.2,0.6,0.3c0.4,0,0.8-0.1,1.1-0.1
						h0.1c0.3-0.1,0.8-0.2,1-0.4c0.1-0.1,0.2-0.1,0.2-0.1h0.1c0.1,0,0.1,0.1,0.1,0.2c0,0,0,0.2-0.3,0.2c-0.2,0-0.5,0.1-0.7,0.2
						c-0.1,0-0.2,0.1-0.3,0.1H20c-0.2,0.1-0.3,0.2-0.6,0.2c-0.1,0-0.2,0-0.3,0c-0.2,0-0.3,0-0.4,0c0,0,0,0-0.1,0l0.1,0.1
						c0.1,0.1,0.3,0.2,0.7,0.2s0.9-0.3,1.2-0.4c0.2-0.2,0.4-0.3,0.6-0.3c0.1,0,0.2,0.1,0.2,0.2c0,0.1-0.2,0.2-0.5,0.4h-0.1
						c-0.3,0.1-0.5,0.3-0.8,0.4c-0.3,0.3-0.6,0.5-0.9,0.5c-0.1,0-0.2,0-0.3-0.1c-0.2-0.1-0.4-0.4-0.6-0.7c-0.1,0-0.2-0.2-0.2-0.2
						l0,0c0,0.3-0.2,0.6-0.4,0.9c-0.2,0.5-0.5,0.9-0.2,1.4v0.1h-0.1c-0.3,0.1-1,1.5-1.1,2.2c0,0.2,0,0.4,0,0.6c0,0.3,0,0.5-0.1,0.7
						c0,0.1,0,0.2-0.1,0.2l0,0c-0.1,0-0.2-0.1-0.3-0.2c-0.2-0.3-0.4-0.8-0.3-1.4c-0.2,0.6,0.1,1.2,0.2,1.4c0.1,0.1,0.2,0.2,0.3,0.3
						c0,0,0.1,0.1,0.2,0.2c0.2,0.2,0.9,0.7,1.4,1.1c0.3,0.2,0.6,0.5,0.7,0.6c0.2,0.2,0.2,0.4,0.2,0.7C18.3,21.6,18.1,21.8,17.8,21.8
						z M24.4,18.4c0.2,0,0.4,0,0.6,0.1c-0.1-0.1-0.2-0.1-0.3-0.1l-0.1-0.1v-0.1c0.3-0.8,0.2-1.1,0-1.8l-0.1-0.2
						c-0.1-0.4-0.4-0.9-0.7-1.3c0.1,0.1,0.2,0.2,0.2,0.3c0.3,0.5,0.9,1.7,0.6,2.8C24.6,18.2,24.4,18.3,24.4,18.4L24.4,18.4z
						 M21.3,11.7C21.2,11.7,21.2,11.7,21.3,11.7c-0.2,0.1-0.3,0.2-0.4,0.2c0.1,0,0.2-0.1,0.3-0.1C21.3,11.8,21.3,11.8,21.3,11.7
						L21.3,11.7L21.3,11.7z M18.6,10.6c-0.1,0-0.1,0-0.1,0c0-0.1,0-0.1,0-0.2v-0.1l0,0c-0.1,0-0.1-0.1-0.1-0.1
						c-0.1-0.2,0-0.2,0.1-0.2S18.8,10.3,18.6,10.6C18.7,10.6,18.7,10.6,18.6,10.6z M21.1,10.5L21.1,10.5L21.1,10.5
						c-0.1-0.2-0.2-0.3-0.2-0.3c-0.1-0.1-0.1-0.1-0.1-0.2c0,0,0-0.1,0.1-0.1l0,0c0.1,0,0.1,0,0.2,0.1s0.1,0.2,0.1,0.3
						C21.2,10.4,21.2,10.4,21.1,10.5L21.1,10.5z"/>
				</g>
				<path class="st0" d="M19.1,10.6c0,0-0.1-1.2-0.7-1.3c-0.6,0-0.9,1.2-0.3,1.7h0.2v-0.1v-0.1h-0.1l-0.1-0.2L18,10.2l0.2-0.3h0.3
					l0.2,0.2l0.1,0.3v0.2l-0.1,0.2l-0.1,0.1L18.5,11l-0.3,0.2L18,11.4l-0.1,0.2l0.1,0.2l0.3,0.2l0.3,0.3l0.4,0.1l0.6-0.1l0.6-0.1
					l0.4-0.2l0.3-0.1l0.2-0.2l0.1-0.1h0.1v0.1l0,0.2L21.1,12l-0.5,0.1L20,12.4l-0.6,0.2h-0.9l0.1,0.2L19,13h0.2c0,0,0.7,0,1.4-0.5
					c0.8-0.5,0.6,0,0.6,0c-0.1,0-1.4,0.9-1.4,0.9s-0.8,0.6-1.2,0c-0.4-0.7-0.6-0.8-0.6-0.8s-0.1,0.5-0.1,0.6c0,0-0.9,1.2-0.5,1.8
					c0,0-1.3,1.5-1.2,3.2l-0.4,0.5c0,0-0.8-0.2-0.8-1.3v-0.3h0.1c0,0-0.1,0.6,0.2,1.3c0.3,0.6,0.9,0.9,1,1.1
					c0.2,0.2,1.7,1.1,1.8,1.3c0,0.1,0.4,0.4,0.1,0.7c-0.3,0.3-0.5,0.3-0.5,0.3l0.4,0.6c0,0,0.3,0.7,0.2,1c-0.1,0.3,0.2-0.1,0.2-0.1
					s0.3-0.4-0.3-1.1l0.2-0.1c0,0,0.5,0.3,0.7,0.3c0.2,0,2.5,0.2,3-0.8c0,0,0.3-0.4,0.4-0.3s0.1,1.1-0.1,1.3
					c-0.1,0.2-0.2,0.7,0.2,0.7c0,0,0.3-1.1,0.2-2.2c0-1.2-0.4-1.8,0.6-2c0,0,0.3-1.1,1.8-0.4L25,18.5l-0.4-0.2c0,0,0.4-0.8,0-1.8
					c-0.3-1.1-0.6-1.5-1-1.7c0,0,0.7,1.3,0.8,1.7c0.1,0.4,0.3,0.7,0,1.7c0,0-0.6,0.7-0.9,0c0,0-0.1-1.9-0.4-2.4
					c-0.2-0.6-0.5-0.9-0.5-0.9s-0.3-1.4-0.7-1.9s-0.4-0.9-0.2-1.4c0,0,0-0.3-0.6-0.4l-0.7-0.4c0,0-0.3-1,0.4-1
					c0.8,0,0.5,0.8,0.5,0.8s-0.1,0.3,0,0.4c0.1,0,0.4,0,0.4-0.1c0-0.2,0-0.8,0-0.8s-0.3-0.9-1-0.8c-0.7,0.1-0.9,0.7-0.9,1
					s0,0.4,0,0.4L19.1,10.6z"/>
				<polygon class="st0" points="14.3,19 14.7,18.9 15,18.8 15.8,19.4 17,20.9 17.9,22.5 17.9,23.6 17.5,23.9 16.7,24 15.4,23.7 
					14.7,23.5 13.8,23.4 13.2,23.2 12.5,23 12.5,22.4 12.8,22 12.7,21.7 12.5,21.2 12.4,20.7 12.8,20.5 13.1,20.5 13.5,20.4 
					13.8,20.3 14,20.2 14.1,20 14,19.7 14,19.3 				"/>
				<path class="st0" d="M14.1,18.9c0,0,0.2-0.4,0.7-0.2c0.4,0.2,0.5,0.3,0.5,0.3s1.8,2.3,2.3,2.7c0.4,0.4,1.1,1.4,0.7,1.8
					C17.9,24,17.6,24,17.6,24l-0.5,0.3L16,24.2l-0.6-0.3l-0.8-0.2l-0.8-0.2h-1L12,23l0.1-0.5l0.3-0.5v-0.7l-0.2-0.6l0.4-0.4h0.5
					l0.4-0.1l0.3-0.1l0.3-0.3l0.2-0.2l-0.1-0.3L14.1,18.9z"/>
				<path class="st0" d="M26.7,19.5c0-0.5-0.5-0.3-0.5-0.3l-0.6,0.9l-1.1,0.2l-0.7-0.7l-0.1-0.5l-1-0.1l-0.2,1.8l0.1,1.9L22.3,23
					c0,0-0.1,0.3,0.2,0.5c0.1,0.1,0.3,0.4,0.4,0.5c0.2,0.2,0.3,0.3,0.3,0.3l1,0.1l0.7-0.3l0.9-0.8l1-0.4l0.8-0.6l0.5-0.3v-0.5
					l-0.3-0.2l-0.7-0.5l-0.3-0.6l-0.1-0.5L26.7,19.5z"/>
			</g>
		</g>
		<path class="st0" d="M27.8,21.4l0.3,0.2l0.1,0.3L28,22.1l-0.4,0.3l-0.7,0.3c0,0-0.1-0.4-0.1-0.5l0.7-0.7L27.8,21.4z"/>
	</g>
</g>
</svg>
