<?xml version="1.0" encoding="utf-8"?>
<!-- Generator: Adobe Illustrator 21.0.0, SVG Export Plug-In . SVG Version: 6.00 Build 0)  -->
<svg version="1.1" id="图层_1" xmlns="http://www.w3.org/2000/svg" xmlns:xlink="http://www.w3.org/1999/xlink" x="0px" y="0px"
	 width="40px" height="40px" viewBox="0 0 40 40" style="enable-background:new 0 0 40 40;" xml:space="preserve">
<style type="text/css">
	.st0{fill:#606060;}
</style>
<g>
	<g>
		<path class="st0" d="M7.7,29.8c-0.4,0-0.7,0-1,0c-0.1-0.3-0.3-0.5-0.4-0.8S6,28.5,5.9,28.2s-0.3-0.5-0.4-0.8
			C5.3,27.3,5.1,27,5,26.8c-0.1-0.2-0.3-0.5-0.4-0.8v0.1c0,0.1,0,0.1,0,0.2c0,1.1,0,2.2,0,3.3c0,0.1,0,0.1,0,0.2H4.5
			c-0.5,0-0.9,0-1.4,0l0,0v-0.1v-0.1c0-1.6,0-3.3,0-4.9c0-0.1,0-0.1,0-0.2h0.1c0.7,0,1.5,0,2.2,0c0,0,0,0,0.1,0c0,0,0.1,0.1,0.1,0.2
			c0.6,1,1.1,2,1.7,3c0,0.1,0.1,0.1,0.1,0.2c0.1,0,0.1-0.1,0.1-0.1c0.2-0.3,0.4-0.7,0.6-1c0.4-0.7,0.8-1.4,1.2-2.1l0.1-0.1
			c0.1,0,2.1,0,2.3,0v0.1v0.1c0,1.6,0,3.3,0,4.9c0,0.1,0,0.1,0,0.2h-0.1c-0.4,0-0.9,0-1.3,0c0,0,0,0-0.1,0c0-0.1,0-0.1,0-0.2
			c0-0.8,0-1.5,0-2.3c0-0.4,0-0.7,0-1.1c0-0.1,0-0.1,0-0.2c-0.1,0-0.1,0-0.1,0.1c-0.2,0.3-0.4,0.7-0.6,1c-0.5,0.9-1,1.7-1.4,2.6
			C7.8,29.7,7.7,29.8,7.7,29.8z"/>
		<path class="st0" d="M35.7,24.5c0.2,0,1.3,0,1.5,0v0.1v0.1c0,1.2,0,2.4,0,3.5c0,0.1,0,0.3,0,0.4c-0.2,0.7-0.8,1.2-1.5,1.2
			c-0.5,0-0.9,0-1.4,0c-0.7,0-1.5,0-2.2,0c-0.5,0-1-0.2-1.3-0.7c-0.2-0.3-0.3-0.6-0.3-0.9c0-1.2,0-2.4,0-3.6c0-0.1,0-0.1,0-0.1l0,0
			l0,0c0.4,0,0.8,0,1.3,0c0.1,0,0.1,0,0.2,0l0,0c0,0.1,0,0.1,0,0.2c0,0.5,0,1,0,1.4c0,0.5,0,1.1,0,1.6c0,0.1,0,0.2,0,0.3
			c0.1,0.4,0.4,0.6,0.7,0.6h0.1c0.7,0,1.3,0,2,0c0.1,0,0.1,0,0.2,0c0.4-0.1,0.6-0.4,0.6-0.7c0-0.1,0-0.1,0-0.2c0-1,0-1.9,0-2.9
			C35.7,24.6,35.7,24.5,35.7,24.5z"/>
		<path class="st0" d="M12.3,29.8c0-0.1,0-0.1,0-0.1c0.9-1.7,1.8-3.5,2.7-5.2l0,0l0,0h0.1c0.6,0,1.2,0,1.8,0c0.1,0,0.1,0.1,0.1,0.2
			c0.5,1,1.1,2,1.6,3c0.4,0.7,0.7,1.3,1.1,2c0,0.1,0.1,0.1,0.1,0.2c0,0,0,0-0.1,0c-1.4,0-2.8,0-4.2,0v-0.1c0.3-0.4,0.5-0.8,0.7-1.2
			c0,0,0,0,0-0.1c0.1,0,0.3,0,0.4,0s0.3,0,0.4,0s0.3,0,0.4,0c0-0.1,0-0.1,0-0.1c-0.1-0.3-0.3-0.5-0.4-0.8c-0.3-0.6-0.6-1.2-0.9-1.8
			L16,25.7c-0.1,0-0.1,0-0.1,0.1c-0.1,0.3-0.3,0.5-0.4,0.8c-0.5,1-1,2-1.5,3c0,0.1-0.1,0.1-0.1,0.2C13.4,29.8,12.8,29.8,12.3,29.8z"
			/>
		<path class="st0" d="M24.8,28.5c0,0.4,0,0.8,0,1.2h-0.1c-0.4,0-0.9,0-1.3,0c0,0,0,0-0.1,0c0-0.1,0-0.1,0-0.2c0-0.5,0-1,0-1.6
			c0-0.2,0-0.4,0-0.6c0-0.1,0-0.1,0-0.2c0.1,0,0.1,0,0.2,0c1.3,0,2.6,0,3.9,0c0.1,0,0.1,0,0.2,0c0.4,0,0.6-0.3,0.6-0.6
			c0-0.1,0-0.2,0-0.3c0-0.4-0.4-0.6-0.7-0.6c-0.1,0-0.1,0-0.2,0c-1.3,0-2.6,0-3.8,0c-0.1,0-0.1,0-0.2,0v-0.1c0-0.4,0-1,0-1.1
			c0.1,0,0.1,0,0.2,0c0.8,0,1.6,0,2.4,0c0.7,0,1.5,0,2.2,0c0.5,0,0.9,0.2,1.2,0.5c0.3,0.3,0.4,0.7,0.4,1.1c0,0.3,0,0.6,0,0.9
			c0,0.8-0.6,1.5-1.4,1.6c-0.1,0-0.2,0-0.3,0c-1,0-1.9,0-2.9,0C25,28.5,24.9,28.5,24.8,28.5z"/>
		<path class="st0" d="M20.7,24.5c0.2,0,1.3,0,1.5,0l0,0c0,1.7,0,3.5,0,5.2l0,0c-0.1,0-1.3,0-1.5,0l0,0C20.7,28,20.7,26.3,20.7,24.5
			L20.7,24.5z"/>
		<path class="st0" d="M21.5,21.9c0.5,0,1,0.4,1,1s-0.5,1-1,1s-1-0.4-1-1S21,21.9,21.5,21.9z"/>
	</g>
	<g>
		<path class="st0" d="M21.6,19.7c0-0.1,0-0.1,0-0.2c0-0.7,0-3.9,0-4.1h0.1c0.1,0,0.1,0,0.2,0c2.8,0,5.7,0,8.5,0c0.1,0,0.2,0,0.3,0
			c0,0.1,0,0.1,0,0.1v0.1c0,0.9,0,1.8,0,2.7c0,0.1,0,0.2,0,0.3c0,0.5-0.4,0.8-0.9,0.9c-0.2,0-0.3,0-0.5,0c-0.6,0-1.2,0-1.8,0
			c-1.9,0-3.8,0-5.7,0C21.7,19.7,21.7,19.7,21.6,19.7z M23.1,17c0.1,0.1,0.2,0,0.3,0c1.9,0,3.7,0,5.6,0c-0.1,0,0,0,0,0h0.1
			c0-0.2,0-0.3,0-0.5c-0.1,0-0.2,0-0.3,0c-1.8,0-3.7,0-5.5,0c-0.1,0-0.1,0-0.2,0H23C23.1,16.7,23,16.8,23.1,17z M29.1,18
			c-0.1,0-0.1,0-0.2,0c-1.8,0-3.7,0-5.5,0c-0.1,0-0.1,0-0.2,0h-0.1c0,0.2,0,0.4,0,0.5c0.1,0,0.1,0,0.2,0c1.8,0,3.6,0,5.4,0
			c0.1,0,0.1,0,0.2,0s0.2-0.1,0.3-0.3C29.2,18.2,29.2,18.1,29.1,18z"/>
		<path class="st0" d="M31.3,13.9c0,0.2,0,0.8,0,1.1h-0.1c-0.1,0-0.1,0-0.2,0c-3.3,0-6.5,0-9.8,0c-0.1,0-0.2,0-0.2,0
			c0-0.2,0-0.4,0-0.5c0-0.2,0-0.4,0-0.5h0.1c0.1,0,0.1,0,0.2,0c0.8,0,1.7,0,2.5,0c0.1,0,0.2,0,0.3,0c0-0.1,0-1.6,0-1.8H24
			c-0.1,0-0.1,0-0.2,0C22.9,12,22,12,21.2,12c0,0-0.1,0-0.2-0.1c0,0,0,0,0-0.1c0-0.3,0-0.9,0-1c0.1,0,0.1,0,0.2,0c0.5,0,1,0,1.5,0
			c0.1,0,0.1,0,0.2,0c-0.1-0.2-0.2-0.4-0.3-0.6h0.1c0.4,0,0.7,0,1.1,0h0.1c0.2,0,0.4,0.1,0.5,0.3c0.1,0.1,0.1,0.2,0.2,0.3
			c0.2,0,2.8,0,3,0c0.1-0.2,0.2-0.4,0.4-0.6c0.2,0,1.4,0,1.6,0v0.1c-0.1,0.1-0.1,0.3-0.2,0.4v0.1c0.1,0,0.1,0,0.2,0c0.5,0,1,0,1.5,0
			c0.1,0,0.1,0,0.2,0c0,0.2,0,0.3,0,0.5s0,0.4,0,0.5c-0.1,0-0.1,0-0.1,0c-0.2,0-0.4,0-0.6,0c-0.7,0-1.4,0-2.1,0c-0.1,0-0.1,0-0.2,0
			v0.1c0,0.5,0,1.1,0,1.6v0.1h0.1c0.1,0,0.1,0,0.2,0c0.8,0,1.7,0,2.5,0C31.1,13.8,31.2,13.8,31.3,13.9z M26.6,13.8
			c0-0.1,0-0.1,0-0.1c0-0.1,0-0.1,0-0.2c0-0.4,0-0.9,0-1.3c0-0.1,0-0.1,0-0.2c-0.2,0-0.9,0-1.1,0v0.1c0,0.5,0,1.1,0,1.6v0.1
			C25.9,13.8,26.2,13.8,26.6,13.8z"/>
		<path class="st0" d="M12.5,18.1c-0.2-0.3-0.4-0.6-0.5-0.9l0,0h0.1c0.1,0,0.3,0,0.4,0c0.2,0,0.3-0.1,0.3-0.3c0-0.1,0-0.2,0-0.3
			c0-0.8,0-1.6,0-2.4c0-0.7,0-1.4,0-2.1c0-0.1,0-0.1,0-0.2c-0.1,0-0.1,0-0.1,0c-0.2,0-0.4,0-0.6,0c-0.1,0-0.1,0-0.2,0v-0.1
			c0-0.3,0-0.6,0-1c0,0,0,0,0-0.1H12c0.1,0,0.1,0,0.2,0c2.2,0,4.4,0,6.6,0c0.1,0,0.2,0,0.3,0c0,0.1,0,0.2,0,0.4c0,0.1,0,0.2,0,0.4
			c0,0.1,0,0.2,0,0.4c-0.1,0-0.2,0-0.2,0c-0.9,0-1.8,0-2.7,0c-0.5,0-1,0-1.6,0c-0.1,0-0.1,0-0.2,0c0,0,0,0,0,0.1c0,0.3,0,0.5,0,0.8
			v0.1h0.1c0.1,0,0.1,0,0.2,0c1.3,0,2.6,0,3.9,0c0.1,0,0.2,0,0.2,0V13c0,0.2,0,0.4,0,0.5c0,1.1,0,2.2,0,3.2c0,0.1,0,0.2,0,0.4
			c0,0.2-0.1,0.3-0.2,0.5C18.5,17.8,18.3,18,18,18c-0.1,0-0.1,0-0.2,0c-0.5,0-1.1,0-1.6,0h-0.1c-0.1-0.1-0.5-0.7-0.6-0.9h0.1
			c0.3,0,0.6,0,0.9,0c0.1,0,0.3,0,0.4,0s0.1,0,0.2,0s0.2-0.1,0.3-0.3c0-0.1,0-0.1,0-0.2c0-0.8,0-1.6,0-2.4c0-0.1,0-0.1,0-0.2
			c-0.1-0.1-0.1,0-0.2,0c-0.3,0-0.7,0-1,0c-0.5,0-1,0-1.5,0c-0.1,0-0.2,0-0.2,0v0.1c0,0.1,0,0.1,0,0.2c0,0.9,0,1.8,0,2.7
			c0,0.1,0,0.2,0,0.3c0,0.2-0.1,0.3-0.2,0.5C14,17.9,13.8,18,13.5,18C13.2,18.1,12.9,18.1,12.5,18.1z"/>
		<path class="st0" d="M11,19.1c-0.2,0.2-0.3,0.3-0.5,0.4c-0.1,0-0.2,0.1-0.4,0.1c-0.2,0-0.3,0-0.5,0C9.4,19.3,9.2,19,9,18.7h0.1
			c0.1,0,0.2,0,0.3,0c0.4,0,0.5-0.3,0.5-0.6V18c0-1.2,0-2.5,0-3.7c0-0.1,0-0.2,0-0.2c-0.1,0-0.1,0-0.1,0c-0.2,0-0.4,0-0.6,0
			C9.1,14,9,14,9,14v-0.1c0-0.3,0-0.8,0-1c0.1,0,0.1,0,0.2,0c0.5,0,1,0,1.5,0c0.2,0,0.3,0,0.5,0c0.1,0,0.1,0,0.2,0V13
			c0,0.1,0,0.1,0,0.2c0,1.5,0,3,0,4.4c0,0.2,0,0.2,0.2,0.4c0.3,0.2,0.6,0.3,0.9,0.4c0.3,0.1,0.6,0.1,0.9,0.1c0.4,0,0.7,0,1.1,0
			c1.5,0,2.9,0,4.4,0c0.1,0,0.2,0,0.2,0c0,0.1,0,0.3,0,0.4c0,0.1,0,0.3,0,0.4s0,0.3,0,0.4c-0.1,0-0.1,0-0.2,0c-0.3,0-0.5,0-0.8,0
			c-1.7,0-3.4,0-5.1,0c-0.4,0-0.8-0.1-1.2-0.1c-0.3-0.1-0.6-0.2-0.9-0.4C11,19.1,11,19.1,11,19.1z"/>
		<path class="st0" d="M11.4,12.2c-0.5,0-1.1,0-1.6,0l-0.1-0.1c-0.3-0.5-0.6-1-0.8-1.5v-0.1c0.1,0,0.1,0,0.1,0c0.4,0,0.7,0,1.1,0
			c0.1,0,0.1,0,0.2,0c0.2,0,0.3,0.1,0.4,0.2c0,0,0,0.1,0.1,0.1c0.2,0.4,0.4,0.8,0.7,1.2C11.4,12.1,11.4,12.1,11.4,12.2z"/>
		<path class="st0" d="M23.7,13.5c-0.1,0-0.1,0-0.2,0c-0.3,0-0.7,0-1,0h-0.1c-0.2,0-0.4-0.1-0.5-0.3c-0.2-0.3-0.4-0.6-0.5-0.9
			c0,0,0,0,0.1,0c0.5,0,1,0,1.6,0C23.2,12.7,23.4,13.1,23.7,13.5z"/>
		<path class="st0" d="M30.7,12.3L30.7,12.3c-0.1,0.3-0.3,0.6-0.4,0.8c-0.1,0.2-0.3,0.3-0.5,0.3c-0.1,0-0.2,0-0.4,0
			c-0.3,0-0.5,0-0.8,0h-0.1v-0.1c0.2-0.4,0.4-0.7,0.6-1.1C29.5,12.3,30.6,12.3,30.7,12.3z"/>
	</g>
</g>
</svg>
