<?xml version="1.0" encoding="utf-8"?>
<!-- Generator: Adobe Illustrator 21.0.0, SVG Export Plug-In . SVG Version: 6.00 Build 0)  -->
<svg version="1.1" id="图层_1" xmlns="http://www.w3.org/2000/svg" xmlns:xlink="http://www.w3.org/1999/xlink" x="0px" y="0px"
	 width="40px" height="40px" viewBox="0 0 40 40" style="enable-background:new 0 0 40 40;" xml:space="preserve">
<style type="text/css">
	.st0{fill:#606060;}
</style>
<path class="st0" d="M27.4,13.6l-0.2-0.4C27.1,13,27,13,26.9,12.8l0,0l0,0c0.1,0,0.2,0,0.4,0c0.1,0.1,0.2,0.1,0.2,0.2s0,0.1,0.1,0.2
	C27.6,13.3,27.5,13.5,27.4,13.6L27.4,13.6L27.4,13.6z M36.2,22.3c-0.3-0.2-0.7-0.3-1-0.5c-0.2-0.1-0.4-0.3-0.5-0.4
	c-0.2-0.1-0.3-0.4-0.5-0.5c-0.1-0.1-0.1-0.2-0.1-0.3c0-0.2,0.2-0.2,0.4-0.2c0.5-0.2,1-0.3,1.7-0.2c0-0.2-0.4-0.4-0.6-0.5
	c-0.3-0.2-0.6-0.4-0.9-0.6c-0.3-0.1-0.6-0.2-0.7-0.2c-0.2-0.1-0.8-0.2-0.9-0.4c-0.3-0.3-0.4-0.7-0.6-1.1s-0.4-0.8-0.6-1.2
	c-0.1-0.2-0.1-0.4-0.2-0.6c-0.7-1.3-1.6-2.3-2.7-3c-0.4-0.2-0.8-0.4-1.2-0.6c-0.3-0.1-0.6,0-0.8-0.1h-0.2c-0.2,0-0.3-0.2-0.4-0.3
	c-0.3-0.2-0.5-0.3-0.8-0.4c-0.1,0-0.4-0.2-0.5-0.1c-0.1,0-0.1,0-0.1,0.1c-0.1,0.1,0,0.3,0,0.4c0,0.3,0.1,0.4,0.3,0.7
	c0.1,0.2,0.3,0.4,0.4,0.7c0.2,0.5,0.3,1,0.5,1.5c0.1,0.2,0.2,0.4,0.3,0.5s0.3,0.2,0.3,0.4c0.1,0.2-0.2,0.7-0.2,0.9
	c-0.2,0.7-0.2,1.7,0.1,2.3c0.2,0.2,0.3,0.4,0.5,0.5l0,0c0.1-0.5,0.1-0.9,0.2-1.3c0.1-0.2,0.3-0.4,0.4-0.6c0.2,0.1,0.2,0.2,0.3,0.3
	c0.1,0.3,0.2,0.6,0.4,0.8c0.3,0.5,0.6,1.1,1,1.6c0.1,0.2,0.3,0.4,0.5,0.5c-0.1,0.1,0,0.1,0,0.2l0,0l0,0c-0.3-0.1-0.4-0.4-0.6-0.5
	c-0.4-0.3-0.8-0.7-1.1-1.1L28,18.3l0,0c0,0.1,0,0.1-0.1,0.2c-0.1,0.4,0,0.9-0.4,1.1c-0.5,0.1-0.8-0.4-0.9-0.6
	c-0.4-0.7-0.6-1.9-0.3-2.9c0.1-0.2,0.1-0.5,0.2-0.6c0-0.2-0.1-0.2-0.2-0.3c-0.1-0.2-0.2-0.3-0.3-0.5c-0.2-0.4-0.3-0.8-0.5-1.1
	c-0.1-0.2-0.1-0.3-0.1-0.4c-0.1-0.2-0.3-0.4-0.4-0.6c-0.2-0.3-0.8-0.8-0.5-1.4c0.4-0.9,1.6-0.2,2.1,0.1c0.1,0.1,0.3,0.2,0.4,0.3h0.6
	c0.4,0.1,0.8,0.2,1.1,0.4c1.5,0.9,2.4,1.7,3.3,3.2c0.2,0.3,0.3,0.6,0.4,1c0.2,0.5,0.5,1,0.7,1.5c0.1,0.2,0.2,0.5,0.4,0.7
	c0.1,0.1,0.2,0.1,0.3,0.2c0.3,0.1,0.6,0.3,0.9,0.4c0.5,0.3,1,0.7,1.4,1.1c0.2,0.1,0.3,0.3,0.4,0.5v0.1c-0.1,0-0.3,0.1-0.4,0.1
	c-0.3,0.1-0.6,0.1-0.9,0.1c-0.2,0-0.4,0.1-0.6,0.1l0,0c0.1,0.3,0.7,0.6,1,0.8s0.7,0.5,0.9,0.9l0.3,0.3c0.1,0.1,0.1,0.2,0.1,0.3l0,0
	c-0.1,0-0.2-0.1-0.3-0.2C36.6,22.6,36.4,22.5,36.2,22.3L36.2,22.3z M25.5,21.4h2.1c0.1,0,0.2,0,0.3,0c0.9,0.1,1.4,0.5,1.4,1.2v2.6
	c0,0.5-0.2,0.8-0.7,1l1.1,1h-1.3l-0.9-0.8l-0.9,0.1h-1.2c-0.2,0-0.4,0-0.7-0.1c-0.7-0.2-1.1-0.6-1.1-1.2v-2.6c0-0.7,0.5-1.1,1.4-1.2
	C25.3,21.4,25.4,21.4,25.5,21.4L25.5,21.4z M25,25.2L25,25.2c0.1,0.4,0.4,0.6,0.8,0.6h1L25.9,25h1.3l0.8,0.7
	c0.2-0.1,0.3-0.2,0.3-0.4v-0.1v-2.5v-0.1c-0.1-0.3-0.4-0.5-0.8-0.5h-1.7c-0.5,0-0.8,0.2-0.8,0.6V25.2L25,25.2z M19.8,22.2
	c-0.4,0-0.5,0.1-0.6,0.3v0.1v0.5v0.1c0.1,0.3,0.3,0.4,0.7,0.4h1.4c0.3,0,0.7,0.1,1,0.2c0.5,0.2,0.8,0.5,0.8,0.8v0.8
	c0,0.4-0.2,0.7-0.7,0.9c-0.3,0.1-0.7,0.2-1,0.2h-3.3v-0.7h3.1h0.1c0.2,0,0.4-0.1,0.5-0.2c0.1-0.1,0.2-0.2,0.2-0.3v-0.7
	c0-0.1,0-0.1-0.1-0.2c-0.1-0.1-0.3-0.2-0.6-0.2h-0.1h-1.3c-0.1,0-0.2,0-0.3,0c-1-0.1-1.5-0.5-1.5-1v-0.6c0-0.6,0.3-0.9,1-1.1
	c0.2-0.1,0.5-0.1,0.9-0.1h3.2v0.7h-3.3C19.9,22.2,19.8,22.2,19.8,22.2L19.8,22.2z M15.4,28.1h-3.5v-0.7c0,0,3.5,0,3.6,0
	c0.7-0.1,0.6-0.4,0.6-0.6v-0.3h-2.4c-1.1,0-1.8-0.5-1.8-1c0-0.1,0-2.5,0-2.5H13v2.4c0,0.1,0,0.4,0.7,0.5c0.3,0,2.4,0,2.4,0V23h1.1
	c0,0,0,3.9,0,4C17.2,27.9,16,28.1,15.4,28.1L15.4,28.1z M9.8,22.2L8.1,26c-0.2,0.5-0.5,0.6-1,0.6c-0.6,0-0.8-0.2-1-0.6l-1.7-3.8v4.4
	H3.3v-4.4c0-0.4,0.2-0.6,0.5-0.7c0.9-0.3,1.4,0,1.7,0.5l1.7,3.8L8.9,22c0.1-0.6,0.6-0.8,1.5-0.6c0.4,0.1,0.5,0.3,0.5,0.7v4.4H9.8
	V22.2z M31.2,25.3c0,0.4,0.2,0.6,0.9,0.6H35v0.7h-2.9c-0.1,0-0.2,0-0.3,0c-1.2-0.1-1.7-0.5-1.7-1.3v-3.9h1.1V25.3L31.2,25.3z"/>
</svg>
