<?xml version="1.0" encoding="utf-8"?>
<!-- Generator: Adobe Illustrator 21.0.0, SVG Export Plug-In . SVG Version: 6.00 Build 0)  -->
<svg version="1.1" id="图层_1" xmlns="http://www.w3.org/2000/svg" xmlns:xlink="http://www.w3.org/1999/xlink" x="0px" y="0px"
	 width="40px" height="40px" viewBox="0 0 40 40" style="enable-background:new 0 0 40 40;" xml:space="preserve">
<style type="text/css">
	.st0{fill:#606060;}
</style>
<g>
	<g>
		<path class="st0" d="M13,19.6c0,0.4-0.3,0.7-0.7,0.7l0,0c-0.3-0.1-0.6-0.4-0.6-0.7v-7.3c0-0.4,0.3-0.7,0.7-0.7l0,0
			c0.3,0,0.6,0.3,0.6,0.7V19.6z"/>
		<path class="st0" d="M28.2,19.6c0,0.4-0.3,0.7-0.7,0.7l0,0c-0.4,0-0.7-0.3-0.7-0.7v-7.3c0-0.4,0.3-0.7,0.7-0.7l0,0
			c0.4,0,0.7,0.3,0.7,0.7V19.6z"/>
		<path class="st0" d="M5,18.5C5,18.8,4.8,19,4.5,19l0,0C4.2,19,4,18.8,4,18.5v-2C4,16.2,4.2,16,4.5,16l0,0C4.8,16,5,16.2,5,16.5
			V18.5z"/>
		<path class="st0" d="M20,18.5c0,0.3-0.2,0.5-0.5,0.5l0,0c-0.3,0-0.5-0.2-0.5-0.5v-2c0-0.3,0.2-0.5,0.5-0.5l0,0
			c0.3,0,0.5,0.2,0.5,0.5V18.5z"/>
		<path class="st0" d="M36,18.5c0,0.3-0.2,0.5-0.5,0.5l0,0c-0.3,0-0.5-0.2-0.5-0.5v-2c0-0.3,0.2-0.5,0.5-0.5l0,0
			c0.3,0,0.5,0.2,0.5,0.5V18.5z"/>
		<path class="st0" d="M9,18.5C9,18.8,8.8,19,8.5,19l0,0C8.2,19,8,18.8,8,18.5v-4C8,14.2,8.2,14,8.5,14l0,0C8.8,14,9,14.2,9,14.5
			V18.5z"/>
		<path class="st0" d="M16,18.5c0,0.3-0.2,0.5-0.5,0.5l0,0c-0.3,0-0.5-0.2-0.5-0.5v-4c0-0.3,0.2-0.5,0.5-0.5l0,0
			c0.3,0,0.5,0.2,0.5,0.5V18.5z"/>
		<path class="st0" d="M24,18.5c0,0.3-0.2,0.5-0.5,0.5l0,0c-0.3,0-0.5-0.2-0.5-0.5v-4c0-0.3,0.2-0.5,0.5-0.5l0,0
			c0.3,0,0.5,0.2,0.5,0.5V18.5z"/>
		<path class="st0" d="M31,18.5c0,0.3-0.2,0.5-0.5,0.5l0,0c-0.3,0-0.5-0.2-0.5-0.5v-4c0-0.3,0.2-0.5,0.5-0.5l0,0
			c0.3,0,0.5,0.2,0.5,0.5V18.5z"/>
	</g>
	<g>
		<path class="st0" d="M11,22.8v1.5c0,0-0.3-0.4-0.9-0.4c-0.6,0-1.6,0.5-1.6,1.5s0.9,1.4,1.6,1.4c0.7,0,0.9-0.3,0.9-0.3V28
			c0,0-4,0.9-4-2.7C7,21.9,11,22.8,11,22.8z"/>
		<path class="st0" d="M26,22.8v1.5c0,0-0.5-0.4-1.1-0.4s-1.7,0.5-1.7,1.5s1,1.4,1.7,1.4s1.1-0.3,1.1-0.3V28c0,0-4,0.9-4-2.7
			C22,21.9,26,22.8,26,22.8z"/>
		<rect x="13" y="23" class="st0" width="1" height="5"/>
		<path class="st0" d="M19,22.8V24c0,0-1.5-0.6-1.5,0.2c0,0.8,2.2,0.4,2.2,2.4S17,28.3,16,28.1v-1.2c0,0,2.6,0.7,2.6-0.3
			S16,26.4,16,24.3C16,22.1,19,22.8,19,22.8z"/>
		<path class="st0" d="M30.1,22.7c-1.6,0-2.9,1-2.9,2.8c0,1.7,1.6,2.8,2.9,2.8s2.8-1.2,2.8-2.8C32.9,23.9,31.7,22.7,30.1,22.7z
			 M30.1,26.9c-0.7,0-1.5-0.5-1.5-1.5c0-0.9,0.7-1.5,1.5-1.5s1.5,0.7,1.5,1.5C31.6,26.3,30.8,26.9,30.1,26.9z"/>
	</g>
</g>
</svg>
