<?xml version="1.0" encoding="utf-8"?>
<!-- Generator: Adobe Illustrator 21.0.0, SVG Export Plug-In . SVG Version: 6.00 Build 0)  -->
<svg version="1.1" id="图层_1" xmlns="http://www.w3.org/2000/svg" xmlns:xlink="http://www.w3.org/1999/xlink" x="0px" y="0px"
	 width="40px" height="40px" viewBox="0 0 40 40" style="enable-background:new 0 0 40 40;" xml:space="preserve">
<style type="text/css">
	.st0{fill:#606060;}
</style>
<g>
	<path class="st0" d="M18.3,7.9c0,0-2-0.1-3.2,1.5c-1.3,1.7-0.4,4.2,0.2,5.5c0.6,1.3,3.8,6.3,3.9,6.4c0.1,0.1,0.3,0.1,0.3,0
		c0-0.1,0.4-7.3,0.1-9.1C19.2,10.4,18.4,8.1,18.3,7.9z M11.4,11.3c-0.2,0-1.8,1.6-2,3.2c-0.1,1.6,0.6,2.6,2.5,3.9
		c1.9,1.3,6.4,3.8,6.5,3.6s-1.8-3.5-3.3-5.8C13.6,13.8,11.7,11.3,11.4,11.3z M12,25.9c1.4,0.6,3.5-0.8,4.1-1.2
		c0.5-0.4,1.6-1.2,1.6-1.2l-7.8,0.2C9.9,23.7,10.7,25.3,12,25.9L12,25.9z M12.2,19.6c-1.4-0.7-4.2-2.3-4.3-2.2c-0.1,0-0.5,2,0.4,3.5
		s2.6,2,3.4,2.1c0.9,0.1,6.2,0.1,6.1,0C17.8,22.8,13.6,20.3,12.2,19.6z M25.1,9.5C23.8,7.9,21.9,8,21.9,8c-0.1,0.2-1,2.5-1.3,4.2
		c-0.3,1.8,0.1,9,0.1,9.1c0,0.1,0.1,0.1,0.3,0c0.1-0.1,3.3-5.1,3.9-6.4C25.5,13.6,26.4,11.1,25.1,9.5L25.1,9.5z M32.2,17.4
		c-0.1,0-3,1.6-4.4,2.3c-1.4,0.7-5.5,3.2-5.6,3.3c0,0.1,5.2,0.2,6.1,0c0.8-0.1,2.5-0.6,3.4-2.1C32.8,19.4,32.4,17.4,32.2,17.4
		L32.2,17.4z M24,24.7c0.6,0.4,2.7,1.8,4.1,1.2s2.1-2.1,2.1-2.1l-7.8-0.2C22.4,23.5,23.4,24.3,24,24.7L24,24.7z M30.7,14.5
		c-0.1-1.6-1.8-3.2-2-3.2s-2.2,2.5-3.7,4.9c-1.5,2.3-3.3,5.6-3.2,5.8c0.1,0.2,4.6-2.3,6.5-3.6C30.2,17.1,30.8,16.1,30.7,14.5z"/>
	<path class="st0" d="M13.3,28.1v2.3c0,0.2,0,0.3,0,0.4s0.1,0.2,0.2,0.3c0.2,0.2,0.4,0.2,0.7,0.2c0.2,0,0.3,0,0.5-0.1
		c0.1-0.1,0.2-0.2,0.3-0.3c0,0.1,0.1-0.1,0.1-0.4v-2.3h0.8v2.3c0,0.3,0,0.6-0.1,0.8c-0.1,0.2-0.2,0.4-0.3,0.5
		c-0.3,0.3-0.7,0.4-1.3,0.4c-0.6,0-1-0.1-1.3-0.4c-0.1-0.1-0.2-0.3-0.3-0.5c-0.1-0.2-0.1-0.4-0.1-0.7v-2.4L13.3,28.1L13.3,28.1z
		 M16.4,32.1l1.6-4h1l1.6,3.9h-1l-0.4-0.9h-1.5L17.3,32L16.4,32.1L16.4,32.1z M18.5,29.1l-0.6,1.4H19L18.5,29.1z M21.4,28.1l0.9,3
		l0.8-3H24l0.8,3l0.9-3h0.9L25.3,32h-1l-0.8-2.8L22.7,32h-0.9l-1.3-3.9H21.4z M30.3,28.1v0.7h-1.1c-0.3,0-0.5,0-0.6,0.1
		c-0.1,0-0.2,0.1-0.3,0.2c-0.1,0.1-0.1,0.2-0.1,0.2c0,0.1,0,0.2-0.1,0.4h2.2v0.7h-2.2c0,0.3,0.1,0.6,0.3,0.7
		c0.2,0.1,0.5,0.2,0.9,0.2h1V32h-1.1c-0.3,0-0.6,0-0.8-0.1c-0.3-0.1-0.6-0.2-0.8-0.5c-0.3-0.4-0.4-0.9-0.4-1.5
		c0-0.7,0.2-1.2,0.6-1.6c0.1-0.1,0.3-0.2,0.5-0.3c0.2,0,0.4-0.1,0.7-0.1h1.3V28.1z M31.3,32.1v-3.9h0.8v3.9H31.3z M11.6,28.1V32
		h-0.9v-1.6H9V32H8v-3.9h1v1.6h1.7v-1.6H11.6L11.6,28.1z"/>
</g>
</svg>
