<?xml version="1.0" encoding="utf-8"?>
<!-- Generator: Adobe Illustrator 21.0.0, SVG Export Plug-In . SVG Version: 6.00 Build 0)  -->
<svg version="1.1" id="图层_1" xmlns="http://www.w3.org/2000/svg" xmlns:xlink="http://www.w3.org/1999/xlink" x="0px" y="0px"
	 width="40px" height="40px" viewBox="0 0 40 40" style="enable-background:new 0 0 40 40;" xml:space="preserve">
<style type="text/css">
	.st0{fill:#606060;}
</style>
<g>
	<g>
		<path class="st0" d="M10.4,31.3H10H9.6v-4.1h0.5h0.5l1.7,2.8v-2.8h0.4h0.4v4.1h-0.4h-0.5l-1.8-2.9C10.4,28.4,10.4,31.3,10.4,31.3z
			"/>
		<path class="st0" d="M15.4,31.4c-0.6,0-1-0.1-1.2-0.4c-0.3-0.3-0.4-0.7-0.4-1.2s0.1-0.8,0.4-1.1c0.3-0.3,0.7-0.4,1.1-0.4
			c0.5,0,0.9,0.1,1.1,0.4c0.3,0.3,0.4,0.7,0.4,1.2v0.2h-2.2c0,0.2,0.1,0.4,0.2,0.5c0.1,0.1,0.3,0.2,0.6,0.2c0.1,0,0.3,0,0.4-0.1
			c0.1-0.1,0.2-0.1,0.2-0.2h0.9c-0.1,0.3-0.2,0.5-0.5,0.7C16,31.3,15.7,31.4,15.4,31.4z M15.9,29.5c0-0.2-0.1-0.3-0.2-0.5
			c-0.1-0.1-0.3-0.2-0.5-0.2s-0.4,0.1-0.5,0.2c-0.1,0.1-0.1,0.2-0.1,0.4h1.3V29.5z"/>
		<path class="st0" d="M18.8,31.4c-0.1,0-0.3,0-0.5,0c-0.3,0-0.5-0.1-0.6-0.2c-0.1-0.1-0.2-0.3-0.2-0.5v-1.8H17v-0.6h0.4v-0.8h0.9
			v0.8h0.5v0.6h-0.5v1.7c0,0.1,0,0.1,0.1,0.2c0,0,0.1,0,0.3,0h0.2v0.6H18.8z"/>
		<path class="st0" d="M20.7,27.3h0.5h0.5l1.6,4.1h-0.5h-0.5L22,30.5h-1.6l-0.3,0.8h-0.5h-0.5L20.7,27.3z M20.6,29.8h1.1l-0.6-1.6
			l0,0L20.6,29.8z"/>
		<path class="st0" d="M23.8,28.3h0.4h0.4v0.4l0.1-0.1c0.2-0.3,0.6-0.4,1-0.4c0.4,0,0.7,0.1,1,0.4c0.2,0.3,0.4,0.7,0.4,1.2
			S27,30.7,26.7,31c-0.2,0.3-0.6,0.4-1,0.4c-0.4,0-0.7-0.1-1-0.4l0,0v1.6h-0.4h-0.4v-4.3H23.8z M25.3,30.8c0.2,0,0.4-0.1,0.5-0.2
			c0.1-0.2,0.2-0.4,0.2-0.7c0-0.3-0.1-0.5-0.2-0.7C25.7,29,25.5,29,25.3,29c-0.2,0-0.4,0.1-0.5,0.2c-0.1,0.2-0.2,0.4-0.2,0.7
			c0,0.3,0.1,0.5,0.2,0.7C24.9,30.7,25.1,30.8,25.3,30.8z"/>
		<path class="st0" d="M27.5,28.3h0.4h0.4v0.4l0.1-0.1c0.2-0.3,0.6-0.4,1-0.4s0.7,0.1,1,0.4c0.2,0.3,0.4,0.7,0.4,1.2
			s-0.1,0.9-0.4,1.2c-0.2,0.3-0.6,0.4-1,0.4s-0.7-0.1-1-0.4l0,0v1.6H28h-0.4v-4.3H27.5z M29,30.8c0.2,0,0.4-0.1,0.5-0.2
			c0.1-0.2,0.2-0.4,0.2-0.7c0-0.3-0.1-0.5-0.2-0.7S29.2,29,29,29s-0.4,0.1-0.5,0.2c-0.1,0.2-0.2,0.4-0.2,0.7c0,0.3,0.1,0.5,0.2,0.7
			C28.6,30.7,28.8,30.8,29,30.8z"/>
	</g>
	<polygon class="st0" points="30,8 30,24 22,24 22,14 17,14 17,24 9,24 9,8 	"/>
</g>
</svg>
