<?xml version="1.0" encoding="utf-8"?>
<!-- Generator: Adobe Illustrator 21.0.0, SVG Export Plug-In . SVG Version: 6.00 Build 0)  -->
<svg version="1.1" id="图层_1" xmlns="http://www.w3.org/2000/svg" xmlns:xlink="http://www.w3.org/1999/xlink" x="0px" y="0px"
	 width="40px" height="40px" viewBox="0 0 40 40" style="enable-background:new 0 0 40 40;" xml:space="preserve">
<style type="text/css">
	.st0{fill:#606060;}
</style>
<g>
	<path class="st0" d="M4.7,19.4H4.1H3.4v-8.1h0.7h0.7l2.6,5.6v-5.6h0.7h0.7v8.1H8.1H7.4l-2.7-5.8V19.4z"/>
	<path class="st0" d="M12.7,19.6c-0.8,0-1.5-0.3-1.9-0.8s-0.6-1.4-0.6-2.5c0-0.9,0.2-1.7,0.6-2.2s1-0.8,1.7-0.8
		c0.8,0,1.3,0.3,1.7,0.8s0.6,1.3,0.6,2.3v0.5h-3.3c0,0.4,0.1,0.8,0.3,1c0.2,0.3,0.5,0.4,0.9,0.4c0.2,0,0.4-0.1,0.5-0.2
		s0.2-0.3,0.3-0.5h1.4c-0.1,0.6-0.4,1-0.7,1.4S13.2,19.6,12.7,19.6z M13.5,15.8c0-0.4-0.1-0.7-0.2-0.9c-0.2-0.3-0.4-0.4-0.8-0.4
		c-0.3,0-0.6,0.2-0.8,0.5c-0.1,0.2-0.2,0.5-0.2,0.8C11.5,15.8,13.5,15.8,13.5,15.8z"/>
	<path class="st0" d="M18.5,19.4c-0.2,0-0.5,0-0.8,0c-0.5,0-0.8-0.1-1-0.3s-0.3-0.6-0.3-1v-3.6h-0.7v-1.1h0.7v-1.6h1.3v1.6h0.8v1.1
		h-0.8v3.3c0,0.2,0,0.3,0.1,0.3s0.2,0.1,0.4,0.1h0.3V19.4z"/>
	<path class="st0" d="M20,19.4v-8.1h4.9V12v0.7h-3.5v1.7h3.2v0.7v0.7h-3.2V18H25v0.7v0.7C25,19.4,20,19.4,20,19.4z"/>
	<path class="st0" d="M29,20.2c-0.2,0.6-0.4,1.1-0.6,1.3c-0.2,0.2-0.5,0.3-1,0.3c-0.2,0-0.4,0-0.6,0v-1.2c0.1,0,0.2,0,0.3,0
		c0.2,0,0.3,0,0.4-0.1s0.2-0.3,0.3-0.5v-0.4l0,0L26,13.5h0.7h0.7l1.1,4.4l0,0l1-4.4h0.7H31L29,20.2z"/>
	<path class="st0" d="M34.4,19.6c-0.8,0-1.5-0.3-1.9-0.8s-0.6-1.4-0.6-2.5c0-0.9,0.2-1.7,0.6-2.2s1-0.8,1.7-0.8
		c0.8,0,1.3,0.3,1.7,0.8s0.6,1.3,0.6,2.3v0.5h-3.3c0,0.4,0.1,0.8,0.3,1c0.2,0.3,0.5,0.4,0.9,0.4c0.2,0,0.4-0.1,0.5-0.2
		s0.2-0.3,0.3-0.5h1.4c-0.1,0.6-0.4,1-0.7,1.4S35,19.6,34.4,19.6z M35.2,15.8c0-0.4-0.1-0.7-0.2-0.9c-0.2-0.3-0.4-0.4-0.8-0.4
		c-0.3,0-0.6,0.2-0.8,0.5c-0.1,0.2-0.2,0.5-0.2,0.8C33.2,15.8,35.2,15.8,35.2,15.8z"/>
</g>
<g>
	<path class="st0" d="M15,28.7v-5.8h3.4v0.5v0.5H16v1.3h2.1v0.5v0.5H16v2.5h-0.5H15z"/>
	<path class="st0" d="M20.4,28.7L19,22.9h0.5H20l0.8,4.2l0,0l0.7-4.2H22h0.5l0.7,4.3l0,0l0.8-4.3h0.5H25l-1.3,5.8h-0.5h-0.5
		l-0.8-4.6l0,0l-0.8,4.6h-0.5H20.4z"/>
</g>
</svg>
