<?xml version="1.0" encoding="utf-8"?>
<!-- Generator: Adobe Illustrator 21.0.0, SVG Export Plug-In . SVG Version: 6.00 Build 0)  -->
<svg version="1.1" id="图层_1" xmlns="http://www.w3.org/2000/svg" xmlns:xlink="http://www.w3.org/1999/xlink" x="0px" y="0px"
	 width="40px" height="40px" viewBox="0 0 40 40" style="enable-background:new 0 0 40 40;" xml:space="preserve">
<style type="text/css">
	.st0{fill:#606060;}
</style>
<g>
	<g>
		<path class="st0" d="M11.9,19.2h-0.7h-0.7v-8.1h0.7h0.7l2.6,5.6v-5.6h0.7H16v8.1h-0.7h-0.7l-2.7-5.8
			C11.9,13.4,11.9,19.2,11.9,19.2z"/>
		<path class="st0" d="M17.9,19.2v-8.1h4.9v0.7v0.7h-3.5v1.7h3.2v0.7v0.7h-3.2v2.1h3.6v0.7v0.7h-5V19.2z"/>
		<path class="st0" d="M26,12.5h-2v-0.7v-0.7h5.4v0.7v0.7h-2v6.6h-0.7H26V12.5z"/>
	</g>
	<g>
		<path class="st0" d="M8.5,22.6H9h0.5v3.2l1.2-1.7h0.6h0.6l-1.3,1.6l1.3,2.7h-0.6h-0.6l-0.8-1.8l-0.4,0.5v1.3H9H8.5V22.6z"/>
		<path class="st0" d="M14.1,28.6c-0.6,0-1.1-0.2-1.4-0.6s-0.5-1-0.5-1.8c0-0.7,0.2-1.2,0.5-1.6s0.7-0.6,1.2-0.6
			c0.6,0,1,0.2,1.3,0.6s0.4,1,0.4,1.7v0.3h-2.4c0,0.3,0.1,0.6,0.2,0.7c0.1,0.2,0.3,0.3,0.6,0.3c0.2,0,0.3,0,0.4-0.1
			c0.1-0.1,0.2-0.2,0.2-0.3h1c-0.1,0.4-0.3,0.8-0.5,1S14.5,28.6,14.1,28.6z M14.7,25.9c0-0.3-0.1-0.5-0.2-0.7
			c-0.1-0.2-0.3-0.3-0.5-0.3s-0.4,0.1-0.6,0.3c-0.1,0.1-0.1,0.3-0.2,0.6h1.5V25.9z"/>
		<path class="st0" d="M18.3,28.6c-0.6,0-1.1-0.2-1.4-0.6s-0.5-1-0.5-1.8c0-0.7,0.2-1.2,0.5-1.6s0.7-0.6,1.2-0.6
			c0.6,0,1,0.2,1.3,0.6s0.4,1,0.4,1.7v0.3h-2.4c0,0.3,0.1,0.6,0.2,0.7c0.1,0.2,0.3,0.3,0.6,0.3c0.2,0,0.3,0,0.4-0.1s0.2-0.2,0.2-0.3
			h1c-0.1,0.4-0.3,0.8-0.5,1S18.6,28.6,18.3,28.6z M18.8,25.9c0-0.3-0.1-0.5-0.2-0.7s-0.3-0.3-0.5-0.3s-0.4,0.1-0.6,0.3
			c-0.1,0.1-0.1,0.3-0.2,0.6h1.5V25.9z"/>
		<path class="st0" d="M20.8,24.1h0.4h0.4v0.6l0.1-0.1c0.3-0.4,0.6-0.6,1-0.6s0.8,0.2,1,0.6c0.3,0.4,0.4,1,0.4,1.7S24,27.5,23.7,28
			s-0.6,0.6-1,0.6s-0.8-0.2-1-0.6v-0.1v2.2h-0.5h-0.5v-6H20.8z M22.5,27.6c0.3,0,0.5-0.1,0.6-0.3c0.1-0.2,0.2-0.6,0.2-1
			s-0.1-0.8-0.2-1S22.8,25,22.5,25s-0.5,0.1-0.6,0.3c-0.1,0.2-0.2,0.6-0.2,1s0.1,0.8,0.2,1C22.1,27.5,22.2,27.6,22.5,27.6z"/>
		<path class="st0" d="M26.8,28.6c-0.6,0-1.1-0.2-1.4-0.6S25,27,25,26.2c0-0.7,0.2-1.2,0.5-1.6s0.7-0.6,1.2-0.6c0.6,0,1,0.2,1.3,0.6
			s0.4,1,0.4,1.7v0.3H26c0,0.3,0.1,0.6,0.2,0.7c0.1,0.2,0.3,0.3,0.6,0.3c0.2,0,0.3,0,0.4-0.1s0.2-0.2,0.2-0.3h1
			c-0.1,0.4-0.3,0.8-0.5,1S27.2,28.6,26.8,28.6z M27.4,25.9c0-0.3-0.1-0.5-0.2-0.7s-0.3-0.3-0.5-0.3s-0.4,0.1-0.6,0.3
			c-0.1,0.1-0.1,0.3-0.2,0.6h1.5V25.9z"/>
		<path class="st0" d="M29.4,24.1h0.4h0.4v0.8l0.1-0.3c0.2-0.4,0.5-0.6,0.8-0.6c0.1,0,0.1,0,0.2,0v1.2c-0.1,0-0.2,0-0.3,0
			c-0.3,0-0.5,0.1-0.7,0.3c-0.1,0.2-0.2,0.4-0.2,0.8v2.2h-0.5h-0.5v-4.4H29.4z"/>
	</g>
</g>
</svg>
