<?xml version="1.0" encoding="utf-8"?>
<!-- Generator: Adobe Illustrator 21.0.0, SVG Export Plug-In . SVG Version: 6.00 Build 0)  -->
<svg version="1.1" id="图层_1" xmlns="http://www.w3.org/2000/svg" xmlns:xlink="http://www.w3.org/1999/xlink" x="0px" y="0px"
	 width="40px" height="40px" viewBox="0 0 40 40" style="enable-background:new 0 0 40 40;" xml:space="preserve">
<style type="text/css">
	.st0{fill:#606060;}
</style>
<g>
	<g>
		<path class="st0" d="M37.1,14.6c-0.1-0.7-0.6-1.1-1.2-0.8c-0.6,0.3-1.2,0.6-1.7,1c-1.3,1-2.5,2.1-3.7,3.2c-0.5,0.4-1,0.9-1.5,1.4
			c-0.1-0.2-0.2-0.4-0.3-0.6c-0.8-1.3-1.5-2.6-2.4-3.8c-0.3-0.5-0.8-0.9-1.2-1.2c-0.6-0.4-1.1-0.3-1.5,0.3c-0.7,1-0.9,2.1-0.4,3.2
			c0.1,0.2,0.3,0.4,0.4,0.6c0,0,0.1,0,0.1,0c0-0.1,0.1-0.2,0.1-0.3c0.1-0.5,0.2-1.1,0.2-1.6c0-0.3,0.3-0.5,0.6-0.4
			c0.2,0,0.3,0.1,0.5,0.3c0.3,0.3,0.5,0.7,0.7,1c0.7,1.1,1.3,2.3,2,3.4c0.1,0.2,0.1,0.4-0.1,0.5c-1.1,1-2.1,2-3.2,3
			c-0.5,0.4-1,0.8-1.6,1.2c-0.3,0.2-0.6,0.2-0.9,0c-0.3-0.2-0.2-0.5-0.1-0.8c0.1-0.3,0.2-0.6,0.3-0.9c-0.4-0.1-0.7-0.1-1.1,0.1
			c-0.4,0.3-0.8,0.6-1,1.1c-0.4,1,0.2,2,1.3,2c0.7,0,1.3-0.3,1.8-0.8c1.3-1.1,2.5-2.2,3.7-3.3c0.4-0.4,0.9-0.8,1.3-1.2
			c0.1,0.1,0.1,0.2,0.2,0.3c0.5,0.9,1,1.8,1.6,2.6c0.4,0.7,0.9,1.3,1.4,1.9c0.6,0.7,1.5,0.6,2-0.2c0.4-0.6,0.6-1.2,0.5-1.9
			c0-0.4-0.2-0.7-0.3-1c-0.1-0.2-0.2-0.3-0.4-0.2c0,0.3,0,0.6,0,0.8c0,0.4-0.3,0.9-0.6,1c-0.3,0.1-0.6,0-0.9-0.4
			c0,0-0.1-0.1-0.1-0.1c-0.7-1.2-1.4-2.5-2.1-3.7c-0.1-0.2,0-0.3,0.1-0.4c0.5-0.4,1-0.9,1.4-1.4c1.1-1,2.2-2,3.5-2.8
			c0.2-0.1,0.5-0.2,0.8-0.3c0.3-0.1,0.6,0.1,0.5,0.5c0,0.2-0.1,0.3-0.2,0.4c-0.1,0.2-0.3,0.4-0.4,0.7c0.5,0.2,0.9,0.1,1.2-0.2
			C36.9,16.1,37.1,15.4,37.1,14.6z"/>
		<path class="st0" d="M13.9,19.2c-0.8,0-1.7,0-2.5,0c-0.1,0-0.2,0-0.3,0c0,0.3,0,0.6,0,0.9c0.5,0,0.9,0,1.4,0
			c-0.2,0.6-0.3,0.6-0.7,0.6c-0.3,0-0.6,0-1,0c-0.1,0-0.3-0.1-0.4-0.2c-0.2-0.3-0.5-0.7-0.7-1.1c0-0.1-0.1-0.3,0-0.3
			c0.2-0.4,0.4-0.7,0.6-1c0.1-0.1,0.2-0.2,0.3-0.2c0.4,0,0.8,0,1.2,0c0.3,0,0.5,0.1,0.6,0.4c0.1,0.1,0.2,0.4,0.3,0.4
			c0.3,0.1,0.7,0,1.1,0c-0.4-0.6-0.7-1.2-1-1.7c-0.1-0.1-0.2-0.1-0.3-0.1c-0.9,0-1.7,0-2.6,0c-0.1,0-0.3,0.1-0.3,0.2
			c-0.5,0.7-0.9,1.5-1.3,2.3c0,0.1,0,0.3,0,0.3c0.4,0.8,0.9,1.5,1.3,2.3C9.7,21.9,9.8,22,10,22c0.9,0,1.7,0,2.6,0
			c0.1,0,0.3-0.1,0.3-0.2c0.4-0.7,0.9-1.5,1.3-2.2C14.4,19.3,14.3,19.2,13.9,19.2z"/>
		<path class="st0" d="M6.5,19.8c-0.1-0.1-0.2-0.2-0.3-0.3c-0.6-0.8-1.3-1.5-1.9-2.3c-0.3-0.4-0.6-0.5-1-0.5c-0.3,0-0.4,0.1-0.4,0.4
			c0,1,0,2,0,3c0,0.5,0,1.1,0,1.6C3,21.8,3.1,22,3.1,22c0.2,0,0.5,0,0.8,0c0-1.1,0-2.1,0-3.1c0.1,0.1,0.2,0.1,0.3,0.2
			c0.7,0.9,1.3,1.7,2,2.6C6.3,21.8,6.5,22,6.6,22c0.3,0,0.6,0,1,0c0-1.8,0-3.5,0-5.2c-0.4,0-0.7,0-1.1,0C6.5,17.8,6.5,18.7,6.5,19.8
			z"/>
		<path class="st0" d="M21.4,22c0.3,0,0.3-0.1,0.3-0.4c0-1.4,0-2.8,0-4.2c0-0.8,0-0.8-0.8-0.8c-0.2,0-0.3,0.1-0.3,0.3
			c0,0.8,0,1.6,0,2.3c0,0.1,0,0.2,0,0.3c0,0-0.1,0-0.1,0.1c0-0.1-0.1-0.1-0.1-0.2c-0.6-0.8-1.3-1.5-1.9-2.3
			c-0.3-0.4-0.6-0.6-1.1-0.5c-0.2,0-0.3,0.1-0.3,0.3c0,1.5,0,3.1,0,4.6c0,0.1,0,0.2,0,0.3c0.2,0,0.4,0,0.7,0c0.2,0,0.3-0.1,0.3-0.3
			c0-0.8,0-1.6,0-2.5c0-0.1,0-0.2,0-0.4c0.1,0.1,0.2,0.2,0.2,0.2c0.6,0.8,1.2,1.5,1.8,2.3C20.5,21.9,20.8,22.1,21.4,22z"/>
		<path class="st0" d="M15.8,17.7c-0.8,0-0.8,0-0.8,0.8c0,1.1,0,2.1,0,3.2c0,0.1,0,0.3,0.2,0.3c0.3,0,0.6,0,1,0c0-1.4,0-2.8,0-4.3
			C16,17.7,15.9,17.7,15.8,17.7z"/>
		<path class="st0" d="M15.6,14.8c-0.7,0-1.2,0.5-1.2,1.2c0,0.6,0.5,1.2,1.2,1.2c0.6,0,1.2-0.5,1.2-1.2
			C16.8,15.3,16.2,14.8,15.6,14.8z M15.2,15.9c-0.2,0-0.4-0.2-0.4-0.4c0-0.3,0.2-0.4,0.4-0.4c0.2,0,0.4,0.2,0.4,0.4
			C15.7,15.7,15.5,15.9,15.2,15.9z"/>
	</g>
</g>
</svg>
