<?xml version="1.0" encoding="utf-8"?>
<!-- Generator: Adobe Illustrator 21.0.0, SVG Export Plug-In . SVG Version: 6.00 Build 0)  -->
<svg version="1.1" id="图层_1" xmlns="http://www.w3.org/2000/svg" xmlns:xlink="http://www.w3.org/1999/xlink" x="0px" y="0px"
	 width="40px" height="40px" viewBox="0 0 40 40" style="enable-background:new 0 0 40 40;" xml:space="preserve">
<style type="text/css">
	.st0{fill:#606060;}
</style>
<path class="st0" d="M24.7,19.2c-0.8,0-1.5-0.1-2.3,0c-2.4,0.1-4.8,0.5-7.1,1.6c-1.5,0.8-2.9,1.7-4,3c-0.1,0.1-0.2,0.2-0.3,0.3
	c-0.1-0.4-0.1-0.8-0.2-1.2v-0.1c-0.2-0.4,0-0.8,0.3-1.1c1.2-1.3,2.6-2.2,4.3-2.8c1.6-0.7,3.2-0.8,4.8-0.7c1.5,0.1,2.9,0.5,4.3,0.9
	C24.6,19.2,24.6,19.2,24.7,19.2z"/>
<path class="st0" d="M10.6,21c-0.1-0.5-0.3-1-0.4-1.5c0-0.1,0-0.2,0.1-0.2c1.5-1.5,3.3-2.3,5.4-2.6c1.3-0.2,2.5-0.1,3.8,0.2
	c0.8,0.2,1.6,0.5,2.5,0.7v0.1c-0.3,0-0.5,0-0.8,0c-2-0.2-4,0.1-6,0.7c-1.4,0.4-2.6,1.1-3.7,2C11.2,20.5,10.9,20.7,10.6,21z"/>
<path class="st0" d="M6.5,27.9c0-0.6,0-1.2,0-1.8c0-0.2,0-0.2,0.2-0.2c0.3,0,0.7,0,1,0c0,1.2,0,2.4,0,3.6c-0.4,0-0.8,0-1.2,0
	c-0.1,0-0.1-0.1-0.2-0.1c-0.5-0.6-1.1-1.2-1.6-1.8c-0.2-0.2-0.3-0.4-0.4-0.6c0,0.8,0,1.6,0,2.5c-0.4,0-0.8,0-1.2,0
	c0-1.2,0-2.4,0-3.6c0.3,0,0.7,0,1,0C4.7,25.8,5,26,5.3,26.5C5.8,26.9,6.1,27.4,6.5,27.9C6.5,27.8,6.5,27.9,6.5,27.9z"/>
<path class="st0" d="M8.2,29.5c0-0.2,0-0.5,0-0.7s0.1-0.1,0.2-0.1c0.9,0,1.8,0,2.7,0c0.3,0,0.4-0.2,0.3-0.5c0,0-0.1-0.1-0.2-0.1
	c-0.6,0-1.1,0-1.7,0c-0.3,0-0.5,0-0.8-0.1c-0.4-0.1-0.5-0.2-0.5-0.6c0-0.3,0-0.6,0-0.8c0-0.3,0.1-0.5,0.4-0.6
	c0.2-0.1,0.4-0.1,0.7-0.1c1,0,2,0,2.9,0h0.1c0,0.3,0,0.5,0,0.8c-0.9,0-1.9,0-2.9,0c0,0.2,0,0.4,0,0.6c0.1,0,0.2,0,0.2,0
	c0.6,0,1.2,0,1.8,0c0.1,0,0.1,0,0.2,0c0.7,0,0.9,0.2,0.9,1c0,0.2,0,0.4,0,0.6c0,0.3-0.1,0.5-0.4,0.6c-0.2,0.1-0.4,0.1-0.5,0.1
	C10.4,29.6,9.3,29.6,8.2,29.5C8.3,29.5,8.3,29.5,8.2,29.5z"/>
<path class="st0" d="M33.6,27.3c0.2,0,0.4,0,0.6,0c0.6,0,1.3,0,1.9,0c0.5,0,0.7,0.3,0.7,0.8c0,0.2,0,0.5,0,0.7
	c0,0.3-0.1,0.5-0.4,0.6c-0.2,0.1-0.3,0.1-0.5,0.1c-1.2,0-2.4,0-3.6,0c0-0.3,0-0.5,0-0.8c0.1,0,0.2,0,0.3,0c0.9,0,1.8,0,2.7,0
	c0.2,0,0.2-0.1,0.2-0.3c0-0.2,0-0.3-0.3-0.3c-0.6,0-1.3,0-1.9,0c-0.2,0-0.4,0-0.6-0.1c-0.3-0.1-0.4-0.2-0.4-0.5s0-0.6,0-0.9
	c0-0.3,0.1-0.5,0.4-0.6c0.3-0.1,0.5-0.1,0.8-0.1c0.9,0,1.8,0,2.7,0c0.2,0,0.2,0,0.2,0.2c0,0.2,0,0.4,0,0.6c-0.1,0-0.2,0-0.3,0
	c-0.8,0-1.6,0-2.3,0c-0.3,0-0.3,0-0.3,0.3C33.6,27.1,33.6,27.2,33.6,27.3z"/>
<path class="st0" d="M19.9,29.5c-0.5,0-1,0-1.5,0c-0.5-0.1-0.8-0.4-0.8-0.9c0-0.6,0-1.2,0-1.7s0.3-0.8,0.8-0.9c0.1,0,0.3,0,0.4,0
	c0.7,0,1.4,0,2.1,0c0.2,0,0.4,0,0.6,0.1c0.4,0.1,0.6,0.3,0.6,0.7c0,0.7,0,1.4,0,2.1c0,0.5-0.4,0.8-1,0.8
	C20.7,29.5,20.3,29.5,19.9,29.5L19.9,29.5z M19,26.7c0,0.6,0,1.2,0,1.8c0,0,0.1,0.1,0.2,0.1c0.5,0,1,0,1.5,0c0.1,0,0.2,0,0.2-0.2
	c0-0.3,0-0.7,0-1c0-0.2,0-0.5,0-0.7C20.2,26.7,19.6,26.7,19,26.7z"/>
<path class="st0" d="M28.6,25.9c0,0.2,0,0.4,0,0.6c0,0.7,0,1.3,0,2c0,0.2,0,0.2,0.2,0.2c0.5,0,1,0,1.5,0c0.2,0,0.2-0.1,0.2-0.2
	c0-0.8,0-1.5,0-2.3c0-0.2,0.1-0.2,0.2-0.2c0.3,0,0.6,0,0.9,0c0.1,0,0.2,0,0.2,0.2c0,0.9,0,1.8,0,2.7c0,0.3-0.1,0.5-0.4,0.6
	c-0.2,0.1-0.4,0.1-0.6,0.1c-0.9,0-1.7,0-2.6,0c-0.2,0-0.4-0.1-0.6-0.1c-0.3-0.1-0.4-0.3-0.4-0.6c0-0.9,0-1.8,0-2.7
	c0-0.1,0.1-0.2,0.1-0.2C27.8,25.9,28.2,25.9,28.6,25.9z"/>
<path class="st0" d="M26.9,25.9c0,0.3,0,0.5,0,0.8c-1,0-2,0-3,0c0,0.1,0,0.2,0,0.3c0,0.5,0,0.9,0,1.4c0,0.2,0.1,0.2,0.2,0.2
	c0.8,0,1.6,0,2.4,0c0.1,0,0.2,0,0.3,0c0,0.3,0,0.5,0,0.8c-0.1,0-0.1,0-0.2,0c-0.9,0-1.9,0-2.8,0c-0.1,0-0.2,0-0.3,0
	c-0.7-0.1-0.9-0.4-0.9-1.1c0-0.5,0-1,0-1.5c0-0.6,0.3-0.9,0.8-1c0.1,0,0.3,0,0.4,0c0.9,0,1.9,0,2.8,0C26.7,25.9,26.8,25.9,26.9,25.9
	z"/>
<path class="st0" d="M17.2,26.7c-0.9,0-1.7,0-2.6,0c0,0.2,0,0.4,0,0.6c0,0,0.1,0.1,0.2,0.1c0.7,0,1.4,0,2.1,0c0.1,0,0.2,0,0.3,0
	c0,0.2,0,0.4,0,0.5c0,0.1-0.1,0.1-0.2,0.1c-0.7,0-1.4,0-2.1,0c-0.2,0-0.3,0-0.3,0.3c0,0.4,0,0.7,0,1.1c-0.4,0-0.9,0-1.3,0
	c0-1.2,0-2.4,0-3.6c0.1,0,0.2,0,0.2,0c1.2,0,2.3,0,3.5,0c0.2,0,0.3,0,0.3,0.3C17.2,26.3,17.2,26.5,17.2,26.7z"/>
<path class="st0" d="M8.1,14.7c-0.1-0.3-0.3-0.6-0.5-0.9c0,0,0-0.2,0.1-0.2C8.1,13.4,8.5,13,9,12.8c1.7-0.8,3.4-0.8,5.2-0.3
	c0.7,0.2,1.3,0.5,2,0.7c0.1,0,0.1,0.1,0.3,0.1c-0.6,0-1.1-0.1-1.5-0.1c-1-0.1-1.9-0.1-2.8,0c-0.2,0-0.4,0-0.5-0.2
	c0-0.1-0.1-0.2-0.2-0.3c0,0,0,0-0.1,0c0,0.1,0,0.3,0,0.4c0,0.1-0.1,0.2-0.1,0.2C10.2,13.6,9.1,14,8.1,14.7
	C8.2,14.7,8.1,14.7,8.1,14.7z"/>
<path class="st0" d="M14.2,11.8c-0.8,0-1.5-0.1-2.2-0.1c-1.3,0-2.6,0.2-3.7,0.8c-0.4,0.1-0.6,0.3-0.9,0.5c-0.2,0.1-0.2,0.1-0.3,0
	c-0.1-0.2-0.2-0.3-0.4-0.5c0.4-0.4,0.7-0.7,1.2-1C9,11,10.1,10.9,11.2,11C12.2,11.1,13.2,11.4,14.2,11.8
	C14.1,11.8,14.2,11.8,14.2,11.8z"/>
<path class="st0" d="M13.2,15.3c2.2-0.4,4.3,0.1,6.4,0.9c-0.1,0-0.1,0-0.2,0c-1.8-0.2-3.5-0.2-5.3,0.2c-0.1,0-0.2,0-0.3-0.1
	C13.7,16,13.5,15.6,13.2,15.3z"/>
<path class="st0" d="M13.8,16.5c-1.5,0.4-2.7,1.1-3.9,2.1c-0.1-0.4-0.3-0.8-0.4-1.1c0,0,0-0.1,0.1-0.2c0.4-0.6,1-1,1.7-1.3
	c0,0.4,0,0.8,0,1.3c0.1-0.1,0.1-0.1,0.2-0.2c0.3-0.3,0.5-0.7,0.8-1c0-0.2,0.1-0.2,0.2-0.1C13,16.1,13.4,16.3,13.8,16.5z"/>
<path class="st0" d="M29.2,15.6c-0.2,0.7-0.4,1.2-0.8,1.7c-0.7,0.8-1.6,1.2-2.6,1.3s-2-0.1-3-0.4c0,0,0,0-0.1,0
	C25.3,18.2,27.5,17.6,29.2,15.6z"/>
<path class="st0" d="M26.6,12.9c0.4-0.1,0.7-0.2,1-0.3c0.2,0,0.2-0.1,0.2-0.3c0-0.3,0-0.6,0.1-0.9c0.2,0.2,0.3,0.4,0.4,0.6
	c0.3,0.4,0.3,0.4,0.7,0.3c0.3-0.1,0.5-0.1,0.8-0.2c-0.2,0.3-0.4,0.6-0.7,0.9c-0.1,0.1-0.1,0.3,0,0.4c0.2,0.3,0.3,0.6,0.5,0.9
	c-0.3-0.1-0.5-0.2-0.8-0.3s-0.3-0.1-0.6,0.2c-0.2,0.2-0.4,0.5-0.5,0.7c0-0.4,0-0.7,0-1c0-0.2-0.1-0.3-0.2-0.4
	C27.2,13.2,26.9,13.1,26.6,12.9z"/>
<path class="st0" d="M26.7,14.7c-0.4,1.1-1.2,1.9-2.3,2.2c-1.2,0.3-2.3,0.2-3.4-0.2c-0.1,0-0.3-0.1-0.4-0.1c0,0,0,0-0.1,0
	C22.8,16.8,24.9,16.4,26.7,14.7z"/>
<path class="st0" d="M24.6,13.6c-0.3,0.9-0.9,1.7-1.9,2c-1.4,0.5-2.7,0.2-4-0.4c1.1,0.2,2.1,0.2,3.2-0.1
	C22.9,14.8,23.8,14.3,24.6,13.6z"/>
<path class="st0" d="M11.3,13.9c0,0.4,0,0.4-0.2,0.4c-0.4,0.1-0.8,0.2-1.2,0.3c-0.1,0-0.1,0.1-0.2,0.1c0,0,0,0,0,0.1
	c0.4,0.2,0.8,0.4,1.2,0.5c-0.6,0.4-1.2,0.7-1.8,1.1c-0.1-0.3-0.3-0.6-0.4-0.9c0-0.1,0-0.2,0.1-0.2c0.6-0.6,1.3-1,2.2-1.3
	C11,14,11.2,14,11.3,13.9z"/>
<path class="st0" d="M13.4,14.7c0.2-0.4,0.5-0.7,0.7-1c0,0,0.1-0.1,0.2,0c1.2,0.2,2.4,0.5,3.6,1c0,0,0,0,0,0.1
	C16.4,14.6,14.9,14.5,13.4,14.7L13.4,14.7z"/>
<path class="st0" d="M17.4,13.9c0.9,0.1,1.7,0.1,2.6-0.1s1.7-0.6,2.4-1.2c0,0.1-0.1,0.2-0.1,0.3c-0.7,1.2-1.9,1.6-3.2,1.5
	c-0.6-0.1-1.1-0.3-1.6-0.4L17.4,13.9z"/>
<path class="st0" d="M31.6,17.2c0-0.3,0-0.5,0-0.7s0-0.3-0.2-0.4c-0.2-0.1-0.4-0.2-0.7-0.4c0.3-0.1,0.5-0.2,0.8-0.2
	c0.2,0,0.3-0.1,0.2-0.3c0-0.2,0-0.4,0-0.6h0.1c0.1,0.2,0.2,0.4,0.3,0.5c0.1,0.1,0.2,0.2,0.3,0.1c0.2-0.1,0.5-0.1,0.8-0.2
	c-0.2,0.2-0.3,0.4-0.5,0.6c-0.1,0.1-0.1,0.2,0,0.4c0.1,0.2,0.2,0.4,0.3,0.6c-0.2-0.1-0.4-0.1-0.6-0.2s-0.3,0-0.4,0.1
	C31.9,16.8,31.8,16.9,31.6,17.2z"/>
<path class="st0" d="M15.8,12.6c1.9,0.3,3.6,0,5-1.4c-0.2,0.4-0.4,0.8-0.7,1.1c-0.7,0.7-1.5,0.9-2.5,0.8
	C17,13.1,16.3,12.9,15.8,12.6z"/>
<path class="st0" d="M18.9,10.5c-0.2,1.3-2.6,1.9-4,1.1C16.4,11.7,17.7,11.5,18.9,10.5z"/>
<path class="st0" d="M12.3,13.7c0.4,0,0.9,0,1.3-0.1c0,0,0,0,0,0.1c-0.3,0.1-0.7,0.2-1.1,0.3c-0.1,0-0.2-0.2-0.2-0.2
	C12.3,13.7,12.3,13.7,12.3,13.7z"/>
</svg>
