<?xml version="1.0" encoding="utf-8"?>
<!-- Generator: Adobe Illustrator 21.0.0, SVG Export Plug-In . SVG Version: 6.00 Build 0)  -->
<svg version="1.1" id="图层_1" xmlns="http://www.w3.org/2000/svg" xmlns:xlink="http://www.w3.org/1999/xlink" x="0px" y="0px"
	 width="40px" height="40px" viewBox="0 0 40 40" style="enable-background:new 0 0 40 40;" xml:space="preserve">
<style type="text/css">
	.st0{fill:#606060;}
</style>
<g>
	<g>
		<path class="st0" d="M12.6,24.3h0.5h2.1c0.5,0,0.9,0.1,1.2,0.4c0.3,0.3,0.5,0.6,0.5,1c0,0.5-0.2,0.9-0.5,1.1
			c-0.1,0.1-0.2,0.1-0.4,0.2c0.1,0,0.2,0,0.2,0c0.3,0.2,0.4,0.5,0.5,0.9v0.8c0,0.2,0,0.3,0.1,0.4c0,0.1,0.1,0.1,0.2,0.2v0.1h-1.3
			c0-0.1-0.1-0.2-0.1-0.3c0-0.2,0-0.4,0-0.6V28c0-0.2-0.1-0.4-0.2-0.5c-0.1-0.1-0.4-0.1-0.7-0.1h-1v2h-0.6h-0.5V24.3z M13.7,26.5H15
			c0.3,0,0.5-0.1,0.6-0.2c0.1-0.1,0.2-0.3,0.2-0.5c0-0.2-0.1-0.4-0.2-0.5c-0.1-0.1-0.3-0.2-0.6-0.2h-1.3V26.5z"/>
		<path class="st0" d="M19.2,24.3h0.6h0.6l1.8,5.2h-0.5h-0.5l-0.4-1.1h-2l-0.3,1.1H18h-0.6L19.2,24.3z M19.2,27.5h1.4l-0.7-2.1l0,0
			L19.2,27.5z"/>
		<path class="st0" d="M27.4,27.6c-0.1,0.6-0.3,1.1-0.7,1.4c-0.4,0.4-0.9,0.5-1.5,0.5c-0.7,0-1.3-0.2-1.7-0.7s-0.6-1.1-0.6-2
			c0-0.8,0.2-1.5,0.6-2c0.4-0.5,1-0.7,1.7-0.7c0.6,0,1.1,0.2,1.5,0.5c0.4,0.3,0.6,0.8,0.7,1.4h-1.1c0-0.3-0.2-0.5-0.4-0.7
			s-0.5-0.2-0.8-0.2c-0.4,0-0.7,0.2-0.9,0.5c-0.2,0.3-0.3,0.8-0.3,1.3c0,0.6,0.1,1,0.3,1.3c0.2,0.3,0.5,0.5,0.9,0.5
			c0.3,0,0.6-0.1,0.8-0.3c0.2-0.2,0.3-0.4,0.4-0.7h1.1V27.6z"/>
	</g>
	<g>
		<path class="st0" d="M6.2,17c-0.5,0-0.9,0-1.4,0c-0.3,0-0.6-0.1-0.8-0.3c-0.8-0.5-1.2-1.3-1.2-2.3s0.3-1.9,1.1-2.4
			c0.2-0.2,0.6-0.3,0.8-0.3c0.9,0,1.7,0,2.6,0s1.5,0.5,2,1.4C9.7,14,9.7,15.4,9,16.2C8.6,16.7,8.1,17,7.5,17C7.1,16.9,6.6,17,6.2,17
			L6.2,17z M6.2,12.7L6.2,12.7c-0.5,0-0.9,0-1.4,0c-0.1,0-0.2,0-0.3,0.1c-0.6,0.3-0.9,0.9-0.9,1.6c0,0.7,0.7,1.7,1.5,1.6
			c0.8,0,1.5,0,2.3,0c0.1,0,0.2,0,0.3,0c0.8-0.3,1.3-1.3,1-2.3c-0.2-0.6-0.6-1.1-1.2-1C7,12.7,6.6,12.7,6.2,12.7z"/>
		<path class="st0" d="M33.8,13.8c0.5,0,1,0,1.6,0c0.1,0,0.2,0.1,0.3,0.1c0,0.1,0,0.2-0.1,0.3c-0.2,0.4-0.4,0.6-0.9,0.5
			c-0.8,0-1.7,0-2.5,0c-0.3,0-0.4,0.2-0.2,0.4c0.2,0.7,0.6,0.9,1.1,0.9c0.9,0,1.7,0,2.6,0c0.2,0,0.3,0.1,0.2,0.3
			c0,0.1-0.1,0.1-0.1,0.2c-0.1,0.4-0.3,0.5-0.6,0.5c-0.7,0-1.4,0-2.2,0c-0.5,0-0.8-0.1-1.2-0.4c-0.8-0.7-1.2-2.3-0.8-3.2
			c0.1-0.3,0.3-0.6,0.5-0.9c0.4-0.5,0.9-0.8,1.5-0.8c0.9,0,1.7,0,2.6,0c0.3,0,0.4,0.1,0.3,0.5c-0.2,0.4-0.5,0.5-0.8,0.5
			c-0.7,0-1.3,0-2,0c-0.4,0-0.9,0.4-1,0.8c-0.1,0.2,0,0.3,0.2,0.3C32.7,13.8,33.2,13.8,33.8,13.8L33.8,13.8z"/>
		<path class="st0" d="M11.3,14.4c0.1,0,0.1-0.1,0.2-0.1c0.3,0,0.7,0,1,0s0.7,0,1,0s0.6-0.4,0.7-0.7c0-0.2-0.2-0.7-0.4-0.8
			c-0.1,0-0.2,0-0.2,0c-0.8,0-1.6,0-2.4,0c-0.2,0-0.3,0.1-0.3,0.3c0,0.1,0,0.2,0,0.3c0,1.1,0,2.2,0,3.2c0,0.2-0.1,0.4-0.1,0.5
			c-0.2,0.1-0.4,0-0.6,0C10,16.9,10,16.8,10,16.7c0-1.6,0-3.1,0-4.7c0-0.2,0.2-0.3,0.3-0.3c0.3,0,0.6,0,0.9,0c0.8,0,1.6,0,2.4,0
			c0.7,0,1.2,0.5,1.4,1.2c0.3,0.8,0,1.5-0.6,2.1c-0.2,0.1-0.4,0.2-0.6,0.3c-0.2,0.1-0.3,0.2-0.1,0.4c0.3,0.3,0.6,0.6,0.9,0.9
			c0.1,0.1,0.1,0.2,0.1,0.2c-0.1,0.1-0.2,0.1-0.2,0.2l0,0c-0.9,0-0.9,0-1.4-0.7c-0.6-0.5-1.1-1.1-1.6-1.6
			C11.4,14.6,11.4,14.5,11.3,14.4z"/>
		<path class="st0" d="M20.7,17c-0.4,0-0.4,0-0.6-0.5c-0.2-0.3-0.4-0.5-0.7-0.5c-0.4,0.1-0.8,0-1.2,0c-0.5,0.1-0.7-0.1-0.9-0.6
			c0-0.1-0.1-0.2-0.2-0.3c-0.1,0.2-0.2,0.2-0.3,0.4c-0.2,0.4-0.4,0.8-0.6,1.2C16.1,16.9,16,17,15.8,17c-0.1,0-0.2,0-0.4,0
			c-0.1,0-0.2,0-0.3-0.1c0-0.1,0-0.2,0.1-0.3c0.4-0.6,0.7-1.2,1-1.8c0.4-0.8,0.8-1.6,1.2-2.4c0.1-0.1,0.2-0.3,0.2-0.4
			c0.3-0.5,0.9-0.4,1.1,0c0.5,1,1.1,2.1,1.6,3.1c0.3,0.5,0.5,1,0.8,1.5c0,0.1,0.1,0.2,0.1,0.3c-0.1,0-0.2,0-0.3,0.1
			C20.9,17,20.8,17,20.7,17z M17.1,15.1c0.6,0,1.2,0,1.8,0c0.2,0,0.3-0.1,0.2-0.3c-0.2-0.5-0.5-1-0.8-1.5c0-0.3-0.1-0.3-0.3-0.1
			l-0.1,0.1c-0.2,0.5-0.4,0.9-0.6,1.3C17.2,14.8,17.2,14.9,17.1,15.1z"/>
		<path class="st0" d="M24.2,11.7c0.5,0,0.9,0,1.4,0c0.1,0,0.2,0,0.3,0.1c0,0.1,0,0.2-0.1,0.3c0,0.1-0.1,0.2-0.1,0.3
			c-0.1,0.2-0.3,0.3-0.5,0.3c-0.7,0-1.4,0-2.2,0c-0.2,0-0.3,0-0.5,0.1c-0.7,0.5-1,1.2-0.7,2c0.2,0.7,0.6,1.3,1.4,1.2
			c0.8,0,1.7,0,2.5,0c0.2,0,0.3,0.1,0.2,0.4c-0.1,0.1-0.1,0.3-0.2,0.4c-0.1,0.1-0.2,0.2-0.3,0.2c-0.9,0-1.8,0-2.7,0
			c-0.6,0-1-0.5-1.4-1c-0.3-0.6-0.5-1.2-0.5-1.9c0.1-0.8,0.4-1.6,1.1-2.1c0.3-0.2,0.6-0.3,1-0.3S23.8,11.7,24.2,11.7z"/>
		<path class="st0" d="M26.4,14.2c0-0.7,0-1.4,0-2.1c0-0.3,0.1-0.4,0.4-0.4c0.4,0,0.5,0.1,0.5,0.6c0,1.1,0,2.2,0,3.3
			c0,0.3,0.1,0.4,0.4,0.4c1,0,2,0,3,0c0.1,0,0.2,0.1,0.3,0.1c0,0.1-0.1,0.3-0.1,0.4s-0.1,0.2-0.1,0.2c-0.1,0.1-0.2,0.2-0.3,0.2
			c-1.2,0-2.4,0-3.5,0c-0.3,0-0.5-0.2-0.5-0.6C26.4,15.7,26.4,14.9,26.4,14.2L26.4,14.2z"/>
		<path class="st0" d="M36.4,12.3c0-0.4,0.2-0.6,0.4-0.6c0.3,0,0.5,0.2,0.4,0.6c0,0.3-0.2,0.5-0.4,0.6
			C36.5,12.8,36.4,12.6,36.4,12.3z"/>
	</g>
</g>
</svg>
