<?xml version="1.0" encoding="utf-8"?>
<!-- Generator: Adobe Illustrator 21.0.0, SVG Export Plug-In . SVG Version: 6.00 Build 0)  -->
<svg version="1.1" id="图层_1" xmlns="http://www.w3.org/2000/svg" xmlns:xlink="http://www.w3.org/1999/xlink" x="0px" y="0px"
	 width="40px" height="40px" viewBox="0 0 40 40" style="enable-background:new 0 0 40 40;" xml:space="preserve">
<style type="text/css">
	.st0{fill:#606060;}
</style>
<g>
	<g>
		<path class="st0" d="M6.1,23.8c-0.5,0-0.9,0-1.4,0c-0.3,0-0.6-0.1-0.8-0.4c-0.8-0.8-1.2-1.9-1.2-3.4s0.3-2.7,1.1-3.5
			c0.2-0.2,0.6-0.4,0.8-0.4c0.9-0.1,1.7,0,2.6,0s1.5,0.7,2,2c0.4,1.3,0.4,3.3-0.3,4.5c-0.4,0.7-0.8,1.1-1.4,1.1
			C7,23.8,6.6,23.8,6.1,23.8L6.1,23.8z M6.1,17.7L6.1,17.7c-0.5,0-0.9,0-1.4,0c-0.1,0-0.2,0-0.3,0.1c-0.6,0.5-0.9,1.3-0.9,2.4
			c0,1.1,0.7,2.4,1.5,2.3s1.5,0,2.3,0c0.1,0,0.2,0,0.3-0.1c0.8-0.4,1.3-1.8,1-3.3c-0.2-0.8-0.6-1.5-1.2-1.4
			C7,17.7,6.5,17.7,6.1,17.7z"/>
		<path class="st0" d="M33.8,19.3c0.5,0,1,0,1.6,0c0.1,0,0.2,0.1,0.3,0.2c0,0.1,0,0.3-0.1,0.5c-0.2,0.6-0.4,0.8-0.9,0.8
			c-0.9-0.1-1.7,0-2.6,0c-0.3,0-0.4,0.2-0.2,0.6c0.3,0.7,0.7,1.1,1.2,1.1c0.9,0,1.7,0,2.6,0c0.2,0,0.3,0.1,0.2,0.5
			c0,0.1-0.1,0.2-0.1,0.3c-0.1,0.5-0.3,0.6-0.7,0.6c-0.7,0-1.4,0-2.2,0c-0.5,0-0.8-0.2-1.2-0.6c-0.7-1-1-3.3-0.7-4.6
			c0.1-0.4,0.3-0.9,0.5-1.3c0.4-0.8,0.9-1.1,1.5-1.1c0.9,0,1.7,0,2.6,0c0.4,0,0.4,0.2,0.3,0.7c-0.2,0.6-0.5,0.8-0.8,0.8
			c-0.7,0-1.3,0-2,0c-0.4,0-0.9,0.5-1,1.2c-0.1,0.3,0,0.5,0.2,0.5C32.7,19.3,33.3,19.3,33.8,19.3L33.8,19.3z"/>
		<path class="st0" d="M11.3,20.2c0.1-0.1,0.1-0.2,0.2-0.2c0.4,0,0.7,0,1.1,0c0.3,0,0.7,0,1,0c0.3,0,0.6-0.6,0.7-1.1
			c0-0.3-0.2-1-0.4-1.2c-0.2,0-0.3,0-0.3,0c-0.8,0-1.6,0-2.4,0c-0.2-0.1-0.3,0.1-0.4,0.3c0,0.1,0,0.3,0,0.4c0,1.6,0,3.1,0,4.7
			c0,0.2-0.1,0.6-0.1,0.7c-0.2,0.1-0.4,0-0.6,0c0,0-0.1-0.2-0.1-0.3c0-2.3,0-4.5,0-6.8c0-0.4,0.2-0.4,0.3-0.4c0.3,0,0.6,0,0.9,0
			c0.8,0,1.6,0,2.4,0c0.7-0.1,1.1,0.7,1.4,1.6c0.3,1.2,0,2.3-0.6,3c-0.2,0.3-0.4,0.4-0.6,0.5c-0.3,0.1-0.3,0.3-0.1,0.6
			c0.3,0.5,0.6,0.9,0.9,1.4c0.1,0.1,0.1,0.2,0.1,0.3c-0.1,0-0.1,0.1-0.2,0.1l0,0c-0.8,0-0.8,0-1.4-0.9c-0.5-0.8-1-1.6-1.6-2.4
			C11.4,20.4,11.4,20.3,11.3,20.2z"/>
		<path class="st0" d="M20.7,23.8c-0.4,0-0.5,0-0.7-0.6c-0.1-0.5-0.4-0.8-0.7-0.7c-0.4,0-0.8,0-1.2,0c-0.5,0.1-0.7-0.2-0.9-0.9
			c0-0.1-0.1-0.3-0.2-0.4c0,0.2-0.1,0.3-0.2,0.5c-0.2,0.6-0.4,1.2-0.6,1.8c-0.1,0.2-0.2,0.4-0.4,0.4c-0.1,0-0.3,0-0.4,0
			c-0.1,0-0.2,0-0.3-0.1c0-0.1,0-0.3,0.1-0.4c0.3-0.9,0.6-1.7,1-2.6c0.4-1.3,0.8-2.4,1.2-3.5c0.1-0.2,0.1-0.4,0.2-0.6
			c0.3-0.7,0.9-0.7,1.1,0c0.5,1.5,1.1,3,1.6,4.5c0.3,0.7,0.5,1.4,0.8,2.1c0,0.1,0.1,0.3,0.1,0.4c-0.1,0-0.2,0.1-0.3,0.1
			C20.9,23.8,20.8,23.8,20.7,23.8z M17.1,21.1c0.6,0,1.2,0,1.8,0c0.2,0,0.3-0.2,0.2-0.5c-0.2-0.7-0.5-1.5-0.7-2.2
			c-0.1-0.3-0.2-0.3-0.4,0c0,0,0,0.1-0.1,0.2c-0.2,0.6-0.4,1.2-0.6,1.9C17.2,20.6,17.2,20.9,17.1,21.1z"/>
		<path class="st0" d="M24.2,16.2c0.5,0,0.9,0,1.4,0c0.1,0,0.2,0.1,0.3,0.2c0,0.1,0,0.3-0.1,0.4c0,0.1-0.1,0.3-0.1,0.4
			c-0.1,0.3-0.3,0.5-0.5,0.5c-0.7,0-1.4,0-2.2,0c-0.2,0-0.3,0.1-0.5,0.2c-0.7,0.7-1,1.7-0.7,2.9c0.2,0.9,0.7,1.7,1.4,1.7
			c0.8,0,1.7,0,2.5,0c0.2,0,0.3,0.2,0.2,0.5c-0.1,0.2-0.1,0.4-0.2,0.6c-0.1,0.1-0.2,0.3-0.3,0.3c-0.9,0-1.8,0-2.7,0
			c-0.6,0-1-0.7-1.4-1.4c-0.3-0.9-0.5-1.8-0.5-2.8c0.1-1.2,0.4-2.3,1.1-3c0.3-0.3,0.6-0.4,1-0.5C23.3,16.2,23.8,16.2,24.2,16.2z"/>
		<path class="st0" d="M26.4,19.8c0-1,0-2,0-3c0-0.4,0.1-0.6,0.4-0.6c0.4,0,0.5,0.2,0.5,0.9c0,1.6,0,3.2,0,4.8
			c0,0.5,0.1,0.6,0.4,0.6c1,0,2,0,3,0c0.1,0,0.2,0.1,0.3,0.1c0,0.2-0.1,0.4-0.1,0.5c0,0.1-0.1,0.2-0.1,0.3c-0.1,0.1-0.2,0.3-0.3,0.3
			c-1.2,0-2.4,0-3.5,0c-0.3,0-0.5-0.3-0.5-0.8C26.4,21.9,26.4,20.9,26.4,19.8L26.4,19.8z"/>
		<path class="st0" d="M36.4,17.1c0-0.5,0.2-0.9,0.4-0.9c0.3,0,0.5,0.4,0.5,0.8c0,0.5-0.2,0.8-0.4,0.8
			C36.6,17.8,36.4,17.6,36.4,17.1z"/>
	</g>
</g>
</svg>
