<?xml version="1.0" encoding="utf-8"?>
<!-- Generator: Adobe Illustrator 21.0.0, SVG Export Plug-In . SVG Version: 6.00 Build 0)  -->
<svg version="1.1" id="图层_1" xmlns="http://www.w3.org/2000/svg" xmlns:xlink="http://www.w3.org/1999/xlink" x="0px" y="0px"
	 width="40px" height="40px" viewBox="0 0 40 40" style="enable-background:new 0 0 40 40;" xml:space="preserve">
<style type="text/css">
	.st0{fill:#606060;}
</style>
<g>
	<g>
		<path class="st0" d="M7.2,11.6h0.7H10c0.7,0,1.2,0.2,1.6,0.6c0.4,0.4,0.5,1,0.5,1.9c0,0.8-0.2,1.4-0.6,1.8
			c-0.4,0.5-0.9,0.7-1.5,0.7H8.5v2.8H7.8H7.1L7.2,11.6L7.2,11.6z M8.5,15.3h1.3c0.3,0,0.5-0.1,0.7-0.3c0.1-0.2,0.2-0.5,0.2-0.9
			c0-0.4-0.1-0.7-0.2-0.9c-0.1-0.1-0.4-0.2-0.7-0.2H8.5V15.3z"/>
		<path class="st0" d="M14.3,18.5c-0.6-0.7-0.8-1.7-0.8-3s0.3-2.3,0.8-3c0.6-0.7,1.3-1.1,2.3-1.1s1.7,0.4,2.3,1.1s0.8,1.7,0.8,3
			s-0.3,2.3-0.8,3c-0.7,0.8-1.4,1.2-2.4,1.2C15.6,19.7,14.8,19.3,14.3,18.5z M17.8,17.5c0.3-0.5,0.5-1.2,0.5-2c0-0.8-0.2-1.5-0.5-2
			c-0.3-0.5-0.7-0.7-1.3-0.7c-0.5,0-0.9,0.2-1.3,0.7c-0.3,0.5-0.4,1.2-0.4,2c0,0.8,0.2,1.5,0.5,2s0.7,0.8,1.2,0.8
			C17.1,18.3,17.5,18,17.8,17.5z"/>
		<path class="st0" d="M21.2,11.6h0.7h2.4c0.7,0,1.3,0.2,1.7,0.6c0.4,0.4,0.6,0.9,0.6,1.6S26.4,15,26,15.4c-0.1,0.1-0.2,0.2-0.4,0.3
			c0.1,0,0.1,0.1,0.2,0.1c0.4,0.3,0.6,0.8,0.6,1.6v0.9c0,0.3,0,0.6,0.1,0.7c0,0.1,0.1,0.2,0.2,0.3v0.2h-1.5c0-0.1-0.1-0.4-0.1-0.6
			c0-0.3,0-0.5,0-0.8v-0.4c0-0.4-0.1-0.7-0.2-0.9c-0.1-0.2-0.4-0.3-0.7-0.3h-1.5v3.1h-0.8h-0.7V11.6z M22.6,15.1h1.5
			c0.3,0,0.6-0.1,0.8-0.3c0.2-0.2,0.3-0.4,0.3-0.8s-0.1-0.6-0.2-0.8c-0.2-0.1-0.5-0.2-0.8-0.2h-1.6C22.6,13,22.6,15.1,22.6,15.1z"/>
		<path class="st0" d="M29.6,13h-1.9v-0.7v-0.7h5.2v0.7V13H31v6.5h-0.7h-0.7C29.6,19.5,29.6,13,29.6,13z"/>
	</g>
	<g>
		<path class="st0" d="M4.9,28.5H4.5H4v-5.7h0.7h0.7l0.9,4.5l0,0l0.8-4.5h0.7h0.7v5.7H8H7.5v-4.7l0,0l-0.9,4.7H6.1H5.6l-0.9-4.8l0,0
			v4.8H4.9z"/>
		<path class="st0" d="M10.2,27.8c-0.4-0.5-0.6-1.3-0.6-2.2s0.2-1.6,0.6-2.2c0.4-0.5,0.9-0.8,1.6-0.8s1.2,0.3,1.6,0.8
			c0.4,0.5,0.6,1.3,0.6,2.2s-0.2,1.6-0.6,2.2c-0.4,0.5-0.9,0.8-1.6,0.8S10.6,28.3,10.2,27.8z M12.7,27.1c0.2-0.4,0.3-0.8,0.3-1.4
			c0-0.6-0.1-1.1-0.3-1.4c-0.2-0.4-0.5-0.5-0.9-0.5c-0.4,0-0.7,0.2-0.9,0.5c-0.2,0.4-0.3,0.8-0.3,1.4c0,0.6,0.1,1.1,0.3,1.4
			c0.2,0.4,0.5,0.5,0.9,0.5C12.2,27.6,12.5,27.4,12.7,27.1z"/>
		<path class="st0" d="M16.1,28.5h-0.5h-0.4v-5.7h0.5h0.5l1.8,3.9v-3.9h0.5H19v5.7h-0.5H18l-1.9-4.1V28.5z"/>
		<path class="st0" d="M20.2,22.8h0.5h0.5v5.7h-0.5h-0.5V22.8z"/>
		<path class="st0" d="M23.5,23.8h-1.4v-0.5v-0.5h3.8v0.5v0.5h-1.4v4.7H24h-0.5V23.8z"/>
		<path class="st0" d="M27.2,27.8c-0.4-0.5-0.6-1.3-0.6-2.2s0.2-1.6,0.6-2.2c0.4-0.5,0.9-0.8,1.6-0.8c0.7,0,1.2,0.3,1.6,0.8
			s0.6,1.3,0.6,2.2s-0.2,1.6-0.6,2.2c-0.4,0.5-0.9,0.8-1.6,0.8C28.2,28.6,27.6,28.3,27.2,27.8z M29.8,27.1c0.2-0.4,0.3-0.8,0.3-1.4
			c0-0.6-0.1-1.1-0.3-1.4c-0.2-0.4-0.5-0.5-0.9-0.5S28.2,24,28,24.3c-0.2,0.4-0.3,0.8-0.3,1.4c0,0.6,0.1,1.1,0.3,1.4
			c0.2,0.4,0.5,0.5,0.9,0.5C29.2,27.6,29.5,27.4,29.8,27.1z"/>
		<path class="st0" d="M32.3,22.8h0.5h1.7c0.5,0,0.9,0.1,1.2,0.4s0.4,0.7,0.4,1.2s-0.1,0.9-0.4,1.2c-0.1,0.1-0.2,0.2-0.3,0.2
			c0,0,0.1,0,0.1,0.1c0.3,0.2,0.5,0.6,0.5,1.2v0.6c0,0.2,0,0.4,0,0.5s0.1,0.2,0.2,0.2v0.1h-1.1c0-0.1-0.1-0.3-0.1-0.4
			c0-0.2,0-0.4,0-0.6v-0.3c0-0.3,0-0.5-0.1-0.7c-0.1-0.1-0.3-0.2-0.5-0.2h-1.1v2.2h-0.5h-0.5C32.3,28.5,32.3,22.8,32.3,22.8z
			 M33.2,25.3h1.1c0.3,0,0.4-0.1,0.6-0.2c0.1-0.1,0.2-0.3,0.2-0.6S35,24,34.9,23.9s-0.3-0.2-0.5-0.2h-1.2V25.3z"/>
	</g>
</g>
</svg>
