<?xml version="1.0" encoding="utf-8"?>
<!-- Generator: Adobe Illustrator 21.0.0, SVG Export Plug-In . SVG Version: 6.00 Build 0)  -->
<svg version="1.1" id="图层_1" xmlns="http://www.w3.org/2000/svg" xmlns:xlink="http://www.w3.org/1999/xlink" x="0px" y="0px"
	 width="40px" height="40px" viewBox="0 0 40 40" style="enable-background:new 0 0 40 40;" xml:space="preserve">
<style type="text/css">
	.st0{fill:#606060;}
</style>
<g>
	<g>
		<path class="st0" d="M12.9,24.8h0.5h1.8c0.5,0,1,0.1,1.2,0.4s0.4,0.7,0.4,1.2s-0.1,0.9-0.4,1.2c-0.1,0.1-0.2,0.2-0.3,0.2l0.1,0.1
			c0.3,0.2,0.5,0.6,0.5,1.2v0.7c0,0.2,0,0.4,0,0.5s0.1,0.2,0.2,0.2v0.1h-1.1c0-0.1-0.1-0.3-0.1-0.5s0-0.4,0-0.6v-0.3
			c0-0.3,0-0.6-0.2-0.7s-0.3-0.2-0.5-0.2h-1.1v2.3h-0.5h-0.5C12.9,30.6,12.9,24.8,12.9,24.8z M13.9,27.4H15c0.3,0,0.5-0.1,0.6-0.2
			s0.2-0.3,0.2-0.6c0-0.3-0.1-0.5-0.2-0.6c-0.1-0.1-0.3-0.2-0.5-0.2h-1.2C13.9,25.8,13.9,27.4,13.9,27.4z"/>
		<path class="st0" d="M20.7,26.6c0-0.3-0.1-0.5-0.3-0.7c-0.2-0.2-0.4-0.2-0.7-0.2s-0.5,0.1-0.6,0.2c-0.2,0.1-0.2,0.3-0.2,0.5
			s0.1,0.3,0.2,0.4s0.4,0.2,0.8,0.3c0.7,0.2,1.2,0.4,1.5,0.7c0.3,0.3,0.4,0.6,0.4,1.1c0,0.6-0.2,1-0.5,1.4c-0.3,0.3-0.8,0.5-1.4,0.5
			s-1.1-0.2-1.5-0.5c-0.3-0.3-0.5-0.8-0.5-1.4h1c0,0.3,0.1,0.5,0.3,0.7c0.2,0.2,0.4,0.2,0.8,0.2c0.3,0,0.5-0.1,0.7-0.2
			s0.3-0.3,0.3-0.5s-0.1-0.4-0.3-0.5c-0.2-0.1-0.5-0.2-1-0.4c-0.6-0.2-1.1-0.4-1.3-0.6C18.2,27.4,18,27,18,26.5c0-0.6,0.2-1,0.5-1.3
			s0.8-0.5,1.3-0.5c0.6,0,1,0.2,1.4,0.5s0.5,0.8,0.5,1.4H20.7z"/>
		<path class="st0" d="M22.9,24.8h0.5h1.8c0.5,0,1,0.1,1.2,0.4s0.4,0.7,0.4,1.2s-0.1,0.9-0.4,1.2c-0.1,0.1-0.2,0.2-0.3,0.2l0.1,0.1
			c0.3,0.2,0.5,0.6,0.5,1.2v0.7c0,0.2,0,0.4,0,0.5s0.1,0.2,0.2,0.2v0.1h-1.1c0-0.1-0.1-0.3-0.1-0.5s0-0.4,0-0.6v-0.3
			c0-0.3,0-0.6-0.2-0.7s-0.3-0.2-0.5-0.2h-1.1v2.3h-0.5h-0.5V24.8z M23.9,27.4H25c0.3,0,0.5-0.1,0.6-0.2s0.2-0.3,0.2-0.6
			c0-0.3-0.1-0.5-0.2-0.6s-0.3-0.2-0.5-0.2h-1.2V27.4z"/>
	</g>
	<g>
		<path class="st0" d="M4.9,12.4c1.9,0,3.8,0,5.8,0c0.3,0,0.7,0.1,1,0.2c0.5,0.2,0.7,0.7,0.3,1.2c-0.2,0.2-0.4,0.4-0.6,0.5
			c-0.6,0.3-1.2,0.6-1.9,0.8c-0.4,0.2-0.9,0.3-1.3,0.4c0,0,0,0.1,0.1,0.1c0.8,0.8,1.6,1.6,2.4,2.3c0.1,0.1,0.2,0.1,0.2,0.1
			c0.8,0,1.7,0,2.5,0c0.1,0,0.1,0,0.2,0c-0.8-1-1.8-1.7-2.8-2.5c0.1,0,0.1,0,0.2,0c0.4-0.1,0.8-0.1,1.2-0.2c0.7-0.2,1.4-0.5,1.8-1.1
			c0.6-0.8,0.6-2.2-0.7-2.7c-0.4-0.2-0.9-0.2-1.4-0.2c-1.7,0-3.5,0-5.2,0c-0.5,0-1,0-1.5,0c-0.1,0-0.2,0-0.2,0.1
			c-0.2,0.3-0.3,0.6-0.4,1C4.8,12.4,4.9,12.4,4.9,12.4z"/>
		<path class="st0" d="M19.5,12.9L19.4,13c-0.1,0.5-0.2,1.1-0.3,1.6c-0.1,0.6-0.3,1.1-0.5,1.7c-0.1,0.3-0.3,0.5-0.6,0.6
			c-0.4,0.1-0.8,0.2-1.2,0.1c-0.5-0.1-0.6-0.3-0.5-0.8c0.2-0.8,0.4-1.5,0.6-2.3c0.1-0.4,0.2-0.7,0.3-1.1c-0.1,0-0.1,0-0.2,0
			c-0.5,0-1.1,0-1.6,0c-0.1,0-0.2,0.1-0.2,0.2c-0.3,1.2-0.6,2.5-0.9,3.7c-0.1,0.6,0.1,0.9,0.6,1.1c0.1,0,0.2,0.1,0.4,0.1
			c0.4,0,0.8,0.1,1.2,0c0.8,0,1.5,0,2.3-0.1c0.9-0.1,1.4-0.6,1.6-1.5c0.2-0.8,0.4-1.7,0.6-2.5c0.1-0.4,0.2-0.7,0.2-1.1l0,0
			C20.7,12.9,20.1,12.9,19.5,12.9z"/>
		<path class="st0" d="M35.1,15.8c0.5-0.1,1-0.2,1.4-0.6c0.5-0.5,0.6-1.3,0-1.8c-0.2-0.2-0.4-0.3-0.7-0.4c-0.5-0.2-1.1-0.2-1.6-0.2
			c-1,0.1-1.9,0.4-2.7,1c-0.5,0.4-0.8,0.8-1,1.4c-0.4,1,0,2,1,2.4c0.4,0.2,0.9,0.3,1.3,0.3c0.9,0,1.8-0.2,2.6-0.4
			c0.3-0.1,0.5-0.2,0.5-0.6c0-0.3,0.1-0.5,0.2-0.8c-0.6,0.2-1.1,0.4-1.7,0.6c-0.4,0.1-0.9,0.2-1.3,0.1c-0.4-0.1-0.7-0.4-0.8-0.8
			c0.1,0,0.1,0,0.1,0C33.3,16.1,34.2,15.9,35.1,15.8z M32.3,15.8c0-0.1,0-0.2,0.1-0.2c0.4-0.9,1.1-1.5,2.1-1.7
			c0.2-0.1,0.4,0,0.6,0.2c0.2,0.2,0.1,0.4,0.1,0.6c-0.2,0.4-0.5,0.7-0.9,0.8c-0.5,0.1-0.9,0.2-1.4,0.3
			C32.6,15.8,32.5,15.8,32.3,15.8z"/>
		<path class="st0" d="M25.3,13.9c-0.2,1-0.5,1.9-0.7,2.9c-0.2,0.7-0.4,1.3-0.6,2c-0.1,0.4-0.4,0.7-0.8,0.9
			c-0.2,0.1-0.5,0.2-0.7,0.3c-0.1,0-0.1,0.1-0.1,0.1c-0.1,0.3-0.1,0.6-0.2,0.9c0.3-0.1,0.7-0.1,1-0.2c1.6-0.3,2.6-1.3,3-2.9
			c0.2-0.9,0.4-1.8,0.7-2.7c0.1-0.5,0.3-1.1,0.4-1.7c-0.6,0.1-1.2,0.2-1.7,0.3C25.4,13.7,25.3,13.8,25.3,13.9z"/>
		<path class="st0" d="M6.2,18.1c0.1,0,0.2,0,0.3-0.2c0.5-1.5,1.1-3,1.6-4.5c0-0.1,0-0.1,0.1-0.2c-0.8,0-1.5,0-2.2,0
			c-0.1,0-0.1,0.1-0.2,0.2c-0.5,1.3-0.9,2.5-1.4,3.8c-0.1,0.3-0.2,0.7-0.4,1c0.1,0,0.2,0,0.2,0C4.9,18.1,5.6,18.1,6.2,18.1z"/>
		<path class="st0" d="M33.1,11.1c-2.4-0.1-4.7,0.1-7.1,0.5c-1.1,0.2-2.2,0.4-3.2,0.7c-0.1,0-0.2,0.1-0.2,0.1
			c-0.1,0.4-0.2,0.9-0.3,1.3c4.5-1.4,9.1-2.1,13.7-2.3C35.1,11.2,34.1,11.1,33.1,11.1z"/>
		<path class="st0" d="M30.1,13.1c-0.5,0.1-1,0.1-1.5,0.2c-0.1,0-0.2,0.1-0.2,0.2c-0.3,1.1-0.5,2.3-0.8,3.4
			c-0.1,0.4-0.2,0.8-0.3,1.3c0.6,0,1.1,0,1.6,0c0.1,0,0.2-0.1,0.2-0.2c0.2-1.1,0.5-2.1,0.8-3.2c0.1-0.5,0.3-1.1,0.4-1.6
			C30.2,13.1,30.2,13.1,30.1,13.1z"/>
		<path class="st0" d="M23.1,17.9c0.3-1.3,0.6-2.6,0.9-3.8V14c-0.1,0-0.1,0-0.1,0c-0.5,0.1-1,0.2-1.5,0.3c-0.1,0-0.2,0.1-0.2,0.2
			c-0.2,0.8-0.4,1.5-0.5,2.3c-0.1,0.5-0.2,0.9-0.3,1.4h0.1c0.5,0,1,0,1.5,0C23.1,18.1,23.1,18,23.1,17.9z"/>
		<path class="st0" d="M6.1,19c-0.1,0-0.2,0-0.3,0c-0.1,0-0.2,0-0.2,0.2c-0.1,0.3-0.2,0.6-0.3,0.9c0,0.1-0.1,0.1-0.1,0.2
			C5,20,4.8,19.7,4.7,19.5C4.5,19.1,4.2,19,3.8,19l0,0c-0.2,0.6-0.4,1.1-0.6,1.7c0.1,0,0.2,0,0.2,0c0.2,0,0.3,0,0.3-0.2
			c0.1-0.4,0.3-0.7,0.4-1.1c0.2,0.3,0.4,0.6,0.5,0.9s0.4,0.4,0.7,0.4c0.1,0,0.2-0.1,0.2-0.2C5.7,20,5.9,19.6,6,19.1
			C6.1,19.2,6.1,19.1,6.1,19z"/>
		<path class="st0" d="M12.2,19.8c-0.2,0.2-0.4,0.4-0.6,0.7c0-0.3,0-0.6-0.1-1c-0.1,0-0.2,0-0.2,0c-0.2,0-0.3,0-0.4,0.2
			c-0.2,0.2-0.4,0.5-0.6,0.8c0-0.4-0.1-0.7-0.1-1c-0.2,0-0.3,0-0.5,0c0.1,0.4,0.1,0.8,0.2,1.2c0,0,0,0.1,0.1,0.1
			c0.1,0.1,0.5,0,0.6-0.1c0.2-0.3,0.4-0.5,0.7-0.8c0,0.3,0,0.6,0.1,0.9c0.1,0,0.2,0,0.3,0s0.2,0,0.3-0.1c0.3-0.3,0.7-0.7,1-1.1
			l0.1-0.1C12.6,19.4,12.3,19.5,12.2,19.8z"/>
		<path class="st0" d="M14.5,19.5c-0.3-0.1-0.6-0.1-0.9,0c-0.4,0.1-0.7,0.2-0.8,0.6c-0.1,0.3,0,0.5,0.3,0.7c0.2,0.1,0.3,0.1,0.5,0.1
			l0,0c0.1,0,0.1,0,0.2,0c0.4,0,0.8-0.2,1-0.6C15,19.9,14.9,19.6,14.5,19.5z M14.4,20.1c-0.1,0.3-0.3,0.5-0.7,0.5
			c-0.1-0.1-0.3-0.1-0.3-0.2s0-0.3,0-0.4c0.1-0.3,0.5-0.4,0.8-0.3C14.3,19.8,14.4,19.9,14.4,20.1z"/>
		<path class="st0" d="M7.7,19.5c-0.3-0.1-0.6-0.1-0.9,0.1c-0.3,0.1-0.5,0.3-0.6,0.5c-0.2,0.3,0,0.6,0.3,0.7c0.3,0,0.6,0,0.8,0
			c0.2,0,0.3-0.1,0.3-0.3c-0.2,0-0.4,0.1-0.6,0.1c-0.1,0-0.2,0-0.3-0.1c-0.1,0-0.2-0.2-0.1-0.3c0-0.1,0.1-0.1,0.2-0.1
			c0.3,0,0.6,0,1,0C8,20.1,8.1,20,8,19.8C8,19.6,7.8,19.5,7.7,19.5z M7.4,20c-0.2,0-0.4,0-0.7,0c0.1-0.3,0.5-0.4,0.7-0.3
			C7.5,19.7,7.5,19.8,7.4,20C7.5,19.9,7.4,20,7.4,20z"/>
		<path class="st0" d="M9.1,19.2c-0.2,0.1-0.5,0-0.6,0.3c0,0-0.1,0.1-0.1,0c-0.2,0-0.2,0.1-0.2,0.2c0.1,0,0.1,0,0.2,0
			c-0.1,0.2-0.2,0.5-0.3,0.7c-0.1,0.2,0,0.3,0.2,0.3c0.1,0,0.3,0,0.4,0c0.2,0,0.3-0.1,0.3-0.2c-0.1,0-0.1,0-0.2,0
			c-0.2,0-0.2-0.1-0.2-0.2s0.1-0.2,0.1-0.3c0-0.2,0.2-0.3,0.4-0.2c0.2,0,0.3,0,0.2-0.2c-0.1,0-0.3,0-0.4,0C9,19.4,9.1,19.3,9.1,19.2
			z"/>
		<path class="st0" d="M19.6,19.5c-0.2,0-0.3,0.1-0.5,0.2s-0.2,0.3,0,0.5c0.1,0.1,0.2,0.1,0.3,0.2c0,0,0.1,0.1,0.1,0.2l-0.1,0.1
			c-0.1,0-0.2,0-0.3,0c-0.1,0-0.2,0-0.4-0.1c0,0.1,0,0.2,0,0.2c0.3,0.1,0.7,0.1,1,0c0.1,0,0.2-0.1,0.3-0.1c0.2-0.1,0.2-0.3,0-0.5
			c-0.1-0.1-0.2-0.1-0.3-0.2l-0.1-0.1l0.1-0.1c0.1,0,0.3,0,0.4,0s0.1,0,0.2,0c0-0.1,0-0.2,0.1-0.3C20,19.5,19.8,19.4,19.6,19.5z"/>
		<path class="st0" d="M17.3,19c-0.1,0-0.2,0-0.2,0.2c-0.1,0.4-0.2,0.7-0.4,1.1c-0.1,0.2-0.1,0.3-0.2,0.5c0.5,0.1,0.5,0.1,0.6-0.3
			c0.2-0.5,0.3-0.9,0.5-1.4C17.4,19,17.3,19.1,17.3,19z"/>
		<path class="st0" d="M16.5,19.4c-0.3,0.1-0.5,0.1-0.7,0.2v-0.1c-0.4,0-0.4,0-0.6,0.4c-0.1,0.3-0.2,0.6-0.3,0.9c0.1,0,0.2,0,0.3,0
			s0.2,0,0.2-0.2s0.1-0.3,0.2-0.5c0.1-0.3,0.3-0.4,0.6-0.4c0.1,0,0.1,0,0.2,0C16.5,19.6,16.5,19.6,16.5,19.4z"/>
		<path class="st0" d="M18.6,19.5c-0.2,0-0.4-0.1-0.5,0c-0.3,0.2-0.5,0.4-0.8,0.5c0.1,0.2,0.3,0.4,0.4,0.6l0.1,0.1
			c0.1,0,0.3,0,0.5,0c-0.2-0.3-0.3-0.5-0.5-0.7C18,19.9,18.3,19.7,18.6,19.5z"/>
	</g>
</g>
</svg>
