<?xml version="1.0" encoding="utf-8"?>
<!-- Generator: Adobe Illustrator 21.0.0, SVG Export Plug-In . SVG Version: 6.00 Build 0)  -->
<svg version="1.1" id="图层_1" xmlns="http://www.w3.org/2000/svg" xmlns:xlink="http://www.w3.org/1999/xlink" x="0px" y="0px"
	 width="40px" height="40px" viewBox="0 0 40 40" style="enable-background:new 0 0 40 40;" xml:space="preserve">
<style type="text/css">
	.st0{fill:#606060;}
</style>
<g>
	<path class="st0" d="M7,16.9c0,0.2,0,0.3-0.1,0.5c0,0.1-0.1,0.3-0.2,0.4s-0.2,0.3-0.3,0.4S6.1,18.4,6,18.5
		c-0.2,0.1-0.3,0.1-0.5,0.2s-0.4,0.1-0.6,0.1s-0.3,0-0.5,0s-0.3,0-0.4-0.1s-0.3-0.1-0.4-0.1s-0.3-0.1-0.5-0.2l0.3-1.1
		c0.1,0.1,0.2,0.1,0.4,0.1c0.1,0,0.3,0.1,0.4,0.1s0.3,0.1,0.4,0.1s0.3,0,0.4,0s0.2,0,0.3,0c0.1,0,0.2-0.1,0.2-0.1
		c0.1,0,0.1-0.1,0.1-0.1s0-0.1,0-0.2s0-0.1,0-0.2s-0.1-0.1-0.1-0.1c-0.1,0-0.1-0.1-0.2-0.1s-0.2-0.1-0.4-0.1c-0.2,0-0.4-0.1-0.5-0.1
		S4.1,16.4,4,16.3s-0.2-0.1-0.3-0.2s-0.2-0.2-0.2-0.3c-0.1-0.1-0.1-0.2-0.1-0.4c0-0.1,0-0.3,0-0.5c0-0.3,0-0.5,0.1-0.7
		s0.2-0.4,0.4-0.6c0.2-0.2,0.4-0.3,0.6-0.4c0.2-0.1,0.5-0.1,0.8-0.1c0.4,0,0.7,0,1,0.1s0.6,0.1,0.8,0.2l-0.3,1
		c-0.1,0-0.2-0.1-0.3-0.1c-0.1,0-0.2-0.1-0.4-0.1c-0.1,0-0.2,0-0.4-0.1c-0.1,0-0.2,0-0.3,0c-0.1,0-0.2,0-0.3,0c-0.1,0-0.1,0-0.2,0.1
		c-0.1,0-0.1,0.1-0.1,0.1c0,0.1,0,0.1,0,0.2c0,0.1,0,0.1,0,0.2c0,0.1,0,0.1,0.1,0.1c0,0,0.1,0.1,0.2,0.1S5.3,15,5.5,15
		c0.2,0.1,0.4,0.1,0.6,0.2c0.2,0.1,0.3,0.1,0.5,0.2c0.1,0.1,0.2,0.1,0.3,0.2C7,15.7,7,15.8,7.1,15.9C7,16.3,7,16.4,7,16.5
		C7,16.7,7,16.8,7,16.9z"/>
	<path class="st0" d="M10.8,18.7l-0.4-1.2H8.9l-0.4,1.2H7.2l1.9-5.3H10c0.2,0,0.4,0.1,0.5,0.4l1.8,5L10.8,18.7L10.8,18.7z M9.2,16.6
		h1l-0.4-1.4c0-0.1,0-0.1,0-0.2c0-0.1,0-0.1,0-0.2c0,0.1,0,0.1,0,0.2c0,0.1,0,0.1-0.1,0.2L9.2,16.6z"/>
	<path class="st0" d="M16.2,18.7l-2.1-2.8C14,15.8,14,15.7,14,15.7l-0.1-0.1v3.1h-1.2v-5.3h1.1l2.1,3l0.1,0.1c0,0,0,0.1,0.1,0.1
		s0,0,0,0.1l0,0v-3.3h1.2v5.3C17.3,18.7,16.2,18.7,16.2,18.7z"/>
	<path class="st0" d="M22.1,18.4c-0.2,0.1-0.3,0.1-0.5,0.2c-0.2,0-0.4,0.1-0.6,0.1s-0.4,0-0.6,0c-0.4,0-0.7,0-1-0.1
		s-0.5-0.3-0.7-0.5s-0.4-0.5-0.5-0.8S18,16.6,18,16.1s0.1-0.9,0.2-1.2c0.1-0.4,0.3-0.6,0.5-0.9c0.2-0.2,0.5-0.4,0.8-0.5
		s0.7-0.2,1.1-0.2c0.1,0,0.2,0,0.4,0s0.2,0,0.3,0c0.1,0,0.2,0,0.3,0s0.2,0,0.3,0.1s0.2,0,0.3,0.1c0.1,0,0.2,0.1,0.3,0.1l-0.3,1
		c-0.1,0-0.2-0.1-0.3-0.1c-0.1,0-0.2-0.1-0.3-0.1s-0.2,0-0.3,0c-0.1,0-0.2,0-0.3,0c-0.2,0-0.4,0-0.5,0.1c-0.2,0.1-0.3,0.2-0.4,0.3
		s-0.2,0.3-0.3,0.5s-0.1,0.5-0.1,0.7c0,0.3,0,0.6,0.1,0.8c0.1,0.2,0.1,0.4,0.3,0.5c0.1,0.1,0.2,0.2,0.4,0.3c0.2,0.1,0.3,0.1,0.5,0.1
		c0.1,0,0.1,0,0.2,0s0.1,0,0.1,0h0.1h0.1v-0.9h-0.8l0.1-0.9h2v2.4C22.4,18.3,22.2,18.3,22.1,18.4z"/>
	<path class="st0" d="M26.6,14.3h-2v1.2h1.8l-0.1,1h-1.8v2.1h-1.3v-5.3h3.4V14.3z"/>
	<path class="st0" d="M32,15.9c0,0.3,0,0.5-0.1,0.8c0,0.2-0.1,0.5-0.2,0.7s-0.2,0.4-0.4,0.6c-0.1,0.2-0.3,0.3-0.5,0.4
		s-0.4,0.2-0.6,0.3c-0.2,0.1-0.5,0.1-0.8,0.1s-0.5,0-0.7-0.1s-0.4-0.1-0.6-0.2s-0.3-0.2-0.5-0.3c-0.1-0.1-0.2-0.3-0.3-0.5
		c-0.1-0.2-0.2-0.4-0.2-0.7c0-0.3-0.1-0.5-0.1-0.9s0.1-0.8,0.2-1.2s0.3-0.6,0.5-0.9c0.2-0.2,0.5-0.4,0.8-0.5s0.7-0.2,1.1-0.2
		c0.3,0,0.5,0,0.7,0.1c0.2,0,0.4,0.1,0.6,0.2s0.3,0.2,0.5,0.3c0.1,0.1,0.2,0.3,0.3,0.5s0.2,0.4,0.2,0.7C32,15.3,32,15.6,32,15.9z
		 M30.6,15.9c0-0.3,0-0.5-0.1-0.7c0-0.2-0.1-0.4-0.2-0.5s-0.2-0.2-0.3-0.3c-0.1-0.1-0.3-0.1-0.4-0.1c-0.2,0-0.3,0-0.4,0.1
		s-0.2,0.2-0.3,0.3s-0.2,0.3-0.2,0.5s-0.1,0.5-0.1,0.7c0,0.3,0,0.6,0.1,0.8s0.1,0.4,0.2,0.5s0.2,0.2,0.3,0.3s0.3,0.1,0.4,0.1
		c0.2,0,0.4,0,0.5-0.1s0.2-0.2,0.3-0.3c0.1-0.1,0.1-0.3,0.2-0.5S30.6,16.2,30.6,15.9z"/>
	<path class="st0" d="M35.4,18.7l-0.9-1.9H34v1.9h-1.3v-5.3h1.9c0.3,0,0.6,0,0.9,0.1s0.4,0.2,0.6,0.3c0.2,0.1,0.3,0.3,0.4,0.5
		c0.1,0.2,0.1,0.4,0.1,0.7s-0.1,0.5-0.2,0.8c-0.1,0.2-0.3,0.5-0.6,0.8l1.2,2.3h-1.6V18.7z M35.2,14.9c0-0.1,0-0.2,0-0.3
		s-0.1-0.1-0.1-0.2c-0.1-0.1-0.1-0.1-0.2-0.1c-0.1,0-0.2,0-0.4,0H34v1.5h0.9c0.1-0.1,0.1-0.2,0.1-0.2c0-0.1,0.1-0.1,0.1-0.2
		c0-0.1,0-0.1,0.1-0.2C35.2,15.1,35.2,15,35.2,14.9z"/>
</g>
<g>
	<path class="st0" d="M16.3,24.9H17h0.7l2.1,6.1h-0.7h-0.7L18,29.8h-2.3L15.3,31h-0.7h-0.7L16.3,24.9z M16.2,28.7h1.6L17,26.2l0,0
		L16.2,28.7z"/>
	<path class="st0" d="M25.8,28.8c-0.1,0.7-0.4,1.3-0.8,1.7s-1.1,0.6-1.8,0.6c-0.9,0-1.5-0.3-2-0.9s-0.8-1.3-0.8-2.3s0.3-1.8,0.8-2.4
		s1.2-0.9,2-0.9c0.7,0,1.3,0.2,1.8,0.6s0.8,0.9,0.8,1.6h-1.3c0-0.3-0.2-0.6-0.4-0.8c-0.2-0.2-0.5-0.3-0.9-0.3
		c-0.5,0-0.8,0.2-1.1,0.6c-0.3,0.4-0.4,0.9-0.4,1.6c0,0.6,0.1,1.2,0.4,1.5c0.3,0.4,0.6,0.5,1.1,0.5c0.4,0,0.7-0.1,0.9-0.3
		c0.2-0.2,0.4-0.5,0.4-0.9L25.8,28.8L25.8,28.8z"/>
</g>
</svg>
