<?xml version="1.0" encoding="utf-8"?>
<!-- Generator: Adobe Illustrator 21.0.0, SVG Export Plug-In . SVG Version: 6.00 Build 0)  -->
<svg version="1.1" id="图层_1" xmlns="http://www.w3.org/2000/svg" xmlns:xlink="http://www.w3.org/1999/xlink" x="0px" y="0px"
	 width="40px" height="40px" viewBox="0 0 40 40" style="enable-background:new 0 0 40 40;" xml:space="preserve">
<style type="text/css">
	.st0{fill:#606060;}
</style>
<g>
	<g>
		<path class="st0" d="M17.5,13.4c-0.4,0-0.9,0-1.2,0c0,1.3,0,2.2,0,3.2c-0.3-0.3-0.4-0.5-0.6-0.8c-0.4-0.6-0.8-1.2-1.2-1.8
			c-0.1-0.1-0.2-0.3-0.3-0.3c-0.3-0.1-1,0-1-0.1c0,1.8,0,3.5,0,5.3c0.3,0,0.7,0,1,0c0.1,0,0.2,0,0.2-0.2c0-0.9,0-1.7,0-2.6V16l0,0
			c0,0.1,0.1,0.1,0.1,0.2c0.6,0.9,1.1,1.7,1.7,2.6c0.1,0.1,0.1,0.1,0.2,0.1c0.3,0,0.6,0,0.9,0c0.1,0,0.2,0,0.2-0.2c0-1.6,0-3.4,0-5
			C17.5,13.6,17.5,13.4,17.5,13.4z"/>
		<path class="st0" d="M35.6,16.6c0.4-0.2,0.7-0.4,0.9-0.8c0.3-0.6,0.3-1.3-0.1-1.7c-0.3-0.3-0.7-0.5-1.1-0.5
			c-0.8-0.1-1.6-0.1-2.3,0c-0.2,0-0.2,0.1-0.2,0.2c0,1.6,0,3.2,0,4.8v0.1v0.1c0.4,0,0.7,0,1.1,0c0-1.4,0-2.8,0-4.3
			c0.3,0,0.8-0.1,1.2,0.1c0.3,0.1,0.5,0.5,0.3,0.8c-0.2,0.4-0.6,0.6-1.1,0.6c-0.2,0-0.2,0-0.1,0.2v0.1c0.4,0.8,0.9,1.6,1.4,2.4
			c0,0,0.1,0.1,0.2,0.1c0.4,0,0.8,0,1.2,0h0.1C36.4,18.1,36,17.4,35.6,16.6z"/>
		<path class="st0" d="M29.7,13.6c-1.1-0.1-2,0.5-2.4,1.5c-0.3,0.8-0.3,1.6,0,2.4c0.7,1.6,2.8,1.9,4,0.7c0.5-0.5,0.7-1.2,0.7-1.9
			c0-0.2,0-0.4-0.1-0.6C31.8,14.5,30.9,13.6,29.7,13.6z M30.3,17.5c-0.3,0.4-0.7,0.6-1.2,0.4c-0.2-0.1-0.4-0.3-0.5-0.6
			c-0.3-0.7-0.3-1.3,0-2c0-0.1,0.1-0.2,0.2-0.3c0.4-0.5,1.1-0.5,1.5,0c0.2,0.3,0.4,0.8,0.4,1.3C30.6,16.7,30.6,17.1,30.3,17.5z"/>
		<path class="st0" d="M10.9,14.8c-0.1-0.2-0.2-0.5-0.3-0.7c-0.1-0.3-0.3-0.4-0.6-0.4s-0.7,0-1,0c-0.6,1.7-1.3,3.5-1.9,5.2
			c0.4,0,0.8,0,1.2,0l0.1-0.1c0.1-0.4,0.3-0.8,0.4-1.3c0-0.1,0.1-0.1,0.2-0.1c0.5,0,1,0,1.5,0c0.1,0,0.1,0,0.2,0.1
			c0.1,0.4,0.3,0.8,0.4,1.3c0,0.1,0.1,0.1,0.2,0.1c0.4,0,0.7,0,1.1,0h0.1v-0.1C11.9,17.4,11.4,16.1,10.9,14.8z M9.2,16.3
			c0.2-0.3,0.3-0.9,0.5-1.4l0,0c0.2,0.5,0.3,1.1,0.5,1.4C9.9,16.3,9.6,16.3,9.2,16.3z"/>
		<path class="st0" d="M22.5,16.2v-0.1c-0.6,0-1.2,0-1.8,0c-0.2,0-0.3,0.1-0.3,0.3c0,0.2,0,0.4,0,0.6c0,0.1,0,0,0.1,0
			c0.2,0,0.3-0.1,0.5-0.1c0.1,0,0.2,0,0.2,0c0,0.3,0,0.7,0,1c-0.3,0-0.6,0-1-0.1c-0.3-0.1-0.5-0.3-0.7-0.6c-0.3-0.6-0.2-1.3,0-1.9
			c0.2-0.3,0.4-0.6,0.8-0.7c0.4-0.1,0.8-0.1,1.2-0.1c0.2,0,0.4,0,0.6,0c0-0.3,0.1-0.5,0.1-0.8c0,0,0,0-0.1,0
			c-0.6-0.2-1.3-0.2-1.9-0.1c-0.8,0.1-1.4,0.5-1.8,1.2c-0.4,0.6-0.4,1.3-0.3,2c0.1,1.1,0.8,1.8,2,2c0.7,0.1,1.5,0.1,2.2-0.1
			c0.1,0,0.2-0.1,0.2-0.2C22.5,17.8,22.5,17,22.5,16.2z"/>
		<path class="st0" d="M6.1,16c-0.4-0.2-0.8-0.4-1.2-0.6c-0.1-0.1-0.3-0.2-0.4-0.3c-0.1-0.2-0.1-0.4,0.1-0.5c0.1,0,0.2-0.1,0.2-0.1
			c0.3,0,0.6,0,0.9,0c0.2,0,0.4,0,0.6,0.1c0-0.3,0.1-0.6,0.1-0.9c-0.6-0.2-1.7-0.3-2.3-0.1s-0.9,0.6-1,1.2c-0.1,0.6,0.1,1.1,0.6,1.4
			c0.3,0.2,0.6,0.3,0.9,0.5c0.2,0.1,0.4,0.2,0.6,0.4c0.2,0.1,0.2,0.4,0,0.5c-0.1,0-0.1,0.1-0.2,0.1c-0.4,0.1-0.7,0.1-1.1,0
			c-0.2,0-0.5-0.1-0.7-0.2c0,0.3,0,0.6-0.1,0.9c0,0.1,0,0.1,0.1,0.2c0.3,0.1,0.6,0.2,0.9,0.2c0.6,0.1,1.2,0,1.7-0.2
			c0.6-0.3,0.8-0.8,0.9-1.4C6.8,16.7,6.6,16.3,6.1,16z"/>
		<path class="st0" d="M26.3,13.6c-1,0-1.9,0-2.8,0h-0.1c0,1.7,0,3.5,0,5.2c0.3,0,0.6,0,1,0c0.1,0,0,0,0-0.1c0-0.6-0.1-1.2-0.1-1.8
			c0-0.1,0-0.1,0-0.1c0.6,0,1.3,0,2.2,0c0-0.3,0-0.6,0-0.9c-0.9,0-1.6,0-2.2,0c0-0.6,0-0.9,0-1.3c0,0,0.2,0,0.3,0
			c0.6,0,1.2-0.1,1.7,0c0.1,0,0.1-0.1,0.1-0.2c0-0.2,0-0.5,0-0.7C26.5,13.7,26.5,13.6,26.3,13.6z"/>
	</g>
</g>
<g>
	<path class="st0" d="M16.3,24.9H17h0.7l2.1,6.1h-0.7h-0.7L18,29.8h-2.3L15.3,31h-0.7h-0.7L16.3,24.9z M16.2,28.7h1.6L17,26.2l0,0
		L16.2,28.7z"/>
	<path class="st0" d="M20.7,24.9h0.6h2c0.8,0,1.5,0.2,1.9,0.7s0.6,1.2,0.6,2.1c0,1-0.2,1.8-0.7,2.4c-0.4,0.5-1.1,0.8-2,0.8h-1.9
		h-0.6v-6H20.7z M22,29.9h1c0.5,0,0.9-0.2,1.2-0.5c0.3-0.3,0.4-0.9,0.4-1.6c0-0.6-0.1-1.1-0.4-1.4c-0.2-0.3-0.6-0.5-1.1-0.5H22V29.9
		z"/>
</g>
</svg>
