<?xml version="1.0" encoding="utf-8"?>
<!-- Generator: Adobe Illustrator 21.0.0, SVG Export Plug-In . SVG Version: 6.00 Build 0)  -->
<svg version="1.1" id="图层_1" xmlns="http://www.w3.org/2000/svg" xmlns:xlink="http://www.w3.org/1999/xlink" x="0px" y="0px"
	 width="40px" height="40px" viewBox="0 0 40 40" style="enable-background:new 0 0 40 40;" xml:space="preserve">
<style type="text/css">
	.st0{fill:#606060;}
</style>
<g>
	<g>
		<path class="st0" d="M24.3,10.2c-0.8-0.1-1.6-3-1.6-3c-0.6,0.2-5.1,1.5-3.3,2.7c2.9,2,2.8,5.9-1.5,9.2c-6.1,4.7,6,6,6.2,5.7
			c3-5.1,1.6-8.8,1.6-8.8s3.5-1.2,6.6-1.6C32.7,14.3,30.5,11.1,24.3,10.2L24.3,10.2L24.3,10.2z M29.1,12c0,0-2.2,0.6-3.2,1.1
			c0,0,0.6-1.7,0.5-2.1C26.5,11.1,28.6,11.7,29.1,12L29.1,12L29.1,12z M25.5,13.2c0,0-1-0.6-1.3-0.7l2.1-1.4
			C26.2,11.1,26.2,11.9,25.5,13.2L25.5,13.2L25.5,13.2z M23.7,16.6l1.8,1.1c-0.3,0.3-2,1.1-2,1.1C23.7,18.1,23.7,16.6,23.7,16.6
			L23.7,16.6L23.7,16.6z M24,16.5l1.6-0.5c0.2,0.5,0.1,1.4,0.1,1.4C25.1,17.2,24,16.5,24,16.5L24,16.5L24,16.5z M20.2,20
			c0,0,1.4-2.3,1.3-2.6c0,0,0.2,0.7,1.2,1.6C22.8,19,22,19.5,20.2,20L20.2,20L20.2,20z M22.7,19.4c0,0-0.3,1.3-0.9,2.3
			c0,0-1-0.4-1.7-1.3C20,20.4,22.4,19.6,22.7,19.4L22.7,19.4L22.7,19.4z M23.1,12.7c0,0-0.8,0.8-1.3,1.2c0,0,0-1.7-0.1-1.7
			C21.7,12.2,22.7,12.5,23.1,12.7L23.1,12.7z M21.9,11.7l1.3-1.2c0,0,0.3,0.4,0.3,1.7C23.5,12.3,22.2,11.8,21.9,11.7L21.9,11.7
			L21.9,11.7z M23.3,13.1c0,0-0.2,1.1-0.8,1.8c0,0-0.5-0.4-0.7-0.6C21.9,14.3,23.2,13.2,23.3,13.1L23.3,13.1L23.3,13.1z M22.4,15.6
			c0,0,0.4,0.2,0.3,0.8c0,0-2.5,1.2-2.9,1.4C19.8,17.9,22.3,15.8,22.4,15.6L22.4,15.6z M21.9,17.3l1.4-0.6c0,0,0.2,0.9-0.3,2
			C23,18.7,22.3,18.3,21.9,17.3L21.9,17.3L21.9,17.3z M23.1,16.3c0,0-0.2-1-0.3-1.2c0,0,0.9-0.4,2.2-1.2C25,14,23.3,16.1,23.1,16.3
			L23.1,16.3z M23.2,14.5c0,0,0.5-1.3,0.5-1.6l1.3,0.7L23.2,14.5z M25.8,11c-0.2,0.1-2.1,1.2-2.1,1.2c0.3-0.9-0.2-1.7-0.2-1.7
			L25.8,11L25.8,11z M23.7,10.2L22.3,10l1-0.7L23.7,10.2z M20.6,8.4c0.1-0.1,2.1-1,2.1-1s0.6,1.4,0.4,1.4
			C22.9,8.8,20.5,8.5,20.6,8.4L20.6,8.4L20.6,8.4z M23.1,9.1l-1.3,0.8h-0.3c0,0-1.2-1.2-1.2-1.3C20.3,8.6,22.8,9.1,23.1,9.1
			L23.1,9.1L23.1,9.1z M20.1,8.7l0.9,1c0,0-1.4-0.3-1.5-0.4C19.4,9.2,20.1,8.7,20.1,8.7L20.1,8.7z M19.9,9.9l0.9,0.3l0.3,1.1
			C21.1,11.2,20.3,10.1,19.9,9.9L19.9,9.9L19.9,9.9z M21,10.2l1.9,0.3l-1.5,1.1C21.5,11.3,21,10.2,21,10.2L21,10.2L21,10.2z
			 M21.6,14.9c0,0,0.3,0.1,0.5,0.3c0,0-0.6,0.5-1.1,0.8C21,16,21.6,15,21.6,14.9L21.6,14.9z M20.4,16.8c0,0,0.8-0.7,1.6-1.1
			l-2.4,2.1L20.4,16.8L20.4,16.8z M20.9,17.6c0,0-0.6,1.7-1.2,2.3c0,0-0.3-0.3-0.3-1.5C19.5,18.4,20.7,17.7,20.9,17.6L20.9,17.6
			L20.9,17.6z M19,18.6c0,0,0,0.7,0.4,1.7c0,0-2.3,0.7-2.6,0.7C16.7,21,17,19.5,19,18.6L19,18.6z M16.7,21.1c0.7,0,2.5-0.5,2.5-0.5
			c-0.1,0.4-1.5,2.2-1.5,2.2C16.6,22,16.7,21.1,16.7,21.1L16.7,21.1L16.7,21.1z M17.9,22.9l1.7-2.2c0,0,0.8,0.7,1.6,1.2L18,23
			L17.9,22.9L17.9,22.9z M18.2,23.1l3.2-0.9L20.2,24C20.2,24,18.9,23.8,18.2,23.1L18.2,23.1L18.2,23.1z M21.9,22.2
			c0,0,1.3,0.6,2.7,0.6c0,0-3.2,1.3-4.2,1.3C20.4,24.1,21.9,22.3,21.9,22.2L21.9,22.2L21.9,22.2z M24,24.7c0,0-2.3-0.2-2.9-0.6
			c0,0,2-0.4,3.6-1.1C24.6,23,24.1,24.4,24,24.7L24,24.7L24,24.7z M24.6,22.7c0,0-2.2-0.4-2.6-0.8c0,0,3.1-1.3,3.3-1.5
			C25.3,20.4,25,22.2,24.6,22.7L24.6,22.7L24.6,22.7z M22.2,21.5l1-2.1c0,0,1.5,0.8,2,0.9C25.3,20.2,22.7,21.5,22.2,21.5L22.2,21.5
			L22.2,21.5z M25.4,20c-0.9-0.2-1.9-1-1.9-1c0.4-0.1,2.1-1.1,2.1-1.1C25.7,19,25.4,20,25.4,20L25.4,20z M23.6,16.1
			c0,0,1.8-2,1.9-2.2c0,0,1.1,0.5,1.5,1.1C27,15.1,24,16,23.6,16.1L23.6,16.1z M25.9,13.5c0,0,3.1-1.2,3.4-1.2c0,0-0.8,1.4-2,2.7
			C27.3,15,26.6,13.8,25.9,13.5L25.9,13.5L25.9,13.5z M27.8,14.9c0,0,1.5-1.8,1.8-2.6c0,0,2,1.3,2.3,2C32,14.2,28.6,14.5,27.8,14.9
			L27.8,14.9L27.8,14.9z"/>
	</g>
	<g>
		<path class="st0" d="M5.6,26L5.6,26H5.4v-1.8h0.2h0.2l0.5,1.5l0.5-1.5H7h0.2V26H7H6.9v-1.5l0,0L6.4,26H6.3H6.2l-0.5-1.5l0,0
			L5.6,26L5.6,26z"/>
		<path class="st0" d="M7.5,24.2h0.2v0.3H7.5V24.2z M7.5,24.7h0.1h0.1V26H7.6H7.5V24.7z"/>
		<path class="st0" d="M9,25.5c0,0.2-0.1,0.3-0.2,0.4C8.8,26,8.6,26,8.5,26c-0.2,0-0.3-0.1-0.4-0.2c-0.1-0.1-0.2-0.3-0.2-0.5
			c0-0.2,0.1-0.4,0.2-0.5c0.1-0.1,0.3-0.2,0.4-0.2c0.2,0,0.3,0,0.4,0.1C9,24.9,9,25,9,25.1H8.8c0-0.1,0-0.2-0.1-0.2
			c-0.1-0.1-0.1-0.1-0.2-0.1c-0.1,0-0.2,0-0.3,0.1c-0.1,0.1-0.1,0.2-0.1,0.4s0,0.3,0.1,0.4c0.1,0.1,0.2,0.1,0.3,0.1s0.2,0,0.2-0.1
			c0.1-0.1,0.1-0.1,0.1-0.2C8.9,25.5,9,25.5,9,25.5z"/>
		<path class="st0" d="M9.3,24.7L9.3,24.7h0.2v0.2c0,0,0-0.1,0.1-0.1c0.1-0.1,0.2-0.2,0.3-0.2c0,0,0,0,0.1,0v0.2h0
			c-0.1,0-0.2,0-0.3,0.1c-0.1,0.1-0.1,0.2-0.1,0.3V26H9.4H9.3V24.7z"/>
		<path class="st0" d="M10.2,25.9c-0.1-0.1-0.2-0.3-0.2-0.5c0-0.2,0.1-0.4,0.2-0.5c0.1-0.1,0.2-0.2,0.4-0.2s0.3,0.1,0.4,0.2
			c0.1,0.1,0.2,0.3,0.2,0.5c0,0.2-0.1,0.4-0.2,0.5C11,26,10.8,26,10.6,26S10.3,26,10.2,25.9z M10.9,25.7c0.1-0.1,0.1-0.2,0.1-0.4
			s0-0.3-0.1-0.4c-0.1-0.1-0.2-0.1-0.3-0.1c-0.1,0-0.2,0-0.3,0.1c-0.1,0.1-0.1,0.2-0.1,0.4s0,0.3,0.1,0.4c0.1,0.1,0.2,0.1,0.3,0.1
			C10.8,25.9,10.9,25.8,10.9,25.7z"/>
		<path class="st0" d="M12.2,25.1c0-0.1,0-0.1-0.1-0.2c-0.1,0-0.1-0.1-0.2-0.1c-0.1,0-0.2,0-0.2,0.1c-0.1,0-0.1,0.1-0.1,0.1
			s0,0.1,0.1,0.1c0,0,0.1,0.1,0.2,0.1l0.2,0.1c0.1,0,0.2,0.1,0.3,0.1c0.1,0.1,0.1,0.1,0.1,0.2c0,0.1,0,0.2-0.1,0.3
			C12.3,26,12.1,26,12,26c-0.2,0-0.3,0-0.4-0.1c-0.1-0.1-0.1-0.2-0.2-0.3h0.2c0,0.1,0,0.2,0.1,0.2s0.1,0.1,0.3,0.1
			c0.1,0,0.2,0,0.2-0.1c0.1,0,0.1-0.1,0.1-0.2c0,0,0-0.1-0.1-0.1c0,0-0.1-0.1-0.2-0.1l-0.2-0.1c-0.1,0-0.2-0.1-0.3-0.1
			c-0.1-0.1-0.1-0.1-0.1-0.2c0-0.1,0-0.2,0.1-0.3c0.1-0.1,0.2-0.1,0.3-0.1c0.2,0,0.3,0,0.4,0.1c0.1,0.1,0.1,0.2,0.2,0.3L12.2,25.1
			L12.2,25.1z"/>
		<path class="st0" d="M12.8,25.9c-0.1-0.1-0.2-0.3-0.2-0.5c0-0.2,0.1-0.4,0.2-0.5c0.1-0.1,0.3-0.2,0.4-0.2s0.3,0.1,0.4,0.2
			c0.1,0.1,0.2,0.3,0.2,0.5c0,0.2-0.1,0.4-0.2,0.5C13.6,26,13.5,26,13.3,26C13.1,26,13,26,12.8,25.9z M13.5,25.7
			c0.1-0.1,0.1-0.2,0.1-0.4s0-0.3-0.1-0.4c-0.1-0.1-0.2-0.1-0.3-0.1c-0.1,0-0.2,0-0.3,0.1c-0.1,0.1-0.1,0.2-0.1,0.4s0,0.3,0.1,0.4
			c0.1,0.1,0.2,0.1,0.3,0.1C13.4,25.9,13.5,25.8,13.5,25.7z"/>
		<path class="st0" d="M14.4,24.9V26h-0.1h-0.1v-1.1H14v-0.2h0.2v-0.2c0-0.1,0-0.2,0.1-0.2c0.1-0.1,0.2-0.1,0.3-0.1h0.1v0.2h-0.1
			c0,0-0.1,0-0.1,0c0,0,0,0.1,0,0.1v0.2h0.2v0.2C14.6,24.9,14.4,24.9,14.4,24.9z"/>
		<path class="st0" d="M15.3,26c-0.1,0-0.1,0-0.2,0C15.1,26,15,26,15,26c0-0.1-0.1-0.1-0.1-0.3v-0.9h-0.2v-0.2h0.2v-0.4h0.2v0.4h0.2
			v0.2h-0.2v0.9c0,0,0,0.1,0,0.1c0,0,0.1,0,0.1,0h0.1L15.3,26L15.3,26z"/>
	</g>
	<g>
		<g>
			<path class="st0" d="M16.2,24.6c0.1,0.1,0.1,0.2,0.1,0.3c0,0.1,0,0.2-0.1,0.3c-0.1,0.1-0.2,0.1-0.3,0.1c-0.1,0-0.2,0-0.3-0.1
				c-0.1-0.1-0.1-0.2-0.1-0.3c0-0.1,0-0.2,0.1-0.3c0.1-0.1,0.2-0.1,0.3-0.1C16,24.5,16.1,24.5,16.2,24.6z M16.2,24.6
				c-0.1-0.1-0.1-0.1-0.2-0.1c-0.1,0-0.2,0-0.2,0.1c-0.1,0.1-0.1,0.1-0.1,0.2s0,0.2,0.1,0.2c0.1,0.1,0.1,0.1,0.2,0.1
				c0.1,0,0.2,0,0.2-0.1c0.1-0.1,0.1-0.1,0.1-0.2S16.2,24.7,16.2,24.6z M15.8,24.6L15.8,24.6H16c0.1,0,0.1,0,0.1,0c0,0,0,0.1,0,0.1
				c0,0,0,0.1,0,0.1c0,0,0,0-0.1,0l0.1,0.2h0h0L16,24.9h-0.1V25h0h0L15.8,24.6L15.8,24.6z M15.9,24.8L15.9,24.8c0.1,0,0.2,0,0.2,0
				c0,0,0,0,0-0.1s0,0,0-0.1c0,0,0,0-0.1,0h-0.1V24.8z"/>
		</g>
	</g>
	<g>
		<path class="st0" d="M22,31.5c-0.5,0-0.8-0.2-1.1-0.4c-0.3-0.3-0.4-0.7-0.4-1.3c0-0.6,0.2-1,0.4-1.3c0.3-0.3,0.7-0.5,1.2-0.5
			c0.4,0,0.8,0.2,1.1,0.5c0.3,0.3,0.4,0.8,0.4,1.3v0.2H21c0,0.3,0.1,0.6,0.2,0.8c0.2,0.2,0.4,0.3,0.8,0.3c0.2,0,0.4-0.1,0.6-0.2
			c0.2-0.1,0.3-0.3,0.3-0.5h0.6c-0.1,0.4-0.3,0.7-0.5,0.8C22.7,31.4,22.4,31.5,22,31.5z M23,29.5c0-0.3-0.1-0.6-0.2-0.7
			c-0.2-0.2-0.4-0.3-0.7-0.3s-0.5,0.1-0.7,0.3c-0.1,0.2-0.2,0.4-0.3,0.7L23,29.5L23,29.5z"/>
		<path class="st0" d="M24.3,28h0.3h0.3v0.6c0.1-0.1,0.1-0.2,0.2-0.3c0.2-0.3,0.5-0.4,0.8-0.4c0.1,0,0.1,0,0.2,0v0.6h-0.1
			c-0.3,0-0.5,0.1-0.7,0.3c-0.2,0.2-0.3,0.4-0.3,0.8v1.8h-0.3h-0.3V28z"/>
		<path class="st0" d="M26,28h0.3h0.3l0.9,2.8l0,0l0.9-2.8h0.3h0.3l-1.3,3.4h-0.3h-0.3L26,28z"/>
		<path class="st0" d="M30.9,31.5c-0.5,0-0.8-0.2-1.1-0.4c-0.3-0.3-0.4-0.7-0.4-1.3c0-0.6,0.2-1,0.4-1.3S30.5,28,31,28
			c0.4,0,0.8,0.2,1.1,0.5c0.3,0.3,0.4,0.8,0.4,1.3v0.2H30c0,0.3,0.1,0.6,0.2,0.8c0.2,0.2,0.4,0.3,0.8,0.3c0.2,0,0.4-0.1,0.6-0.2
			c0.2-0.1,0.3-0.3,0.3-0.5h0.6c-0.1,0.4-0.3,0.7-0.5,0.8C31.6,31.4,31.3,31.5,30.9,31.5z M31.9,29.5c0-0.3-0.1-0.6-0.2-0.7
			c-0.2-0.2-0.4-0.3-0.7-0.3s-0.5,0.1-0.7,0.3C30.1,29,30,29.2,30,29.5L31.9,29.5L31.9,29.5z"/>
		<path class="st0" d="M33.2,28h0.3h0.3v0.6c0.1-0.1,0.1-0.2,0.2-0.3c0.2-0.3,0.5-0.4,0.8-0.4c0.1,0,0.1,0,0.2,0v0.6h-0.1
			c-0.3,0-0.5,0.1-0.7,0.3c-0.2,0.2-0.3,0.4-0.3,0.8v1.8h-0.3h-0.3C33.2,31.4,33.2,28,33.2,28z"/>
	</g>
	<g>
		<path class="st0" d="M19.9,26.6v0.7c0,0-0.3-0.3-1-0.3s-0.9,0.5-0.9,0.8c0,0.9,2.1,1.2,2.1,2.4c0,1.2-1.5,1.6-2.8,1.1v-0.7
			c0.3,0.3,2.1,1.1,2.1-0.3c0-1.2-2.1-0.9-2.1-2.5C17.5,26.1,19.6,26.5,19.9,26.6z"/>
	</g>
	<g>
		<path class="st0" d="M7.4,26.6v0.7c0,0-0.2-0.3-0.8-0.3s-0.8,0.5-0.8,0.8C5.8,28.7,8,29,8,30.2c0,1.2-1.8,1.6-2.7,1.1v-0.7
			c0,0.3,2.1,1.1,2.1-0.3c0-1.2-2.3-0.9-2.3-2.5C5.1,26.1,7.1,26.5,7.4,26.6z"/>
	</g>
	<g>
		<path class="st0" d="M10.6,26.5c-1.1,0-2.3,0.8-2.3,2.5c0,1.8,1.2,2.5,2.3,2.5c1.1,0,2.3-0.6,2.3-2.5
			C12.9,27.1,11.7,26.5,10.6,26.5z M10.6,31c-0.8,0-1.7-0.7-1.7-2c0-1.3,0.9-2,1.7-2c0.8,0,1.7,0.6,1.7,2C12.3,30.4,11.4,31,10.6,31
			z"/>
	</g>
	<g>
		<polygon class="st0" points="11.1,31.2 12.3,32.8 11.5,32.8 10.3,31.2 		"/>
	</g>
	<g>
		<polygon class="st0" points="13.4,26.5 14,26.5 14,30.9 15.9,30.9 15.9,31.2 13.4,31.2 		"/>
	</g>
</g>
</svg>
