<?xml version="1.0" encoding="utf-8"?>
<!-- Generator: Adobe Illustrator 21.0.0, SVG Export Plug-In . SVG Version: 6.00 Build 0)  -->
<svg version="1.1" id="图层_1" xmlns="http://www.w3.org/2000/svg" xmlns:xlink="http://www.w3.org/1999/xlink" x="0px" y="0px"
	 width="40px" height="40px" viewBox="0 0 40 40" style="enable-background:new 0 0 40 40;" xml:space="preserve">
<style type="text/css">
	.st0{fill:#606060;}
</style>
<g>
	<path class="st0" d="M7.8,18.7c0-0.3-0.1-0.6-0.3-0.8c-0.2-0.2-0.4-0.3-0.8-0.3c-0.3,0-0.6,0.1-0.7,0.2c-0.2,0.2-0.3,0.4-0.3,0.7
		c0,0.2,0.1,0.3,0.3,0.5c0.2,0.1,0.5,0.2,0.9,0.3c0.8,0.2,1.4,0.5,1.7,0.8c0.4,0.3,0.5,0.7,0.5,1.3c0,0.7-0.2,1.2-0.6,1.6
		c-0.4,0.4-0.9,0.6-1.6,0.6S5.6,23.4,5.2,23c-0.4-0.4-0.6-0.9-0.6-1.7h1.1c0,0.4,0.1,0.6,0.3,0.8c0.2,0.2,0.5,0.3,0.9,0.3
		c0.3,0,0.6-0.1,0.8-0.2C7.9,22,8,21.8,8,21.5c0-0.2-0.1-0.4-0.3-0.5c-0.2-0.1-0.6-0.3-1.1-0.4c-0.7-0.2-1.2-0.4-1.5-0.7
		c-0.3-0.3-0.4-0.7-0.4-1.3c0-0.7,0.2-1.2,0.6-1.5c0.4-0.4,0.9-0.6,1.5-0.6S8,16.7,8.3,17c0.4,0.4,0.6,1,0.7,1.7H7.8z"/>
	<path class="st0" d="M11.5,20.9l-1.9-4.2h0.7H11l1.2,3l0,0l1.1-3h0.6h0.6l-1.9,4.1v2.5H12h-0.6v-2.4H11.5z"/>
	<path class="st0" d="M15.1,16.6h0.6h2c0.6,0,1,0.2,1.3,0.5c0.3,0.3,0.5,0.7,0.5,1.3c0,0.5-0.2,0.9-0.5,1.2c0,0.1-0.1,0.1-0.2,0.2
		c0.1,0,0.3,0.1,0.4,0.2c0.4,0.3,0.5,0.8,0.5,1.4s-0.2,1.1-0.5,1.5c-0.4,0.4-0.8,0.5-1.4,0.5h-2h-0.7V16.6z M16.2,19.3h1.3
		c0.3,0,0.5-0.1,0.6-0.2c0.2-0.1,0.3-0.3,0.3-0.6s-0.1-0.5-0.2-0.6c-0.1,0-0.4-0.1-0.7-0.1h-1.3V19.3z M16.2,22.2h1.5
		c0.3,0,0.5-0.1,0.6-0.2c0.1-0.1,0.2-0.4,0.2-0.7c0-0.3-0.1-0.5-0.2-0.7c-0.1-0.1-0.4-0.2-0.7-0.2h-1.4V22.2z"/>
	<path class="st0" d="M22.2,16.6h0.7h0.7l2,6.7H25h-0.6L23.9,22h-2.1l-0.4,1.4h-0.6h-0.6L22.2,16.6z M22.1,20.8h1.4l-0.7-2.7l0,0
		L22.1,20.8z"/>
	<path class="st0" d="M29.2,18.7c0-0.3-0.1-0.6-0.3-0.8c-0.2-0.2-0.4-0.3-0.8-0.3c-0.3,0-0.6,0.1-0.7,0.2c-0.2,0.2-0.3,0.4-0.3,0.6
		c0,0.2,0.1,0.4,0.2,0.5c0.2,0.1,0.5,0.2,0.9,0.3c0.8,0.2,1.4,0.5,1.7,0.8c0.3,0.3,0.5,0.7,0.5,1.3c0,0.7-0.2,1.2-0.6,1.6
		s-0.9,0.6-1.6,0.6c-0.7,0-1.3-0.2-1.7-0.6c-0.4-0.4-0.6-0.9-0.6-1.7H27c0,0.4,0.1,0.6,0.3,0.8s0.5,0.3,0.9,0.3
		c0.3,0,0.6-0.1,0.8-0.2c0.2-0.2,0.3-0.4,0.3-0.6s-0.1-0.4-0.3-0.6c-0.2-0.1-0.6-0.3-1.1-0.4c-0.7-0.2-1.2-0.4-1.5-0.7
		c-0.2-0.2-0.4-0.7-0.4-1.2c0-0.7,0.2-1.2,0.6-1.5c0.4-0.4,0.9-0.6,1.5-0.6c0.7,0,1.2,0.2,1.6,0.6s0.6,0.9,0.6,1.6H29.2z"/>
	<path class="st0" d="M31.3,23.4v-6.8h4.1v0.6v0.6h-2.9v1.4h2.7v0.6v0.6h-2.7v1.7h3v0.6v0.6h-4.2V23.4z"/>
</g>
</svg>
