<?xml version="1.0" encoding="utf-8"?>
<!-- Generator: Adobe Illustrator 21.0.0, SVG Export Plug-In . SVG Version: 6.00 Build 0)  -->
<svg version="1.1" id="图层_1" xmlns="http://www.w3.org/2000/svg" xmlns:xlink="http://www.w3.org/1999/xlink" x="0px" y="0px"
	 width="40px" height="40px" viewBox="0 0 40 40" style="enable-background:new 0 0 40 40;" xml:space="preserve">
<style type="text/css">
	.st0{fill:#606060;}
</style>
<g>
	<g>
		<path class="st0" d="M13,28.1h-1.4v-0.5v-0.5h3.9v0.5v0.5H14v4.8h-0.5H13V28.1z"/>
		<path class="st0" d="M16.4,32.9v-5.8h3.5v0.5v0.5h-2.5v1.2h2.3v0.5v0.5h-2.3v1.5H20v0.5v0.5L16.4,32.9L16.4,32.9z"/>
		<path class="st0" d="M20.9,31.7v-0.5v-0.5l1.8-3.5h0.5h0.5v3.6h0.5v0.9h-0.5V33h-0.9v-1.3H20.9z M22.8,30.8v-2.4l-1.1,2.3v0.1
			H22.8z"/>
		<path class="st0" d="M25.5,32.4c-0.3-0.5-0.4-1.2-0.4-2.2s0.1-1.8,0.4-2.2s0.7-0.7,1.2-0.7c0.6,0,1,0.2,1.3,0.7s0.4,1.2,0.4,2.2
			l0,0c0,1-0.1,1.8-0.4,2.2c-0.3,0.5-0.7,0.7-1.3,0.7C26.2,33.1,25.7,32.8,25.5,32.4z M27.3,31.7c0.1-0.3,0.2-0.8,0.2-1.6
			c0-0.7,0-1.3-0.2-1.6C27.2,28.2,27,28,26.8,28s-0.4,0.2-0.5,0.5s-0.2,0.8-0.2,1.6c0,0.7,0.1,1.3,0.2,1.6c0.1,0.3,0.3,0.5,0.5,0.5
			S27.1,32,27.3,31.7z"/>
	</g>
	<path class="st0" d="M18.2,6.9c0,0-2-0.1-3.2,1.5c-1.3,1.6-0.3,4.1,0.3,5.4s3.8,6.3,3.9,6.4s0.3,0.1,0.3,0s0.4-7.3,0.1-9.1
		C19.2,9.4,18.3,7.1,18.2,6.9z M11.4,10.3c-0.2,0-1.8,1.6-2,3.2c-0.1,1.6,0.5,2.6,2.4,3.9s6.4,3.8,6.5,3.6c0.1-0.2-1.8-3.5-3.3-5.8
		C13.5,12.8,11.6,10.3,11.4,10.3z M12,24.9c1.4,0.6,3.5-0.8,4.1-1.2c0.5-0.4,1.6-1.2,1.6-1.2l-7.8,0.2C9.9,22.7,10.6,24.3,12,24.9
		L12,24.9z M12.2,18.6c-1.4-0.7-4.2-2.3-4.4-2.3c-0.1,0-0.5,2,0.4,3.5s2.6,2,3.4,2.1c0.9,0.1,6.2,0.1,6.1,0
		C17.7,21.8,13.6,19.3,12.2,18.6z M25,8.5C23.7,6.9,21.8,7,21.8,7c-0.1,0.2-1,2.5-1.3,4.2c-0.3,1.8,0.1,9,0.1,9.1
		c0,0.1,0.1,0.1,0.3,0c0.1-0.1,3.3-5.1,3.9-6.4C25.3,12.6,26.3,10.1,25,8.5L25,8.5z M32.2,16.3c-0.1,0-3,1.6-4.4,2.3
		c-1.4,0.7-5.5,3.2-5.6,3.3c0,0.1,5.2,0.2,6.1,0c0.8-0.1,2.5-0.6,3.4-2.1C32.7,18.4,32.3,16.4,32.2,16.3L32.2,16.3z M23.9,23.7
		c0.6,0.4,2.7,1.8,4.1,1.2c1.4-0.6,2.1-2.1,2.1-2.1l-7.8-0.2C22.4,22.5,23.4,23.3,23.9,23.7L23.9,23.7z M30.6,13.5
		c-0.1-1.6-1.8-3.2-2-3.2s-2.2,2.5-3.7,4.9s-3.3,5.6-3.3,5.8c0.1,0.2,4.6-2.3,6.5-3.6C30.1,16.1,30.8,15.1,30.6,13.5z"/>
</g>
</svg>
