<?xml version="1.0" encoding="utf-8"?>
<!-- Generator: Adobe Illustrator 21.0.0, SVG Export Plug-In . SVG Version: 6.00 Build 0)  -->
<svg version="1.1" id="图层_1" xmlns="http://www.w3.org/2000/svg" xmlns:xlink="http://www.w3.org/1999/xlink" x="0px" y="0px"
	 width="40px" height="40px" viewBox="0 0 40 40" style="enable-background:new 0 0 40 40;" xml:space="preserve">
<style type="text/css">
	.st0{fill:#606060;}
</style>
<g>
	<path class="st0" d="M28.5,24.2c1.5-1,2.7-2.4,3.7-4l0.2-0.4c0.1-0.2,0.2-0.4,0.3-0.6l0.3-0.4c0.9-1.9,1.4-4.1,1.3-6.5l0,0
		c0-0.7-0.2-3.4-0.6-4.2c-1,0.4-2.9,1.6-3.3,2.9c-2-0.3-4.3-0.3-6.2,0.1c-0.3-1.4-2-2.4-3.2-3c-0.5,0.9-0.8,3-0.7,4.4l0,0
		c0,1.3,0.2,2.5,0.5,3.7C20.8,16.2,23.5,22.5,28.5,24.2z"/>
	<path class="st0" d="M36.3,30.5c-0.6-0.7-1.9-1-2.9-1c-0.5-0.6-2.7-2.9-4-4.3l-0.7,0.5l-0.6-0.2c-5.5-1.9-8.3-8.5-8.5-8.8v-0.1
		v-0.1c-4,1.3-8.1,3.8-10.5,6.3l-0.4,0.4c-0.2,0.2-0.4,0.4-0.6,0.6C5.4,27,3.3,30.4,3.3,31v0.3H7v-0.4c-0.2-1.1,0.2-2.5,1.1-3.5
		c0.5-0.7,1.4-1.4,2.8-1.7c1.1-0.5,4.1-0.1,4.1-0.1c6,0.5,11.7,2.9,18.2,6.3h3.6v-0.2C36.9,31.3,36.7,30.9,36.3,30.5z"/>
	<path class="st0" d="M17.8,28.3C17.3,28,16.6,28,16,28.2c-0.4-0.4-0.7-0.9-0.8-1.5c-0.1,0-0.1,0-0.2,0c0,0-1.9-0.2-3.2-0.1
		c1.1,0.9,2.3,1.9,3.6,2.9h2.8v-0.3C18.2,28.8,18,28.5,17.8,28.3z"/>
	<path class="st0" d="M8.1,22.3L8.4,22c0-0.1,0.1-0.1,0.2-0.2c-0.8-1.2-1.1-2.3-1.2-3.1c-0.2-1.3,0.1-2.5,0.9-3.5
		c1.1-1.4,2.8-1.5,4.6-1.2c0,0.3,0,0.5,0.1,0.7c0.5,0.7,3,0.9,4.5,0.3c-1.1-1.6-3.3-2.3-4-2c-0.2,0.1-0.4,0.3-0.5,0.5
		c-0.6-0.1-1.2-0.2-1.6-0.2c-1.6,0-2.8,0.6-3.6,1.7c-0.9,1.1-1.2,2.4-1,3.9C6.9,19.9,7.3,21.1,8.1,22.3z"/>
</g>
</svg>
