<?xml version="1.0" encoding="utf-8"?>
<!-- Generator: Adobe Illustrator 21.0.0, SVG Export Plug-In . SVG Version: 6.00 Build 0)  -->
<svg version="1.1" id="图层_1" xmlns="http://www.w3.org/2000/svg" xmlns:xlink="http://www.w3.org/1999/xlink" x="0px" y="0px"
	 width="40px" height="40px" viewBox="0 0 40 40" style="enable-background:new 0 0 40 40;" xml:space="preserve">
<style type="text/css">
	.st0{fill:#606060;}
</style>
<g>
	<g>
		<path class="st0" d="M3,11.9h4.4l-0.2,1.3H5.8l-0.6,3.7H3.6l0.6-3.7H2.8L3,11.9z"/>
		<path class="st0" d="M9,13.1c1.2,0,1.9,0.8,1.7,1.9c-0.2,1.3-1.2,2-2.3,2s-1.9-0.6-1.7-1.9C6.8,13.8,7.8,13.1,9,13.1z M8,15
			c-0.1,0.7,0.1,1,0.4,1c0.4,0,0.7-0.3,0.8-1c0.1-0.5-0.1-0.9-0.4-0.9C8.3,14.1,8.1,14.6,8,15z"/>
		<path class="st0" d="M11.5,13.2h1.3l-0.1,0.6c0.4-0.4,0.8-0.7,1.3-0.7c0.9,0,1.3,0.6,1.1,1.6l-0.4,2.2h-1.4l0.3-1.9
			c0.1-0.4,0-0.7-0.4-0.7s-0.6,0.3-0.7,0.8L12.2,17h-1.4L11.5,13.2z"/>
		<path class="st0" d="M16.8,17.1c0,0,0,0.1,0.1,0.2s0.1,0.1,0.3,0.1c0.4,0,0.6-0.2,0.7-0.7v-0.3c-0.2,0.2-0.6,0.4-1.1,0.4
			c-1,0-1.4-0.8-1.2-1.7c0.2-0.9,0.7-1.9,1.9-1.9c0.4,0,0.8,0.2,1,0.6l0.1-0.5h1.2l-0.5,3c-0.2,1.1-0.5,2-2.2,2
			c-1.2,0-1.7-0.5-1.7-1.1h1.4V17.1z M17,15c-0.1,0.4,0.1,0.7,0.4,0.7c0.4,0,0.7-0.4,0.7-0.8c0.1-0.4,0-0.8-0.5-0.8
			C17.3,14.2,17.1,14.5,17,15z"/>
		<path class="st0" d="M20.6,11.9H25l-0.2,1.3h-1.4l-0.6,3.7h-1.6l0.6-3.7h-1.4L20.6,11.9z"/>
		<path class="st0" d="M25.5,15.4c-0.1,0.4,0.2,0.7,0.6,0.7c0.2,0,0.4-0.1,0.6-0.3H28c-0.2,0.5-0.5,0.8-0.9,0.9
			c-0.4,0.2-0.8,0.3-1.2,0.3c-1.1,0-1.9-0.7-1.7-1.9c0.2-1.2,1.2-2,2.3-2c1.3,0,1.9,0.9,1.7,2.3C28.2,15.4,25.5,15.4,25.5,15.4z
			 M26.9,14.6c0.1-0.3-0.2-0.6-0.5-0.6c-0.4,0-0.7,0.2-0.8,0.6H26.9z"/>
		<path class="st0" d="M31.3,14.6c0-0.2,0-0.3-0.1-0.4c-0.1-0.1-0.2-0.1-0.3-0.1c-0.5,0-0.7,0.6-0.8,1c-0.1,0.6,0,0.9,0.5,0.9
			c0.4,0,0.6-0.3,0.6-0.5h1.4c-0.2,0.6-0.5,0.9-0.9,1.2c-0.4,0.2-0.9,0.3-1.4,0.3c-1.1,0-1.9-0.7-1.7-1.9c0.2-1.3,1.2-2,2.3-2
			c0.9,0,1.8,0.4,1.7,1.5H31.3z"/>
		<path class="st0" d="M33.8,11.9h1.4l-0.3,1.8c0.3-0.4,0.7-0.6,1.2-0.6c0.9,0,1.3,0.6,1.1,1.6l-0.4,2.2h-1.4l0.3-1.9
			c0.1-0.4,0-0.7-0.4-0.7s-0.6,0.3-0.7,0.8L34.3,17h-1.4L33.8,11.9z"/>
	</g>
	<g>
		<path class="st0" d="M9.6,28.1H8.9v-3.4l0,0l-0.7,3.4H7.3l-0.7-3.4l0,0v3.4H5.9v-4h1.2l0.7,3.2l0,0L8.5,24h1.2L9.6,28.1L9.6,28.1z
			"/>
		<path class="st0" d="M11.1,24.7h-0.8V24h0.8V24.7z M11.1,25.1v3h-0.8v-3H11.1z"/>
		<path class="st0" d="M14.5,28.1h-0.7v-0.4l0,0c-0.2,0.3-0.5,0.5-0.8,0.5c-0.9,0-1.2-0.8-1.2-1.6c0-1,0.6-1.5,1.2-1.5
			c0.5,0,0.7,0.3,0.8,0.5l0,0V24h0.8v4.1H14.5z M13.1,27.5c0.5,0,0.7-0.4,0.7-0.9s-0.1-1-0.6-1s-0.6,0.4-0.6,0.9
			C12.5,27,12.6,27.5,13.1,27.5z"/>
		<path class="st0" d="M17.7,28.1H17v-0.4l0,0c-0.2,0.3-0.5,0.5-0.8,0.5c-0.9,0-1.2-0.8-1.2-1.6c0-1,0.6-1.5,1.2-1.5
			c0.5,0,0.7,0.3,0.8,0.5l0,0V24h0.8L17.7,28.1L17.7,28.1z M16.3,27.5c0.5,0,0.7-0.4,0.7-0.9s-0.1-1-0.6-1s-0.6,0.4-0.6,0.9
			C15.7,27,15.8,27.5,16.3,27.5z"/>
		<path class="st0" d="M19.1,28.1h-0.8v-4h0.8V28.1z"/>
		<path class="st0" d="M22.3,27.2c-0.2,0.7-0.8,1-1.3,1c-0.8,0-1.4-0.4-1.4-1.6c0-0.4,0.1-1.5,1.4-1.5c0.6,0,1.3,0.3,1.3,1.6v0.1h-2
			c0,0.2,0.1,0.7,0.7,0.7c0.2,0,0.4-0.1,0.5-0.3C21.5,27.2,22.3,27.2,22.3,27.2z M21.6,26.3c0-0.5-0.3-0.6-0.6-0.6
			c-0.4,0-0.5,0.2-0.6,0.6H21.6z"/>
		<path class="st0" d="M25.8,28.1H25l-0.4-2.2l0,0l-0.4,2.2h-0.8l-0.8-3h0.8l0.4,2.1l0,0l0.4-2.1H25l0.4,2.1l0,0l0.4-2.1h0.8
			L25.8,28.1z"/>
		<path class="st0" d="M29.2,27.5c0,0.4,0.1,0.4,0.2,0.5v0.1h-0.8c0-0.1-0.1-0.2-0.1-0.4c-0.2,0.2-0.4,0.4-0.9,0.4
			c-0.4,0-0.9-0.3-0.9-0.9s0.4-0.9,0.8-1l0.7-0.1c0.1,0,0.3-0.1,0.3-0.2c0-0.3-0.3-0.3-0.5-0.3c-0.4,0-0.4,0.2-0.5,0.4h-0.7
			c0.1-0.9,0.7-1,1.3-1c0.4,0,1.1,0.1,1.1,0.9V27.5z M28.4,26.6c-0.1,0.1-0.2,0.1-0.5,0.2s-0.5,0.1-0.5,0.4s0.2,0.4,0.4,0.4
			c0.3,0,0.7-0.2,0.7-0.6v-0.4H28.4z"/>
		<path class="st0" d="M29.9,25.1h0.7v0.5l0,0c0.2-0.3,0.3-0.6,0.8-0.6h0.1v0.8c-0.1,0-0.1,0-0.2,0c-0.6,0-0.7,0.4-0.7,0.7v1.6h-0.8
			v-3H29.9z"/>
		<path class="st0" d="M34.3,27.2c-0.2,0.7-0.8,1-1.3,1c-0.8,0-1.4-0.4-1.4-1.6c0-0.4,0.1-1.5,1.4-1.5c0.6,0,1.3,0.3,1.3,1.6v0.1h-2
			c0,0.2,0.1,0.7,0.7,0.7c0.2,0,0.4-0.1,0.5-0.3C33.5,27.2,34.3,27.2,34.3,27.2z M33.6,26.3c0-0.5-0.3-0.6-0.6-0.6
			c-0.4,0-0.5,0.2-0.6,0.6H33.6z"/>
	</g>
</g>
</svg>
