<?xml version="1.0" encoding="utf-8"?>
<!-- Generator: Adobe Illustrator 21.0.0, SVG Export Plug-In . SVG Version: 6.00 Build 0)  -->
<svg version="1.1" id="图层_1" xmlns="http://www.w3.org/2000/svg" xmlns:xlink="http://www.w3.org/1999/xlink" x="0px" y="0px"
	 width="40px" height="40px" viewBox="0 0 40 40" style="enable-background:new 0 0 40 40;" xml:space="preserve">
<style type="text/css">
	.st0{fill:#606060;}
</style>
<g>
	<path class="st0" d="M20.2,24.2c-1.3,0.7-2.7,1.4-4,2.1c0,0-0.1,0-0.1-0.1c1-1,2-1.9,3-2.9c0.6-0.6,1.3-1.2,1.9-1.9
		c0.2-0.3,0.2-0.9,0.1-1.3c-0.3-0.9-0.7-1.8-1-2.8c-0.4-1.3,0-2.4,0.6-3.5c0.7-1.2,1.6-2.3,2.4-3.4c0.3-0.4,0.8-0.7,1.2-1.1
		c0.5-0.4,0.9-0.9,1.4-1.4c0.3-0.2,0.6-0.5,0.9-0.5c0.7,0,1.1,0.6,1.2,1.2c0,0.3-0.2,0.7-0.5,0.9c-0.9,0.7-1.9,1.2-2.7,1.8
		c-1,0.8-1.7,1.9-2,3.1c-0.3,1.4,0.3,2.6,1.3,3.7c0.3,0.3,0.6,0.6,0.9,1c0.8,1.1,0.8,2.5,0,3.5c-0.2,0.2-0.4,0.3-0.7,0.5
		c-0.1,0.1-0.3,0.1-0.5,0.1c-0.9,0.7-2,0.6-3,1C20.5,24.5,20.3,24.3,20.2,24.2z"/>
	<path class="st0" d="M31.3,4.6c-0.4,0.1-0.8,0.3-1.3,0.3c-0.4,0.1-0.9-0.1-1.1,0.2c-0.7,0.8-1.8,0.5-2.6,1.2
		c-0.5,0.4-1.2,0.5-1.9,0.6c-1,0.2-2,0.3-2.9,0.6c-1.1,0.3-2.3,0.5-3.3,0.8c-2.4,0.7-4.6,1.8-7,2.7c-1,0.4-2.8-0.1-2.6-1.8
		c0.1-0.8,0.7-1,1.2-1.2c1.8-0.6,3.6-1.2,5.4-1.7c1.7-0.5,3.5-0.9,5.2-1.2c2.2-0.3,4.5-0.6,6.7-0.8c1.3-0.1,2.7,0,4,0
		C31.3,4.5,31.3,4.5,31.3,4.6z"/>
</g>
<g>
	<path class="st0" d="M14.2,35.6v-6.7h3.9v0.6v0.6h-2.8v1.5h2.4v0.6v0.6h-2.4v2.8h-0.6C14.7,35.6,14.2,35.6,14.2,35.6z"/>
	<path class="st0" d="M20.4,35.6l-1.6-6.7h0.6H20l0.9,4.9l0,0l0.7-4.9h0.6h0.6l0.8,4.9l0,0l0.9-4.9h0.6h0.6l-1.5,6.7h-0.5h-0.5
		l-0.9-5.3l0,0l-0.9,5.3h-0.5H20.4z"/>
</g>
</svg>
