<?xml version="1.0" encoding="utf-8"?>
<!-- Generator: Adobe Illustrator 21.0.0, SVG Export Plug-In . SVG Version: 6.00 Build 0)  -->
<svg version="1.1" id="图层_1" xmlns="http://www.w3.org/2000/svg" xmlns:xlink="http://www.w3.org/1999/xlink" x="0px" y="0px"
	 width="40px" height="40px" viewBox="0 0 40 40" style="enable-background:new 0 0 40 40;" xml:space="preserve">
<style type="text/css">
	.st0{fill:#606060;}
</style>
<g>
	<path class="st0" d="M24.8,19.6c-0.3-0.4-0.6-0.7-0.9-1c-1-1-1.6-2.2-1.3-3.7c0.3-1.2,1-2.3,2-3.1c0.8-0.7,1.8-1.2,2.7-1.8
		c0.3-0.2,0.5-0.6,0.5-0.9c-0.1-0.6-0.5-1.2-1.2-1.2c-0.3,0-0.6,0.3-0.9,0.5c-0.5,0.4-0.9,0.9-1.4,1.4c-0.4,0.4-0.9,0.6-1.2,1.1
		c-0.8,1.1-1.7,2.2-2.4,3.4c-0.6,1.1-1,2.2-0.6,3.5c0.3,0.9,0.7,1.8,1,2.8c0.1,0.4,0.2,1-0.1,1.3c-0.5,0.7-1.2,1.3-1.9,1.9
		c-1,1-2,1.9-3,2.9c0,0,0.1,0,0.1,0.1c1.3-0.7,2.6-1.4,4-2.1c0.1,0.1,0.4,0.3,0.5,0.2c1-0.4,2.1-0.3,3-1c0.1-0.1,0.3-0.1,0.5-0.1
		c0.2-0.1,0.5-0.2,0.7-0.5C25.6,22.1,25.6,20.7,24.8,19.6z"/>
	<path class="st0" d="M31.2,4.7c-1.3,0-2.7-0.1-4,0c-2.2,0.2-4.5,0.4-6.7,0.8c-1.8,0.3-3.5,0.7-5.2,1.2c-1.8,0.5-3.6,1.1-5.4,1.7
		C9.4,8.5,8.8,8.7,8.7,9.5c-0.2,1.7,1.6,2.2,2.6,1.8c2.3-0.9,4.6-1.9,7-2.7c1.1-0.3,2.2-0.5,3.3-0.8c0.9-0.3,1.9-0.4,2.9-0.6
		C25.2,7,25.9,7,26.4,6.5c0.8-0.7,1.9-0.4,2.6-1.2c0.2-0.2,0.7-0.1,1.1-0.2s0.8-0.2,1.3-0.3C31.3,4.8,31.3,4.8,31.2,4.7z"/>
	<polygon class="st0" points="17,29.3 16,33.7 16,33.7 15.1,29.3 14.4,29.3 13.8,29.3 12.9,33.7 11.9,29.3 11.2,29.3 10.6,29.3 
		12.2,35.3 12.9,35.3 13.5,35.3 14.4,30.6 15.4,35.3 16,35.3 16.6,35.3 18.3,29.3 17.6,29.3 	"/>
	<path class="st0" d="M21.4,29.3h-0.7l-2.1,6.1h0.7H20l0.4-1.2h2.3l0.4,1.2h0.7h0.7l-2.1-6.1C22.4,29.3,21.4,29.3,21.4,29.3z
		 M20.6,33.1l0.8-2.4l0.8,2.4H20.6z"/>
	<polygon class="st0" points="25.1,35.3 25.8,35.3 26.4,35.3 26.4,32.8 29,32.8 29,32.2 29,31.7 26.4,31.7 26.4,30.3 29.4,30.3 
		29.4,29.8 29.4,29.3 25.1,29.3 	"/>
</g>
</svg>
