<?xml version="1.0" encoding="utf-8"?>
<!-- Generator: Adobe Illustrator 21.0.0, SVG Export Plug-In . SVG Version: 6.00 Build 0)  -->
<svg version="1.1" id="图层_1" xmlns="http://www.w3.org/2000/svg" xmlns:xlink="http://www.w3.org/1999/xlink" x="0px" y="0px"
	 width="40px" height="40px" viewBox="0 0 40 40" style="enable-background:new 0 0 40 40;" xml:space="preserve">
<style type="text/css">
	.st0{opacity:0.55;fill:#606060;enable-background:new    ;}
	.st1{fill:#606060;}
</style>
<g>
	<g>
		<g>
			<path class="st0" d="M35.7,16.3c-1-0.4-2-0.4-3.1-0.3c-1.8,0.2-3.6,0.7-5.3,1.5c0.1,0.4,0.3,0.7,0.4,1.1c0.2,0.9,0.3,1.9,0.3,2.9
				c0,0.1,0,0.3,0,0.5c-0.1,0.3-0.1,0.6-0.2,0.9c-0.3,1.2-0.7,2.2-1.4,3.2l0,0c-0.2,0.2-0.3,0.4-0.5,0.6c-0.1,0.1-0.3,0.3-0.4,0.4
				l-0.1,0.1c-0.1,0.1-0.3,0.2-0.4,0.4l0,0l0,0c-0.8,0.7-1.7,1.3-2.7,1.7c-0.1,0-0.2,0.1-0.3,0.1c-0.1,0-0.1,0-0.2,0s-0.2,0-0.2,0.1
				c0.1,0,0.1,0,0.2,0l0,0c0.1,0,0.1,0,0.2-0.1l0,0c0.1,0,0.3,0,0.4-0.1l0,0c0.3,0,0.5-0.1,0.7-0.2c2.4-0.8,4.7-1.8,6.8-3.2
				c2.1-1.4,4.1-3,5.6-5c0.6-0.8,1.1-1.6,1.3-2.6C37,17.5,36.6,16.7,35.7,16.3z"/>
			<path class="st1" d="M15,18.5c-0.2-0.2-0.4-0.2-0.6,0c-0.1,0.2-0.2,0.4-0.2,0.6c0.1,0,0,0.2,0.1,0.2c0.1,0,0.2-0.1,0.2-0.2
				c0.2-0.1,0.3-0.2,0.5-0.2C15.2,18.8,15.1,18.6,15,18.5z M15,18.5c-0.2-0.2-0.4-0.2-0.6,0c-0.1,0.2-0.2,0.4-0.2,0.6
				c0.1,0,0,0.2,0.1,0.2c0.1,0,0.2-0.1,0.2-0.2c0.2-0.1,0.3-0.2,0.5-0.2C15.2,18.8,15.1,18.6,15,18.5z M15,18.5
				c-0.2-0.2-0.4-0.2-0.6,0c-0.1,0.2-0.2,0.4-0.2,0.6c0.1,0,0,0.2,0.1,0.2c0.1,0,0.2-0.1,0.2-0.2c0.2-0.1,0.3-0.2,0.5-0.2
				C15.2,18.8,15.1,18.6,15,18.5z M20,16.9L20,16.9C20,16.9,20,16.9,20,16.9C20,16.9,20,16.9,20,16.9z M16.4,17.1
				C16.4,17.1,16.4,17.1,16.4,17.1L16.4,17.1C16.4,17.1,16.4,17.1,16.4,17.1z M15,18.5c-0.2-0.2-0.4-0.2-0.6,0
				c-0.1,0.2-0.2,0.4-0.2,0.6c0.1,0,0,0.2,0.1,0.2c0.1,0,0.2-0.1,0.2-0.2c0.2-0.1,0.3-0.2,0.5-0.2C15.2,18.8,15.1,18.6,15,18.5z
				 M27.7,18.5c-0.1-0.3-0.3-0.6-0.4-1c0,0,0-0.1,0-0.1c0-0.1-0.1-0.1-0.1-0.2c-0.4-0.9-0.9-1.7-1.6-2.4C24,13,21.9,12,19.4,11.7
				c-2.9-0.1-5.3,1-7.2,3.1c0,0.1-0.1,0.2-0.1,0.3h5.4c0,0.1,0,0.1,0,0.1c-0.1,0.2-0.3,0.3-0.4,0.4c-0.3,0.2-0.5,0.3-0.8,0.3h-4.5
				c-0.2,0-0.3,0.1-0.4,0.2c-1.2,1.9-1.7,4-1.3,6.1c0.4,2.7,1.8,4.8,4.2,6.3c1.8,1.1,3.7,1.5,5.8,1.3c0.5,0,1.1-0.2,1.6-0.3
				c0-0.1,0.1-0.1,0.2-0.1h0.2c0,0,0,0,0,0c0.1,0,0.2-0.1,0.3-0.1c1-0.4,1.9-1,2.7-1.7c0.1-0.1,0.3-0.3,0.4-0.4l0.1-0.1
				c0.1-0.1,0.3-0.3,0.4-0.4c0.1-0.2,0.2-0.3,0.3-0.5c0,0,0.1-0.1,0.1-0.2c0.7-1,1.1-2,1.4-3.2c0.1-0.3,0.1-0.6,0.2-0.9v-0.6
				C28.1,20.4,27.9,19.5,27.7,18.5z M14.6,23.7c-0.1,0-0.2,0-0.2-0.1c-1.4-1-2.8-2-4.1-3c-0.2-0.1-0.2-0.2,0-0.3
				c0.5-0.3,0.5-0.3,1,0c0.6,0.5,1.2,0.9,1.9,1.4c0,0.1,0.1,0.1,0.2,0.1h0c-0.3-0.9-0.6-1.8-0.9-2.7c-0.1-0.2,0-0.3,0.1-0.4
				c0.4-0.3,0.4-0.3,0.6,0.2c0.5,1.5,0.9,3,1.4,4.5C14.6,23.5,14.7,23.6,14.6,23.7z M16,19.5c0,0.4-0.1,0.8-0.5,1.1
				c-0.3,0.3-0.8,0.3-1.1,0c-0.5-0.5-0.6-1.6-0.1-2.2c0.1-0.2,0.3-0.4,0.5-0.4c0.3-0.2,0.8,0,0.9,0.5c0,0.1,0,0.1-0.1,0.2
				c-0.3,0.2-0.7,0.5-1,0.7c-0.2,0.1-0.2,0.2-0.1,0.3c0.2,0.4,0.4,0.6,0.7,0.5c0.3,0,0.5-0.3,0.6-0.6c0-0.1,0-0.1,0-0.2
				c0-0.1,0-0.2,0.1-0.2C16,19.2,16,19.3,16,19.5L16,19.5z M18.5,18.3c-0.2,0.2-0.5,0.4-0.8,0.6h-0.1v-0.1c0.2-0.2,0.2-0.4,0.1-0.6
				c-0.1-0.3-0.3-0.7-0.4-1.1c-0.1-0.1-0.1-0.3-0.3-0.3s-0.2,0.1-0.3,0.2c-0.2,0.3-0.3,0.5-0.1,0.8c0.1,0.3,0.2,0.7,0.4,1.1
				c0,0.1,0.1,0.3,0.3,0.2h0.1v0.1c-0.3,0.2-0.5,0.4-0.8,0.6h-0.1v-0.1c0.2-0.1,0.2-0.3,0.1-0.5c-0.2-0.5-0.4-0.9-0.5-1.4
				c-0.1-0.1-0.2-0.3-0.3-0.1c0,0-0.1,0.1-0.1,0v-0.1c0.1-0.2,0.2-0.5,0.4-0.6c0.2-0.2,0.2,0,0.2,0.1h0c0,0,0,0.1,0.1,0c0,0,0,0,0,0
				v0c0.1-0.2,0.1-0.4,0.3-0.6c0.3-0.4,0.7-0.3,0.9,0.1c0.2,0.4,0.3,0.9,0.5,1.3C18.2,18.1,18.2,18.4,18.5,18.3
				C18.6,18.2,18.6,18.3,18.5,18.3z M20.7,16.5c-0.1,0.2-0.2,0.4-0.4,0.6c-0.2,0.2-0.1-0.1-0.2-0.1c0,0-0.1-0.1-0.1-0.1h0.1
				c0,0,0-0.1-0.1,0c0,0,0,0,0,0v0c-0.1,0.2-0.2,0.5-0.3,0.6c-0.3,0.4-0.7,0.4-0.9,0c-0.2-0.5-0.3-0.9-0.5-1.3
				c-0.1-0.2-0.1-0.5-0.4-0.3h-0.1v-0.1c0.2-0.2,0.4-0.3,0.6-0.5c0.1-0.1,0.1,0.1,0.2,0.1c0.2,0.5,0.3,0.9,0.5,1.4
				c0,0.2,0.1,0.5,0.3,0.5c0.3,0,0.3-0.2,0.4-0.4c0.1-0.2,0.1-0.4,0-0.6c-0.1-0.4-0.2-0.8-0.4-1.1c0-0.2-0.1-0.3-0.3-0.2
				C19,15,19,15,19,15v-0.1c0.2-0.1,0.3-0.3,0.5-0.4c0.1-0.1,0.2,0,0.2,0.1c0.2,0.5,0.4,0.9,0.5,1.4c0,0.1,0.1,0.2,0.1,0.3
				c0.1,0.1,0.1,0.3,0.3,0.1C20.6,16.4,20.7,16.3,20.7,16.5L20.7,16.5z M21.6,16.1c-0.1,0.1-0.3,0.1-0.4,0.3c0,0.1-0.1,0-0.1,0
				c-0.1-0.3-0.2-0.5-0.2-0.7c0-0.1,0-0.1,0-0.2c0.1,0,0.1,0,0.1,0.1l0.1,0.1c0.2,0.2,0.4,0.2,0.6,0c0.2,0,0.3-0.2,0.3-0.5
				C21.9,15,21.7,15,21.4,15h-0.5c-0.2,0-0.4-0.1-0.4-0.3c-0.3-0.5,0-1.1,0.5-1.3c0.1,0,0.2,0,0.3-0.2c0.1-0.2,0.2-0.1,0.2,0
				c0.1,0.2,0.1,0.3,0.2,0.5c0,0.1,0,0.1,0,0.2c-0.1,0.1-0.1,0-0.2-0.1c-0.3-0.3-0.6-0.3-0.8,0s0,0.6,0.3,0.6h0.5
				c0.6-0.1,0.9,0.3,0.8,0.8C22.2,15.6,22,16,21.6,16.1z M14.5,19.1c0.2-0.1,0.3-0.2,0.5-0.2c0.2-0.1,0.1-0.3,0-0.4
				c-0.2-0.2-0.4-0.2-0.6,0c-0.1,0.2-0.2,0.4-0.2,0.6c0.1,0,0,0.2,0.1,0.2C14.4,19.3,14.5,19.2,14.5,19.1z M15,18.5
				c-0.2-0.2-0.4-0.2-0.6,0c-0.1,0.2-0.2,0.4-0.2,0.6c0.1,0,0,0.2,0.1,0.2c0.1,0,0.2-0.1,0.2-0.2c0.2-0.1,0.3-0.2,0.5-0.2
				C15.2,18.8,15.1,18.6,15,18.5z M16.4,17.1C16.4,17.1,16.4,17.1,16.4,17.1L16.4,17.1C16.4,17.1,16.4,17.1,16.4,17.1z M15,18.5
				c-0.2-0.2-0.4-0.2-0.6,0c-0.1,0.2-0.2,0.4-0.2,0.6c0.1,0,0,0.2,0.1,0.2c0.1,0,0.2-0.1,0.2-0.2c0.2-0.1,0.3-0.2,0.5-0.2
				C15.2,18.8,15.1,18.6,15,18.5z"/>
			<path class="st1" d="M5.8,23.6c0.2-0.5,0.3-1,0.5-1.6c0.4-1.1,0.7-2.2,1.1-3.3c0.1-0.2,0-0.3-0.1-0.4c-1.3-1-2.7-1.9-4-2.9
				c-0.1,0-0.1-0.1-0.2-0.2c0.1-0.1,0.2,0,0.3,0c1.6,0,3.2,0,4.9,0c0.3,0,0.3,0,0.2,0.3c-0.1,0.3-0.2,0.3-0.5,0.3
				c-0.9,0-1.7,0-2.6,0c-0.1,0-0.2,0-0.3,0c0.4,0.3,0.8,0.6,1.2,0.9c0.6,0.4,1.2,0.9,1.8,1.3c0.1,0.1,0.2,0.2,0.1,0.4
				c-0.5,1.4-1,2.9-1.4,4.3c-0.1,0.2-0.2,0.4-0.4,0.5C6.2,23.4,6,23.5,5.8,23.6C5.9,23.6,5.8,23.6,5.8,23.6z"/>
			<path class="st1" d="M10.3,10c0.3,0.8,0.5,1.6,0.8,2.3c0.2,0.9,0.5,1.7,0.8,2.6c0,0.2,0.1,0.4-0.1,0.5c-0.1,0.1-0.2,0.3-0.3,0.3
				s-0.1-0.2-0.2-0.4c-0.4-1.3-0.9-2.7-1.3-4.1c0-0.1-0.1-0.2,0-0.4C10.1,10.5,10.1,10.3,10.3,10C10.2,10,10.3,10,10.3,10z"/>
			<g>
				<g>
					<g>
						<path class="st1" d="M16.4,17.1C16.3,17.2,16.3,17.1,16.4,17.1C16.3,17.1,16.4,17.1,16.4,17.1z"/>
					</g>
					<g>
						<path class="st1" d="M20.1,16.9L20.1,16.9C20,16.9,20,16.9,20.1,16.9C20.1,16.8,20.1,16.9,20.1,16.9z"/>
					</g>
				</g>
			</g>
			<path class="st1" d="M20.1,16.9L20.1,16.9C20,16.9,20,16.9,20.1,16.9C20,16.9,20,16.9,20.1,16.9C20.1,16.8,20.1,16.9,20.1,16.9z"
				/>
			<path class="st1" d="M16.4,17.1C16.4,17.1,16.4,17.1,16.4,17.1C16.3,17.2,16.3,17.1,16.4,17.1c-0.1,0-0.1-0.1-0.1-0.1
				C16.4,17.1,16.4,17.1,16.4,17.1z"/>
		</g>
	</g>
</g>
</svg>
