<?xml version="1.0" encoding="utf-8"?>
<!-- Generator: Adobe Illustrator 21.0.0, SVG Export Plug-In . SVG Version: 6.00 Build 0)  -->
<svg version="1.1" id="图层_1" xmlns="http://www.w3.org/2000/svg" xmlns:xlink="http://www.w3.org/1999/xlink" x="0px" y="0px"
	 width="40px" height="40px" viewBox="0 0 40 40" style="enable-background:new 0 0 40 40;" xml:space="preserve">
<style type="text/css">
	.st0{fill:#606060;}
	.st1{opacity:0.55;fill:#606060;enable-background:new    ;}
</style>
<g>
	<path class="st0" d="M13.4,28.8H14h0.6v6.1H14h-0.6V28.8z"/>
	<path class="st0" d="M15.8,28.8h0.6h2c0.8,0,1.5,0.2,1.9,0.7c0.5,0.5,0.7,1.2,0.7,2.2s-0.2,1.8-0.7,2.4c-0.4,0.5-1.1,0.8-2,0.8
		h-1.8h-0.7V28.8z M17.1,33.8h1.1c0.5,0,0.9-0.2,1.2-0.5c0.3-0.3,0.4-0.9,0.4-1.6c0-0.6-0.1-1.1-0.4-1.4c-0.2-0.3-0.6-0.5-1.1-0.5
		h-1.2V33.8z"/>
	<path class="st0" d="M25.2,30.6c0-0.3-0.1-0.5-0.4-0.7c-0.2-0.2-0.5-0.3-0.9-0.3c-0.3,0-0.6,0.1-0.8,0.2s-0.3,0.3-0.3,0.6
		c0,0.2,0.1,0.3,0.3,0.4s0.6,0.2,1.2,0.4c0.9,0.2,1.5,0.4,1.8,0.7c0.3,0.3,0.4,0.7,0.4,1.2c0,0.6-0.2,1-0.7,1.4
		C25.4,34.8,24.7,35,24,35c-0.8,0-1.4-0.2-1.8-0.5c-0.4-0.4-0.7-0.9-0.7-1.5h1.2c0,0.3,0.1,0.6,0.4,0.7c0.2,0.2,0.5,0.3,0.9,0.3
		c0.4,0,0.7-0.1,0.9-0.2c0.2-0.1,0.3-0.3,0.3-0.5c0-0.2-0.1-0.4-0.2-0.5c-0.2-0.1-0.5-0.2-1-0.3c-1-0.2-1.6-0.4-1.9-0.7
		c-0.3-0.2-0.5-0.6-0.5-1.2s0.2-1.1,0.6-1.4c0.4-0.3,1-0.5,1.7-0.5s1.2,0.2,1.7,0.5c0.4,0.4,0.7,0.8,0.7,1.4H25.2z"/>
</g>
<path class="st1" d="M35.7,11.2c-1-0.4-2-0.4-3.1-0.3c-1.8,0.2-3.6,0.7-5.3,1.5c0.1,0.4,0.3,0.7,0.4,1.1c0.2,0.9,0.3,1.9,0.3,2.9
	c0,0.1,0,0.3,0,0.5c-0.1,0.3-0.1,0.6-0.2,0.9c-0.3,1.2-0.7,2.3-1.4,3.2l0,0c-0.2,0.2-0.3,0.4-0.5,0.6c-0.1,0.1-0.3,0.3-0.4,0.4
	l-0.1,0.1c-0.1,0.1-0.3,0.2-0.4,0.4l0,0l0,0c-0.8,0.7-1.7,1.3-2.7,1.7c-0.1,0-0.2,0.1-0.3,0.1s-0.1,0-0.2,0c-0.1,0-0.2,0-0.2,0.1
	c0.1,0,0.1,0,0.2,0l0,0c0.1,0,0.1,0,0.2-0.1l0,0c0.1,0,0.3,0,0.4-0.1l0,0c0.3,0,0.5-0.1,0.7-0.2c2.4-0.8,4.7-1.8,6.8-3.2
	c2.1-1.4,4.1-3,5.6-5c0.6-0.8,1.1-1.6,1.3-2.6C37,12.4,36.6,11.6,35.7,11.2z"/>
<path class="st0" d="M28,16.3c0,0.2,0,0.4,0,0.6c-0.1,0.3-0.1,0.6-0.2,0.9c-0.3,1.2-0.7,2.3-1.4,3.2c-0.2,0.2-0.3,0.4-0.4,0.6
	c-0.1,0.1-0.3,0.3-0.4,0.4l-0.1,0.1c-0.1,0.1-0.3,0.3-0.4,0.4c-0.8,0.7-1.7,1.3-2.7,1.7c-0.1,0-0.2,0.1-0.3,0.1s-0.1,0-0.2,0
	c-0.1,0-0.2,0-0.2,0.1c-0.5,0.1-1.1,0.3-1.6,0.3c-2.1,0.2-4-0.2-5.8-1.3c-2.4-1.3-3.8-3.4-4.2-6.2c-0.4-2.2,0.1-4.3,1.3-6.2
	c0.1-0.1,0.2-0.2,0.4-0.2c1.5,0,3,0,4.5,0c0.3,0,0.5-0.1,0.8-0.3c0.1-0.1,0.3-0.2,0.4-0.4c0,0,0,0,0-0.1h-5.4c0-0.1,0.1-0.2,0.1-0.3
	c1.9-2.1,4.3-3.2,7.2-3.1c2.5,0.1,4.5,1.1,6.2,2.9c0.7,0.7,1.2,1.5,1.6,2.4c0,0.1,0.1,0.1,0.1,0.2c0.1,0.4,0.3,0.8,0.4,1.1
	C27.9,14.4,28.1,15.4,28,16.3z"/>
<path class="st0" d="M5.8,18.5C6,18,6.2,17.5,6.3,17c0.4-1.2,0.7-2.3,1.1-3.4c0.1-0.2,0-0.3-0.1-0.4c-1.3-1-2.7-1.9-4-2.9
	c-0.1,0-0.1-0.1-0.2-0.2c0.1-0.1,0.2,0,0.3,0c1.6,0,3.2,0,4.9,0c0.3,0,0.3,0,0.2,0.3c-0.1,0.3-0.2,0.3-0.5,0.3c-0.9,0-1.7,0-2.6,0
	c-0.1,0-0.2,0-0.3,0c0.4,0.3,0.8,0.6,1.2,0.9c0.6,0.5,1.1,1,1.8,1.4c0.1,0.1,0.2,0.2,0.1,0.4c-0.5,1.4-1,2.9-1.4,4.3
	c-0.1,0.2-0.2,0.4-0.4,0.5C6.2,18.3,6,18.4,5.8,18.5C5.9,18.5,5.8,18.5,5.8,18.5z"/>
<path class="st0" d="M10.3,5c0.3,0.8,0.5,1.6,0.8,2.3c0.2,0.8,0.5,1.7,0.8,2.5c0,0.2,0.1,0.4-0.1,0.5c-0.1,0.1-0.2,0.3-0.3,0.3
	s-0.1-0.2-0.2-0.4c-0.4-1.3-0.9-2.7-1.3-4.1c0-0.1-0.1-0.2,0-0.4C10.1,5.5,10.1,5.2,10.3,5C10.2,5,10.3,5,10.3,5z"/>
<g>
	<g>
		<g>
			<path class="st0" d="M13.4,16.7c-0.3-0.9-0.6-1.8-0.9-2.7c-0.1-0.2,0-0.3,0.1-0.4c0.4-0.3,0.4-0.3,0.6,0.2c0.5,1.5,0.9,3,1.4,4.5
				c0,0.1,0.1,0.2,0,0.3c-0.1,0-0.2,0-0.2-0.1c-1.4-1-2.8-2-4.1-3c-0.2-0.1-0.2-0.2,0-0.3c0.5-0.3,0.5-0.3,1,0
				c0.6,0.5,1.2,0.9,1.9,1.4C13.2,16.7,13.3,16.7,13.4,16.7C13.3,16.8,13.4,16.7,13.4,16.7z"/>
		</g>
		<g>
			<path class="st0" d="M16.4,12.1c0.1-0.2,0.1-0.4,0.3-0.6c0.3-0.4,0.7-0.4,0.9,0.1c0.2,0.4,0.3,0.8,0.5,1.2
				c0.1,0.2,0.1,0.5,0.4,0.3c0.1,0,0.1,0.1,0,0.1c-0.2,0.3-0.5,0.5-0.8,0.7h-0.1v-0.1c0.2-0.2,0.2-0.4,0.1-0.6
				c-0.1-0.4-0.3-0.8-0.4-1.2c-0.1-0.1-0.1-0.3-0.3-0.3s-0.2,0.1-0.3,0.3c-0.2,0.2-0.3,0.4-0.1,0.7c0.1,0.4,0.2,0.7,0.4,1.1
				c0,0.2,0.1,0.3,0.3,0.2h0.1v0.1c-0.3,0.2-0.5,0.4-0.8,0.6h-0.1v-0.1c0.2-0.1,0.2-0.3,0.1-0.5c-0.2-0.4-0.4-0.9-0.5-1.4
				c-0.1-0.1-0.2-0.2-0.3-0.1c0,0-0.1,0.1-0.1,0v-0.1c0.1-0.2,0.3-0.5,0.4-0.6c0.2-0.2,0.2,0.1,0.2,0.1
				C16.4,12.1,16.4,12.1,16.4,12.1z"/>
		</g>
		<g>
			<path class="st0" d="M20,11.8c-0.1,0.3-0.2,0.5-0.3,0.7c-0.3,0.3-0.7,0.3-0.9-0.1c-0.2-0.4-0.3-0.9-0.5-1.3
				c-0.1-0.2-0.1-0.5-0.4-0.3h-0.1v-0.1c0.2-0.2,0.4-0.3,0.6-0.4c0.1-0.1,0.1,0.1,0.2,0.1c0.2,0.5,0.3,0.9,0.5,1.4
				c0.1,0.2,0.1,0.4,0.3,0.4c0.3,0,0.3-0.2,0.4-0.4c0.1-0.2,0.1-0.4,0-0.6c-0.1-0.4-0.2-0.7-0.4-1.1c0-0.2-0.1-0.3-0.3-0.2H19V9.8
				c0.2-0.1,0.3-0.3,0.5-0.4c0.1-0.1,0.2,0,0.2,0.1c0.2,0.5,0.4,1,0.5,1.4c0,0.1,0.1,0.2,0.1,0.3c0.1,0.1,0.1,0.3,0.3,0.1
				c0,0,0.1-0.1,0.1,0v0.1c-0.1,0.2-0.2,0.5-0.4,0.6c-0.2,0.2-0.1-0.1-0.2-0.1S20,11.8,20,11.8z"/>
		</g>
		<g>
			<g>
				<path class="st0" d="M16,14.3c0-0.1,0-0.2-0.1-0.2c-0.1,0-0.1,0.1-0.1,0.2c0,0.1,0,0.1,0,0.2c-0.1,0.3-0.3,0.6-0.6,0.6
					c-0.3,0.1-0.5-0.1-0.7-0.4c-0.1-0.2-0.1-0.3,0.1-0.4c0.3-0.2,0.7-0.5,1-0.7c0.1-0.1,0.1-0.1,0.1-0.2c-0.1-0.5-0.6-0.7-0.9-0.5
					c-0.2,0.1-0.4,0.2-0.5,0.4c-0.5,0.6-0.4,1.7,0.1,2.2c0.3,0.3,0.8,0.3,1.1,0C15.9,15.3,16,14.9,16,14.3L16,14.3z M14.3,14.2
					c-0.1,0,0-0.2-0.1-0.2c0-0.2,0.1-0.4,0.2-0.6c0.2-0.2,0.4-0.2,0.6,0c0.1,0.1,0.2,0.3,0,0.4c-0.2,0-0.3,0.2-0.5,0.3
					C14.5,14.1,14.4,14.2,14.3,14.2z"/>
			</g>
		</g>
		<g>
			<path class="st0" d="M21.4,9.9c-0.2,0-0.4,0.1-0.6,0c-0.2,0-0.3-0.1-0.4-0.3c-0.2-0.5,0.1-1.1,0.6-1.3c0.1,0,0.2,0,0.3-0.2
				c0.1-0.2,0.2-0.1,0.2,0c0.1,0.2,0.1,0.3,0.2,0.5c0,0.1,0,0.1,0,0.2c-0.1,0.1-0.1,0-0.2-0.1c-0.3-0.3-0.6-0.3-0.8,0
				c-0.2,0.4,0,0.7,0.3,0.6c0.2,0,0.3,0,0.5,0c0.6-0.1,0.9,0.3,0.8,0.8c-0.1,0.5-0.3,0.8-0.7,1c-0.1,0-0.3,0.1-0.4,0.2
				c0,0.1-0.1,0-0.1,0c-0.1-0.2-0.2-0.4-0.2-0.7c0-0.1,0-0.1,0-0.2c0.1,0,0.1,0,0.1,0.1l0.1,0.1c0.2,0.2,0.4,0.2,0.6,0
				c0.2,0,0.3-0.2,0.3-0.4C21.9,9.9,21.7,9.9,21.4,9.9z"/>
		</g>
	</g>
</g>
<path class="st0" d="M20,11.8C20,11.8,20,11.7,20,11.8c0.1-0.1,0.1,0,0.1,0C20,11.9,20,11.8,20,11.8z"/>
<path class="st0" d="M16.4,12.1C16.4,12.1,16.4,12.2,16.4,12.1c-0.1,0.1-0.1,0-0.1-0.1C16.4,12,16.4,12.1,16.4,12.1z"/>
</svg>
