<?xml version="1.0" encoding="utf-8"?>
<!-- Generator: Adobe Illustrator 21.0.0, SVG Export Plug-In . SVG Version: 6.00 Build 0)  -->
<svg version="1.1" id="图层_1" xmlns="http://www.w3.org/2000/svg" xmlns:xlink="http://www.w3.org/1999/xlink" x="0px" y="0px"
	 width="40px" height="40px" viewBox="0 0 40 40" style="enable-background:new 0 0 40 40;" xml:space="preserve">
<style type="text/css">
	.st0{fill:#606060;}
	.st1{opacity:0.55;fill:#606060;enable-background:new    ;}
</style>
<g>
	<path class="st0" d="M12.9,29h0.7h0.7l2.2,6h-0.7h-0.6l-0.4-1.2h-2.3L12.1,35h-0.7h-0.7L12.9,29z M12.8,32.8h1.6l-0.8-2.4l0,0
		L12.8,32.8z"/>
	<path class="st0" d="M17.3,29H18h2c0.8,0,1.5,0.2,1.9,0.7s0.6,1.2,0.6,2.1c0,1-0.2,1.8-0.7,2.4c-0.4,0.5-1.1,0.8-2,0.8H18h-0.7V29z
		 M18.6,34h1.1c0.5,0,0.9-0.2,1.2-0.5s0.4-0.9,0.4-1.6c0-0.6-0.1-1.1-0.4-1.4S20.2,30,19.8,30h-1.2V34z"/>
	<path class="st0" d="M24.5,35H24h-0.6v-6h0.9h0.9l1.1,4.8l0,0l1.1-4.8h0.9h0.9v6h-0.6H28v-5.1l0,0L26.9,35h-0.6h-0.6l-1.1-5.2l0,0
		L24.5,35L24.5,35z"/>
</g>
<path class="st1" d="M35.7,11.2c-1-0.4-2-0.4-3.1-0.3c-1.8,0.2-3.6,0.7-5.3,1.5c0.1,0.4,0.3,0.7,0.4,1.1c0.2,0.9,0.3,1.9,0.3,2.9
	c0,0.1,0,0.3,0,0.5c-0.1,0.3-0.1,0.6-0.2,0.9c-0.3,1.2-0.7,2.3-1.4,3.2l0,0c-0.2,0.2-0.3,0.4-0.5,0.6c-0.1,0.1-0.3,0.3-0.4,0.4
	l-0.1,0.1c-0.1,0.1-0.3,0.2-0.4,0.4l0,0l0,0c-0.8,0.7-1.7,1.3-2.7,1.7c-0.1,0-0.2,0.1-0.3,0.1s-0.1,0-0.2,0c-0.1,0-0.2,0-0.2,0.1
	c0.1,0,0.1,0,0.2,0l0,0c0.1,0,0.1,0,0.2-0.1l0,0c0.1,0,0.3,0,0.4-0.1l0,0c0.3,0,0.5-0.1,0.7-0.2c2.4-0.8,4.7-1.8,6.8-3.2
	c2.1-1.4,4.1-3,5.6-5c0.6-0.8,1.1-1.6,1.3-2.6C37,12.4,36.6,11.6,35.7,11.2z"/>
<path class="st0" d="M5.8,18.5C6,18,6.2,17.5,6.3,17c0.4-1.2,0.7-2.3,1.1-3.4c0.1-0.2,0-0.3-0.1-0.4c-1.3-1-2.7-1.9-4-2.9
	c-0.1,0-0.1-0.1-0.2-0.2c0.1-0.1,0.2,0,0.3,0c1.6,0,3.2,0,4.9,0c0.3,0,0.3,0,0.2,0.3c-0.1,0.3-0.2,0.3-0.5,0.3c-0.9,0-1.7,0-2.6,0
	c-0.1,0-0.2,0-0.3,0c0.4,0.3,0.8,0.6,1.2,0.9c0.6,0.5,1.1,1,1.8,1.4c0.2,0.1,0.2,0.2,0.1,0.4c-0.5,1.4-1,2.9-1.4,4.3
	c-0.1,0.2-0.2,0.4-0.4,0.5C6.2,18.3,6,18.4,5.8,18.5C5.9,18.5,5.8,18.5,5.8,18.5z"/>
<path class="st0" d="M10.3,5c0.3,0.8,0.5,1.6,0.8,2.3c0.2,0.8,0.5,1.7,0.8,2.5c0,0.2,0.1,0.4-0.1,0.5c-0.1,0.1-0.2,0.3-0.3,0.3
	s-0.1-0.2-0.2-0.4c-0.4-1.3-0.9-2.7-1.3-4.1c0-0.1-0.1-0.2,0-0.4C10.1,5.5,10.1,5.2,10.3,5C10.2,5,10.3,5,10.3,5z"/>
<g>
	<path class="st0" d="M27.7,13.2c-0.1-0.3-0.3-0.7-0.4-1.1c0-0.1-0.1-0.1-0.1-0.2c-0.4-0.9-0.9-1.7-1.6-2.4
		c-1.7-1.8-3.7-2.8-6.2-2.9c-2.9-0.1-5.3,1-7.2,3.1c0,0.1-0.1,0.2-0.1,0.3h5.4c0,0.1,0,0.1,0,0.1c-0.1,0.2-0.3,0.3-0.4,0.4
		c-0.3,0.2-0.5,0.3-0.8,0.3c-1.5,0-3,0-4.5,0c-0.2,0-0.3,0.1-0.4,0.2c-1.2,1.9-1.7,4-1.3,6.2c0.4,2.8,1.8,4.9,4.2,6.2
		c1.8,1.1,3.7,1.5,5.8,1.3c0.5,0,1.1-0.2,1.6-0.3c0-0.1,0.1-0.1,0.2-0.1c0.1,0,0.1,0,0.2,0c0.1,0,0.2-0.1,0.3-0.1
		c1-0.4,1.9-1,2.7-1.7c0.1-0.1,0.3-0.3,0.4-0.4l0.1-0.1c0.1-0.1,0.3-0.3,0.4-0.4c0.1-0.2,0.2-0.4,0.4-0.6c0.7-0.9,1.1-2,1.4-3.2
		c0.1-0.3,0.1-0.6,0.2-0.9c0-0.2,0-0.4,0-0.6C28.1,15.4,27.9,14.4,27.7,13.2z M14.6,18.6c-0.1,0-0.2,0-0.2-0.1c-1.4-1-2.8-2-4.1-3
		c-0.2-0.1-0.2-0.2,0-0.3c0.5-0.3,0.5-0.3,1,0c0.6,0.5,1.2,0.9,1.9,1.4c0,0.1,0.1,0.1,0.2,0.1c-0.3-0.9-0.6-1.8-0.9-2.7
		c-0.1-0.2,0-0.3,0.1-0.4c0.4-0.3,0.4-0.3,0.6,0.2c0.5,1.5,0.9,3,1.4,4.5C14.6,18.4,14.7,18.5,14.6,18.6z M16,14.4
		c0,0.5-0.1,0.9-0.5,1.1c-0.3,0.3-0.8,0.3-1.1,0c-0.5-0.5-0.6-1.6-0.1-2.2c0.1-0.2,0.3-0.3,0.5-0.4c0.3-0.2,0.8,0,0.9,0.5
		c0,0.1,0,0.1-0.1,0.2c-0.3,0.2-0.7,0.5-1,0.7c-0.2,0.1-0.2,0.2-0.1,0.4c0.2,0.3,0.4,0.5,0.7,0.4c0.3,0,0.5-0.3,0.6-0.6
		c0-0.1,0-0.1,0-0.2c0-0.1,0-0.2,0.1-0.2c0.1,0,0.1,0.1,0.1,0.2V14.4z M18.5,13.2c-0.2,0.3-0.5,0.5-0.8,0.7h-0.1v-0.1
		c0.2-0.2,0.2-0.4,0.1-0.6c-0.1-0.4-0.3-0.8-0.4-1.2c-0.1-0.1-0.1-0.3-0.3-0.3s-0.2,0.2-0.3,0.3c-0.2,0.2-0.3,0.4-0.1,0.7
		c0.1,0.4,0.2,0.7,0.4,1.1c0,0.2,0.1,0.3,0.3,0.2h0.1v0.1c-0.3,0.2-0.5,0.4-0.8,0.6h-0.1v-0.1c0.2-0.1,0.2-0.3,0.1-0.5
		c-0.2-0.4-0.4-0.9-0.5-1.4c-0.1-0.1-0.2-0.2-0.3-0.1c0,0-0.1,0.1-0.1,0v-0.1c0.1-0.2,0.3-0.5,0.4-0.6c0.2-0.2,0.2,0.1,0.2,0.1
		c0.1,0.1,0.1,0.1,0.1,0.1c0.1-0.2,0.1-0.4,0.3-0.6c0.3-0.4,0.7-0.4,0.9,0.1c0.2,0.4,0.3,0.8,0.5,1.2c0.1,0.2,0.1,0.5,0.4,0.3
		C18.6,13.1,18.6,13.2,18.5,13.2z M20.7,11.4c-0.1,0.2-0.2,0.5-0.4,0.6c-0.2,0.2-0.1-0.1-0.2-0.1c-0.1,0-0.1-0.1-0.1-0.1
		c-0.1,0.3-0.2,0.5-0.3,0.7c-0.3,0.3-0.7,0.3-0.9-0.1c-0.2-0.4-0.3-0.9-0.5-1.3c-0.1-0.2-0.1-0.5-0.4-0.3h-0.1v-0.1
		c0.2-0.2,0.4-0.3,0.6-0.4c0.1-0.1,0.1,0.1,0.2,0.1c0.2,0.5,0.3,0.9,0.5,1.4c0.1,0.2,0.1,0.4,0.3,0.4c0.3,0,0.3-0.2,0.4-0.4
		c0.1-0.2,0.1-0.4,0-0.6c-0.1-0.4-0.2-0.7-0.4-1.1c0-0.2-0.1-0.3-0.3-0.2H19V9.8c0.2-0.1,0.3-0.3,0.5-0.4c0.1-0.1,0.2,0,0.2,0.1
		c0.2,0.5,0.4,1,0.5,1.4c0,0.1,0.1,0.2,0.1,0.3c0.1,0.1,0.1,0.3,0.3,0.1c0,0,0.1-0.1,0.1,0V11.4z M22.3,10.1c-0.1,0.5-0.3,0.8-0.7,1
		c-0.1,0-0.3,0.1-0.4,0.2c0,0.1-0.1,0-0.1,0c-0.1-0.2-0.2-0.4-0.2-0.7c0-0.1,0-0.1,0-0.2c0.1,0,0.1,0,0.1,0.1l0.1,0.1
		c0.2,0.2,0.4,0.2,0.6,0c0.2,0,0.3-0.2,0.3-0.4c-0.1-0.3-0.3-0.3-0.6-0.3c-0.2,0-0.4,0.1-0.6,0c-0.2,0-0.3-0.1-0.4-0.3
		c-0.2-0.5,0.1-1.1,0.6-1.3c0.1,0,0.2,0,0.3-0.2c0.1-0.2,0.2-0.1,0.2,0c0.1,0.2,0.1,0.3,0.2,0.5c0,0.1,0,0.1,0,0.2
		c-0.1,0.1-0.1,0-0.2-0.1c-0.3-0.3-0.6-0.3-0.8,0c-0.2,0.4,0,0.7,0.3,0.6c0.2,0,0.3,0,0.5,0C22.1,9.2,22.4,9.6,22.3,10.1z"/>
	<path class="st0" d="M15,13.8c0.2-0.1,0.1-0.3,0-0.4c-0.2-0.2-0.4-0.2-0.6,0c-0.1,0.2-0.2,0.4-0.2,0.6c0.1,0,0,0.2,0.1,0.2
		c0.1,0,0.2-0.1,0.2-0.1C14.7,14,14.8,13.8,15,13.8z"/>
</g>
<path class="st0" d="M20,11.8C20,11.8,20,11.7,20,11.8c0.1-0.1,0.1,0,0.1,0C20,11.9,20,11.8,20,11.8z"/>
<path class="st0" d="M16.4,12.1C16.4,12.1,16.4,12.2,16.4,12.1c-0.1,0.1-0.1,0-0.1-0.1C16.4,12,16.4,12.1,16.4,12.1z"/>
</svg>
