<?xml version="1.0" encoding="utf-8"?>
<!-- Generator: Adobe Illustrator 21.0.0, SVG Export Plug-In . SVG Version: 6.00 Build 0)  -->
<svg version="1.1" id="图层_1" xmlns="http://www.w3.org/2000/svg" xmlns:xlink="http://www.w3.org/1999/xlink" x="0px" y="0px"
	 width="40px" height="40px" viewBox="0 0 40 40" style="enable-background:new 0 0 40 40;" xml:space="preserve">
<style type="text/css">
	.st0{fill:#606060;}
</style>
<g>
	<g>
		<path class="st0" d="M13.7,18.1h0.9h0.9v4.1l0.1-0.1c0.5-0.8,1.2-1.2,2-1.2c0.8,0,1.5,0.3,2,1.1s0.8,1.9,0.8,3.2
			c0,1.4-0.3,2.4-0.8,3.2s-1.2,1.2-2.1,1.2c-0.9,0-1.5-0.4-2-1.2l-0.1-0.1v1.1h-1.7V18.1z M17,27.9c0.5,0,0.9-0.2,1.2-0.7
			c0.3-0.4,0.4-1.1,0.4-1.9s-0.1-1.5-0.4-1.9c-0.3-0.4-0.7-0.7-1.2-0.7s-0.9,0.2-1.2,0.7c-0.3,0.4-0.4,1.1-0.4,1.9s0.1,1.5,0.4,1.9
			C16.1,27.7,16.5,27.9,17,27.9z"/>
		<path class="st0" d="M24.7,29.7c-1.2,0-2.1-0.4-2.7-1.2c-0.6-0.8-0.9-1.9-0.9-3.5c0-1.3,0.3-2.3,0.9-3.1c0.6-0.8,1.4-1.2,2.4-1.2
			c1.1,0,1.9,0.4,2.4,1.1c0.6,0.8,0.8,1.9,0.8,3.3v0.6H23c0,0.6,0.2,1.1,0.4,1.4c0.2,0.4,0.7,0.6,1.2,0.6c0.3,0,0.5-0.1,0.7-0.2
			c0.2-0.2,0.3-0.4,0.4-0.7h1.9c-0.2,0.8-0.5,1.5-1.1,2C26,29.5,25.4,29.7,24.7,29.7z M25.8,24.5c0-0.5-0.2-1-0.3-1.3
			c-0.2-0.4-0.6-0.6-1.1-0.6s-0.8,0.2-1.1,0.7C23.1,23.6,23,24,23,24.5H25.8z"/>
		<path class="st0" d="M30.5,29.7c-0.6,0-1.2-0.2-1.5-0.7c-0.4-0.4-0.6-1-0.6-1.8c0-0.7,0.2-1.4,0.5-1.8c0.3-0.5,0.9-0.7,1.5-0.9
			l1.4-0.3c0.3-0.1,0.5-0.1,0.7-0.3c0,0,0.1-0.1,0.1-0.2c0-0.1,0-0.2,0-0.2l0,0c0-0.3-0.1-0.6-0.3-0.7c-0.2-0.2-0.5-0.2-0.9-0.2
			c-0.3,0-0.6,0.1-0.8,0.3c-0.2,0.2-0.3,0.5-0.3,0.9h-1.7c0.1-1.1,0.4-1.8,0.9-2.3c0.5-0.4,1.2-0.7,2.2-0.7c0.9,0,1.6,0.2,2.1,0.7
			c0.5,0.4,0.7,1,0.7,1.8v4.5c0,0.5,0,0.8,0.1,1c0.1,0.2,0.2,0.3,0.3,0.4l0,0v0.3h-1h-1l0,0c-0.1-0.3-0.1-0.6-0.2-1l0,0
			C32.2,29.3,31.5,29.7,30.5,29.7z M32.8,26.4v-0.9c-0.1,0.1-0.3,0.2-0.5,0.2l-0.7,0.2c-0.5,0.1-0.8,0.3-1,0.4
			c-0.2,0.2-0.3,0.4-0.3,0.8c0,0.3,0.1,0.6,0.2,0.8c0.1,0.2,0.3,0.3,0.6,0.3c0.6,0,1.1-0.3,1.4-0.9l0,0c0-0.1,0.1-0.2,0.1-0.4
			C32.7,26.7,32.8,26.5,32.8,26.4z"/>
	</g>
	<g>
		<ellipse transform="matrix(0.5969 -0.8023 0.8023 0.5969 -4.8146 29.623)" class="st0" cx="27.1" cy="19.6" rx="0.6" ry="0.4"/>
		<ellipse transform="matrix(0.5971 -0.8022 0.8022 0.5971 -3.2718 29.8127)" class="st0" cx="28" cy="18.2" rx="0.7" ry="0.4"/>
		<ellipse transform="matrix(0.5966 -0.8025 0.8025 0.5966 -1.7343 29.6532)" class="st0" cx="28.6" cy="16.6" rx="0.9" ry="0.6"/>
		<ellipse transform="matrix(0.5968 -0.8024 0.8024 0.5968 -0.1722 28.8403)" class="st0" cx="28.6" cy="14.6" rx="1.1" ry="0.7"/>
		<ellipse transform="matrix(0.5967 -0.8024 0.8024 0.5967 0.7854 27.3689)" class="st0" cx="27.6" cy="12.9" rx="1.4" ry="0.9"/>
		<ellipse transform="matrix(0.5972 -0.8021 0.8021 0.5972 0.7562 25.2801)" class="st0" cx="25.5" cy="11.9" rx="1.7" ry="1.1"/>
		<ellipse transform="matrix(0.5967 -0.8025 0.8025 0.5967 -0.5622 22.6098)" class="st0" cx="22.2" cy="11.9" rx="1.8" ry="1.2"/>
		<ellipse transform="matrix(0.7067 -0.7075 0.7075 0.7067 -3.617 16.9174)" class="st0" cx="18.6" cy="12.8" rx="1.9" ry="1.2"/>
		<ellipse transform="matrix(0.7067 -0.7075 0.7075 0.7067 -6.1282 14.6269)" class="st0" cx="14.6" cy="14.7" rx="1.9" ry="1.2"/>
		<ellipse transform="matrix(0.7068 -0.7074 0.7074 0.7068 -8.9552 12.8371)" class="st0" cx="11" cy="17.2" rx="1.9" ry="1.2"/>
		<ellipse transform="matrix(0.7068 -0.7074 0.7074 0.7068 -12.1871 11.6097)" class="st0" cx="7.9" cy="20.5" rx="1.7" ry="1.1"/>
		<ellipse transform="matrix(0.7068 -0.7075 0.7075 0.7068 -15.0163 11.6808)" class="st0" cx="6.6" cy="24" rx="1.7" ry="1.1"/>
		<ellipse transform="matrix(0.7071 -0.7071 0.7071 0.7071 -16.7879 13.0129)" class="st0" cx="7.3" cy="26.8" rx="2" ry="1.1"/>
		<ellipse transform="matrix(0.7066 -0.7076 0.7076 0.7066 -16.8755 15.3404)" class="st0" cx="10.1" cy="28" rx="2.2" ry="1.1"/>
	</g>
</g>
</svg>
