<?xml version="1.0" encoding="utf-8"?>
<!-- Generator: Adobe Illustrator 21.0.0, SVG Export Plug-In . SVG Version: 6.00 Build 0)  -->
<svg version="1.1" id="图层_1" xmlns="http://www.w3.org/2000/svg" xmlns:xlink="http://www.w3.org/1999/xlink" x="0px" y="0px"
	 width="40px" height="40px" viewBox="0 0 40 40" style="enable-background:new 0 0 40 40;" xml:space="preserve">
<style type="text/css">
	.st0{fill:#606060;}
</style>
<path class="st0" d="M10.6,19.3l-1.9-8.1h0.7h0.7l1.1,5.9l0,0l0.9-5.9H13h0.7l1,5.9l0,0l1.1-5.9h0.7h0.7l-1.9,8.1h-0.7H14l-1-6.4
	l0,0l-1,6.4h-0.6H10.6z"/>
<path class="st0" d="M18.6,19.3v-8.1h4.9V12v0.7H20v1.7h3.2v0.7v0.7H20v2.1h3.6v0.7v0.7C23.6,19.3,18.6,19.3,18.6,19.3z"/>
<path class="st0" d="M25.3,11.3H26h2.4c0.7,0,1.2,0.2,1.6,0.5s0.6,0.9,0.6,1.5s-0.2,1.1-0.6,1.5c-0.1,0.1-0.2,0.1-0.2,0.2
	c0.2,0.1,0.3,0.2,0.4,0.3c0.4,0.4,0.6,0.9,0.6,1.6c0,0.8-0.2,1.3-0.6,1.8s-1,0.7-1.7,0.7H26h-0.7V11.3z M26.7,14.4h1.6
	c0.3,0,0.6-0.1,0.8-0.2s0.3-0.4,0.3-0.7s-0.1-0.5-0.3-0.7s-0.5-0.2-0.9-0.2h-1.5V14.4z M26.7,17.9h1.8c0.3,0,0.6-0.1,0.7-0.3
	s0.2-0.4,0.2-0.8s-0.1-0.6-0.3-0.8s-0.5-0.3-0.8-0.3h-1.6C26.7,15.7,26.7,17.9,26.7,17.9z"/>
<path class="st0" d="M8.4,24.5c0-0.3-0.1-0.5-0.3-0.7s-0.4-0.2-0.7-0.2S7,23.7,6.8,23.8c-0.2,0.1-0.2,0.3-0.2,0.5s0.1,0.3,0.2,0.4
	s0.4,0.2,0.8,0.3c0.7,0.2,1.2,0.4,1.5,0.7c0.3,0.3,0.4,0.6,0.4,1.1c0,0.6-0.2,1-0.5,1.4c-0.3,0.3-0.8,0.5-1.4,0.5s-1.1-0.2-1.5-0.5
	c-0.3-0.3-0.5-0.8-0.5-1.5h1c0,0.3,0.1,0.5,0.3,0.7c0.2,0.2,0.4,0.2,0.8,0.2c0.3,0,0.5-0.1,0.7-0.2s0.3-0.3,0.3-0.5
	s-0.1-0.4-0.3-0.5s-0.5-0.2-1-0.4c-0.7,0-1.2-0.2-1.4-0.4c-0.2-0.2-0.4-0.6-0.4-1.1c0-0.6,0.2-1,0.5-1.3s0.8-0.5,1.3-0.5
	c0.6,0,1,0.2,1.4,0.5s0.5,0.8,0.5,1.4H8.4V24.5z"/>
<path class="st0" d="M10.7,22.8h0.5h1.6c0.5,0,0.9,0.2,1.2,0.5s0.4,0.8,0.4,1.4s-0.1,1-0.4,1.4c-0.3,0.3-0.6,0.5-1.1,0.5h-1.1v2.1
	h-0.5h-0.5L10.7,22.8L10.7,22.8z M11.7,25.5h1c0.2,0,0.4-0.1,0.5-0.2s0.2-0.4,0.2-0.6c0-0.3-0.1-0.5-0.2-0.6s-0.3-0.2-0.5-0.2h-0.9
	v1.6H11.7z"/>
<path class="st0" d="M15.5,22.8H16h0.5V25h1.9v-2.2h0.5h0.5v5.8h-0.5h-0.5V26h-1.9v2.6H16h-0.5V22.8z"/>
<path class="st0" d="M20.7,28.6v-5.8h3.5v0.5v0.5h-2.5V25H24v0.5V26h-2.3v1.5h2.6V28v0.5h-3.6V28.6z"/>
<path class="st0" d="M25.6,22.8h0.5h1.8c0.5,0,1,0.1,1.2,0.4s0.4,0.7,0.4,1.2s-0.1,0.9-0.4,1.2c-0.1,0.1-0.2,0.2-0.3,0.2l0.1,0.1
	c0.3,0.2,0.5,0.6,0.5,1.2v0.7c0,0.2,0,0.4,0,0.5s0.1,0.2,0.2,0.2v0.1h-1.1c0-0.1-0.1-0.3-0.1-0.5s0-0.4,0-0.6v-0.3
	c0-0.3,0-0.6-0.2-0.7s-0.3-0.2-0.5-0.2h-1.1v2.3h-0.5h-0.5V22.8z M26.6,25.4h1.1c0.3,0,0.5-0.1,0.6-0.2s0.2-0.3,0.2-0.6
	c0-0.3-0.1-0.5-0.2-0.6s-0.3-0.2-0.5-0.2h-1.2V25.4z"/>
<path class="st0" d="M30.8,28.6v-5.8h3.5v0.5v0.5h-2.5V25h2.3v0.5V26h-2.3v1.5h2.6V28v0.5h-3.6V28.6z"/>
</svg>
