<?xml version="1.0" encoding="utf-8"?>
<!-- Generator: Adobe Illustrator 21.0.0, SVG Export Plug-In . SVG Version: 6.00 Build 0)  -->
<svg version="1.1" id="图层_1" xmlns="http://www.w3.org/2000/svg" xmlns:xlink="http://www.w3.org/1999/xlink" x="0px" y="0px"
	 width="40px" height="40px" viewBox="0 0 40 40" style="enable-background:new 0 0 40 40;" xml:space="preserve">
<style type="text/css">
	.st0{fill:#606060;}
</style>
<g>
	<g>
		<path class="st0" d="M10.9,19.3l-1.9-8h0.7h0.7l1.1,5.9l0,0l0.9-5.9h0.7h0.7l1,5.9l0,0l1.2-5.9h0.7h0.7l-1.8,8h-0.7h-0.7l-1-6.4
			l0,0l-1,6.4h-0.6H10.9z"/>
		<path class="st0" d="M18.8,19.3v-8.1h4.9V12v0.7h-3.5v1.7h3.2v0.7v0.7h-3.2v2.1h3.6v0.7v0.7C23.8,19.3,18.8,19.3,18.8,19.3z"/>
		<path class="st0" d="M25.5,11.3h0.7h2.4c0.7,0,1.2,0.2,1.6,0.5c0.4,0.4,0.6,0.9,0.6,1.5c0,0.6-0.2,1.1-0.6,1.5
			c-0.1,0.1-0.1,0.1-0.2,0.2c0.2,0.1,0.3,0.2,0.4,0.3c0.4,0.3,0.6,0.9,0.6,1.6c0,0.8-0.2,1.3-0.6,1.8c-0.4,0.4-1,0.7-1.7,0.7h-2.5
			h-0.7C25.5,19.4,25.5,11.3,25.5,11.3z M26.9,14.4h1.6c0.3,0,0.6-0.1,0.8-0.2c0.2-0.1,0.3-0.4,0.3-0.7s-0.1-0.5-0.3-0.7
			c-0.2-0.1-0.5-0.2-0.9-0.2h-1.5V14.4z M26.9,17.9h1.8c0.3,0,0.6-0.1,0.7-0.3c0.1-0.2,0.2-0.4,0.2-0.8c0-0.4-0.1-0.6-0.3-0.8
			c-0.2-0.2-0.5-0.3-0.8-0.3h-1.6C26.9,15.7,26.9,17.9,26.9,17.9z"/>
	</g>
	<g>
		<path class="st0" d="M7.3,24.5c0-0.3-0.1-0.5-0.3-0.7c-0.2-0.2-0.4-0.2-0.7-0.2c-0.3,0-0.5,0.1-0.6,0.2c-0.2,0.1-0.2,0.3-0.2,0.5
			c0,0.2,0.1,0.3,0.2,0.4c0.1,0.1,0.4,0.2,0.8,0.3c0.7,0.2,1.2,0.4,1.5,0.7c0.3,0.3,0.4,0.6,0.4,1.1c0,0.6-0.2,1-0.5,1.4
			c-0.3,0.3-0.8,0.5-1.4,0.5S5.4,28.5,5,28.2c-0.3-0.3-0.5-0.8-0.5-1.5h1c0,0.3,0.1,0.5,0.3,0.7c0.2,0.2,0.4,0.2,0.8,0.2
			c0.3,0,0.5-0.1,0.7-0.2c0.2-0.1,0.3-0.3,0.3-0.5c0-0.2-0.1-0.4-0.3-0.5c-0.2-0.1-0.5-0.2-1-0.4c-0.6-0.2-1.1-0.4-1.3-0.6
			s-0.4-0.6-0.4-1.1c0-0.6,0.2-1,0.5-1.3s0.8-0.5,1.3-0.5c0.6,0,1,0.2,1.4,0.5c0.3,0.3,0.5,0.8,0.5,1.4h-1V24.5z"/>
		<path class="st0" d="M9.5,28.6v-5.8H13v0.5v0.5h-2.5V25h2.3v0.5V26h-2.3v1.5h2.6V28v0.5H9.5V28.6z"/>
		<path class="st0" d="M14.4,22.8h0.5h1.8c0.5,0,1,0.1,1.2,0.4c0.3,0.3,0.4,0.7,0.4,1.2s-0.1,0.9-0.4,1.2c-0.1,0.1-0.2,0.2-0.3,0.2
			l0.1,0.1c0.3,0.2,0.5,0.6,0.5,1.2v0.7c0,0.2,0,0.4,0,0.5s0.1,0.2,0.2,0.2v0.1h-1.1c0-0.1-0.1-0.3-0.1-0.5c0-0.2,0-0.4,0-0.6v-0.3
			c0-0.3,0-0.6-0.2-0.7c-0.1-0.1-0.3-0.2-0.5-0.2h-1.1v2.3h-0.5h-0.5V22.8z M15.4,25.4h1.1c0.3,0,0.5-0.1,0.6-0.2
			c0.1-0.1,0.2-0.3,0.2-0.6c0-0.3-0.1-0.5-0.2-0.6c-0.1-0.1-0.3-0.2-0.5-0.2h-1.2V25.4z"/>
		<path class="st0" d="M19.2,22.8h0.5h0.5l1,4.5l0,0l1-4.5h0.5h0.5l-1.6,5.8h-0.3h-0.5L19.2,22.8z"/>
		<path class="st0" d="M24.4,22.8h0.5h0.5v5.8h-0.5h-0.5V22.8z"/>
		<path class="st0" d="M30.8,26.6c-0.1,0.7-0.3,1.2-0.7,1.6c-0.4,0.4-0.8,0.6-1.4,0.6c-0.7,0-1.2-0.3-1.6-0.8
			c-0.4-0.6-0.6-1.3-0.6-2.2c0-0.9,0.2-1.7,0.6-2.2c0.4-0.6,0.9-0.8,1.6-0.8c0.6,0,1,0.2,1.4,0.6c0.4,0.4,0.6,0.9,0.7,1.5h-1
			c0-0.3-0.1-0.6-0.3-0.8c-0.2-0.2-0.4-0.3-0.7-0.3c-0.4,0-0.7,0.2-0.9,0.5c-0.2,0.4-0.3,0.9-0.3,1.5c0,0.6,0.1,1.1,0.3,1.5
			c0.2,0.4,0.5,0.5,0.9,0.5c0.3,0,0.5-0.1,0.7-0.3s0.3-0.5,0.3-0.8h1V26.6z"/>
		<path class="st0" d="M31.9,28.6v-5.8h3.5v0.5v0.5h-2.5V25h2.3v0.5V26h-2.3v1.5h2.6V28v0.5h-3.6V28.6z"/>
	</g>
</g>
</svg>
