<?xml version="1.0" encoding="utf-8"?>
<!-- Generator: Adobe Illustrator 21.0.0, SVG Export Plug-In . SVG Version: 6.00 Build 0)  -->
<svg version="1.1" id="图层_1" xmlns="http://www.w3.org/2000/svg" xmlns:xlink="http://www.w3.org/1999/xlink" x="0px" y="0px"
	 width="40px" height="40px" viewBox="0 0 40 40" style="enable-background:new 0 0 40 40;" xml:space="preserve">
<style type="text/css">
	.st0{fill:#606060;}
</style>
<path class="st0" d="M17.5,20c-1.2-0.6-2.4-0.9-3.4-0.9c-0.1,0-0.3,0-0.4,0c-1.5,0.1-2.8,0.5-3.6,0.8c-0.2,0-0.4,0.1-0.7,0.2
	l-2.2,7.8c1.5-0.6,2.9-0.8,4.2-0.8c2,0,3.5,0.8,4.7,1.5c0.6-2,2-6.7,2.4-8.1C18.1,20.3,17.8,20.2,17.5,20L17.5,20z M20.4,22
	l-2.3,7.9c0.7,0.4,2.9,1.6,4.7,1.6c1.4,0,3-0.4,4.8-1.1l2.2-7.6c-1.5,0.5-2.9,0.7-4.2,0.7C23.2,23.5,21.5,22.7,20.4,22L20.4,22z
	 M14.5,16.4c1.9,0,3.4,0.8,4.5,1.5l2.4-7.9c-0.5-0.3-1.8-1-2.7-1.2c-0.6-0.2-1.3-0.2-2-0.2c-1.3,0-2.7,0.3-4.3,1l-2.2,7.8
	C11.8,16.7,13.2,16.4,14.5,16.4L14.5,16.4L14.5,16.4z M32.8,12.1c-1.5,0.6-2.9,0.9-4.3,0.9c-2.3,0-4-0.8-5.1-1.6l-2.3,8
	c1.5,1,3.2,1.5,5,1.5c1.4,0,2.9-0.3,4.4-1v-0.1h0.1L32.8,12.1L32.8,12.1z"/>
</svg>
