<?xml version="1.0" encoding="utf-8"?>
<!-- Generator: Adobe Illustrator 21.0.0, SVG Export Plug-In . SVG Version: 6.00 Build 0)  -->
<svg version="1.1" id="图层_1" xmlns="http://www.w3.org/2000/svg" xmlns:xlink="http://www.w3.org/1999/xlink" x="0px" y="0px"
	 width="40px" height="40px" viewBox="0 0 40 40" style="enable-background:new 0 0 40 40;" xml:space="preserve">
<g>
	<g>
		<g>
			<g>
				<path style="fill:#4A9215;" d="M37,31.7c0,2.9-2.3,5.3-5.2,5.3H8.4C5.4,37,3,34.6,3,31.7V8.3C3,5.4,5.4,3,8.4,3h23.4
					C34.7,3,37,5.4,37,8.3V31.7z"/>
			</g>
		</g>
	</g>
</g>
<g>
	<path style="opacity:0.35;" d="M37,8.3v23.4c0,2.9-2.4,5.3-5.3,5.3H8.3c-1.7,0-3.2-0.8-4.1-2c0.9,0.7,2.1,1.2,3.3,1.2h23.4
		c2.9,0,5.3-2.4,5.3-5.3V7.5c0-1.3-0.4-2.4-1.2-3.3C36.2,5.2,37,6.6,37,8.3z"/>
	<path style="opacity:0.24;fill:#FFFFFF;" d="M35.8,5c-0.9-0.7-2.1-1.2-3.3-1.2H9.1c-2.9,0-5.3,2.4-5.3,5.3v23.4
		c0,1.3,0.4,2.4,1.2,3.3c-1.2-1-2-2.5-2-4.1V8.3C3,5.4,5.4,3,8.3,3h23.4C33.4,3,34.8,3.8,35.8,5z"/>
</g>
<text transform="matrix(1 0 0 1 5.6553 20.9453)" style="fill:#FFFFFF; font-family:'MicrosoftYaHei-Bold'; font-size:5.2707px;">KINGBASE</text>
</svg>
