<?xml version="1.0" encoding="utf-8"?>
<!-- Generator: Adobe Illustrator 21.0.0, SVG Export Plug-In . SVG Version: 6.00 Build 0)  -->
<svg version="1.1" id="图层_1" xmlns="http://www.w3.org/2000/svg" xmlns:xlink="http://www.w3.org/1999/xlink" x="0px" y="0px"
	 width="40px" height="40px" viewBox="0 0 40 40" style="enable-background:new 0 0 40 40;" xml:space="preserve">
<style type="text/css">
	.st0{fill:#0167B2;}
	.st1{opacity:0.35;}
	.st2{opacity:0.24;fill:#FFFFFF;}
	.st3{fill:#FFFFFF;}
</style>
<g>
	<path class="st0" d="M40,33.8c0,3.5-2.8,6.3-6.3,6.3H6.3C2.8,40,0,37.2,0,33.8V6.3C0,2.8,2.8,0,6.3,0h27.5C37.2,0,40,2.8,40,6.3
		V33.8z"/>
	<g>
		<path class="st1" d="M40,6.3v27.5c0,3.4-2.8,6.3-6.3,6.3H6.3c-2,0-3.7-0.9-4.9-2.3c1.1,0.9,2.4,1.4,3.9,1.4h27.5
			c3.4,0,6.3-2.8,6.3-6.3V5.3c0-1.5-0.5-2.8-1.4-3.9C39.1,2.5,40,4.3,40,6.3z"/>
		<path class="st2" d="M38.6,2.3c-1.1-0.9-2.4-1.4-3.9-1.4H7.2c-3.4,0-6.3,2.8-6.3,6.3v27.5c0,1.5,0.5,2.8,1.4,3.9
			C0.9,37.5,0,35.7,0,33.8V6.3C0,2.8,2.8,0,6.3,0h27.5C35.7,0,37.5,0.9,38.6,2.3z"/>
	</g>
	<g>
		<path class="st3" d="M4.4,14.2h1.2h1.2v11.6H5.6H4.4V14.2z"/>
		<path class="st3" d="M9.1,14.2h1.2h3.7c1.3,0,2.3,0.3,3,0.9c0.7,0.6,1,1.5,1,2.7c0,1.3-0.3,2.2-1,2.9c-0.7,0.7-1.7,1-3,1
			c-0.9,0-1.8,0-2.4,0v4.1h-1.2H9.1V14.2z M11.5,19.7h2c0.7,0,1.2-0.2,1.5-0.5c0.3-0.3,0.5-0.8,0.5-1.4c0-0.6-0.2-1-0.5-1.2
			c-0.3-0.3-0.9-0.4-1.5-0.4h-2V19.7z"/>
		<path class="st3" d="M22,25.8h-1.1h-1.1V14.2h1.8h1.8l2.1,9.2h0l2.1-9.2h1.8h1.8v11.6h-1.1h-1.1V16h0l-2.2,9.8h-1.2h-1.2l-2.2-10
			h0V25.8z"/>
		<path class="st3" d="M33.2,14.2h1.2h1.2v11.6h-1.2h-1.2V14.2z"/>
	</g>
</g>
</svg>
