<?xml version="1.0" encoding="utf-8"?>
<!-- Generator: Adobe Illustrator 21.0.0, SVG Export Plug-In . SVG Version: 6.00 Build 0)  -->
<svg version="1.1" id="图层_1" xmlns="http://www.w3.org/2000/svg" xmlns:xlink="http://www.w3.org/1999/xlink" x="0px" y="0px"
	 width="40px" height="40px" viewBox="0 0 40 40" style="enable-background:new 0 0 40 40;" xml:space="preserve">
<style type="text/css">
	.st0{fill:#E71919;}
	.st1{opacity:0.35;}
	.st2{opacity:0.24;fill:#FFFFFF;}
	.st3{fill:#FFFFFF;}
</style>
<g>
	<g>
		<g>
			<path class="st0" d="M40,33.8c0,3.5-2.7,6.2-6.2,6.2H6.3C2.9,40,0,37.2,0,33.8V6.3C0,2.8,2.9,0,6.3,0h27.5C37.3,0,40,2.8,40,6.3
				V33.8z"/>
		</g>
	</g>
	<path class="st1" d="M40,6.3v27.5c0,3.4-2.8,6.3-6.3,6.3H6.3c-2,0-3.7-0.9-4.9-2.3c1.1,0.9,2.4,1.4,3.9,1.4h27.5
		c3.4,0,6.3-2.8,6.3-6.3V5.3c0-1.5-0.5-2.8-1.4-3.9C39.1,2.5,40,4.3,40,6.3z"/>
	<path class="st2" d="M38.6,2.3c-1.1-0.9-2.4-1.4-3.9-1.4H7.2c-3.4,0-6.3,2.8-6.3,6.3v27.5c0,1.5,0.5,2.8,1.4,3.9
		C0.9,37.5,0,35.7,0,33.8V6.3C0,2.8,2.8,0,6.3,0h27.5C35.7,0,37.5,0.9,38.6,2.3z"/>
</g>
<g>
	<g>
		<path class="st3" d="M5.9,23.3h0.5h0.5l1.5,5.1H7.9H7.5l-0.3-1H5.6l-0.3,1H4.9H4.4L5.9,23.3z M5.9,26.5H7l-0.5-2h0L5.9,26.5z"/>
		<path class="st3" d="M10.1,28.4H9.7H9.3v-5.1h0.5h0.5l1.7,3.5v-3.5h0.4h0.4v5.1h-0.4h-0.4l-1.7-3.7V28.4z"/>
		<path class="st3" d="M15,26.5l-1.5-3.2H14h0.5l0.9,2.3l0,0l0.8-2.3h0.5h0.5l-1.4,3.2v1.9h-0.4H15V26.5z"/>
		<path class="st3" d="M18.1,23.3h0.4h1.5c0.4,0,0.8,0.1,1,0.3c0.2,0.2,0.4,0.5,0.4,1c0,0.4-0.1,0.7-0.4,0.9c0,0-0.1,0.1-0.1,0.1
			c0.1,0,0.2,0.1,0.3,0.2c0.3,0.2,0.4,0.6,0.4,1c0,0.5-0.1,0.9-0.4,1.1c-0.3,0.3-0.6,0.4-1.1,0.4h-1.6h-0.4V23.3z M19,25.3h1
			c0.2,0,0.4,0,0.5-0.1c0.1-0.1,0.2-0.2,0.2-0.4c0-0.2-0.1-0.3-0.2-0.4s-0.3-0.1-0.5-0.1H19V25.3z M19,27.6h1.1
			c0.2,0,0.4-0.1,0.5-0.2c0.1-0.1,0.1-0.3,0.1-0.5c0-0.2-0.1-0.4-0.2-0.5c-0.1-0.1-0.3-0.2-0.5-0.2h-1V27.6z"/>
		<path class="st3" d="M23.8,23.3h0.5h0.5l1.5,5.1h-0.5h-0.5l-0.3-1h-1.6l-0.3,1h-0.5h-0.5L23.8,23.3z M23.8,26.5h1.1l-0.5-2h0
			L23.8,26.5z"/>
		<path class="st3" d="M30.8,26.7c-0.1,0.6-0.3,1-0.6,1.4s-0.7,0.5-1.2,0.5c-0.6,0-1.1-0.2-1.4-0.7c-0.3-0.5-0.5-1.1-0.5-2
			c0-0.8,0.2-1.5,0.5-2c0.3-0.5,0.8-0.7,1.4-0.7c0.5,0,0.9,0.2,1.2,0.5s0.5,0.8,0.6,1.3h-0.9c0-0.3-0.1-0.5-0.3-0.7
			c-0.2-0.2-0.4-0.2-0.6-0.2c-0.3,0-0.6,0.2-0.8,0.5c-0.2,0.3-0.3,0.8-0.3,1.3c0,0.5,0.1,1,0.3,1.3s0.4,0.5,0.8,0.5
			c0.2,0,0.5-0.1,0.6-0.3c0.2-0.2,0.3-0.4,0.3-0.7H30.8z"/>
		<path class="st3" d="M31.9,23.3h0.4h0.4v2.1l1.6-2.1h0.6h0.6l-1.7,2.1l1.8,3H35h-0.6l-1.3-2.2l-0.4,0.5v1.7h-0.4h-0.4V23.3z"/>
	</g>
	<g>
		<g>
			<path class="st3" d="M28.8,15.1c0.2-1.5,0.9-2.5,2.2-3.2c0.8-0.4,1.7-0.5,2.7-0.3c1.8,0.4,3.2,2.1,3.1,4.2
				c-0.1,1.8-1.5,3.4-3.4,3.6c-0.7,0.1-1.5,0-2.1-0.3c-0.7-0.3-1.2-0.7-1.7-1.3c-0.4-0.6-0.7-1.3-0.8-2c-0.1,1.2-0.7,2.1-1.6,2.8
				c-0.9,0.7-2,0.9-3.2,0.7c-1.8-0.4-3.4-2.1-3.2-4.3c0.2-1.9,1.7-3.4,3.6-3.6C26.7,11.3,28.6,13,28.8,15.1z M27.6,15.5
				c0-1.5-1.3-2.8-2.8-2.8c-1.5,0-2.8,1.3-2.8,2.8c0,1.6,1.2,2.8,2.8,2.9C26.4,18.3,27.6,17.1,27.6,15.5z M35.6,15.5
				c0-1.5-1.3-2.8-2.8-2.8c-1.5,0-2.8,1.2-2.8,2.8c0,1.5,1.2,2.8,2.7,2.8C34.3,18.3,35.6,17.1,35.6,15.5z"/>
			<path class="st3" d="M9.7,19.4c-0.1,0-0.3,0-0.4,0c-0.7,0-1.4,0-2.1,0c-2.1,0-3.6-1.6-3.9-3.2c-0.4-2.4,1.2-4.2,2.8-4.6
				c0.3-0.1,0.7-0.1,1-0.1c0.8,0,1.7,0,2.5,0c0,0,0,0,0.1,0c0,0.1,0,0.3,0,0.4c-0.1,0.5-0.4,0.7-0.9,0.7c-0.5,0-1,0-1.6,0
				c-1.2,0-2.3,0.9-2.6,2.1c0,0.1-0.1,0.3-0.1,0.4c1.6,0,3.1,0,4.7,0c0,0.2,0,0.5,0,0.7c-1.6,0-3.1,0-4.7,0c0,0.2,0.1,0.3,0.1,0.5
				c0.4,1.1,1.3,1.9,2.5,2c0.4,0,0.9,0,1.3,0c0.2,0,0.4,0,0.6,0.1C9.5,18.5,9.8,18.9,9.7,19.4z"/>
			<path class="st3" d="M14.9,13.4c0.1,0,0.1,0,0.1,0c0.4,0,0.8,0,1.2,0c0,0,0.1,0,0.1,0.1c0.2,0.4,0.6,0.6,0.9,0.9
				c0.4,0.3,0.9,0.5,1.4,0.8c0.3,0.2,0.6,0.4,0.8,0.7c0.9,0.9,0.7,2.9-0.9,3.4c-0.3,0.1-0.6,0.2-0.9,0.2c-1,0-2,0-3.1,0
				c0,0-0.1,0-0.1,0c-0.1-0.4,0.2-0.9,0.7-1.1c0.2-0.1,0.4-0.1,0.6-0.1c0.7,0,1.3,0,2,0c0.4,0,0.7-0.2,0.9-0.6
				c0.2-0.3,0.1-0.7-0.1-1c-0.2-0.2-0.5-0.4-0.8-0.6c-0.6-0.4-1.2-0.7-1.7-1.1c-0.4-0.3-0.8-0.7-1-1.2C15,13.6,15,13.5,14.9,13.4z"
				/>
			<path class="st3" d="M12.8,19.4c-0.5,0-0.9,0-1.4,0c0-2.6,0-5.2,0-7.8c0.5-0.1,1,0.1,1.2,0.6c0.1,0.3,0.2,0.5,0.2,0.8
				c0,2.1,0,4.2,0,6.2C12.8,19.3,12.8,19.4,12.8,19.4z"/>
			<path class="st3" d="M20,11.5c0,0.7-0.3,1.1-1,1.1c-1.3,0-2.6,0-3.9,0c0,0-0.1,0-0.1,0c0-0.4,0-0.7,0-1.1
				C16.6,11.5,18.3,11.5,20,11.5z"/>
		</g>
	</g>
</g>
</svg>
