<?xml version="1.0" encoding="utf-8"?>
<!-- Generator: Adobe Illustrator 21.0.0, SVG Export Plug-In . SVG Version: 6.00 Build 0)  -->
<svg version="1.1" id="图层_1" xmlns="http://www.w3.org/2000/svg" xmlns:xlink="http://www.w3.org/1999/xlink" x="0px" y="0px"
	 width="40px" height="40px" viewBox="0 0 40 40" style="enable-background:new 0 0 40 40;" xml:space="preserve">
<style type="text/css">
	.st0{fill:#316BB4;}
	.st1{opacity:0.35;}
	.st2{opacity:0.24;fill:#FFFFFF;}
	.st3{fill:#FFFFFF;}
</style>
<g>
	<g>
		<path class="st0" d="M40,33.8c0,3.5-2.7,6.2-6.2,6.2H6.3C2.9,40,0,37.2,0,33.8V6.3C0,2.8,2.9,0,6.3,0h27.5C37.3,0,40,2.8,40,6.3
			V33.8z"/>
	</g>
</g>
<g>
	<path class="st1" d="M40,6.3v27.5c0,3.4-2.8,6.3-6.3,6.3H6.3c-2,0-3.7-0.9-4.9-2.3c1.1,0.9,2.4,1.4,3.9,1.4h27.5
		c3.4,0,6.3-2.8,6.3-6.3V5.3c0-1.5-0.5-2.8-1.4-3.9C39.1,2.5,40,4.3,40,6.3z"/>
	<path class="st2" d="M38.6,2.3c-1.1-0.9-2.4-1.4-3.9-1.4H7.2c-3.4,0-6.3,2.8-6.3,6.3v27.5c0,1.5,0.5,2.8,1.4,3.9
		C0.9,37.5,0,35.7,0,33.8V6.3C0,2.8,2.8,0,6.3,0h27.5C35.7,0,37.5,0.9,38.6,2.3z"/>
</g>
<g>
	<g>
		<path class="st3" d="M12.7,22.9h0.5h0.5l1,4.5h0l1-4.5h0.5h0.5l-1.6,5.8h-0.5h-0.5L12.7,22.9z"/>
		<path class="st3" d="M17.9,22.9h0.5H20c0.5,0,0.9,0.2,1.2,0.5c0.3,0.3,0.4,0.8,0.4,1.4c0,0.6-0.1,1-0.4,1.4
			c-0.3,0.3-0.6,0.5-1.1,0.5h-1.1v2.1h-0.5h-0.5V22.9z M18.9,25.6h1c0.2,0,0.4-0.1,0.5-0.2s0.2-0.4,0.2-0.6c0-0.3-0.1-0.5-0.2-0.6
			s-0.3-0.2-0.5-0.2h-0.9V25.6z"/>
		<path class="st3" d="M23.7,28.8h-0.5h-0.5v-5.8h0.5h0.5l1.9,4v-4h0.5h0.5v5.8h-0.5h-0.5l-2-4.2V28.8z"/>
	</g>
	<g>
		<g>
			<g>
				<path class="st3" d="M17.5,11.2c-0.4,0-0.9,0-1.2,0c0,1.3,0,2.2,0,3.2c-0.3-0.3-0.4-0.5-0.6-0.8c-0.4-0.6-0.8-1.2-1.2-1.8
					c-0.1-0.1-0.2-0.3-0.3-0.3c-0.3-0.1-1,0-1-0.1c0,1.8,0,3.5,0,5.3c0.3,0,0.7,0,1,0c0.1,0,0.2,0,0.2-0.2c0-0.9,0-1.7,0-2.6
					c0,0,0-0.1,0-0.1c0,0,0,0,0,0c0,0.1,0.1,0.1,0.1,0.2c0.6,0.9,1.1,1.7,1.7,2.6c0.1,0.1,0.1,0.1,0.2,0.1c0.3,0,0.6,0,0.9,0
					c0.1,0,0.2,0,0.2-0.2c0-1.6,0-3.4,0-5C17.5,11.4,17.5,11.2,17.5,11.2z"/>
			</g>
			<g>
				<path class="st3" d="M35.6,14.4c0.4-0.2,0.7-0.4,0.9-0.8c0.3-0.6,0.3-1.3-0.1-1.7c-0.3-0.3-0.7-0.5-1.1-0.5
					c-0.8-0.1-1.6-0.1-2.3,0c-0.2,0-0.2,0.1-0.2,0.2c0,1.6,0,3.2,0,4.8c0,0,0,0.1,0,0.1c0,0,0,0.1,0,0.1c0.4,0,0.7,0,1.1,0
					c0-1.4,0-2.8,0-4.3c0.3,0,0.8-0.1,1.2,0.1c0.3,0.1,0.5,0.5,0.3,0.8c-0.2,0.4-0.6,0.6-1.1,0.6c-0.2,0-0.2,0-0.1,0.2
					c0,0,0,0.1,0,0.1c0.4,0.8,0.9,1.6,1.4,2.4c0,0,0.1,0.1,0.2,0.1c0.4,0,0.8,0,1.2,0c0,0,0.1,0,0.1,0C36.4,15.9,36,15.2,35.6,14.4z
					"/>
			</g>
			<g>
				<path class="st3" d="M29.7,11.4c-1.1-0.1-2,0.5-2.4,1.5c-0.3,0.8-0.3,1.6,0,2.4c0.7,1.6,2.8,1.9,4,0.7c0.5-0.5,0.7-1.2,0.7-1.9
					c0-0.2,0-0.4-0.1-0.6C31.8,12.3,30.9,11.4,29.7,11.4z M30.3,15.3c-0.3,0.4-0.7,0.6-1.2,0.4c-0.2-0.1-0.4-0.3-0.5-0.6
					c-0.3-0.7-0.3-1.3,0-2c0-0.1,0.1-0.2,0.2-0.3c0.4-0.5,1.1-0.5,1.5,0c0.2,0.3,0.4,0.8,0.4,1.3C30.6,14.5,30.6,14.9,30.3,15.3z"/>
			</g>
			<g>
				<path class="st3" d="M10.9,12.6c-0.1-0.2-0.2-0.5-0.3-0.7c-0.1-0.3-0.3-0.4-0.6-0.4c-0.3,0-0.7,0-1,0c-0.6,1.7-1.3,3.5-1.9,5.2
					c0.4,0,0.8,0,1.2,0c0,0,0.1-0.1,0.1-0.1c0.1-0.4,0.3-0.8,0.4-1.3c0-0.1,0.1-0.1,0.2-0.1c0.5,0,1,0,1.5,0c0.1,0,0.1,0,0.2,0.1
					c0.1,0.4,0.3,0.8,0.4,1.3c0,0.1,0.1,0.1,0.2,0.1c0.4,0,0.7,0,1.1,0c0,0,0.1,0,0.1,0c0,0,0-0.1,0-0.1
					C11.9,15.2,11.4,13.9,10.9,12.6z M9.2,14.1c0.2-0.3,0.3-0.9,0.5-1.4c0,0,0,0,0,0c0.2,0.5,0.3,1.1,0.5,1.4
					C9.9,14.1,9.6,14.1,9.2,14.1z"/>
			</g>
			<g>
				<path class="st3" d="M22.5,14c0,0,0-0.1,0-0.1c-0.6,0-1.2,0-1.8,0c-0.2,0-0.3,0.1-0.3,0.3c0,0.2,0,0.4,0,0.6c0,0.1,0,0,0.1,0
					c0.2,0,0.3-0.1,0.5-0.1c0.1,0,0.2,0,0.2,0c0,0.3,0,0.7,0,1c-0.3,0-0.6,0-1-0.1c-0.3-0.1-0.5-0.3-0.7-0.6c-0.3-0.6-0.2-1.3,0-1.9
					c0.2-0.3,0.4-0.6,0.8-0.7c0.4-0.1,0.8-0.1,1.2-0.1c0.2,0,0.4,0,0.6,0c0-0.3,0.1-0.5,0.1-0.8c0,0,0,0-0.1,0
					c-0.6-0.2-1.3-0.2-1.9-0.1c-0.8,0.1-1.4,0.5-1.8,1.2c-0.4,0.6-0.4,1.3-0.3,2c0.1,1.1,0.8,1.8,2,2c0.7,0.1,1.5,0.1,2.2-0.1
					c0.1,0,0.2-0.1,0.2-0.2C22.5,15.6,22.5,14.8,22.5,14z"/>
			</g>
			<g>
				<path class="st3" d="M6.1,13.8c-0.4-0.2-0.8-0.4-1.2-0.6c-0.1-0.1-0.3-0.2-0.4-0.3c-0.1-0.2-0.1-0.4,0.1-0.5
					c0.1,0,0.2-0.1,0.2-0.1c0.3,0,0.6,0,0.9,0c0.2,0,0.4,0,0.6,0.1c0-0.3,0.1-0.6,0.1-0.9c-0.6-0.2-1.7-0.3-2.3-0.1
					c-0.6,0.2-0.9,0.6-1,1.2c-0.1,0.6,0.1,1.1,0.6,1.4c0.3,0.2,0.6,0.3,0.9,0.5c0.2,0.1,0.4,0.2,0.6,0.4c0.2,0.1,0.2,0.4,0,0.5
					c-0.1,0-0.1,0.1-0.2,0.1c-0.4,0.1-0.7,0.1-1.1,0c-0.2,0-0.5-0.1-0.7-0.2c0,0.3,0,0.6-0.1,0.9c0,0.1,0,0.1,0.1,0.2
					c0.3,0.1,0.6,0.2,0.9,0.2c0.6,0.1,1.2,0,1.7-0.2c0.6-0.3,0.8-0.8,0.9-1.4C6.8,14.5,6.6,14.1,6.1,13.8z"/>
			</g>
			<g>
				<path class="st3" d="M26.3,11.4c-1,0-1.9,0-2.8,0c0,0-0.1,0-0.1,0c0,1.7,0,3.5,0,5.2c0.3,0,0.6,0,1,0c0.1,0,0,0,0-0.1
					c0-0.6-0.1-1.2-0.1-1.8c0-0.1,0-0.1,0-0.1c0.6,0,1.3,0,2.2,0c0-0.3,0-0.6,0-0.9c-0.9,0-1.6,0-2.2,0c0-0.6,0-0.9,0-1.3
					c0,0,0.2,0,0.3,0c0.6,0,1.2-0.1,1.7,0c0.1,0,0.1-0.1,0.1-0.2c0-0.2,0-0.5,0-0.7C26.5,11.5,26.5,11.4,26.3,11.4z"/>
			</g>
		</g>
	</g>
</g>
</svg>
