<?xml version="1.0" encoding="utf-8"?>
<!-- Generator: Adobe Illustrator 21.0.0, SVG Export Plug-In . SVG Version: 6.00 Build 0)  -->
<svg version="1.1" id="图层_1" xmlns="http://www.w3.org/2000/svg" xmlns:xlink="http://www.w3.org/1999/xlink" x="0px" y="0px"
	 width="40px" height="40px" viewBox="0 0 40 40" enable-background="new 0 0 40 40" xml:space="preserve">
<g>
	<path fill="#1F5FA3" d="M40,33.8c0,3.5-2.7,6.2-6.2,6.2H6.3C2.9,40,0,37.2,0,33.8V6.3C0,2.8,2.9,0,6.3,0h27.5C37.3,0,40,2.8,40,6.3
		V33.8z"/>
</g>
<g>
	<g>
		<path fill="#FFFFFF" d="M3.3,10.9H4h2.1c0.9,0,1.6,0.3,2.1,1s0.7,1.6,0.7,2.9c0,1.3-0.2,2.3-0.7,3.1S7,19,6.1,19H4H3.3V10.9z
			 M4.7,17.6H6c0.5,0,0.8-0.2,1.1-0.7s0.4-1.1,0.4-2c0-0.9-0.1-1.5-0.4-2s-0.7-0.6-1.2-0.6H4.7V17.6z"/>
		<path fill="#FFFFFF" d="M10.5,10.9h0.7h2.4c0.7,0,1.2,0.2,1.6,0.5s0.6,0.9,0.6,1.5c0,0.6-0.2,1.1-0.6,1.5
			c-0.1,0.1-0.2,0.1-0.2,0.2c0.2,0.1,0.3,0.2,0.4,0.3c0.4,0.4,0.6,0.9,0.6,1.6c0,0.8-0.2,1.3-0.6,1.8s-1,0.7-1.7,0.7h-2.5h-0.7V10.9
			z M11.8,14.1h1.6c0.3,0,0.6-0.1,0.8-0.2s0.3-0.4,0.3-0.7c0-0.3-0.1-0.5-0.3-0.7s-0.5-0.2-0.9-0.2h-1.5V14.1z M11.8,17.6h1.8
			c0.3,0,0.6-0.1,0.7-0.3s0.2-0.4,0.2-0.8c0-0.4-0.1-0.6-0.3-0.8s-0.5-0.3-0.8-0.3h-1.6V17.6z"/>
		<path fill="#FFFFFF" d="M19.6,10.9h0.8h0.8l2.4,8.1h-0.7H22l-0.4-1.6h-2.5L18.6,19h-0.7h-0.7L19.6,10.9z M19.5,15.9h1.7l-0.9-3.2
			h0L19.5,15.9z"/>
		<path fill="#FFFFFF" d="M24.9,10.9h0.7h2.2c0.7,0,1.3,0.2,1.6,0.7s0.6,1.1,0.6,1.9c0,0.8-0.2,1.4-0.6,1.9s-0.9,0.7-1.5,0.7h-1.6
			V19h-0.7h-0.7V10.9z M26.3,14.7h1.4c0.3,0,0.5-0.1,0.7-0.3s0.2-0.5,0.2-0.9c0-0.4-0.1-0.7-0.2-0.9s-0.4-0.3-0.7-0.3h-1.3V14.7z"/>
		<path fill="#FFFFFF" d="M31.6,10.9h0.7h2.2c0.7,0,1.3,0.2,1.6,0.7s0.6,1.1,0.6,1.9c0,0.8-0.2,1.4-0.6,1.9s-0.9,0.7-1.5,0.7H33V19
			h-0.7h-0.7V10.9z M33,14.7h1.4c0.3,0,0.5-0.1,0.7-0.3s0.2-0.5,0.2-0.9c0-0.4-0.1-0.7-0.2-0.9s-0.4-0.3-0.7-0.3H33V14.7z"/>
	</g>
	<g>
		<path fill="#FFFFFF" d="M16.4,26.9c0,0.7-0.2,1.2-0.5,1.6c-0.3,0.4-0.8,0.6-1.4,0.6c-0.6,0-1.1-0.2-1.4-0.6
			c-0.3-0.4-0.5-0.9-0.5-1.6v-3.9h0.5h0.5v3.8c0,0.4,0.1,0.7,0.2,0.9c0.2,0.2,0.4,0.3,0.7,0.3s0.5-0.1,0.7-0.3
			c0.2-0.2,0.2-0.5,0.2-0.9v-3.8h0.5h0.5V26.9z"/>
		<path fill="#FFFFFF" d="M20.4,24.8c0-0.3-0.1-0.5-0.3-0.7c-0.2-0.2-0.4-0.2-0.7-0.2S19,24,18.8,24.1c-0.2,0.1-0.2,0.3-0.2,0.5
			c0,0.2,0.1,0.3,0.2,0.4c0.1,0.1,0.4,0.2,0.8,0.3c0.7,0.2,1.2,0.4,1.5,0.7c0.3,0.3,0.4,0.6,0.4,1.1c0,0.6-0.2,1-0.5,1.4
			c-0.3,0.3-0.8,0.5-1.4,0.5c-0.6,0-1.1-0.2-1.5-0.5c-0.3-0.3-0.5-0.8-0.5-1.5h1c0,0.3,0.1,0.5,0.3,0.7c0.2,0.2,0.4,0.2,0.8,0.2
			c0.3,0,0.5-0.1,0.7-0.2c0.2-0.1,0.3-0.3,0.3-0.5c0-0.2-0.1-0.4-0.3-0.5c-0.2-0.1-0.5-0.2-1-0.4c-0.6-0.2-1.1-0.4-1.3-0.6
			c-0.2-0.2-0.4-0.6-0.4-1.1c0-0.6,0.2-1,0.5-1.3c0.3-0.3,0.8-0.5,1.3-0.5c0.6,0,1,0.2,1.4,0.5s0.5,0.8,0.5,1.4H20.4z"/>
		<path fill="#FFFFFF" d="M23.6,28.9h-0.5h-0.5v-5.8h0.7h0.7l0.9,4.6h0l0.8-4.6h0.7h0.7v5.8h-0.5h-0.5V24h0l-0.9,4.9H25h-0.5
			L23.6,24h0V28.9z"/>
	</g>
</g>
<g>
	<path opacity="0.35" enable-background="new    " d="M40,6.2v27.5c0,3.4-2.8,6.3-6.3,6.3H6.2c-2,0-3.7-0.9-4.9-2.3
		c1.1,0.9,2.4,1.4,3.9,1.4h27.5c3.4,0,6.3-2.8,6.3-6.3V5.3c0-1.5-0.5-2.8-1.4-3.9C39.1,2.5,40,4.3,40,6.2z"/>
	<path opacity="0.24" fill="#FFFFFF" enable-background="new    " d="M38.6,2.3c-1.1-0.9-2.4-1.4-3.9-1.4H7.2
		c-3.4,0-6.3,2.8-6.3,6.3v27.5c0,1.5,0.5,2.8,1.4,3.9C0.9,37.5,0,35.7,0,33.7V6.2c0-3.4,2.8-6.3,6.3-6.3h27.5
		C35.7,0,37.5,0.9,38.6,2.3z"/>
</g>
</svg>
