<?xml version="1.0" encoding="utf-8"?>
<!-- Generator: Adobe Illustrator 21.0.0, SVG Export Plug-In . SVG Version: 6.00 Build 0)  -->
<svg version="1.1" id="图层_1" xmlns="http://www.w3.org/2000/svg" xmlns:xlink="http://www.w3.org/1999/xlink" x="0px" y="0px"
	 width="40px" height="40px" viewBox="0 0 40 40" enable-background="new 0 0 40 40" xml:space="preserve">
<g>
	<g>
		<path fill="#1F5FA3" d="M40,33.8c0,3.5-2.7,6.2-6.2,6.2H6.3C2.9,40,0,37.2,0,33.8V6.3C0,2.8,2.9,0,6.3,0h27.5
			C37.3,0,40,2.8,40,6.3V33.8z"/>
	</g>
	<g>
		<g>
			<path fill="#FFFFFF" d="M11.9,19.2h-0.7h-0.7v-8.1h0.7h0.7l2.6,5.6v-5.6h0.7H16v8.1h-0.7h-0.7l-2.7-5.8V19.2z"/>
			<path fill="#FFFFFF" d="M17.9,19.2v-8.1h4.9v0.7v0.7h-3.5v1.7h3.2v0.7v0.7h-3.2v2.1h3.6v0.7v0.7H17.9z"/>
			<path fill="#FFFFFF" d="M26,12.5h-2v-0.7v-0.7h5.4v0.7v0.7h-2v6.6h-0.7H26V12.5z"/>
		</g>
		<g>
			<path fill="#FFFFFF" d="M8.5,22.6H9h0.5v3.2l1.2-1.7h0.6h0.6l-1.3,1.6l1.3,2.7h-0.6h-0.6l-0.8-1.8l-0.4,0.5v1.3H9H8.5V22.6z"/>
			<path fill="#FFFFFF" d="M14.1,28.6c-0.6,0-1.1-0.2-1.4-0.6s-0.5-1-0.5-1.8c0-0.7,0.2-1.2,0.5-1.6c0.3-0.4,0.7-0.6,1.2-0.6
				c0.6,0,1,0.2,1.3,0.6c0.3,0.4,0.4,1,0.4,1.7l0,0.3h-2.4c0,0.3,0.1,0.6,0.2,0.7c0.1,0.2,0.3,0.3,0.6,0.3c0.2,0,0.3,0,0.4-0.1
				c0.1-0.1,0.2-0.2,0.2-0.3h1c-0.1,0.4-0.3,0.8-0.5,1S14.5,28.6,14.1,28.6z M14.7,25.9c0-0.3-0.1-0.5-0.2-0.7
				c-0.1-0.2-0.3-0.3-0.5-0.3c-0.2,0-0.4,0.1-0.6,0.3c-0.1,0.1-0.1,0.3-0.2,0.6H14.7z"/>
			<path fill="#FFFFFF" d="M18.3,28.6c-0.6,0-1.1-0.2-1.4-0.6s-0.5-1-0.5-1.8c0-0.7,0.2-1.2,0.5-1.6c0.3-0.4,0.7-0.6,1.2-0.6
				c0.6,0,1,0.2,1.3,0.6c0.3,0.4,0.4,1,0.4,1.7l0,0.3h-2.4c0,0.3,0.1,0.6,0.2,0.7c0.1,0.2,0.3,0.3,0.6,0.3c0.2,0,0.3,0,0.4-0.1
				c0.1-0.1,0.2-0.2,0.2-0.3h1c-0.1,0.4-0.3,0.8-0.5,1S18.6,28.6,18.3,28.6z M18.8,25.9c0-0.3-0.1-0.5-0.2-0.7
				c-0.1-0.2-0.3-0.3-0.5-0.3c-0.2,0-0.4,0.1-0.6,0.3c-0.1,0.1-0.1,0.3-0.2,0.6H18.8z"/>
			<path fill="#FFFFFF" d="M20.8,24.1h0.4h0.4v0.6l0.1-0.1c0.3-0.4,0.6-0.6,1-0.6c0.4,0,0.8,0.2,1,0.6c0.3,0.4,0.4,1,0.4,1.7
				c0,0.7-0.1,1.2-0.4,1.7s-0.6,0.6-1,0.6c-0.4,0-0.8-0.2-1-0.6l0-0.1v2.2h-0.5h-0.5V24.1z M22.5,27.6c0.3,0,0.5-0.1,0.6-0.3
				c0.1-0.2,0.2-0.6,0.2-1c0-0.4-0.1-0.8-0.2-1S22.8,25,22.5,25s-0.5,0.1-0.6,0.3c-0.1,0.2-0.2,0.6-0.2,1c0,0.4,0.1,0.8,0.2,1
				C22.1,27.5,22.2,27.6,22.5,27.6z"/>
			<path fill="#FFFFFF" d="M26.8,28.6c-0.6,0-1.1-0.2-1.4-0.6S25,27,25,26.2c0-0.7,0.2-1.2,0.5-1.6c0.3-0.4,0.7-0.6,1.2-0.6
				c0.6,0,1,0.2,1.3,0.6c0.3,0.4,0.4,1,0.4,1.7l0,0.3H26c0,0.3,0.1,0.6,0.2,0.7c0.1,0.2,0.3,0.3,0.6,0.3c0.2,0,0.3,0,0.4-0.1
				c0.1-0.1,0.2-0.2,0.2-0.3h1c-0.1,0.4-0.3,0.8-0.5,1S27.2,28.6,26.8,28.6z M27.4,25.9c0-0.3-0.1-0.5-0.2-0.7
				c-0.1-0.2-0.3-0.3-0.5-0.3c-0.2,0-0.4,0.1-0.6,0.3c-0.1,0.1-0.1,0.3-0.2,0.6H27.4z"/>
			<path fill="#FFFFFF" d="M29.4,24.1h0.4h0.4v0.8l0.1-0.3c0.2-0.4,0.5-0.6,0.8-0.6c0.1,0,0.1,0,0.2,0v1.2c-0.1,0-0.2,0-0.3,0
				c-0.3,0-0.5,0.1-0.7,0.3c-0.1,0.2-0.2,0.4-0.2,0.8v2.2h-0.5h-0.5V24.1z"/>
		</g>
	</g>
</g>
<g>
	<path opacity="0.35" enable-background="new    " d="M40,6.2v27.5c0,3.4-2.8,6.3-6.3,6.3H6.2c-2,0-3.7-0.9-4.9-2.3
		c1.1,0.9,2.4,1.4,3.9,1.4h27.5c3.4,0,6.3-2.8,6.3-6.3V5.3c0-1.5-0.5-2.8-1.4-3.9C39.1,2.5,40,4.3,40,6.2z"/>
	<path opacity="0.24" fill="#FFFFFF" enable-background="new    " d="M38.6,2.3c-1.1-0.9-2.4-1.4-3.9-1.4H7.2
		c-3.4,0-6.3,2.8-6.3,6.3v27.5c0,1.5,0.5,2.8,1.4,3.9C0.9,37.5,0,35.7,0,33.7V6.2c0-3.4,2.8-6.3,6.3-6.3h27.5
		C35.7,0,37.5,0.9,38.6,2.3z"/>
</g>
</svg>
