<?xml version="1.0" encoding="utf-8"?>
<!-- Generator: Adobe Illustrator 21.0.0, SVG Export Plug-In . SVG Version: 6.00 Build 0)  -->
<svg version="1.1" id="图层_1" xmlns="http://www.w3.org/2000/svg" xmlns:xlink="http://www.w3.org/1999/xlink" x="0px" y="0px"
	 width="40px" height="40px" viewBox="0 0 40 40" style="enable-background:new 0 0 40 40;" xml:space="preserve">
<style type="text/css">
	.st0{fill:#0167B2;}
	.st1{opacity:0.35;}
	.st2{opacity:0.24;fill:#FFFFFF;}
	.st3{fill:#FFFFFF;}
	.st4{font-family:'MicrosoftYaHei-Bold';}
	.st5{font-size:5.9524px;}
</style>
<path class="st0" d="M40,33.8c0,3.5-2.8,6.3-6.3,6.3H6.3C2.8,40,0,37.2,0,33.8V6.3C0,2.8,2.8,0,6.3,0h27.5C37.2,0,40,2.8,40,6.3
	V33.8z"/>
<g>
	<path class="st1" d="M40,6.3v27.5c0,3.4-2.8,6.3-6.3,6.3H6.3c-2,0-3.7-0.9-4.9-2.3c1.1,0.9,2.4,1.4,3.9,1.4h27.5
		c3.4,0,6.3-2.8,6.3-6.3V5.3c0-1.5-0.5-2.8-1.4-3.9C39.1,2.5,40,4.3,40,6.3z"/>
	<path class="st2" d="M38.6,2.3c-1.1-0.9-2.4-1.4-3.9-1.4H7.2c-3.4,0-6.3,2.8-6.3,6.2v27.5c0,1.5,0.5,2.8,1.4,3.9
		C0.9,37.5,0,35.7,0,33.8V6.3C0,2.8,2.8,0,6.3,0h27.5C35.7,0,37.5,0.9,38.6,2.3z"/>
</g>
<g>
	<text transform="matrix(1 0 0 1 4.375 32.1295)" class="st3 st4 st5">达梦数据库</text>
	<g>
		<path class="st3" d="M19.5,20.1c0,0.7-0.2,1.4-0.5,2c-4.1,1.2-7.8,0.6-9.2-1.7c-1.3-2.3-0.1-5.6,2.8-8.5c0,1.7,1,3.1,2.5,3.8
			c0.3,0.1,0.6,0.2,0.9,0.3c0.1,0,0.1,0,0.2,0C18,16.4,19.5,18.1,19.5,20.1z"/>
		<path class="st3" d="M21.8,19.3c0,0.7-0.2,1.4-0.5,2c-0.5,0.2-1,0.4-1.5,0.6c0.4-0.6,0.6-1.4,0.6-2.2c0-1.7-1-3.2-2.5-3.8
			c-0.3-0.1-0.6-0.2-0.9-0.3c-0.1,0-0.1,0-0.2,0c-1.9-0.4-3.4-2.1-3.4-4.1c0-0.2,0-0.3,0-0.5c0.5-0.4,1-0.8,1.6-1.2
			c-0.1,0.4-0.2,0.8-0.2,1.2c0,1.7,1,3.2,2.5,3.8c0.3,0.1,0.6,0.2,0.9,0.3c0.1,0,0.1,0,0.2,0C20.4,15.5,21.8,17.2,21.8,19.3z"/>
		<path class="st3" d="M24.2,18.4c0,0.5-0.1,1-0.3,1.5c-0.2,0.1-0.4,0.2-0.6,0.3c-0.4,0.2-0.7,0.4-1.1,0.6c0.3-0.6,0.5-1.3,0.5-2
			c0-1.7-1-3.2-2.5-3.8c-0.3-0.1-0.6-0.2-0.9-0.3c-0.1,0-0.1,0-0.2,0c-1.9-0.4-3.4-2.1-3.4-4.1c0-0.5,0.1-1,0.3-1.5
			c0.2-0.1,0.4-0.2,0.6-0.3c0.4-0.2,0.7-0.4,1.1-0.6c-0.3,0.6-0.5,1.3-0.5,2c0,1.7,1,3.2,2.5,3.8c0.3,0.1,0.6,0.2,0.9,0.3
			c0.1,0,0.1,0,0.2,0C22.7,14.7,24.2,16.4,24.2,18.4z"/>
		<path class="st3" d="M26.5,17.6c0,0.2,0,0.3,0,0.5c-0.5,0.4-1,0.8-1.6,1.2c0.1-0.4,0.2-0.8,0.2-1.3c0-1.7-1-3.2-2.5-3.8
			c-0.3-0.1-0.6-0.2-0.9-0.3c-0.1,0-0.1,0-0.2,0c-1.9-0.4-3.4-2.1-3.4-4.1c0-0.7,0.2-1.4,0.5-2c0.5-0.2,1-0.4,1.5-0.6
			c-0.4,0.6-0.6,1.4-0.6,2.2c0,1.7,1,3.2,2.5,3.8c0.3,0.1,0.6,0.2,0.9,0.3c0.1,0,0.1,0,0.2,0C25,13.9,26.5,15.6,26.5,17.6z"/>
		<path class="st3" d="M27.4,17.2c0-1.7-1-3.1-2.5-3.8c-0.3-0.1-0.6-0.2-0.9-0.3c-0.1,0-0.1,0-0.2,0C22,12.7,20.5,11,20.5,9
			c0-0.7,0.2-1.4,0.5-2c4.1-1.2,7.8-0.6,9.2,1.7C31.5,10.9,30.3,14.3,27.4,17.2z"/>
	</g>
</g>
</svg>
