<?xml version="1.0" encoding="utf-8"?>
<!-- Generator: Adobe Illustrator 21.0.0, SVG Export Plug-In . SVG Version: 6.00 Build 0)  -->
<svg version="1.1" id="图层_1" xmlns="http://www.w3.org/2000/svg" xmlns:xlink="http://www.w3.org/1999/xlink" x="0px" y="0px"
	 width="40px" height="40px" viewBox="0 0 40 40" style="enable-background:new 0 0 40 40;" xml:space="preserve">
<style type="text/css">
	.st0{fill:#C20029;}
	.st1{opacity:0.35;}
	.st2{opacity:0.24;fill:#FFFFFF;}
	.st3{fill:#FFFFFF;}
</style>
<g>
	<g>
		<path class="st0" d="M40,33.8c0,3.5-2.7,6.2-6.2,6.2H6.3C2.9,40,0,37.2,0,33.8V6.3C0,2.8,2.9,0,6.3,0h27.5C37.3,0,40,2.8,40,6.3
			V33.8z"/>
	</g>
	<g>
		<path class="st1" d="M40,6.3v27.5c0,3.4-2.8,6.3-6.3,6.3H6.3c-2,0-3.7-0.9-4.9-2.3c1.1,0.9,2.4,1.4,3.9,1.4h27.5
			c3.4,0,6.3-2.8,6.3-6.3V5.3c0-1.5-0.5-2.8-1.4-3.9C39.1,2.5,40,4.3,40,6.3z"/>
		<path class="st2" d="M38.6,2.3c-1.1-0.9-2.4-1.4-3.9-1.4H7.2c-3.4,0-6.3,2.8-6.3,6.3v27.5c0,1.5,0.5,2.8,1.4,3.9
			C0.9,37.5,0,35.7,0,33.8V6.3C0,2.8,2.8,0,6.3,0h27.5C35.7,0,37.5,0.9,38.6,2.3z"/>
	</g>
	<path class="st3" d="M14.9,32.9v-5.8h3.4v0.5v0.5h-2.4v1.3H18V30v0.5h-2.1v2.5h-0.5H14.9z"/>
	<g>
		<g>
			<path class="st3" d="M18.2,6.9c0,0-2-0.1-3.2,1.5c-1.3,1.6-0.3,4.1,0.3,5.4c0.6,1.3,3.8,6.3,3.9,6.4c0.1,0.1,0.3,0.1,0.3,0
				c0-0.1,0.4-7.3,0.1-9.1C19.2,9.4,18.3,7.1,18.2,6.9z M11.4,10.3c-0.2,0-1.8,1.6-2,3.2c-0.1,1.6,0.5,2.6,2.4,3.9
				c1.9,1.3,6.4,3.8,6.5,3.6c0.1-0.2-1.8-3.5-3.3-5.8C13.5,12.8,11.6,10.3,11.4,10.3z M12,24.9c1.4,0.6,3.5-0.8,4.1-1.2
				c0.5-0.4,1.6-1.2,1.6-1.2l-7.8,0.2C9.9,22.7,10.6,24.3,12,24.9L12,24.9z M12.2,18.6c-1.4-0.7-4.2-2.3-4.4-2.3
				c-0.1,0-0.5,2,0.4,3.5c0.9,1.5,2.6,2,3.4,2.1c0.9,0.1,6.2,0.1,6.1,0C17.7,21.8,13.6,19.3,12.2,18.6z M25,8.5
				c-1.3-1.6-3.2-1.5-3.2-1.5c-0.1,0.2-1,2.5-1.3,4.2c-0.3,1.8,0.1,9,0.1,9.1c0,0.1,0.1,0.1,0.3,0c0.1-0.1,3.3-5.1,3.9-6.4
				C25.3,12.6,26.3,10.1,25,8.5L25,8.5z M32.2,16.3c-0.1,0-3,1.6-4.4,2.3c-1.4,0.7-5.5,3.2-5.6,3.3c0,0.1,5.2,0.2,6.1,0
				c0.8-0.1,2.5-0.6,3.4-2.1C32.7,18.4,32.3,16.4,32.2,16.3L32.2,16.3z M23.9,23.7c0.6,0.4,2.7,1.8,4.1,1.2c1.4-0.6,2.1-2.1,2.1-2.1
				l-7.8-0.2C22.4,22.5,23.4,23.3,23.9,23.7L23.9,23.7z M30.6,13.5c-0.1-1.6-1.8-3.2-2-3.2c-0.2,0-2.2,2.5-3.7,4.9
				c-1.5,2.4-3.3,5.6-3.3,5.8c0.1,0.2,4.6-2.3,6.5-3.6C30.1,16.1,30.8,15.1,30.6,13.5z"/>
		</g>
		<path class="st3" d="M20.4,32.9L19,27.1h0.5H20l0.8,4.2h0l0.7-4.2H22h0.5l0.7,4.3h0l0.8-4.3h0.5h0.5l-1.3,5.8h-0.5h-0.5L22,28.3h0
			l-0.8,4.6h-0.5H20.4z"/>
	</g>
</g>
</svg>
