<?xml version="1.0" encoding="utf-8"?>
<!-- Generator: Adobe Illustrator 21.0.0, SVG Export Plug-In . SVG Version: 6.00 Build 0)  -->
<svg version="1.1" id="图层_1" xmlns="http://www.w3.org/2000/svg" xmlns:xlink="http://www.w3.org/1999/xlink" x="0px" y="0px"
	 width="60px" height="60px" viewBox="0 0 60 60" style="enable-background:new 0 0 60 60;" xml:space="preserve">
<style type="text/css">
	.st0{fill:#444444;}
</style>
<path class="st0" d="M21.7,34.4H4.6c-2.4,0-4.3,1.9-4.3,4.3v17.1c0,2.4,1.9,4.3,4.3,4.3h17.1c2.4,0,4.3-1.9,4.3-4.3V38.6
	C26,36.3,24.1,34.4,21.7,34.4z M22.2,55.7c0,0,0,0.5-0.5,0.5H4.6c0,0-0.5,0-0.5-0.5V38.6c0,0,0-0.5,0.5-0.5h17.1c0,0,0.5,0,0.5,0.5
	C22.2,38.6,22.2,55.7,22.2,55.7z M21.7,0H4.6C2.3,0,0.4,1.9,0.4,4.3v17.1c0,2.4,1.9,4.3,4.3,4.3h17.1c2.4,0,4.3-1.9,4.3-4.3V4.3
	C26,1.9,24.1,0,21.7,0z M22.2,21.4l-0.5,0.5H4.6c0,0-0.5,0-0.5-0.5V4.3c0,0,0-0.5,0.5-0.5h17.1c0,0,0.5,0,0.5,0.5V21.4z M55.1,34.4
	H38c-2.4,0-4.3,1.9-4.3,4.3v17.1c0,2.4,1.9,4.3,4.3,4.3h17.1c2.4,0,4.3-1.9,4.3-4.3V38.6C59.4,36.3,57.5,34.4,55.1,34.4z M55.6,55.7
	c0,0,0,0.5-0.5,0.5H38c0,0-0.5,0-0.5-0.5V38.6l0.5-0.5h17.1c0,0,0.5,0,0.5,0.5C55.6,38.6,55.6,55.7,55.6,55.7z M55.1,0H38
	c-2.4,0-4.3,1.9-4.3,4.3v17.1c0,2.4,1.9,4.3,4.3,4.3h17.1c2.4,0,4.3-1.9,4.3-4.3V4.3C59.4,1.9,57.5,0,55.1,0z M55.6,21.4
	c0,0,0,0.5-0.5,0.5H38c0,0-0.5,0-0.5-0.5V4.3c0,0,0-0.5,0.5-0.5h17.1c0,0,0.5,0,0.5,0.5V21.4z"/>
</svg>
