<?xml version="1.0" standalone="no"?><!DOCTYPE svg PUBLIC "-//W3C//DTD SVG 1.1//EN" "http://www.w3.org/Graphics/SVG/1.1/DTD/svg11.dtd"><svg t="1532337989797" class="icon" style="" viewBox="0 0 1024 1024" version="1.1" xmlns="http://www.w3.org/2000/svg" p-id="10621" xmlns:xlink="http://www.w3.org/1999/xlink" width="60" height="60"><defs><style type="text/css"></style></defs><path d="M926.8 928.2H350.4c-17.7 0-32-15.5-32-34.5v-69.1c0-19.1 14.3-34.5 32-34.5h576.4c17.7 0 32 15.5 32 34.5v69.1c0 19.1-14.4 34.5-32 34.5z m0-345.3H350.4c-17.7 0-32-15.5-32-34.5v-69.1c0-19.1 14.3-34.5 32-34.5h576.4c17.7 0 32 15.5 32 34.5v69.1c0 19.1-14.4 34.5-32 34.5z m0-345.3H350.4c-17.7 0-32-15.5-32-34.5V134c0-19.1 14.3-34.5 32-34.5h576.4c17.7 0 32 15.5 32 34.5v69.1c0 19.1-14.4 34.5-32 34.5zM158.3 928.2h-64c-17.7 0-32-15.5-32-34.5v-69.1c0-19.1 14.3-34.5 32-34.5h64c17.7 0 32 15.5 32 34.5v69.1c0 19.1-14.3 34.5-32 34.5z m0-345.3h-64c-17.7 0-32-15.5-32-34.5v-69.1c0-19.1 14.3-34.5 32-34.5h64c17.7 0 32 15.5 32 34.5v69.1c0 19.1-14.3 34.5-32 34.5z m0-345.3h-64c-17.7 0-32-15.5-32-34.5V134c0-19.1 14.3-34.5 32-34.5h64c17.7 0 32 15.5 32 34.5v69.1c0 19.1-14.3 34.5-32 34.5z" fill="#707070" p-id="10622"></path></svg>