<?xml version="1.0" encoding="utf-8"?>
<!-- Generator: Adobe Illustrator 21.0.0, SVG Export Plug-In . SVG Version: 6.00 Build 0)  -->
<svg version="1.1" id="图层_1" xmlns="http://www.w3.org/2000/svg" xmlns:xlink="http://www.w3.org/1999/xlink" x="0px" y="0px"
	 width="100px" height="100px" viewBox="0 0 100 100" style="enable-background:new 0 0 100 100;" xml:space="preserve">
<style type="text/css">
	.st0{fill:#111111;}
</style>
<path class="st0" d="M92.4,60.2c-0.8-1.1-1.8-2.1-2.9-2.9l1.3-5.7l-4.5-1.8l-3.1,5c-1.4-0.2-2.8-0.2-4.2,0l-3.2-4.9l-4.5,1.9
	l1.3,5.7c-1.1,0.8-2.1,1.8-3,2.9L64.1,59l-1.8,4.5l4.9,3c-0.2,1.4-0.2,2.8,0,4.2l-4.9,3.1l1.9,4.5l5.6-1.3c0.9,1.2,1.9,2.1,3,3
	l-1.2,5.7l4.5,1.8l3-4.9c1.4,0.2,2.8,0.2,4.2,0l3.1,4.9l4.5-1.9l-1.3-5.7c1.1-0.9,2.1-1.8,2.9-3l5.7,1.3l1.8-4.5l-5-3.1
	c0.2-1.4,0.2-2.7,0-4.2l5-3.1l-1.9-4.5L92.4,60.2z M78.5,62.3c3.4-1.4,7.4,0.2,8.9,3.6c1.4,3.4-0.2,7.4-3.6,8.8
	c-3.5,1.4-7.4-0.2-8.9-3.6C73.5,67.7,75.1,63.8,78.5,62.3 M77.6,60c4.7-2,10.2,0.2,12.2,5c2,4.7-0.3,10.2-5,12.2
	c-4.7,2-10.2-0.3-12.2-5C70.6,67.4,72.8,62,77.6,60 M59.6,41.4c-0.6-2.5-1.6-4.8-2.9-6.9l6.2-8.6l-6.2-6.2l-8.6,6
	c-2.1-1.3-4.5-2.3-6.9-2.9l-1.8-10.4h-8.8l-1.7,10.3c-2.5,0.6-4.8,1.6-7,2.9l-8.6-6L7.1,26l6.1,8.5c-1.3,2.2-2.3,4.5-2.9,7L0,43.3
	V52l10.3,1.7c0.6,2.5,1.6,4.8,2.9,7l-6,8.6l6.2,6.2l8.5-6.1c2.1,1.3,4.5,2.3,7,2.9l1.7,10.3h8.8l1.8-10.4c2.5-0.6,4.8-1.6,6.9-2.9
	l8.5,6.2l6.2-6.2l-6.1-8.7c1.3-2.1,2.3-4.4,2.9-6.9L70.1,52v-8.8L59.6,41.4z M35,35.4c6.7,0,12.2,5.5,12.2,12.2
	c0,6.8-5.5,12.2-12.2,12.2c-6.7,0-12.2-5.5-12.2-12.2C22.8,40.8,28.3,35.4,35,35.4 M35,32.5c8.3,0,15,6.7,15,15
	c0,8.3-6.7,15.1-15,15.1c-8.3,0-15.1-6.7-15.1-15.1C20,39.2,26.7,32.5,35,32.5"/>
</svg>
