<?xml version="1.0" encoding="utf-8"?>
<!-- Generator: Adobe Illustrator 21.0.0, SVG Export Plug-In . SVG Version: 6.00 Build 0)  -->
<svg version="1.1" id="图层_1" xmlns="http://www.w3.org/2000/svg" xmlns:xlink="http://www.w3.org/1999/xlink" x="0px" y="0px"
	 width="40px" height="40px" viewBox="0 0 40 40" style="enable-background:new 0 0 40 40;" xml:space="preserve">
<style type="text/css">
	.st0{fill:#281571;}
	.st1{opacity:0.35;}
	.st2{opacity:0.24;fill:#FFFFFF;}
	.st3{fill:#FFFFFF;}
</style>
<g>
	<g>
		<g>
			<path class="st0" d="M40,33.8c0,3.5-2.7,6.2-6.2,6.2H6.3C2.9,40,0,37.2,0,33.8V6.3C0,2.8,2.9,0,6.3,0h27.5C37.3,0,40,2.8,40,6.3
				V33.8z"/>
		</g>
	</g>
	<g>
		<path class="st1" d="M40,6.3v27.5c0,3.4-2.8,6.3-6.3,6.3H6.3c-2,0-3.7-0.9-4.9-2.3c1.1,0.9,2.4,1.4,3.9,1.4h27.5
			c3.4,0,6.3-2.8,6.3-6.3V5.3c0-1.5-0.5-2.8-1.4-3.9C39.1,2.5,40,4.3,40,6.3z"/>
		<path class="st2" d="M38.6,2.3c-1.1-0.9-2.4-1.4-3.9-1.4H7.2c-3.4,0-6.3,2.8-6.3,6.3v27.5c0,1.5,0.5,2.8,1.4,3.9
			C0.9,37.5,0,35.7,0,33.8V6.3C0,2.8,2.8,0,6.3,0h27.5C35.7,0,37.5,0.9,38.6,2.3z"/>
	</g>
	<g>
		<g>
			<path class="st3" d="M3.3,11.3H4h2.1c0.9,0,1.6,0.3,2.1,1s0.7,1.6,0.7,2.9c0,1.3-0.2,2.3-0.7,3.1S7,19.3,6.1,19.3H4H3.3V11.3z
				 M4.7,17.9H6c0.5,0,0.8-0.2,1.1-0.7s0.4-1.1,0.4-2c0-0.9-0.1-1.5-0.4-2s-0.7-0.6-1.2-0.6H4.7V17.9z"/>
			<path class="st3" d="M10.5,11.3h0.7h2.4c0.7,0,1.2,0.2,1.6,0.5s0.6,0.9,0.6,1.5c0,0.6-0.2,1.1-0.6,1.5c-0.1,0.1-0.2,0.1-0.2,0.2
				c0.2,0.1,0.3,0.2,0.4,0.3c0.4,0.4,0.6,0.9,0.6,1.6c0,0.8-0.2,1.3-0.6,1.8s-1,0.7-1.7,0.7h-2.5h-0.7V11.3z M11.8,14.4h1.6
				c0.3,0,0.6-0.1,0.8-0.2s0.3-0.4,0.3-0.7c0-0.3-0.1-0.5-0.3-0.7s-0.5-0.2-0.9-0.2h-1.5V14.4z M11.8,17.9h1.8
				c0.3,0,0.6-0.1,0.7-0.3s0.2-0.4,0.2-0.8c0-0.4-0.1-0.6-0.3-0.8s-0.5-0.3-0.8-0.3h-1.6V17.9z"/>
			<path class="st3" d="M19.6,11.3h0.8h0.8l2.4,8.1h-0.7H22l-0.4-1.6h-2.5l-0.4,1.6h-0.7h-0.7L19.6,11.3z M19.5,16.3h1.7l-0.9-3.2h0
				L19.5,16.3z"/>
			<path class="st3" d="M24.9,11.3h0.7h2.2c0.7,0,1.3,0.2,1.6,0.7S30,13,30,13.8c0,0.8-0.2,1.4-0.6,1.9s-0.9,0.7-1.5,0.7h-1.6v2.9
				h-0.7h-0.7V11.3z M26.3,15h1.4c0.3,0,0.5-0.1,0.7-0.3s0.2-0.5,0.2-0.9c0-0.4-0.1-0.7-0.2-0.9s-0.4-0.3-0.7-0.3h-1.3V15z"/>
			<path class="st3" d="M31.6,11.3h0.7h2.2c0.7,0,1.3,0.2,1.6,0.7s0.6,1.1,0.6,1.9c0,0.8-0.2,1.4-0.6,1.9s-0.9,0.7-1.5,0.7H33v2.9
				h-0.7h-0.7V11.3z M33,15h1.4c0.3,0,0.5-0.1,0.7-0.3s0.2-0.5,0.2-0.9c0-0.4-0.1-0.7-0.2-0.9s-0.4-0.3-0.7-0.3H33V15z"/>
		</g>
		<g>
			<path class="st3" d="M13,22.8h0.5H15c0.7,0,1.2,0.2,1.5,0.7c0.3,0.5,0.5,1.2,0.5,2.1c0,0.9-0.2,1.7-0.5,2.2
				c-0.4,0.5-0.9,0.8-1.5,0.8h-1.5H13V22.8z M14,27.6h1c0.3,0,0.6-0.2,0.8-0.5c0.2-0.4,0.3-0.8,0.3-1.4c0-0.6-0.1-1.1-0.3-1.4
				c-0.2-0.3-0.5-0.5-0.9-0.5H14V27.6z"/>
			<path class="st3" d="M19.5,22.8h0.6h0.6l1.7,5.8h-0.5h-0.5L21,27.4h-1.8l-0.3,1.2h-0.5h-0.5L19.5,22.8z M19.5,26.4h1.3l-0.6-2.3
				h0L19.5,26.4z"/>
			<path class="st3" d="M26,24.5c0-0.3-0.1-0.5-0.3-0.7c-0.2-0.2-0.4-0.2-0.7-0.2s-0.5,0.1-0.6,0.2c-0.2,0.1-0.2,0.3-0.2,0.5
				c0,0.2,0.1,0.3,0.2,0.4c0.1,0.1,0.4,0.2,0.8,0.3c0.7,0.2,1.2,0.4,1.5,0.7c0.3,0.3,0.4,0.6,0.4,1.1c0,0.6-0.2,1-0.5,1.4
				c-0.3,0.3-0.8,0.5-1.4,0.5c-0.6,0-1.1-0.2-1.5-0.5c-0.3-0.3-0.5-0.8-0.5-1.4h1c0,0.3,0.1,0.5,0.3,0.7c0.2,0.2,0.4,0.2,0.8,0.2
				c0.3,0,0.5-0.1,0.7-0.2c0.2-0.1,0.3-0.3,0.3-0.5c0-0.2-0.1-0.4-0.3-0.5c-0.2-0.1-0.5-0.2-1-0.4c-0.6-0.2-1.1-0.4-1.3-0.6
				c-0.2-0.2-0.4-0.6-0.4-1.1c0-0.6,0.2-1,0.5-1.3c0.3-0.3,0.8-0.5,1.3-0.5c0.6,0,1,0.2,1.4,0.5s0.5,0.8,0.5,1.4H26z"/>
		</g>
	</g>
</g>
</svg>
