<?xml version="1.0" encoding="utf-8"?>
<!-- Generator: Adobe Illustrator 21.0.0, SVG Export Plug-In . SVG Version: 6.00 Build 0)  -->
<svg version="1.1" id="图层_1" xmlns="http://www.w3.org/2000/svg" xmlns:xlink="http://www.w3.org/1999/xlink" x="0px" y="0px"
	 width="60px" height="60px" viewBox="0 0 60 60" style="enable-background:new 0 0 60 60;" xml:space="preserve">
<style type="text/css">
	.st0{fill:url(#SVGID_1_);}
	.st1{fill:url(#SVGID_2_);}
	.st2{fill:url(#SVGID_3_);}
	.st3{fill:#E5E5E5;}
	.st4{fill:url(#SVGID_4_);}
	.st5{fill:url(#SVGID_5_);}
	.st6{fill:url(#SVGID_6_);}
	.st7{fill:url(#SVGID_7_);}
	.st8{fill:#268B9B;}
	.st9{fill:#A2E8F9;}
</style>
<linearGradient id="SVGID_1_" gradientUnits="userSpaceOnUse" x1="29.95" y1="76.3439" x2="29.95" y2="67.2691" gradientTransform="matrix(1 0 0 1 0 -20)">
	<stop  offset="5.617980e-03" style="stop-color:#333333"/>
	<stop  offset="0.4544" style="stop-color:#666666"/>
	<stop  offset="0.6216" style="stop-color:#666666"/>
	<stop  offset="1" style="stop-color:#222222"/>
</linearGradient>
<path class="st0" d="M22.6,46.5h14.8v6.3c0,1.2,1.8,2.5,3.2,2.8c-0.7,0.7-2,0.7-2.9,0.7c-5.2,0-10.5,0-15.6,0
	c-0.9,0-2.1-0.1-2.8-0.7c1.4-0.2,3.2-1.6,3.2-2.8L22.6,46.5L22.6,46.5z"/>
<linearGradient id="SVGID_2_" gradientUnits="userSpaceOnUse" x1="30" y1="67.7406" x2="30" y2="23.3092" gradientTransform="matrix(1 0 0 1 0 -20)">
	<stop  offset="0" style="stop-color:#666A75"/>
	<stop  offset="1" style="stop-color:#E4E6F0"/>
</linearGradient>
<path class="st1" d="M4.3,3.7h51.3C57,3.7,58,4.7,58,6v20.4v19.1c0,1.3-1,2.3-2.3,2.3H4.3c-1.3,0-2.3-1-2.3-2.3V27V6
	C2,4.7,3,3.7,4.3,3.7L4.3,3.7z"/>
<linearGradient id="SVGID_3_" gradientUnits="userSpaceOnUse" x1="2" y1="24.8" x2="57.9" y2="24.8">
	<stop  offset="0" style="stop-color:#000010"/>
	<stop  offset="0.4973" style="stop-color:#4C4C4C"/>
	<stop  offset="1" style="stop-color:#2D2D2D"/>
</linearGradient>
<path class="st2" d="M4.3,2.5h51.3c1.3,0,2.3,1,2.3,2.3v31.7v8.3c0,1.3-1,2.3-2.3,2.3H4.3c-1.3,0-2.3-1-2.3-2.3v-8.1V4.8
	C2,3.5,3,2.5,4.3,2.5L4.3,2.5z"/>
<path class="st3" d="M4.5,4.4h51.1c0.5,0,0.8,0.4,0.8,0.8v33.4c0,0.5-0.4,0.8-0.8,0.8H4.5c-0.5,0-0.8-0.4-0.8-0.8V5.3
	C3.6,4.8,4,4.4,4.5,4.4L4.5,4.4z"/>
<radialGradient id="SVGID_4_" cx="29.9" cy="43.3" r="1.3" gradientUnits="userSpaceOnUse">
	<stop  offset="0.6882" style="stop-color:#EFEFEF"/>
	<stop  offset="0.9516" style="stop-color:#020202"/>
</radialGradient>
<path class="st4" d="M29.9,42c0.7,0,1.3,0.6,1.3,1.3s-0.6,1.3-1.3,1.3s-1.3-0.6-1.3-1.3S29.2,42,29.9,42L29.9,42z"/>
<linearGradient id="SVGID_5_" gradientUnits="userSpaceOnUse" x1="-77.2204" y1="698.4196" x2="-49.5204" y2="698.4196" gradientTransform="matrix(0.7749 0 0 0.7749 79.0441 -484.7054)">
	<stop  offset="0" style="stop-color:#333333"/>
	<stop  offset="4.000000e-02" style="stop-color:#DFE3ED"/>
	<stop  offset="0.11" style="stop-color:#111111"/>
	<stop  offset="0.88" style="stop-color:#111111"/>
	<stop  offset="0.95" style="stop-color:#DFE4ED"/>
	<stop  offset="1" style="stop-color:#868B99"/>
</linearGradient>
<polygon class="st5" points="19.3,55.6 40.6,55.6 40.6,57.4 19.3,57.4 "/>
<linearGradient id="SVGID_6_" gradientUnits="userSpaceOnUse" x1="23.2432" y1="52.7438" x2="45.9726" y2="17.3867" gradientTransform="matrix(1 0 0 1 0 -20)">
	<stop  offset="0" style="stop-color:#050608"/>
	<stop  offset="1" style="stop-color:#7E8EA1"/>
</linearGradient>
<path class="st6" d="M4.3,4.4h27.6h24.2c0.4,0,0.7,0.3,0.7,0.7v33.6c0,0.4-0.3,0.7-0.7,0.7H31.9H4.3c-0.4,0-0.7-0.3-0.7-0.7V5.1
	C3.6,4.8,3.9,4.4,4.3,4.4L4.3,4.4z"/>
<linearGradient id="SVGID_7_" gradientUnits="userSpaceOnUse" x1="31.8592" y1="50.0465" x2="5.1673" y2="23.2348" gradientTransform="matrix(1 0 0 1 0 -20)">
	<stop  offset="0" style="stop-color:#000000"/>
	<stop  offset="1" style="stop-color:#899BB0"/>
</linearGradient>
<path class="st7" d="M4.1,4.4h39.4L27.2,39.2H4.1c-0.4,0-0.7-0.3-0.7-0.7V5.1C3.4,4.8,3.7,4.4,4.1,4.4L4.1,4.4z"/>
<path class="st8" d="M12.8,24.4c-0.5,0.3-1.1,0.5-1.9,0.5c-1,0-1.8-0.3-2.5-1c-0.6-0.7-0.9-1.5-0.9-2.6c0-1.2,0.3-2.1,1-2.8
	c0.7-0.7,1.6-1.1,2.6-1.1c0.7,0,1.2,0.1,1.6,0.3v1c-0.5-0.3-1-0.5-1.6-0.5c-0.8,0-1.4,0.3-2,0.8c-0.5,0.5-0.8,1.2-0.8,2.2
	c0,0.9,0.2,1.5,0.7,2c0.5,0.5,1.1,0.8,1.8,0.8c0.7,0,1.3-0.3,1.8-0.6V24.4z"/>
<path class="st8" d="M13.9,21.3c0-1.2,0.3-2.1,0.9-2.8c0.6-0.7,1.5-1,2.5-1c1,0,1.8,0.3,2.4,1c0.6,0.7,0.9,1.5,0.9,2.6
	c0,1.2-0.3,2.1-0.9,2.8c-0.6,0.7-1.5,1-2.5,1c-1,0-1.8-0.3-2.4-1C14.2,23.2,13.9,22.4,13.9,21.3z M14.9,21.2c0,0.9,0.2,1.6,0.7,2.1
	c0.4,0.5,1,0.8,1.7,0.8c0.8,0,1.4-0.2,1.8-0.8c0.4-0.5,0.7-1.2,0.7-2.1c0-0.9-0.2-1.6-0.6-2.1s-1-0.8-1.8-0.8
	c-0.7,0-1.3,0.3-1.8,0.8C15.1,19.7,14.9,20.4,14.9,21.2z"/>
<path class="st8" d="M28.6,24.8V20c0-0.4,0-0.9,0.1-1.4h0c-0.1,0.3-0.2,0.6-0.2,0.7l-2.4,5.4h-0.5l-2.4-5.4
	c-0.1-0.1-0.1-0.4-0.2-0.8h0c0,0.3,0,0.8,0,1.5v4.7h-0.9v-7.2h1.3l2.1,4.9c0.2,0.4,0.3,0.7,0.3,0.9h0c0.2-0.4,0.3-0.7,0.3-0.9
	l2.1-4.9h1.2v7.2H28.6z"/>
<path class="st8" d="M37.8,24.8V20c0-0.4,0-0.9,0.1-1.4h0c-0.1,0.3-0.2,0.6-0.2,0.7l-2.4,5.4h-0.5l-2.4-5.4
	c-0.1-0.1-0.1-0.4-0.2-0.8h0c0,0.3,0,0.8,0,1.5v4.7h-0.9v-7.2h1.3l2.1,4.9c0.2,0.4,0.3,0.7,0.3,0.9h0c0.2-0.4,0.3-0.7,0.3-0.9
	l2.1-4.9h1.2v7.2H37.8z"/>
<path class="st8" d="M40.1,21.3c0-1.2,0.3-2.1,0.9-2.8c0.6-0.7,1.5-1,2.5-1c1,0,1.8,0.3,2.4,1c0.6,0.7,0.9,1.5,0.9,2.6
	c0,1.2-0.3,2.1-0.9,2.8c-0.6,0.7-1.5,1-2.5,1c-1,0-1.8-0.3-2.4-1C40.4,23.2,40.1,22.4,40.1,21.3z M41.1,21.2c0,0.9,0.2,1.6,0.7,2.1
	c0.4,0.5,1,0.8,1.7,0.8c0.8,0,1.4-0.2,1.8-0.8c0.4-0.5,0.7-1.2,0.7-2.1c0-0.9-0.2-1.6-0.6-2.1c-0.4-0.5-1-0.8-1.8-0.8
	c-0.7,0-1.3,0.3-1.8,0.8C41.3,19.7,41.1,20.4,41.1,21.2z"/>
<path class="st8" d="M54.2,24.8h-1.1l-3.6-5.6c-0.1-0.2-0.2-0.3-0.2-0.5h0c0,0.2,0,0.5,0,1v5h-0.9v-7.2h1.2l3.5,5.5
	c0.2,0.3,0.3,0.4,0.3,0.5h0c0-0.2,0-0.6,0-1v-4.9h0.9V24.8z"/>
<path class="st9" d="M12.7,24.5c-0.5,0.3-1.2,0.4-2,0.4c-1,0-1.8-0.3-2.5-1c-0.6-0.7-0.9-1.5-0.9-2.6c0-1.2,0.3-2.1,1-2.8
	c0.7-0.7,1.6-1.1,2.6-1.1c0.7,0,1.2,0.1,1.7,0.3v1c-0.5-0.3-1.1-0.4-1.7-0.4c-0.8,0-1.4,0.3-2,0.8c-0.5,0.5-0.8,1.2-0.8,2.2
	c0,0.9,0.2,1.5,0.7,2c0.5,0.5,1.1,0.8,1.8,0.8c0.7,0,1.3-0.2,1.8-0.5V24.5z"/>
<path class="st9" d="M13.5,21.3c0-1.2,0.3-2.1,0.9-2.8c0.6-0.7,1.5-1,2.5-1c1,0,1.8,0.3,2.4,1c0.6,0.7,0.9,1.5,0.9,2.6
	c0,1.2-0.3,2.1-0.9,2.8c-0.6,0.7-1.5,1-2.5,1c-1,0-1.8-0.3-2.4-1C13.8,23.2,13.5,22.4,13.5,21.3z M14.5,21.2c0,0.9,0.2,1.6,0.7,2.1
	c0.4,0.5,1,0.8,1.7,0.8c0.8,0,1.4-0.2,1.8-0.8c0.4-0.5,0.7-1.2,0.7-2.1c0-0.9-0.2-1.6-0.6-2.1s-1-0.8-1.8-0.8
	c-0.7,0-1.3,0.3-1.8,0.8C14.7,19.7,14.5,20.4,14.5,21.2z"/>
<path class="st9" d="M28.2,24.8V20c0-0.4,0-0.9,0.1-1.4h0c-0.1,0.3-0.2,0.6-0.2,0.7l-2.4,5.4h-0.5l-2.4-5.4
	c-0.1-0.1-0.1-0.4-0.2-0.8h0c0,0.3,0,0.8,0,1.5v4.7h-0.9v-7.2H23l2.1,4.9c0.2,0.4,0.3,0.7,0.3,0.9h0c0.2-0.4,0.3-0.7,0.3-0.9
	l2.1-4.9h1.2v7.2H28.2z"/>
<path class="st9" d="M37.4,24.8V20c0-0.4,0-0.9,0.1-1.4h0c-0.1,0.3-0.2,0.6-0.2,0.7l-2.4,5.4h-0.5L32,19.4c-0.1-0.1-0.1-0.4-0.2-0.8
	h0c0,0.3,0,0.8,0,1.5v4.7h-0.9v-7.2h1.3l2.1,4.9c0.2,0.4,0.3,0.7,0.3,0.9h0c0.2-0.4,0.3-0.7,0.3-0.9l2.1-4.9h1.2v7.2H37.4z"/>
<path class="st9" d="M39.7,21.3c0-1.2,0.3-2.1,0.9-2.8c0.6-0.7,1.5-1,2.5-1c1,0,1.8,0.3,2.4,1c0.6,0.7,0.9,1.5,0.9,2.6
	c0,1.2-0.3,2.1-0.9,2.8c-0.6,0.7-1.5,1-2.5,1c-1,0-1.8-0.3-2.4-1C40,23.2,39.7,22.4,39.7,21.3z M40.7,21.2c0,0.9,0.2,1.6,0.7,2.1
	c0.4,0.5,1,0.8,1.7,0.8c0.8,0,1.4-0.2,1.8-0.8c0.4-0.5,0.7-1.2,0.7-2.1c0-0.9-0.2-1.6-0.6-2.1c-0.4-0.5-1-0.8-1.8-0.8
	c-0.7,0-1.3,0.3-1.8,0.8C40.9,19.7,40.7,20.4,40.7,21.2z"/>
<path class="st9" d="M53.7,24.8h-1.1l-3.6-5.6c-0.1-0.2-0.2-0.3-0.2-0.5h0c0,0.2,0,0.5,0,1v5h-0.9v-7.2h1.2l3.5,5.5
	c0.2,0.3,0.3,0.4,0.3,0.5h0c0-0.2,0-0.6,0-1v-4.9h0.9V24.8z"/>
</svg>
