<?xml version="1.0" encoding="utf-8"?>
<!-- Generator: Adobe Illustrator 18.1.0, SVG Export Plug-In . SVG Version: 6.00 Build 0)  -->
<svg version="1.1" id="图层_1" xmlns="http://www.w3.org/2000/svg" xmlns:xlink="http://www.w3.org/1999/xlink" x="0px" y="0px"
	 width="60px" height="60px" viewBox="10 -10 60 60" style="enable-background:new 10 -10 60 60;" xml:space="preserve">
<style type="text/css">
	.st0{fill:#FFFFFF;}
</style>
<path class="st0" d="M63.2,39.5c-0.6,0-1.2,0.2-1.7,0.4L20.1-1.5c0.3-0.5,0.4-1.1,0.4-1.7c0-2.1-1.7-3.8-3.8-3.8
	C14.7-7,13-5.3,13-3.2s1.7,3.8,3.8,3.8c0.6,0,1.2-0.2,1.7-0.4l41.4,41.4c-0.3,0.5-0.4,1.1-0.4,1.7c0,2.1,1.7,3.8,3.8,3.8
	s3.8-1.7,3.8-3.8S65.3,39.5,63.2,39.5z"/>
</svg>
