<?xml version="1.0" encoding="utf-8"?>
<!-- Generator: Adobe Illustrator 21.0.0, SVG Export Plug-In . SVG Version: 6.00 Build 0)  -->
<svg version="1.1" id="图层_1" xmlns="http://www.w3.org/2000/svg" xmlns:xlink="http://www.w3.org/1999/xlink" x="0px" y="0px"
	 width="40px" height="40px" viewBox="0 0 40 40" style="enable-background:new 0 0 40 40;" xml:space="preserve">
<style type="text/css">
	.st0{fill:#1F5FA3;}
	.st1{opacity:0.35;}
	.st2{opacity:0.24;fill:#FFFFFF;}
	.st3{fill:#FFFFFF;}
</style>
<g>
	<path class="st0" d="M40,33.8c0,3.5-2.7,6.2-6.2,6.2H6.3C2.9,40,0,37.2,0,33.8V6.3C0,2.8,2.9,0,6.3,0h27.5C37.3,0,40,2.8,40,6.3
		V33.8z"/>
</g>
<g>
	<path class="st1" d="M40,6.3v27.5c0,3.4-2.8,6.3-6.3,6.3H6.3c-2,0-3.7-0.9-4.9-2.3c1.1,0.9,2.4,1.4,3.9,1.4h27.5
		c3.4,0,6.3-2.8,6.3-6.3V5.3c0-1.5-0.5-2.8-1.4-3.9C39.1,2.5,40,4.3,40,6.3z"/>
	<path class="st2" d="M38.6,2.3c-1.1-0.9-2.4-1.4-3.9-1.4H7.2c-3.4,0-6.3,2.8-6.3,6.3v27.5c0,1.5,0.5,2.8,1.4,3.9
		C0.9,37.5,0,35.7,0,33.8V6.3C0,2.8,2.8,0,6.3,0h27.5C35.7,0,37.5,0.9,38.6,2.3z"/>
</g>
<g>
	<g>
		<path class="st3" d="M4.7,19.4H4.1H3.4v-8.1h0.7h0.7l2.6,5.6v-5.6h0.7h0.7v8.1H8.1H7.4l-2.7-5.8V19.4z"/>
		<path class="st3" d="M12.7,19.6c-0.8,0-1.5-0.3-1.9-0.8s-0.6-1.4-0.6-2.5c0-0.9,0.2-1.7,0.6-2.2s1-0.8,1.7-0.8
			c0.8,0,1.3,0.3,1.7,0.8s0.6,1.3,0.6,2.3l0,0.5h-3.3c0,0.4,0.1,0.8,0.3,1c0.2,0.3,0.5,0.4,0.9,0.4c0.2,0,0.4-0.1,0.5-0.2
			c0.1-0.1,0.2-0.3,0.3-0.5h1.4c-0.1,0.6-0.4,1-0.7,1.4S13.2,19.6,12.7,19.6z M13.5,15.8c0-0.4-0.1-0.7-0.2-0.9
			c-0.2-0.3-0.4-0.4-0.8-0.4c-0.3,0-0.6,0.2-0.8,0.5c-0.1,0.2-0.2,0.5-0.2,0.8H13.5z"/>
		<path class="st3" d="M18.5,19.4c-0.2,0-0.5,0-0.8,0c-0.5,0-0.8-0.1-1-0.3s-0.3-0.6-0.3-1v-3.6h-0.7v-1.1h0.7v-1.6h1.3v1.6h0.8v1.1
			h-0.8v3.3c0,0.2,0,0.3,0.1,0.3s0.2,0.1,0.4,0.1h0.3V19.4z"/>
		<path class="st3" d="M20,19.4v-8.1h4.9V12v0.7h-3.5v1.7h3.2v0.7v0.7h-3.2V18H25v0.7v0.7H20z"/>
		<path class="st3" d="M29,20.2c-0.2,0.6-0.4,1.1-0.6,1.3c-0.2,0.2-0.5,0.3-1,0.3c-0.2,0-0.4,0-0.6,0v-1.2c0.1,0,0.2,0,0.3,0
			c0.2,0,0.3,0,0.4-0.1c0.1-0.1,0.2-0.3,0.3-0.5l0-0.4v0l-1.8-6.1h0.7h0.7l1.1,4.4h0l1-4.4h0.7H31L29,20.2z"/>
		<path class="st3" d="M34.4,19.6c-0.8,0-1.5-0.3-1.9-0.8s-0.6-1.4-0.6-2.5c0-0.9,0.2-1.7,0.6-2.2s1-0.8,1.7-0.8
			c0.8,0,1.3,0.3,1.7,0.8s0.6,1.3,0.6,2.3l0,0.5h-3.3c0,0.4,0.1,0.8,0.3,1c0.2,0.3,0.5,0.4,0.9,0.4c0.2,0,0.4-0.1,0.5-0.2
			c0.1-0.1,0.2-0.3,0.3-0.5h1.4c-0.1,0.6-0.4,1-0.7,1.4S35,19.6,34.4,19.6z M35.2,15.8c0-0.4-0.1-0.7-0.2-0.9
			c-0.2-0.3-0.4-0.4-0.8-0.4c-0.3,0-0.6,0.2-0.8,0.5c-0.1,0.2-0.2,0.5-0.2,0.8H35.2z"/>
	</g>
	<g>
		<path class="st3" d="M15,28.7v-5.8h3.4v0.5v0.5H16v1.3h2.1v0.5v0.5H16v2.5h-0.5H15z"/>
		<path class="st3" d="M20.4,28.7l-1.4-5.8h0.5h0.5l0.8,4.2h0l0.7-4.2h0.5h0.5l0.7,4.3h0l0.8-4.3h0.5h0.5l-1.3,5.8h-0.5h-0.5
			l-0.8-4.6h0l-0.8,4.6h-0.5H20.4z"/>
	</g>
</g>
</svg>
