<?xml version="1.0" encoding="utf-8"?>
<!-- Generator: Adobe Illustrator 18.1.0, SVG Export Plug-In . SVG Version: 6.00 Build 0)  -->
<svg version="1.1" id="图层_1" xmlns="http://www.w3.org/2000/svg" xmlns:xlink="http://www.w3.org/1999/xlink" x="0px" y="0px"
	 width="40px" height="40px" viewBox="0 0 40 40" style="enable-background:new 0 0 40 40;" xml:space="preserve">
<style type="text/css">
	.st0{fill:#C20029;}
	.st1{fill:#FFFFFF;}
	.st2{opacity:0.35;}
	.st3{opacity:0.24;fill:#FFFFFF;}
</style>
<g>
	<path class="st0" d="M40,33.75c0,3.45-2.74,6.25-6.19,6.25H6.31C2.86,40,0,37.21,0,33.75V6.25C0,2.8,2.86,0,6.31,0h27.5
		C37.26,0,40,2.8,40,6.25V33.75z"/>
	<path class="st1" d="M11.85,18.41c1.9,1.35,6.42,3.83,6.51,3.62c0.08-0.21-1.75-3.47-3.25-5.85c-1.5-2.37-3.45-4.91-3.68-4.89
		c-0.23,0.02-1.85,1.64-1.99,3.22C9.29,16.09,9.96,17.15,11.85,18.41z"/>
	<path class="st1" d="M18.26,7.93c0,0-1.98-0.09-3.24,1.54c-1.26,1.63-0.31,4.12,0.28,5.4c0.6,1.28,3.75,6.32,3.87,6.43
		c0.11,0.11,0.25,0.06,0.26-0.04c0.01-0.1,0.36-7.32,0.08-9.1S18.39,8.13,18.26,7.93z"/>
	<path class="st1" d="M11.66,22.94c0.9,0.13,6.17,0.07,6.14-0.04c-0.03-0.09-4.17-2.6-5.56-3.29c-1.39-0.69-4.24-2.29-4.35-2.26
		c-0.11,0.03-0.54,2.02,0.35,3.51C9.12,22.36,10.86,22.82,11.66,22.94z"/>
	<path class="st1" d="M9.93,23.73c0,0,0.73,1.53,2.1,2.14c1.37,0.61,3.5-0.76,4.09-1.16c0.55-0.42,1.56-1.19,1.56-1.19L9.93,23.73z"
		/>
	<path class="st1" d="M27.89,19.61c-1.39,0.69-5.53,3.2-5.56,3.29c-0.04,0.11,5.24,0.16,6.14,0.04c0.8-0.12,2.54-0.58,3.43-2.08
		c0.89-1.5,0.46-3.48,0.35-3.51C32.13,17.32,29.27,18.92,27.89,19.61z"/>
	<path class="st1" d="M20.94,21.31c0.11-0.11,3.27-5.15,3.87-6.43s1.54-3.77,0.28-5.4c-1.26-1.63-3.24-1.54-3.24-1.54
		c-0.13,0.2-0.97,2.46-1.25,4.24s0.07,9,0.08,9.1C20.69,21.37,20.83,21.42,20.94,21.31z"/>
	<path class="st1" d="M28.08,25.88c1.37-0.61,2.1-2.14,2.1-2.14l-7.75-0.21c0,0,1.01,0.77,1.56,1.19
		C24.58,25.11,26.72,26.49,28.08,25.88z"/>
	<path class="st1" d="M21.76,22.02c0.08,0.21,4.61-2.27,6.51-3.62c1.89-1.26,2.57-2.31,2.42-3.89c-0.15-1.58-1.77-3.2-1.99-3.22
		c-0.23-0.02-2.18,2.52-3.68,4.89C23.51,18.55,21.67,21.81,21.76,22.02z"/>
	<g>
		<path class="st2" d="M40,6.25v27.5c0,3.44-2.81,6.25-6.25,6.25H6.25c-1.96,0-3.71-0.91-4.86-2.33c1.07,0.87,2.44,1.39,3.92,1.39
			h27.5c3.44,0,6.25-2.81,6.25-6.25V5.31c0-1.48-0.52-2.85-1.39-3.92C39.09,2.54,40,4.29,40,6.25z"/>
		<path class="st3" d="M38.61,2.33c-1.07-0.87-2.44-1.39-3.92-1.39H7.19c-3.44,0-6.25,2.81-6.25,6.25v27.5
			c0,1.48,0.52,2.85,1.39,3.92C0.91,37.46,0,35.71,0,33.75V6.25C0,2.81,2.81,0,6.25,0h27.5C35.71,0,37.46,0.91,38.61,2.33z"/>
	</g>
	<g>
		<path class="st1" d="M6.37,31.81c-0.32-0.43-0.48-1-0.48-1.73c0-0.73,0.16-1.31,0.48-1.74c0.32-0.43,0.75-0.64,1.3-0.64
			c0.55,0,0.98,0.21,1.3,0.64c0.32,0.43,0.48,1.01,0.48,1.74c0,0.73-0.16,1.3-0.48,1.73c-0.32,0.43-0.75,0.64-1.3,0.64
			C7.13,32.45,6.69,32.24,6.37,31.81z M8.4,31.22c0.18-0.28,0.27-0.66,0.27-1.15c0-0.48-0.09-0.87-0.27-1.15
			c-0.18-0.28-0.42-0.43-0.73-0.43c-0.31,0-0.55,0.14-0.73,0.43c-0.18,0.28-0.27,0.67-0.27,1.15c0,0.48,0.09,0.86,0.27,1.15
			c0.18,0.28,0.42,0.42,0.73,0.42C7.98,31.65,8.22,31.51,8.4,31.22z"/>
		<path class="st1" d="M12.7,31.11c-0.04,0.4-0.18,0.72-0.41,0.96s-0.52,0.35-0.86,0.35c-0.39,0-0.7-0.15-0.92-0.44
			c-0.22-0.29-0.33-0.7-0.33-1.21c0-0.6,0.11-1.06,0.34-1.38s0.55-0.49,0.97-0.49c0.36,0,0.64,0.11,0.84,0.32
			c0.2,0.21,0.33,0.54,0.38,0.97h-0.74c-0.02-0.17-0.07-0.3-0.16-0.4c-0.09-0.1-0.19-0.15-0.32-0.15c-0.18,0-0.32,0.08-0.42,0.25
			s-0.15,0.41-0.15,0.72c0,0.39,0.04,0.67,0.13,0.84c0.09,0.17,0.23,0.25,0.44,0.25c0.13,0,0.23-0.05,0.32-0.16
			c0.09-0.11,0.14-0.25,0.16-0.43H12.7z"/>
		<path class="st1" d="M14.7,32.42c-0.47,0-0.82-0.15-1.05-0.46c-0.23-0.3-0.35-0.76-0.35-1.37c0-0.52,0.12-0.93,0.35-1.23
			c0.23-0.31,0.55-0.46,0.95-0.46c0.43,0,0.75,0.15,0.97,0.45s0.33,0.74,0.33,1.31l0,0.25h-1.87c0.02,0.24,0.07,0.43,0.14,0.56
			c0.1,0.16,0.26,0.25,0.49,0.25c0.12,0,0.22-0.03,0.3-0.1c0.08-0.06,0.13-0.15,0.15-0.26h0.77c-0.07,0.33-0.21,0.58-0.42,0.77
			S15,32.42,14.7,32.42z M15.15,30.35c-0.01-0.22-0.06-0.38-0.14-0.5c-0.1-0.15-0.24-0.23-0.42-0.23c-0.19,0-0.34,0.09-0.43,0.26
			c-0.06,0.11-0.1,0.27-0.12,0.47H15.15z"/>
		<path class="st1" d="M17.35,32.42c-0.26,0-0.46-0.09-0.61-0.26c-0.15-0.18-0.23-0.41-0.23-0.71c0-0.3,0.07-0.54,0.21-0.71
			c0.14-0.18,0.34-0.29,0.6-0.34l0.56-0.11c0.11-0.02,0.21-0.06,0.27-0.11c0.02-0.01,0.03-0.03,0.05-0.07
			c0.01-0.03,0.02-0.07,0.02-0.1v-0.01c0-0.13-0.04-0.22-0.12-0.29c-0.08-0.06-0.2-0.09-0.36-0.09c-0.13,0-0.23,0.04-0.31,0.12
			c-0.08,0.08-0.12,0.19-0.14,0.34h-0.69c0.05-0.43,0.16-0.73,0.34-0.91s0.47-0.26,0.87-0.26c0.35,0,0.62,0.09,0.81,0.26
			c0.19,0.17,0.29,0.42,0.29,0.73v1.78c0,0.19,0.01,0.33,0.03,0.4c0.02,0.07,0.06,0.12,0.12,0.15v0v0.11h-0.39H18.3v0
			c-0.03-0.12-0.05-0.25-0.06-0.4v0C18.01,32.26,17.72,32.42,17.35,32.42z M18.22,31.09v-0.37c-0.05,0.04-0.12,0.07-0.21,0.09
			l-0.26,0.06c-0.2,0.05-0.33,0.11-0.41,0.18c-0.07,0.07-0.11,0.18-0.11,0.32c0,0.13,0.03,0.24,0.08,0.31
			c0.06,0.07,0.14,0.11,0.24,0.11c0.25,0,0.44-0.11,0.57-0.34l0.01-0.02c0.02-0.03,0.03-0.08,0.05-0.14
			C18.21,31.22,18.22,31.16,18.22,31.09z"/>
		<path class="st1" d="M19.88,28.99h0.34h0.34v0.51l0.09-0.16c0.19-0.29,0.44-0.44,0.75-0.44c0.29,0,0.52,0.1,0.7,0.3
			c0.17,0.2,0.26,0.46,0.26,0.79v2.34H22h-0.36v-2.08c0-0.2-0.04-0.35-0.12-0.46s-0.19-0.16-0.34-0.16c-0.19,0-0.33,0.08-0.43,0.23
			c-0.1,0.15-0.15,0.37-0.15,0.65v1.82h-0.36h-0.36V28.99z"/>
		<path class="st1" d="M25.4,29.17c-0.01-0.21-0.08-0.38-0.21-0.51c-0.13-0.13-0.3-0.19-0.51-0.19s-0.38,0.05-0.5,0.15
			c-0.12,0.1-0.18,0.24-0.18,0.42c0,0.13,0.05,0.24,0.17,0.32c0.11,0.08,0.32,0.16,0.63,0.23c0.56,0.14,0.95,0.32,1.16,0.52
			c0.21,0.2,0.31,0.49,0.31,0.88c0,0.45-0.13,0.81-0.4,1.07c-0.26,0.26-0.63,0.38-1.1,0.38c-0.49,0-0.87-0.13-1.14-0.4
			c-0.27-0.26-0.41-0.64-0.42-1.12h0.75c0,0.24,0.08,0.42,0.21,0.55c0.14,0.13,0.33,0.19,0.59,0.19c0.23,0,0.42-0.05,0.55-0.15
			s0.2-0.24,0.2-0.41c0-0.16-0.07-0.28-0.2-0.37c-0.13-0.09-0.38-0.18-0.75-0.28c-0.49-0.13-0.83-0.29-1.02-0.48
			c-0.19-0.19-0.28-0.48-0.28-0.87c0-0.44,0.12-0.78,0.37-1.03c0.25-0.25,0.59-0.37,1.03-0.37c0.45,0,0.8,0.13,1.05,0.38
			s0.39,0.62,0.41,1.09H25.4z"/>
		<path class="st1" d="M28.36,32.36c-0.12,0.01-0.27,0.02-0.45,0.02c-0.25,0-0.43-0.06-0.55-0.18c-0.11-0.12-0.17-0.31-0.17-0.57v-2
			h-0.38v-0.63h0.38v-0.9h0.72v0.9h0.44v0.63h-0.44v1.84c0,0.1,0.02,0.16,0.06,0.19c0.04,0.03,0.12,0.04,0.24,0.04h0.15V32.36z"/>
		<path class="st1" d="M29.35,31.95c-0.25-0.32-0.38-0.74-0.38-1.28c0-0.54,0.13-0.97,0.38-1.29s0.59-0.48,1.02-0.48
			c0.43,0,0.77,0.16,1.03,0.48s0.38,0.75,0.38,1.29c0,0.54-0.13,0.97-0.38,1.28s-0.59,0.47-1.03,0.47
			C29.95,32.42,29.61,32.26,29.35,31.95z M30.87,31.42c0.11-0.17,0.17-0.43,0.17-0.76c0-0.34-0.06-0.59-0.17-0.77
			c-0.11-0.17-0.28-0.26-0.49-0.26S30,29.73,29.89,29.9c-0.11,0.17-0.17,0.43-0.17,0.77c0,0.33,0.06,0.59,0.17,0.76
			c0.11,0.17,0.28,0.26,0.49,0.26S30.76,31.6,30.87,31.42z"/>
		<path class="st1" d="M32.59,28.99h0.35h0.35v0.59l0.1-0.2c0.17-0.32,0.39-0.47,0.65-0.47c0.06,0,0.11,0,0.15,0.01v0.89
			c-0.06-0.01-0.13-0.02-0.2-0.02c-0.23,0-0.4,0.07-0.51,0.2c-0.11,0.13-0.17,0.34-0.17,0.61v1.73h-0.36h-0.36V28.99z"/>
	</g>
</g>
</svg>
