<?xml version="1.0" encoding="utf-8"?>
<!-- Generator: Adobe Illustrator 21.0.0, SVG Export Plug-In . SVG Version: 6.00 Build 0)  -->
<svg version="1.1" id="图层_1" xmlns="http://www.w3.org/2000/svg" xmlns:xlink="http://www.w3.org/1999/xlink" x="0px" y="0px"
	 width="40px" height="40px" viewBox="0 0 40 40" style="enable-background:new 0 0 40 40;" xml:space="preserve">
<style type="text/css">
	.st0{fill:#1763AA;}
	.st1{opacity:0.35;}
	.st2{opacity:0.24;fill:#FFFFFF;}
	.st3{fill:#FFFFFF;}
</style>
<g>
	<path class="st0" d="M40,33.8c0,3.5-2.8,6.3-6.3,6.3H6.3C2.8,40,0,37.2,0,33.8V6.3C0,2.8,2.8,0,6.3,0h27.5C37.2,0,40,2.8,40,6.3
		V33.8z"/>
	<g>
		<path class="st1" d="M40,6.3v27.5c0,3.4-2.8,6.3-6.3,6.3H6.3c-2,0-3.7-0.9-4.9-2.3c1.1,0.9,2.4,1.4,3.9,1.4h27.5
			c3.4,0,6.3-2.8,6.3-6.3V5.3c0-1.5-0.5-2.8-1.4-3.9C39.1,2.5,40,4.3,40,6.3z"/>
		<path class="st2" d="M38.6,2.3c-1.1-0.9-2.4-1.4-3.9-1.4H7.2c-3.4,0-6.3,2.8-6.3,6.3v27.5c0,1.5,0.5,2.8,1.4,3.9
			C0.9,37.5,0,35.7,0,33.8V6.3C0,2.8,2.8,0,6.3,0h27.5C35.7,0,37.5,0.9,38.6,2.3z"/>
	</g>
	<g>
		<g>
			<path class="st3" d="M11.6,13.9C11.2,12.2,9.8,11,8.1,11c-2.3,0-3.6,0-3.6,0l-0.2,1h2.6c0,0,0,0,0.1,0c0,0,0,0,0,0c0,0,0,0,0.1,0
				c0,0,0,0,0.1,0c0,0,0,0,0.1,0c0.1,0,0.1,0,0.2,0c0,0,0,0,0,0c0,0,0,0,0.1,0c0,0,0,0,0,0c0,0,0,0,0.1,0c0,0,0,0,0,0c0,0,0,0,0.1,0
				c0,0,0,0,0.1,0c0,0,0,0,0.1,0c0.1,0,0.1,0,0.1,0c0,0,0,0,0.1,0c0,0,0,0,0.1,0c0,0,0,0,0.1,0c0,0,0,0,0.1,0c0,0,0,0,0.1,0
				c0,0,0,0,0.1,0c0,0,0,0,0,0c0,0,0,0,0.1,0c0,0,0,0,0.1,0c0,0,0,0,0.1,0c0,0,0,0,0,0c0,0,0,0,0.1,0c0,0,0,0,0.1,0c0,0,0,0,0,0
				c0,0,0,0,0.1,0c0,0,0,0,0,0c0.1,0.1,0.3,0.2,0.4,0.3c0.6,0.7,0.8,1.7,0.5,3c-0.5,2.2-2,2.8-3.6,2.8H5.1l1.1-5.8h-2L3,18.6l-0.2,1
				c0,0,2.8,0,4,0c1.1,0,4-0.7,4.7-3.6c0.1-0.4,0.2-0.9,0.2-1.3C11.7,14.4,11.6,14.1,11.6,13.9z"/>
			<path class="st3" d="M18.3,12.6c-0.7,1.4-0.8,2.6-0.9,3.2c-1.4,0.7-3.6,0.6-3.6,0.6l-0.6,3.3h-2l1.3-6.8h2L14,15.5
				c0,0,2,0.5,2.3-1.6c0.1-1.1-0.4-1.7-0.8-1.7c-0.4,0-0.4,0-0.4,0l-2.4,0l0.2-1c0,0,2.3,0,3.3,0C16.8,11.2,18.1,11.7,18.3,12.6z"/>
			<path class="st3" d="M18.2,15.9c0,0-0.1-5.4,5.6-7.9c5.7-2.5,9.8,2.4,10.3,3.5c0,0-6-6.6-12,1C22,12.5,19.2,12.9,18.2,15.9z"/>
			<polygon class="st3" points="34.2,11.5 34.6,11.9 35.1,11.7 34.8,12.2 35.2,12.7 34.6,12.6 34.3,13 34.2,12.5 33.7,12.3 
				34.2,12.1 			"/>
			<path class="st3" d="M22.4,15.3c0.4,0,0.8,0,0.8,0l0.1-0.5h-0.8c0.2-1,0.4-1.8,0.4-1.8l-1.6,0.7c0,0-0.1,0.5-0.2,1.1h-0.6
				l-0.2,0.5c0.1,0,0.3,0.1,0.7,0.1c-0.2,1.1-0.5,2.5-0.5,2.6c0,0.3-0.2,1.2,0.3,1.5c0.5,0.4,1.8-0.1,1.8-0.1l0-0.3
				c-1,0.2-0.7-0.6-0.6-1.1C21.9,17.6,22.2,16.4,22.4,15.3z"/>
			<path class="st3" d="M27.5,17.1c0,0,0.7-2.7-1.6-2.5c-2.3,0.2-2.7,1.9-2.8,2.5s-0.2,3.6,3.6,2.1l0.3-0.6c0,0-2.7,1.5-2.4-1.5
				H27.5z M25.9,15c0.8,0.1,0.3,1.7,0.3,1.7l-1.5-0.1C24.7,16.5,25.1,14.8,25.9,15z"/>
			<path class="st3" d="M32.7,15c0,0-2.4-1.4-4.2,0.8c-1.7,2.2,0,4.9,3.1,3.4l0.3-0.7h-0.2c0,0-2.7,1.4-2.3-1.5
				c0.4-2.7,2.6-2.5,2.5-1.1l0.2,0.1L32.7,15z"/>
			<path class="st3" d="M36.1,14.6c-0.8-0.1-1.6,0.4-2,0.8l0.4-1.9L34,13.5l-0.3-0.9h-0.4l-1.4,7h1.4l0.2-1.2c0.2-1,0.5-2.2,0.6-2.5
				c0.3-0.4,1-0.5,1.2-0.4c0.2,0.2,0.3,0.8,0.1,1.7c-0.2,0.9-0.5,2.3-0.5,2.3h1.4c0,0,0.6-2.9,0.7-3.3
				C37.2,15.9,37.4,14.7,36.1,14.6z"/>
		</g>
		<g>
			<path class="st3" d="M14.6,26.8h0.5h0.5v5.8h-0.5h-0.5V26.8z"/>
			<path class="st3" d="M16.9,26.8h0.5H19c0.5,0,0.9,0.2,1.2,0.5c0.3,0.3,0.4,0.8,0.4,1.4c0,0.6-0.1,1-0.4,1.4
				c-0.3,0.3-0.6,0.5-1.1,0.5h-1.1v2.1h-0.5h-0.5V26.8z M17.9,29.5h1c0.2,0,0.4-0.1,0.5-0.2s0.2-0.4,0.2-0.6c0-0.3-0.1-0.5-0.2-0.6
				s-0.3-0.2-0.5-0.2h-0.9V29.5z"/>
			<path class="st3" d="M24.3,28.5c0-0.3-0.1-0.5-0.3-0.7c-0.2-0.2-0.4-0.2-0.7-0.2s-0.5,0.1-0.6,0.2c-0.2,0.1-0.2,0.3-0.2,0.5
				c0,0.2,0.1,0.3,0.2,0.4c0.1,0.1,0.4,0.2,0.8,0.3c0.7,0.2,1.2,0.4,1.5,0.7c0.3,0.3,0.4,0.6,0.4,1.1c0,0.6-0.2,1-0.5,1.4
				c-0.3,0.3-0.8,0.5-1.4,0.5c-0.6,0-1.1-0.2-1.5-0.5c-0.3-0.3-0.5-0.8-0.5-1.4h1c0,0.3,0.1,0.5,0.3,0.7c0.2,0.2,0.4,0.2,0.8,0.2
				c0.3,0,0.5-0.1,0.7-0.2c0.2-0.1,0.3-0.3,0.3-0.5c0-0.2-0.1-0.4-0.3-0.5c-0.2-0.1-0.5-0.2-1-0.4c-0.6-0.2-1.1-0.4-1.3-0.6
				c-0.2-0.2-0.4-0.6-0.4-1.1c0-0.6,0.2-1,0.5-1.3c0.3-0.3,0.8-0.5,1.3-0.5c0.6,0,1,0.2,1.4,0.5s0.5,0.8,0.5,1.4H24.3z"/>
		</g>
	</g>
</g>
</svg>
