<?xml version="1.0" encoding="utf-8"?>
<!-- Generator: Adobe Illustrator 21.0.0, SVG Export Plug-In . SVG Version: 6.00 Build 0)  -->
<svg version="1.1" id="图层_1" xmlns="http://www.w3.org/2000/svg" xmlns:xlink="http://www.w3.org/1999/xlink" x="0px" y="0px"
	 width="40px" height="40px" viewBox="0 0 40 40" enable-background="new 0 0 40 40" xml:space="preserve">
<g>
	<path fill="#1F5FA3" d="M40,33.8c0,3.5-2.7,6.2-6.2,6.2H6.3C2.9,40,0,37.2,0,33.8V6.3C0,2.8,2.9,0,6.3,0h27.5C37.3,0,40,2.8,40,6.3
		V33.8z"/>
</g>
<g>
	<g>
		<path fill="#FFFFFF" d="M10.6,19.3l-1.9-8.1h0.7h0.7l1.1,5.9h0l0.9-5.9H13h0.7l1,5.9h0l1.1-5.9h0.7h0.7l-1.9,8.1h-0.7H14L13,12.9
			h0l-1,6.4h-0.6H10.6z"/>
		<path fill="#FFFFFF" d="M18.6,19.3v-8.1h4.9V12v0.7H20v1.7h3.2v0.7v0.7H20v2.1h3.6v0.7v0.7H18.6z"/>
		<path fill="#FFFFFF" d="M25.3,11.3H26h2.4c0.7,0,1.2,0.2,1.6,0.5s0.6,0.9,0.6,1.5c0,0.6-0.2,1.1-0.6,1.5c-0.1,0.1-0.2,0.1-0.2,0.2
			c0.2,0.1,0.3,0.2,0.4,0.3c0.4,0.4,0.6,0.9,0.6,1.6c0,0.8-0.2,1.3-0.6,1.8s-1,0.7-1.7,0.7H26h-0.7V11.3z M26.7,14.4h1.6
			c0.3,0,0.6-0.1,0.8-0.2s0.3-0.4,0.3-0.7c0-0.3-0.1-0.5-0.3-0.7s-0.5-0.2-0.9-0.2h-1.5V14.4z M26.7,17.9h1.8c0.3,0,0.6-0.1,0.7-0.3
			s0.2-0.4,0.2-0.8c0-0.4-0.1-0.6-0.3-0.8s-0.5-0.3-0.8-0.3h-1.6V17.9z"/>
	</g>
	<g>
		<path fill="#FFFFFF" d="M8.4,24.5c0-0.3-0.1-0.5-0.3-0.7c-0.2-0.2-0.4-0.2-0.7-0.2S7,23.7,6.8,23.8c-0.2,0.1-0.2,0.3-0.2,0.5
			c0,0.2,0.1,0.3,0.2,0.4c0.1,0.1,0.4,0.2,0.8,0.3c0.7,0.2,1.2,0.4,1.5,0.7c0.3,0.3,0.4,0.6,0.4,1.1c0,0.6-0.2,1-0.5,1.4
			c-0.3,0.3-0.8,0.5-1.4,0.5c-0.6,0-1.1-0.2-1.5-0.5c-0.3-0.3-0.5-0.8-0.5-1.5h1c0,0.3,0.1,0.5,0.3,0.7c0.2,0.2,0.4,0.2,0.8,0.2
			c0.3,0,0.5-0.1,0.7-0.2c0.2-0.1,0.3-0.3,0.3-0.5c0-0.2-0.1-0.4-0.3-0.5c-0.2-0.1-0.5-0.2-1-0.4C6.7,26,6.2,25.8,6,25.6
			c-0.2-0.2-0.4-0.6-0.4-1.1c0-0.6,0.2-1,0.5-1.3c0.3-0.3,0.8-0.5,1.3-0.5c0.6,0,1,0.2,1.4,0.5s0.5,0.8,0.5,1.4H8.4z"/>
		<path fill="#FFFFFF" d="M10.7,22.8h0.5h1.6c0.5,0,0.9,0.2,1.2,0.5c0.3,0.3,0.4,0.8,0.4,1.4c0,0.6-0.1,1-0.4,1.4
			c-0.3,0.3-0.6,0.5-1.1,0.5h-1.1v2.1h-0.5h-0.5V22.8z M11.7,25.5h1c0.2,0,0.4-0.1,0.5-0.2s0.2-0.4,0.2-0.6c0-0.3-0.1-0.5-0.2-0.6
			s-0.3-0.2-0.5-0.2h-0.9V25.5z"/>
		<path fill="#FFFFFF" d="M15.5,22.8H16h0.5v2.2h1.9v-2.2h0.5h0.5v5.8h-0.5h-0.5V26h-1.9v2.6H16h-0.5V22.8z"/>
		<path fill="#FFFFFF" d="M20.7,28.6v-5.8h3.5v0.5v0.5h-2.5V25h2.3v0.5v0.5h-2.3v1.5h2.6v0.5v0.5H20.7z"/>
		<path fill="#FFFFFF" d="M25.6,22.8h0.5h1.8c0.5,0,1,0.1,1.2,0.4s0.4,0.7,0.4,1.2c0,0.5-0.1,0.9-0.4,1.2c-0.1,0.1-0.2,0.2-0.3,0.2
			c0,0,0.1,0.1,0.1,0.1c0.3,0.2,0.5,0.6,0.5,1.2v0.7c0,0.2,0,0.4,0,0.5s0.1,0.2,0.2,0.2v0.1h-1.1c0-0.1-0.1-0.3-0.1-0.5s0-0.4,0-0.6
			l0-0.3c0-0.3,0-0.6-0.2-0.7s-0.3-0.2-0.5-0.2h-1.1v2.3h-0.5h-0.5V22.8z M26.6,25.4h1.1c0.3,0,0.5-0.1,0.6-0.2
			c0.1-0.1,0.2-0.3,0.2-0.6c0-0.3-0.1-0.5-0.2-0.6c-0.1-0.1-0.3-0.2-0.5-0.2h-1.2V25.4z"/>
		<path fill="#FFFFFF" d="M30.8,28.6v-5.8h3.5v0.5v0.5h-2.5V25h2.3v0.5v0.5h-2.3v1.5h2.6v0.5v0.5H30.8z"/>
	</g>
</g>
<g>
	<path opacity="0.35" enable-background="new    " d="M40,6.2v27.5c0,3.4-2.8,6.3-6.3,6.3H6.2c-2,0-3.7-0.9-4.9-2.3
		c1.1,0.9,2.4,1.4,3.9,1.4h27.5c3.4,0,6.3-2.8,6.3-6.3V5.3c0-1.5-0.5-2.8-1.4-3.9C39.1,2.5,40,4.3,40,6.2z"/>
	<path opacity="0.24" fill="#FFFFFF" enable-background="new    " d="M38.6,2.3c-1.1-0.9-2.4-1.4-3.9-1.4H7.2
		c-3.4,0-6.3,2.8-6.3,6.3v27.5c0,1.5,0.5,2.8,1.4,3.9C0.9,37.5,0,35.7,0,33.7V6.2c0-3.4,2.8-6.3,6.3-6.3h27.5
		C35.7,0,37.5,0.9,38.6,2.3z"/>
</g>
</svg>
