<?xml version="1.0" encoding="utf-8"?>
<!-- Generator: Adobe Illustrator 21.0.0, SVG Export Plug-In . SVG Version: 6.00 Build 0)  -->
<svg version="1.1" id="图层_1" xmlns="http://www.w3.org/2000/svg" xmlns:xlink="http://www.w3.org/1999/xlink" x="0px" y="0px"
	 width="40px" height="40px" viewBox="0 0 40 40" style="enable-background:new 0 0 40 40;" xml:space="preserve">
<style type="text/css">
	.st0{fill:#1F5FA3;}
	.st1{opacity:0.35;}
	.st2{opacity:0.24;fill:#FFFFFF;}
	.st3{fill:#FFFFFF;}
</style>
<g>
	<path class="st0" d="M40,33.8c0,3.5-2.7,6.2-6.2,6.2H6.3C2.9,40,0,37.2,0,33.8V6.3C0,2.8,2.9,0,6.3,0h27.5C37.3,0,40,2.8,40,6.3
		V33.8z"/>
</g>
<g>
	<path class="st1" d="M40,6.3v27.5c0,3.4-2.8,6.3-6.3,6.3H6.3c-2,0-3.7-0.9-4.9-2.3c1.1,0.9,2.4,1.4,3.9,1.4h27.5
		c3.4,0,6.3-2.8,6.3-6.3V5.3c0-1.5-0.5-2.8-1.4-3.9C39.1,2.5,40,4.3,40,6.3z"/>
	<path class="st2" d="M38.6,2.3c-1.1-0.9-2.4-1.4-3.9-1.4H7.2c-3.4,0-6.3,2.8-6.3,6.3v27.5c0,1.5,0.5,2.8,1.4,3.9
		C0.9,37.5,0,35.7,0,33.8V6.3C0,2.8,2.8,0,6.3,0h27.5C35.7,0,37.5,0.9,38.6,2.3z"/>
</g>
<g>
	<path class="st3" d="M6.4,15.9c0,0.3,0,0.5,0,0.6h0c0,0-0.1-0.2-0.2-0.3l-1.7-2.7h-1v4.3h0.9v-2.4c0-0.3,0-0.5,0-0.7h0
		c0,0.1,0.1,0.2,0.2,0.3l1.8,2.7h0.9v-4.3H6.4V15.9z"/>
	<polygon class="st3" points="9.1,15.9 10.5,15.9 10.5,15.2 9.1,15.2 9.1,14.2 10.6,14.2 10.6,13.5 8.2,13.5 8.2,17.7 10.7,17.7 
		10.7,17 9.1,17 	"/>
	<polygon class="st3" points="11.1,14.2 12.3,14.2 12.3,17.7 13.2,17.7 13.2,14.2 14.4,14.2 14.4,13.5 11.1,13.5 	"/>
	<polygon class="st3" points="17.5,17 15.9,17 15.9,15.9 17.3,15.9 17.3,15.2 15.9,15.2 15.9,14.2 17.4,14.2 17.4,13.5 15,13.5 
		15,17.7 17.5,17.7 	"/>
	<path class="st3" d="M19.1,15.3c0-0.3,0-0.5,0-0.7h0c0,0.1,0.1,0.2,0.2,0.3l1.8,2.7H22v-4.3h-0.9v2.4c0,0.3,0,0.5,0,0.6h0
		c0,0-0.1-0.2-0.2-0.3l-1.7-2.7h-1v4.3h0.9V15.3z"/>
	<polygon class="st3" points="22.6,14.2 23.8,14.2 23.8,17.7 24.7,17.7 24.7,14.2 25.9,14.2 25.9,13.5 22.6,13.5 	"/>
	<path class="st3" d="M28,15.2c-0.4-0.2-0.6-0.3-0.7-0.4c-0.1-0.1-0.1-0.2-0.1-0.3c0-0.1,0.1-0.2,0.2-0.3c0.1-0.1,0.3-0.1,0.5-0.1
		c0.4,0,0.7,0.1,1,0.3v-0.9c-0.3-0.1-0.6-0.2-1-0.2c-0.5,0-0.9,0.1-1.2,0.3c-0.3,0.2-0.5,0.5-0.5,0.9c0,0.5,0.3,0.9,1,1.2
		c0.4,0.2,0.7,0.3,0.8,0.4c0.1,0.1,0.1,0.2,0.1,0.3c0,0.1-0.1,0.2-0.2,0.3s-0.3,0.1-0.6,0.1c-0.4,0-0.8-0.1-1.2-0.4v0.9
		c0.3,0.2,0.7,0.2,1.2,0.2c0.5,0,0.9-0.1,1.2-0.3c0.3-0.2,0.4-0.5,0.4-0.9c0-0.3-0.1-0.5-0.2-0.7C28.8,15.6,28.5,15.4,28,15.2z"/>
	<polygon class="st3" points="30.8,15.9 32.2,15.9 32.2,15.2 30.8,15.2 30.8,14.2 32.3,14.2 32.3,13.5 29.9,13.5 29.9,17.7 
		32.4,17.7 32.4,17 30.8,17 	"/>
	<path class="st3" d="M34.9,15.5l1.5-2h-1.1l-1.2,1.8c0,0.1-0.1,0.1-0.1,0.2h0v-2h-0.9v4.3H34v-2.1h0c0,0.1,0.1,0.2,0.1,0.2l1.3,1.9
		h1.1L34.9,15.5z"/>
	<rect x="15.3" y="22.3" class="st3" width="0.9" height="4.3"/>
	<path class="st3" d="M17.6,22.9c-0.4,0.4-0.6,1-0.6,1.6c0,0.6,0.2,1.1,0.6,1.5s0.9,0.6,1.5,0.6c0.5,0,0.9-0.1,1.2-0.2v-0.8
		c-0.3,0.2-0.7,0.3-1,0.3c-0.4,0-0.7-0.1-1-0.4c-0.2-0.3-0.4-0.6-0.4-1c0-0.4,0.1-0.8,0.4-1s0.6-0.4,1-0.4c0.4,0,0.7,0.1,1,0.3v-0.9
		c-0.3-0.1-0.6-0.2-1-0.2C18.6,22.2,18,22.4,17.6,22.9z"/>
	<path class="st3" d="M22.5,24.9h0.9v0.9c-0.2,0.1-0.3,0.1-0.6,0.1c-0.4,0-0.7-0.1-0.9-0.4c-0.2-0.2-0.3-0.6-0.3-1
		c0-0.4,0.1-0.8,0.4-1.1s0.6-0.4,1-0.4c0.5,0,0.9,0.1,1.2,0.3v-0.9c-0.3-0.1-0.7-0.2-1.2-0.2c-0.7,0-1.3,0.2-1.7,0.6
		c-0.4,0.4-0.6,1-0.6,1.6c0,0.7,0.2,1.2,0.6,1.6c0.4,0.4,0.9,0.6,1.6,0.6c0.6,0,1.1-0.1,1.5-0.4v-2.1h-1.8V24.9z"/>
</g>
</svg>
