<?xml version="1.0" encoding="utf-8"?>
<!-- Generator: Adobe Illustrator 18.1.0, SVG Export Plug-In . SVG Version: 6.00 Build 0)  -->
<svg version="1.1" id="图层_1" xmlns="http://www.w3.org/2000/svg" xmlns:xlink="http://www.w3.org/1999/xlink" x="0px" y="0px"
	 width="40px" height="40px" viewBox="0 0 40 40" style="enable-background:new 0 0 40 40;" xml:space="preserve">
<style type="text/css">
	.st0{fill:#0167B2;}
	.st1{fill:#FFFFFF;}
	.st2{opacity:0.55;fill-rule:evenodd;clip-rule:evenodd;fill:#FFFFFF;}
	.st3{fill-rule:evenodd;clip-rule:evenodd;fill:#FFFFFF;}
	.st4{fill-rule:evenodd;clip-rule:evenodd;fill:#0167B2;}
	.st5{opacity:0.35;}
	.st6{opacity:0.24;fill:#FFFFFF;}
</style>
<g>
	<path class="st0" d="M40,33.8c0,3.5-2.8,6.3-6.3,6.3H6.3C2.8,40,0,37.2,0,33.8V6.3C0,2.8,2.8,0,6.3,0h27.5C37.2,0,40,2.8,40,6.3
		V33.8z"/>
	<g>
		<g>
			<path class="st1" d="M5.7,30.3h2.6v0c0-0.1,0-0.1,0.1-0.2c0.1-0.1,0.3-0.2,0.3-0.3c0.1-0.1,0.2-0.2,0.3-0.4
				c0.1-0.1,0.1-0.2,0.1-0.2c0,0,0-0.1-0.1-0.1H6.7c-0.1,0-0.2,0-0.2-0.1c-0.2,0.3-0.4,0.5-0.6,0.7c-0.4,0.4-0.8,0.7-1.4,1
				c-0.1,0-0.1,0-0.2,0c-0.2,0-0.3-0.1-0.3-0.3c0-0.1,0.1-0.2,0.2-0.3c0.6-0.3,1.1-0.7,1.4-1c0.2-0.3,0.5-0.6,0.8-1.1
				C6.5,28,6.6,28,6.6,28c0.2,0,0.3,0.1,0.3,0.3c0,0.1,0,0.1-0.1,0.2c0,0,0,0.1-0.1,0.1h2.6c0.3,0,0.4,0.1,0.4,0.3
				c0,0.1-0.1,0.3-0.2,0.5c-0.1,0.2-0.2,0.4-0.4,0.6c-0.1,0.1-0.2,0.2-0.3,0.3h0.9c0.4,0,0.6,0.2,0.6,0.6v2.7c0,0.2-0.1,0.2-0.3,0.2
				c-0.2,0-0.3-0.1-0.3-0.2v-2.5c0-0.2-0.1-0.3-0.3-0.3H6c-0.2,0-0.3,0.1-0.3,0.3v2.6c0,0.2-0.1,0.3-0.3,0.3s-0.3-0.1-0.3-0.3v-2.8
				C5.1,30.5,5.3,30.3,5.7,30.3z M7.7,31.4c0.2,0,0.3,0.1,0.3,0.3c0,0.7-0.1,1.3-0.2,1.6c-0.1,0.4-0.3,0.8-0.5,1
				c-0.3,0.2-0.6,0.4-1.1,0.6c-0.4,0.1-0.9,0.3-1.5,0.4c-0.1,0-0.2,0-0.3,0c-0.2,0-0.3-0.1-0.3-0.3c0-0.2,0.1-0.3,0.2-0.3
				c0.5,0,1.1-0.1,1.6-0.3c0.4-0.1,0.8-0.3,1-0.5c0.2-0.2,0.3-0.4,0.4-0.7c0.1-0.3,0.1-0.8,0.1-1.5C7.4,31.5,7.5,31.4,7.7,31.4z
				 M8.1,33.7c0.1,0,0.1,0,0.2,0c1,0.3,1.9,0.6,2.7,1.1c0,0.1,0.1,0.1,0.1,0.2c0,0.2-0.1,0.3-0.2,0.3c-0.1,0-0.1,0-0.2,0
				C9.9,34.9,9,34.5,8,34.2c-0.1,0-0.1-0.1-0.2-0.2C7.9,33.8,8,33.8,8.1,33.7z"/>
			<path class="st1" d="M16,33.7c0.2,0,0.2,0.1,0.2,0.3c0,0.1-0.1,0.2-0.2,0.3c-0.3,0-0.7,0.1-1.2,0.1v0.7c0,0.2-0.1,0.3-0.3,0.3
				c-0.2,0-0.3-0.1-0.3-0.3v-0.6c-0.3,0-0.6,0-0.9,0.1c-0.6,0-0.9,0-1,0c-0.2,0-0.3-0.1-0.3-0.3c0-0.1,0.1-0.2,0.2-0.2
				c0.8,0,1.5-0.1,1.9-0.1v-0.6h-1.2c-0.3,0-0.4-0.1-0.4-0.4c0-0.1,0.1-0.4,0.3-1.1h-0.5c-0.2,0-0.2-0.1-0.2-0.2
				c0-0.2,0.1-0.2,0.2-0.3h0.7c0-0.1,0.1-0.2,0.1-0.3c0-0.2,0.1-0.3,0.3-0.3c0.2,0,0.3,0.1,0.3,0.3c0,0.1-0.1,0.2-0.1,0.3H16
				c0.2,0,0.2,0.1,0.2,0.3c0,0.2-0.1,0.2-0.2,0.2h-2.4c-0.2,0.6-0.3,0.8-0.3,0.9c0,0.1,0,0.1,0.1,0.1h0.9v-0.6
				c0-0.2,0.1-0.3,0.3-0.3c0.2,0,0.3,0.1,0.3,0.3v0.6h0.9c0.2,0,0.3,0.1,0.3,0.3c0,0.2-0.1,0.3-0.3,0.3h-0.9v0.6
				C15.2,33.8,15.6,33.8,16,33.7z M16,28.8c0.2,0,0.2,0.1,0.2,0.2c0,0.2-0.1,0.3-0.2,0.3h-1.4V30h2c0-0.5,0-1.1,0-1.7
				c0-0.2,0.1-0.3,0.3-0.3c0.2,0,0.3,0.1,0.3,0.3c0,0.6,0,1.2,0,1.7h1.9c0.2,0,0.3,0.1,0.3,0.3c0,0.2-0.1,0.3-0.3,0.3h-1.9
				c0,0.3,0.1,0.7,0.1,1c0.1,0.6,0.2,1.1,0.3,1.5c0.1-0.2,0.2-0.4,0.3-0.6c0.1-0.3,0.3-0.8,0.4-1.3c0-0.1,0.1-0.2,0.2-0.2
				c0.1,0,0.1,0,0.2,0.1c0.1,0,0.1,0.1,0.1,0.2c0,0.1,0,0.1,0,0.2c-0.1,0.6-0.3,1-0.4,1.4c-0.2,0.4-0.3,0.7-0.5,0.9c0,0,0,0,0,0
				c0.1,0.2,0.2,0.4,0.3,0.6c0.1,0.2,0.2,0.3,0.2,0.3c0.1,0,0.1-0.1,0.2-0.2c0.1-0.3,0.1-0.6,0.1-1c0-0.2,0.1-0.3,0.3-0.3
				c0.2,0,0.3,0.2,0.3,0.4c0,0.5-0.1,0.9-0.2,1.3c-0.1,0.3-0.3,0.5-0.6,0.5c-0.2,0-0.4-0.1-0.6-0.4c-0.1-0.2-0.3-0.4-0.4-0.7
				c-0.1,0.1-0.1,0.1-0.2,0.2c-0.3,0.2-0.6,0.4-1,0.6c-0.1,0-0.2,0.1-0.2,0.1c-0.1,0-0.1,0-0.2-0.1s-0.1-0.1-0.1-0.2
				c0-0.1,0.1-0.2,0.2-0.3c0.4-0.2,0.7-0.4,0.9-0.6c0.1-0.1,0.2-0.2,0.4-0.3c0,0,0-0.1-0.1-0.1c-0.2-0.6-0.4-1.4-0.5-2.3
				c0-0.2,0-0.4-0.1-0.5h-4.3c-0.2,0-0.3-0.1-0.3-0.3c0-0.2,0.1-0.3,0.3-0.3h1.7v-0.7h-1.4c-0.2,0-0.3-0.1-0.3-0.3
				c0-0.2,0.1-0.2,0.3-0.2h1.4v-0.6c0-0.2,0.1-0.3,0.3-0.3c0.2,0,0.3,0.1,0.3,0.3v0.6H16z M18.2,28.2c0.1,0,0.1,0,0.2,0.1
				c0.2,0.3,0.4,0.6,0.5,0.9c0,0.1,0,0.1,0,0.2c0,0.2-0.1,0.3-0.3,0.3c-0.1,0-0.2-0.1-0.2-0.2c-0.1-0.4-0.3-0.7-0.5-0.9
				c0-0.1-0.1-0.1-0.1-0.2C17.9,28.3,18,28.2,18.2,28.2z"/>
			<path class="st1" d="M22.4,30.1c0.2,0,0.2,0.1,0.2,0.3c0,0.2-0.1,0.3-0.2,0.3h-0.6v2.4c0.3-0.1,0.5-0.3,0.7-0.4
				c0.1,0,0.1,0,0.2,0c0.1,0,0.2,0.1,0.2,0.2c0,0,0,0.1,0,0.1c0,0.1-0.1,0.2-0.2,0.3c-0.7,0.4-1.5,0.8-2.2,1c0,0-0.1,0-0.1,0
				c-0.1,0-0.2-0.1-0.3-0.2c0,0,0-0.1,0-0.1c0-0.1,0.1-0.2,0.2-0.3c0.2-0.1,0.5-0.2,0.9-0.3v-2.7h-0.8c-0.1,0-0.2-0.1-0.2-0.3
				c0-0.2,0.1-0.3,0.2-0.3h0.8v-1.9c0-0.2,0.1-0.2,0.3-0.2c0.2,0,0.3,0.1,0.3,0.2v1.9H22.4z M24.1,29.6c-0.2,0.5-0.5,0.9-0.8,1.3
				c-0.1,0.1-0.2,0.1-0.3,0.1c-0.1,0-0.1,0-0.2-0.1c-0.1-0.1-0.1-0.1-0.1-0.2c0-0.1,0-0.2,0.1-0.2c0.6-0.7,1-1.5,1.3-2.5
				c0-0.1,0.1-0.2,0.3-0.2c0,0,0.1,0,0.1,0c0.1,0,0.2,0.1,0.2,0.2c0,0,0,0.1,0,0.1c-0.1,0.3-0.2,0.6-0.3,0.8h2.4
				c0.5,0,0.7,0.2,0.7,0.7c0,2.2-0.1,3.7-0.4,4.7c-0.1,0.3-0.2,0.5-0.4,0.6c-0.2,0.1-0.4,0.2-0.8,0.2c-0.4,0-0.7,0-1-0.1
				c-0.1,0-0.2-0.1-0.2-0.3c0,0,0-0.1,0-0.1c0-0.2,0.1-0.2,0.3-0.2c0,0,0,0,0.1,0c0.2,0.1,0.5,0.1,0.8,0.1c0.3,0,0.5-0.1,0.6-0.4
				c0.2-0.9,0.4-2.3,0.4-4.4c0-0.2-0.1-0.3-0.3-0.3H24.1z M26,32.2c0.1,0,0.2,0.1,0.2,0.2c0,0.1,0,0.1,0,0.2c0,0.1-0.1,0.2-0.2,0.2
				c-0.8,0.5-1.6,0.9-2.5,1.2c0,0-0.1,0-0.1,0c-0.1,0-0.2-0.1-0.3-0.2c0-0.1,0-0.1,0-0.1c0-0.1,0.1-0.2,0.2-0.3
				c0.8-0.3,1.6-0.6,2.4-1.1C25.9,32.2,25.9,32.2,26,32.2z M25.8,30.9c0.1,0,0.2,0.1,0.2,0.3c0,0.2-0.1,0.3-0.2,0.3h-2.1
				c-0.1,0-0.2-0.1-0.2-0.3c0-0.2,0.1-0.3,0.2-0.3H25.8z"/>
			<path class="st1" d="M29.6,35.2c0,0.1-0.1,0.2-0.3,0.2S29,35.4,29,35.2v-2.4c0-0.4,0-0.7,0.1-1c-0.1,0.2-0.3,0.3-0.5,0.5
				c-0.1,0.1-0.1,0.1-0.2,0.1c-0.1,0-0.2,0-0.2-0.1c0-0.1-0.1-0.1-0.1-0.2c0-0.1,0-0.2,0.1-0.2c0.6-0.5,1.1-1.1,1.4-1.7
				c0-0.1,0.1-0.1,0.2-0.1c0,0,0.1,0,0.2,0c0.1,0.1,0.1,0.1,0.1,0.3c0,0,0,0.1,0,0.2c-0.1,0.3-0.3,0.5-0.5,0.7V35.2z M28.8,29.9
				C28.7,30,28.7,30,28.6,30c-0.1,0-0.2,0-0.2-0.1c-0.1-0.1-0.1-0.1-0.1-0.2s0-0.2,0.1-0.2c0.5-0.4,0.9-0.9,1.2-1.5
				c0-0.1,0.1-0.1,0.2-0.1c0,0,0.1,0,0.2,0c0.1,0.1,0.2,0.1,0.2,0.2c0,0,0,0.1,0,0.2C29.8,28.9,29.3,29.5,28.8,29.9z M32.3,33.7
				c0.2,0.3,0.6,0.5,1,0.7c0.1,0,0.1,0.1,0.1,0.2c0,0,0,0.1,0,0.1c0,0.1-0.1,0.2-0.3,0.2c-0.1,0-0.1,0-0.1,0c-0.5-0.2-0.8-0.6-1.1-1
				c-0.3,0.6-0.7,1-1.5,1.3c-0.1,0-0.1,0-0.2,0c-0.1,0-0.2-0.1-0.2-0.2c0,0,0-0.1,0-0.1c0-0.1,0.1-0.2,0.2-0.2c0.6-0.2,1-0.6,1.2-1
				h-1.1c-0.1,0-0.2-0.1-0.2-0.3c0-0.2,0.1-0.2,0.2-0.2h1.3c0-0.1,0-0.2,0-0.2c0-0.2,0.1-0.2,0.3-0.2c0.2,0,0.3,0.1,0.3,0.2l0,0.1
				l0,0.1h1.5c0.1,0,0.2,0.1,0.2,0.2c0,0.2-0.1,0.3-0.2,0.3H32.3z M30.3,30.4c0-0.2,0-0.3,0.1-0.4c0,0-0.1,0-0.1,0
				c-0.1,0-0.1,0-0.2-0.1c-0.1-0.1-0.1-0.1-0.1-0.2c0-0.1,0-0.1,0.1-0.2c0.5-0.5,0.9-1,1.2-1.5c0-0.1,0.1-0.2,0.3-0.2
				c0,0,0.1,0,0.1,0c0.1,0,0.2,0.1,0.2,0.2c0,0,0,0.1,0,0.1l-0.1,0.2h0.9c0.3,0,0.5,0.1,0.5,0.4c0,0.1,0,0.2-0.1,0.2
				c-0.1,0.2-0.3,0.5-0.5,0.7H33c0.4,0,0.6,0.2,0.6,0.6V32c0,0.4-0.2,0.6-0.6,0.6h-2.1c-0.4,0-0.6-0.2-0.6-0.6V30.4z M31.4,28.9
				c-0.2,0.3-0.5,0.6-0.8,0.9c0.1,0,0.2,0,0.3,0h1c0.2-0.3,0.4-0.5,0.5-0.7c0,0,0-0.1,0-0.1c0,0,0-0.1-0.1-0.1H31.4z M31.7,30.2
				h-0.6c-0.1,0-0.2,0.1-0.2,0.2v0.5h0.8V30.2z M31.7,31.4h-0.8v0.6c0,0.1,0.1,0.2,0.2,0.2h0.6V31.4z M33.1,30.4
				c0-0.1-0.1-0.2-0.2-0.2h-0.7v0.7h0.9V30.4z M33.1,31.4h-0.9v0.7h0.7c0.1,0,0.2-0.1,0.2-0.2V31.4z M33.9,30.7
				c-0.2,0-0.2-0.1-0.2-0.3s0.1-0.3,0.2-0.3h1.8c0.2,0,0.2,0.1,0.2,0.3c0,0.2-0.1,0.3-0.2,0.3h-0.6v3.9c0,0.5-0.3,0.7-0.8,0.7
				c-0.2,0-0.4,0-0.6-0.1c-0.2,0-0.2-0.1-0.2-0.3c0,0,0,0,0-0.1c0-0.2,0.1-0.2,0.2-0.2c0,0,0,0,0,0c0.2,0,0.3,0,0.4,0
				c0.2,0,0.3-0.1,0.3-0.3v-3.8H33.9z M35.6,28.4c0.2,0,0.2,0.1,0.2,0.3c0,0.2-0.1,0.3-0.2,0.3H34c-0.2,0-0.2-0.1-0.2-0.3
				c0-0.2,0.1-0.3,0.2-0.3H35.6z"/>
		</g>
		<path class="st2" d="M35.7,11.2c-1-0.4-2-0.4-3.1-0.3c-1.8,0.2-3.6,0.7-5.3,1.5c0.1,0.4,0.3,0.7,0.4,1.1c0.2,0.9,0.3,1.9,0.3,2.9
			c0,0.2-0.1,0.4-0.1,0.6c-0.1,0.3-0.1,0.6-0.2,0.9c-0.3,1.2-0.7,2.2-1.4,3.2l0,0c-0.2,0.2-0.3,0.4-0.5,0.6
			c-0.1,0.1-0.3,0.3-0.4,0.4c0,0-0.1,0.1-0.1,0.1c-0.1,0.1-0.3,0.2-0.4,0.4l0,0l0,0c-0.8,0.7-1.7,1.3-2.7,1.7
			c-0.1,0-0.2,0.1-0.3,0.1c-0.1,0-0.1,0-0.2,0c-0.1,0-0.2,0-0.2,0.1c0.1,0,0.1,0,0.2,0l0,0c0.1,0,0.1,0,0.2-0.1h0
			c0.1,0,0.3,0,0.4-0.1l0,0c0.3,0,0.5-0.1,0.7-0.2c2.4-0.8,4.7-1.8,6.8-3.2c2.1-1.4,4.1-3,5.6-5c0.6-0.8,1.1-1.6,1.3-2.6
			C37,12.4,36.6,11.6,35.7,11.2z"/>
		<path class="st3" d="M28,16.3c0,0.2-0.1,0.4-0.1,0.6c-0.1,0.3-0.1,0.6-0.2,0.9c-0.3,1.2-0.7,2.2-1.4,3.2c-0.2,0.2-0.3,0.4-0.4,0.6
			c-0.1,0.1-0.3,0.3-0.4,0.4c0,0-0.1,0.1-0.1,0.1c-0.1,0.1-0.3,0.3-0.4,0.4c-0.8,0.7-1.7,1.3-2.7,1.7c-0.1,0-0.2,0.1-0.3,0.1
			c-0.1,0-0.1,0-0.2,0c-0.1,0-0.2,0-0.2,0.1c-0.5,0.1-1.1,0.3-1.6,0.3c-2.1,0.2-4-0.2-5.8-1.3c-2.4-1.5-3.8-3.6-4.2-6.3
			c-0.4-2.2,0.1-4.3,1.3-6.3c0.1-0.1,0.2-0.2,0.4-0.2c1.5,0,3,0,4.5,0c0.3,0,0.5-0.1,0.8-0.3c0.1-0.1,0.3-0.2,0.4-0.4c0,0,0,0,0-0.1
			h-5.4c0-0.1,0.1-0.2,0.1-0.3c1.9-2.1,4.3-3.2,7.2-3.1c2.5,0.1,4.5,1.1,6.2,2.9c0.7,0.7,1.2,1.5,1.6,2.4c0,0.1,0.1,0.1,0.1,0.2
			c0.1,0.4,0.3,0.8,0.4,1.1C27.9,14.4,28.1,15.4,28,16.3z"/>
		<path class="st3" d="M5.8,18.5C6,18,6.2,17.5,6.3,17c0.4-1.1,0.7-2.2,1.1-3.3c0.1-0.2,0-0.3-0.1-0.4c-1.3-1-2.7-1.9-4-2.9
			c-0.1,0-0.1-0.1-0.2-0.2c0.1-0.1,0.2,0,0.3,0c1.6,0,3.2,0,4.9,0c0.3,0,0.3,0,0.2,0.3c-0.1,0.3-0.2,0.3-0.5,0.3c-0.9,0-1.7,0-2.6,0
			c-0.1,0-0.2,0-0.3,0c0.4,0.3,0.8,0.6,1.2,0.9c0.6,0.4,1.2,0.9,1.8,1.3c0.1,0.1,0.2,0.2,0.1,0.4c-0.5,1.4-1,2.9-1.4,4.3
			c-0.1,0.2-0.2,0.4-0.4,0.5C6.2,18.3,6,18.4,5.8,18.5C5.9,18.5,5.8,18.5,5.8,18.5z"/>
		<path class="st3" d="M10.3,5c0.3,0.8,0.5,1.6,0.8,2.3c0.3,0.8,0.5,1.6,0.8,2.5c0.1,0.2,0.1,0.4-0.1,0.6c-0.1,0.1-0.2,0.3-0.3,0.3
			c-0.1,0-0.1-0.2-0.2-0.4c-0.5-1.4-0.9-2.8-1.4-4.2c0-0.1-0.1-0.2,0-0.4C10.1,5.5,10.1,5.2,10.3,5C10.2,5,10.3,5,10.3,5z"/>
		<g>
			<path class="st4" d="M13.4,16.7c-0.3-0.9-0.6-1.8-0.9-2.7c-0.1-0.2,0-0.3,0.1-0.4c0.4-0.3,0.4-0.3,0.6,0.2c0.5,1.5,0.9,3,1.4,4.5
				c0,0.1,0.1,0.2,0,0.3c-0.1,0-0.2,0-0.2-0.1c-1.4-1-2.8-2-4.1-3c-0.2-0.1-0.2-0.2,0-0.3c0.5-0.3,0.5-0.3,1,0
				c0.6,0.5,1.2,0.9,1.9,1.4C13.2,16.7,13.3,16.7,13.4,16.7C13.3,16.8,13.4,16.7,13.4,16.7z"/>
			<path class="st4" d="M16.4,12.1c0.1-0.2,0.1-0.4,0.3-0.6c0.3-0.4,0.7-0.4,0.9,0.1c0.2,0.4,0.3,0.8,0.5,1.2
				c0.1,0.2,0.1,0.5,0.4,0.3c0.1,0,0.1,0.1,0,0.1c-0.3,0.2-0.6,0.4-0.9,0.6c0,0-0.1,0-0.1,0c0,0,0-0.1,0-0.1
				c0.2-0.2,0.2-0.4,0.1-0.6c-0.2-0.4-0.3-0.8-0.4-1.2c-0.1-0.1-0.1-0.3-0.3-0.3c-0.2,0-0.3,0.1-0.3,0.3c-0.1,0.2-0.2,0.5-0.1,0.8
				c0.2,0.3,0.3,0.7,0.4,1.1c0.1,0.2,0.1,0.3,0.4,0.2c0,0,0.1,0,0.1,0c0,0,0,0.1,0,0.1c-0.3,0.2-0.6,0.4-0.9,0.6c0,0-0.1,0-0.1,0
				c0,0,0-0.1,0-0.1c0.2-0.1,0.2-0.3,0.1-0.5c-0.2-0.5-0.3-0.9-0.5-1.4c-0.1-0.1-0.1-0.3-0.3-0.1c0,0-0.1,0.1-0.1,0c0,0,0-0.1,0-0.1
				c0.1-0.2,0.3-0.5,0.4-0.6c0.2-0.2,0.2,0.1,0.2,0.1C16.4,12.1,16.4,12.1,16.4,12.1z"/>
			<path class="st4" d="M20,11.8c-0.1,0.2-0.1,0.5-0.3,0.6c-0.3,0.4-0.7,0.3-0.9-0.1c-0.2-0.4-0.3-0.9-0.5-1.3
				c-0.1-0.2-0.1-0.5-0.4-0.3c0,0-0.1,0-0.1,0c0,0,0-0.1,0-0.1c0.2-0.1,0.4-0.3,0.6-0.4c0.1-0.1,0.1,0.1,0.2,0.1
				c0.2,0.5,0.3,0.9,0.5,1.4c0.1,0.2,0.1,0.4,0.3,0.4c0.3,0,0.3-0.2,0.4-0.4c0.1-0.2,0.1-0.4,0-0.6c-0.1-0.4-0.3-0.7-0.4-1.1
				c-0.1-0.2-0.1-0.3-0.3-0.2c0,0-0.1,0-0.1,0c0,0,0-0.1,0-0.1c0.2-0.1,0.3-0.3,0.5-0.4c0.1-0.1,0.2,0,0.2,0.1
				c0.2,0.5,0.3,0.9,0.5,1.4c0,0.1,0.1,0.2,0.1,0.3c0.1,0.1,0.1,0.3,0.3,0.1c0,0,0.1-0.1,0.1,0c0,0,0,0.1,0,0.1
				c-0.1,0.2-0.3,0.5-0.5,0.7c-0.2,0.2-0.1-0.1-0.2-0.2C20,11.9,20,11.8,20,11.8z"/>
			<path class="st4" d="M16,14.3c0-0.1,0-0.2-0.1-0.2c-0.1,0-0.1,0.1-0.1,0.2c0,0.1,0,0.1,0,0.2c-0.1,0.4-0.3,0.6-0.6,0.7
				c-0.3,0.1-0.6-0.1-0.8-0.5c-0.1-0.2-0.1-0.3,0.1-0.4c0.3-0.2,0.7-0.5,1-0.7c0.1-0.1,0.1-0.1,0.1-0.2c-0.1-0.4-0.5-0.6-0.9-0.4
				c-0.2,0.1-0.4,0.2-0.5,0.4c-0.4,0.6-0.4,1.7,0.2,2.2c0.3,0.3,0.8,0.3,1.1,0c0.3-0.3,0.4-0.7,0.4-1.1C16,14.4,16,14.3,16,14.3z
				 M14.3,14.2c-0.1,0,0-0.2-0.1-0.2c0-0.2,0.1-0.4,0.2-0.6c0.2-0.2,0.4-0.2,0.6,0c0.1,0.1,0.2,0.3,0,0.4c-0.2,0.1-0.3,0.2-0.5,0.3
				C14.5,14.1,14.4,14.2,14.3,14.2z"/>
			<path class="st4" d="M21.4,9.9c-0.2,0-0.4,0.1-0.6,0c-0.2,0-0.3-0.1-0.4-0.3c-0.2-0.5,0-1.1,0.5-1.4c0.1,0,0.2,0,0.3-0.2
				c0.1-0.2,0.2-0.1,0.2,0c0.1,0.2,0.1,0.3,0.2,0.5c0,0.1,0,0.1,0,0.2c-0.1,0.1-0.1,0-0.2-0.1c-0.3-0.3-0.6-0.3-0.8,0
				c-0.2,0.3,0,0.6,0.3,0.6c0.2,0,0.3,0,0.5,0c0.6-0.1,0.9,0.3,0.8,0.8c-0.1,0.4-0.3,0.7-0.7,0.9c-0.1,0.1-0.3,0.1-0.4,0.2
				c0,0.1-0.1,0-0.1,0c-0.1-0.2-0.2-0.4-0.2-0.6c0-0.1,0-0.1,0-0.2c0.1,0,0.1,0,0.1,0.1c0,0,0.1,0.1,0.1,0.1c0.2,0.2,0.4,0.2,0.6,0
				c0.2-0.1,0.3-0.3,0.2-0.6C21.9,9.9,21.7,9.9,21.4,9.9z"/>
		</g>
		<path class="st3" d="M20,11.8C20,11.8,20,11.7,20,11.8c0.1-0.1,0.1,0,0.1,0C20,11.9,20,11.8,20,11.8z"/>
		<path class="st3" d="M16.4,12.1C16.4,12.1,16.4,12.2,16.4,12.1c-0.1,0.1-0.1,0-0.1-0.1C16.4,12,16.4,12.1,16.4,12.1z"/>
	</g>
	<g>
		<path class="st5" d="M40,6.3v27.5c0,3.4-2.8,6.3-6.3,6.3H6.3c-2,0-3.7-0.9-4.9-2.3c1.1,0.9,2.4,1.4,3.9,1.4h27.5
			c3.4,0,6.3-2.8,6.3-6.3V5.3c0-1.5-0.5-2.8-1.4-3.9C39.1,2.5,40,4.3,40,6.3z"/>
		<path class="st6" d="M38.6,2.3c-1.1-0.9-2.4-1.4-3.9-1.4H7.2c-3.4,0-6.3,2.8-6.3,6.3v27.5c0,1.5,0.5,2.8,1.4,3.9
			C0.9,37.5,0,35.7,0,33.8V6.3C0,2.8,2.8,0,6.3,0h27.5C35.7,0,37.5,0.9,38.6,2.3z"/>
	</g>
</g>
</svg>
