<?xml version="1.0" encoding="utf-8"?>
<!-- Generator: Adobe Illustrator 21.0.0, SVG Export Plug-In . SVG Version: 6.00 Build 0)  -->
<svg version="1.1" id="图层_1" xmlns="http://www.w3.org/2000/svg" xmlns:xlink="http://www.w3.org/1999/xlink" x="0px" y="0px"
	 width="85.1px" height="57px" viewBox="0 0 85.1 57" style="enable-background:new 0 0 85.1 57;" xml:space="preserve">
<style type="text/css">
	.st0{fill:#FFFFFF;}
	.st1{fill:#E50012;}
	.st2{fill:#1E2380;}
	.st3{fill:none;stroke:#231815;stroke-width:0.1;}
</style>
<g>
	<rect x="0" y="0.1" class="st0" width="85" height="56.9"/>
	<g>
		<rect x="0" y="0.1" class="st1" width="85" height="4.5"/>
		<rect x="0" y="8.8" class="st1" width="85" height="4.5"/>
		<rect x="0" y="17.5" class="st1" width="85" height="4.5"/>
		<rect x="0" y="26.3" class="st1" width="85" height="4.5"/>
		<rect x="0" y="35" class="st1" width="85" height="4.5"/>
		<rect x="0" y="43.8" class="st1" width="85" height="4.5"/>
		<rect x="0" y="52.5" class="st1" width="85" height="4.5"/>
	</g>
	<rect x="0" y="0.1" class="st2" width="38.3" height="30.7"/>
	<g>
		<polygon class="st0" points="3.2,3.8 4.2,4.5 3.8,3.3 4.8,2.6 3.6,2.6 3.2,1.5 2.8,2.6 1.6,2.6 2.6,3.3 2.2,4.5 		"/>
		<polygon class="st0" points="9.6,3.8 10.6,4.5 10.2,3.3 11.1,2.6 10,2.6 9.6,1.5 9.2,2.6 8,2.6 9,3.3 8.6,4.5 		"/>
		<polygon class="st0" points="16,3.8 16.9,4.5 16.6,3.3 17.5,2.6 16.4,2.6 16,1.5 15.6,2.6 14.4,2.6 15.4,3.3 15,4.5 		"/>
		<polygon class="st0" points="22.4,3.8 23.3,4.5 23,3.3 23.9,2.6 22.7,2.6 22.4,1.5 22,2.6 20.8,2.6 21.8,3.3 21.4,4.5 		"/>
		<polygon class="st0" points="28.8,3.8 29.7,4.5 29.4,3.3 30.3,2.6 29.1,2.6 28.8,1.5 28.4,2.6 27.2,2.6 28.2,3.3 27.8,4.5 		"/>
		<polygon class="st0" points="35.2,3.8 36.1,4.5 35.8,3.3 36.7,2.6 35.5,2.6 35.2,1.5 34.8,2.6 33.6,2.6 34.6,3.3 34.2,4.5 		"/>
		<polygon class="st0" points="6.4,6.8 7.4,7.5 7,6.4 8,5.7 6.8,5.7 6.4,4.6 6,5.7 4.8,5.7 5.8,6.4 5.4,7.5 		"/>
		<polygon class="st0" points="12.8,6.8 13.7,7.5 13.4,6.4 14.3,5.7 13.2,5.7 12.8,4.6 12.4,5.7 11.2,5.7 12.2,6.4 11.8,7.5 		"/>
		<polygon class="st0" points="19.2,6.8 20.1,7.5 19.8,6.4 20.7,5.7 19.5,5.7 19.2,4.6 18.8,5.7 17.6,5.7 18.6,6.4 18.2,7.5 		"/>
		<polygon class="st0" points="25.6,6.8 26.5,7.5 26.2,6.4 27.1,5.7 25.9,5.7 25.6,4.6 25.2,5.7 24,5.7 25,6.4 24.6,7.5 		"/>
		<polygon class="st0" points="32,6.8 32.9,7.5 32.6,6.4 33.5,5.7 32.3,5.7 32,4.6 31.6,5.7 30.4,5.7 31.4,6.4 31,7.5 		"/>
		<polygon class="st0" points="3.2,9.9 4.2,10.6 3.8,9.5 4.8,8.8 3.6,8.8 3.2,7.7 2.8,8.8 1.6,8.8 2.6,9.5 2.2,10.6 		"/>
		<polygon class="st0" points="9.6,9.9 10.6,10.6 10.2,9.5 11.1,8.8 10,8.8 9.6,7.7 9.2,8.8 8,8.8 9,9.5 8.6,10.6 		"/>
		<polygon class="st0" points="16,9.9 16.9,10.6 16.6,9.5 17.5,8.8 16.4,8.8 16,7.7 15.6,8.8 14.4,8.8 15.4,9.5 15,10.6 		"/>
		<polygon class="st0" points="22.4,9.9 23.3,10.6 23,9.5 23.9,8.8 22.7,8.8 22.4,7.7 22,8.8 20.8,8.8 21.8,9.5 21.4,10.6 		"/>
		<polygon class="st0" points="28.8,9.9 29.7,10.6 29.4,9.5 30.3,8.8 29.1,8.8 28.8,7.7 28.4,8.8 27.2,8.8 28.2,9.5 27.8,10.6 		"/>
		<polygon class="st0" points="35.2,9.9 36.1,10.6 35.8,9.5 36.7,8.8 35.5,8.8 35.2,7.7 34.8,8.8 33.6,8.8 34.6,9.5 34.2,10.6 		"/>
		<polygon class="st0" points="6.4,13 7.4,13.7 7,12.6 8,11.9 6.8,11.9 6.4,10.7 6,11.9 4.8,11.9 5.8,12.6 5.4,13.7 		"/>
		<polygon class="st0" points="12.8,13 13.7,13.7 13.4,12.6 14.3,11.9 13.2,11.9 12.8,10.7 12.4,11.9 11.2,11.9 12.2,12.6 
			11.8,13.7 		"/>
		<polygon class="st0" points="19.2,13 20.1,13.7 19.8,12.6 20.7,11.9 19.5,11.9 19.2,10.7 18.8,11.9 17.6,11.9 18.6,12.6 
			18.2,13.7 		"/>
		<polygon class="st0" points="25.6,13 26.5,13.7 26.2,12.6 27.1,11.9 25.9,11.9 25.6,10.7 25.2,11.9 24,11.9 25,12.6 24.6,13.7 		
			"/>
		<polygon class="st0" points="32,13 32.9,13.7 32.6,12.6 33.5,11.9 32.3,11.9 32,10.7 31.6,11.9 30.4,11.9 31.4,12.6 31,13.7 		"/>
		<polygon class="st0" points="3.2,16.1 4.2,16.8 3.8,15.7 4.8,15 3.6,15 3.2,13.8 2.8,15 1.6,15 2.6,15.7 2.2,16.8 		"/>
		<polygon class="st0" points="9.6,16.1 10.6,16.8 10.2,15.7 11.1,15 10,15 9.6,13.8 9.2,15 8,15 9,15.7 8.6,16.8 		"/>
		<polygon class="st0" points="16,16.1 16.9,16.8 16.6,15.7 17.5,15 16.4,15 16,13.8 15.6,15 14.4,15 15.4,15.7 15,16.8 		"/>
		<polygon class="st0" points="22.4,16.1 23.3,16.8 23,15.7 23.9,15 22.7,15 22.4,13.8 22,15 20.8,15 21.8,15.7 21.4,16.8 		"/>
		<polygon class="st0" points="28.8,16.1 29.7,16.8 29.4,15.7 30.3,15 29.1,15 28.8,13.8 28.4,15 27.2,15 28.2,15.7 27.8,16.8 		"/>
		<polygon class="st0" points="35.2,16.1 36.1,16.8 35.8,15.7 36.7,15 35.5,15 35.2,13.8 34.8,15 33.6,15 34.6,15.7 34.2,16.8 		"/>
		<polygon class="st0" points="6.4,19.2 7.4,19.9 7,18.8 8,18.1 6.8,18.1 6.4,16.9 6,18.1 4.8,18.1 5.8,18.8 5.4,19.9 		"/>
		<polygon class="st0" points="12.8,19.2 13.7,19.9 13.4,18.8 14.3,18.1 13.2,18.1 12.8,16.9 12.4,18.1 11.2,18.1 12.2,18.8 
			11.8,19.9 		"/>
		<polygon class="st0" points="19.2,19.2 20.1,19.9 19.8,18.8 20.7,18.1 19.5,18.1 19.2,16.9 18.8,18.1 17.6,18.1 18.6,18.8 
			18.2,19.9 		"/>
		<polygon class="st0" points="25.6,19.2 26.5,19.9 26.2,18.8 27.1,18.1 25.9,18.1 25.6,16.9 25.2,18.1 24,18.1 25,18.8 24.6,19.9 
					"/>
		<polygon class="st0" points="32,19.2 32.9,19.9 32.6,18.8 33.5,18.1 32.3,18.1 32,16.9 31.6,18.1 30.4,18.1 31.4,18.8 31,19.9 		
			"/>
		<polygon class="st0" points="3.2,22.3 4.2,23 3.8,21.8 4.8,21.1 3.6,21.1 3.2,20 2.8,21.1 1.6,21.1 2.6,21.8 2.2,23 		"/>
		<polygon class="st0" points="9.6,22.3 10.6,23 10.2,21.8 11.1,21.1 10,21.1 9.6,20 9.2,21.1 8,21.1 9,21.8 8.6,23 		"/>
		<polygon class="st0" points="16,22.3 16.9,23 16.6,21.8 17.5,21.1 16.4,21.1 16,20 15.6,21.1 14.4,21.1 15.4,21.8 15,23 		"/>
		<polygon class="st0" points="22.4,22.3 23.3,23 23,21.8 23.9,21.1 22.7,21.1 22.4,20 22,21.1 20.8,21.1 21.8,21.8 21.4,23 		"/>
		<polygon class="st0" points="28.8,22.3 29.7,23 29.4,21.8 30.3,21.1 29.1,21.1 28.8,20 28.4,21.1 27.2,21.1 28.2,21.8 27.8,23 		
			"/>
		<polygon class="st0" points="35.2,22.3 36.1,23 35.8,21.8 36.7,21.1 35.5,21.1 35.2,20 34.8,21.1 33.6,21.1 34.6,21.8 34.2,23 		
			"/>
		<polygon class="st0" points="6.4,25.4 7.4,26.1 7,24.9 8,24.2 6.8,24.2 6.4,23.1 6,24.2 4.8,24.2 5.8,24.9 5.4,26.1 		"/>
		<polygon class="st0" points="12.8,25.4 13.7,26.1 13.4,24.9 14.3,24.2 13.2,24.2 12.8,23.1 12.4,24.2 11.2,24.2 12.2,24.9 
			11.8,26.1 		"/>
		<polygon class="st0" points="19.2,25.4 20.1,26.1 19.8,24.9 20.7,24.2 19.5,24.2 19.2,23.1 18.8,24.2 17.6,24.2 18.6,24.9 
			18.2,26.1 		"/>
		<polygon class="st0" points="25.6,25.4 26.5,26.1 26.2,24.9 27.1,24.2 25.9,24.2 25.6,23.1 25.2,24.2 24,24.2 25,24.9 24.6,26.1 
					"/>
		<polygon class="st0" points="32,25.4 32.9,26.1 32.6,24.9 33.5,24.2 32.3,24.2 32,23.1 31.6,24.2 30.4,24.2 31.4,24.9 31,26.1 		
			"/>
		<polygon class="st0" points="3.2,28.5 4.2,29.2 3.8,28 4.8,27.3 3.6,27.3 3.2,26.2 2.8,27.3 1.6,27.3 2.6,28 2.2,29.2 		"/>
		<polygon class="st0" points="9.6,28.5 10.6,29.2 10.2,28 11.1,27.3 10,27.3 9.6,26.2 9.2,27.3 8,27.3 9,28 8.6,29.2 		"/>
		<polygon class="st0" points="16,28.5 16.9,29.2 16.6,28 17.5,27.3 16.4,27.3 16,26.2 15.6,27.3 14.4,27.3 15.4,28 15,29.2 		"/>
		<polygon class="st0" points="22.4,28.5 23.3,29.2 23,28 23.9,27.3 22.7,27.3 22.4,26.2 22,27.3 20.8,27.3 21.8,28 21.4,29.2 		"/>
		<polygon class="st0" points="28.8,28.5 29.7,29.2 29.4,28 30.3,27.3 29.1,27.3 28.8,26.2 28.4,27.3 27.2,27.3 28.2,28 27.8,29.2 
					"/>
		<polygon class="st0" points="35.2,28.5 36.1,29.2 35.8,28 36.7,27.3 35.5,27.3 35.2,26.2 34.8,27.3 33.6,27.3 34.6,28 34.2,29.2 
					"/>
	</g>
	<rect x="0" y="0.1" class="st3" width="85" height="56.9"/>
</g>
</svg>
