<?xml version="1.0" encoding="utf-8"?>
<!-- Generator: Adobe Illustrator 21.0.0, SVG Export Plug-In . SVG Version: 6.00 Build 0)  -->
<svg version="1.1" id="图层_1" xmlns="http://www.w3.org/2000/svg" xmlns:xlink="http://www.w3.org/1999/xlink" x="0px" y="0px"
	 width="85px" height="56.8px" viewBox="0 0 85 56.8" style="enable-background:new 0 0 85 56.8;" xml:space="preserve">
<style type="text/css">
	.st0{fill:#231F20;}
	.st1{fill:#E31937;}
	.st2{fill:#FFFFFF;}
</style>
<g>
	<path class="st0" d="M0,56.8V0h85v56.6v0.2H0z M84.8,56.6v-0.2V56.6z M0.4,56.4h84.3l0-56.1H0.4V56.4z"/>
	<rect x="0.2" y="0.2" class="st1" width="21.2" height="56.4"/>
	<rect x="21.3" y="0.2" class="st2" width="42.3" height="56.4"/>
	<rect x="63.7" y="0.2" class="st1" width="21.2" height="56.4"/>
	<path class="st1" d="M42.5,47.4h0.7L43,38.5l0.6-0.5c2.8,0.3,5.3,0.6,8.1,1l-0.7-2.4c-0.1-0.4,0-0.9,0.4-1.2l8.1-6.9l-1.7-0.8
		c-0.7-0.3-0.5-0.7-0.3-1.8l1.2-4.7l-4.7,1c-0.5,0.1-0.8-0.2-0.8-0.5l-0.6-2.2l-3.7,4.4c-0.5,0.7-1.6,0.7-1.3-0.9l1.6-8.8L47,15.3
		c-0.6,0.3-1.2,0.4-1.5-0.2l-3-5.7l-3,5.7c-0.3,0.6-0.9,0.6-1.5,0.2l-2.1-1.2l1.6,8.8c0.3,1.6-0.7,1.6-1.3,0.9l-3.7-4.4l-0.6,2.2
		c-0.1,0.3-0.4,0.6-0.8,0.5l-4.7-1l1.2,4.7c0.3,1,0.5,1.5-0.3,1.8l-1.7,0.8l8.1,6.9c0.3,0.3,0.5,0.7,0.4,1.2L33.3,39
		c2.8-0.3,5.3-0.6,8.1-1l0.6,0.5l-0.2,8.9H42.5z"/>
</g>
</svg>
