<?xml version="1.0" encoding="utf-8"?>
<!-- Generator: Adobe Illustrator 21.0.0, SVG Export Plug-In . SVG Version: 6.00 Build 0)  -->
<svg version="1.1" id="图层_1" xmlns="http://www.w3.org/2000/svg" xmlns:xlink="http://www.w3.org/1999/xlink" x="0px" y="0px"
	 width="85px" height="56.8px" viewBox="0 0 85 56.8" style="enable-background:new 0 0 85 56.8;" xml:space="preserve">
<style type="text/css">
	.st0{fill:#231F20;}
	.st1{fill:#138808;}
	.st2{fill:#FFFFFF;}
	.st3{fill:#FF9933;}
	.st4{fill:#000066;}
</style>
<g>
	<path class="st0" d="M0,56.8V0h85v56.6v0.2H0z M84.8,56.6v-0.2V56.6z M0.4,56.4h84.3l0-56.1H0.4V56.4z"/>
	<rect x="0.2" y="37.8" class="st1" width="84.6" height="18.8"/>
	<rect x="0.2" y="19" class="st2" width="84.6" height="18.8"/>
	<rect x="0.2" y="0.2" class="st3" width="84.6" height="18.8"/>
	<rect x="49.2" y="25.2" transform="matrix(0.4997 -0.8662 0.8662 0.4997 2.7127 55.5852)" class="st4" width="0.5" height="0.5"/>
	<polygon class="st4" points="50,27.7 49.6,27.4 50,27 50.4,27.4 	"/>
	<polygon class="st4" points="49.9,29.7 49.7,29.2 50.1,29 50.4,29.4 	"/>
	<polygon class="st4" points="49.3,31.6 49.2,31.1 49.7,30.9 49.8,31.4 	"/>
	<rect x="49.2" y="25.2" transform="matrix(0.4997 -0.8662 0.8662 0.4997 2.7127 55.5852)" class="st4" width="0.5" height="0.5"/>
	<polygon class="st4" points="50,27.7 49.6,27.4 50,27 50.4,27.4 	"/>
	<polygon class="st4" points="49.9,29.7 49.7,29.2 50.1,29 50.4,29.4 	"/>
	<polygon class="st4" points="49.3,31.6 49.2,31.1 49.7,30.9 49.8,31.4 	"/>
	<rect x="41.2" y="20.6" transform="matrix(0.705 -0.7092 0.7092 0.705 -2.5901 35.559)" class="st4" width="0.5" height="0.5"/>
	<rect x="43.2" y="20.6" transform="matrix(0.8679 -0.4967 0.4967 0.8679 -4.634 24.3289)" class="st4" width="0.5" height="0.5"/>
	<polygon class="st4" points="45.7,21.6 45.2,21.7 45,21.2 45.5,21.1 	"/>
	<rect x="46.8" y="22.1" class="st4" width="0.5" height="0.5"/>
	<rect x="48.2" y="23.5" transform="matrix(0.2592 -0.9658 0.9658 0.2592 12.983 64.4042)" class="st4" width="0.5" height="0.5"/>
	<rect x="48.3" y="32.7" class="st4" width="0.5" height="0.5"/>
	<polygon class="st4" points="46.8,34.6 47,34.1 47.5,34.2 47.3,34.7 	"/>
	<polygon class="st4" points="45.1,35.5 45.4,35 45.8,35.3 45.5,35.7 	"/>
	<polygon class="st4" points="43.2,35.9 43.5,35.5 43.9,35.9 43.5,36.3 	"/>
	<polygon class="st4" points="41.2,35.8 41.7,35.6 41.9,36 41.5,36.3 	"/>
	<rect x="39.4" y="35.2" transform="matrix(0.9658 -0.2593 0.2593 0.9658 -7.8289 11.4943)" class="st4" width="0.5" height="0.5"/>
	<rect x="37.7" y="34.2" class="st4" width="0.5" height="0.5"/>
	<rect x="36.3" y="32.8" transform="matrix(0.2593 -0.9658 0.9658 0.2593 -4.8742 59.7583)" class="st4" width="0.5" height="0.5"/>
	<rect x="35.3" y="31.1" transform="matrix(0.4997 -0.8662 0.8662 0.4997 -9.3865 46.4511)" class="st4" width="0.5" height="0.5"/>
	<rect x="34.7" y="29.2" transform="matrix(0.7051 -0.7091 0.7091 0.7051 -10.5606 33.497)" class="st4" width="0.5" height="0.5"/>
	<polygon class="st4" points="35.1,27.1 35.3,27.6 34.9,27.8 34.6,27.4 	"/>
	<rect x="35.2" y="25.3" transform="matrix(0.9653 -0.2612 0.2612 0.9653 -5.442 10.1522)" class="st4" width="0.5" height="0.5"/>
	
		<rect x="36.2" y="23.6" transform="matrix(1 -4.163161e-03 4.163161e-03 1 -9.889769e-02 0.152)" class="st4" width="0.5" height="0.5"/>
	<polygon class="st4" points="38.1,22.2 38,22.7 37.5,22.6 37.7,22.1 	"/>
	<polygon class="st4" points="39.9,21.3 39.6,21.8 39.2,21.5 39.5,21.1 	"/>
	<polygon class="st4" points="42.3,28.4 42.6,25.4 42.3,20.9 42.1,25.4 	"/>
	<polygon class="st4" points="42.3,28.4 43.3,25.5 44.3,21.1 42.9,25.4 	"/>
	<polygon class="st4" points="42.3,28.4 44,25.9 46.1,21.9 43.6,25.7 	"/>
	<polygon class="st4" points="42.3,28.4 44.6,26.4 47.6,23 44.3,26.1 	"/>
	<polygon class="st4" points="42.3,28.4 45,27.1 48.8,24.6 44.8,26.7 	"/>
	<polygon class="st4" points="42.3,28.4 45.3,27.8 49.6,26.4 45.2,27.4 	"/>
	<polygon class="st4" points="42.3,28.4 45.3,28.6 49.9,28.4 45.3,28.1 	"/>
	<polygon class="st4" points="42.3,28.4 45.2,29.4 49.6,30.3 45.3,28.9 	"/>
	<polygon class="st4" points="42.3,28.4 44.8,30.1 48.9,32.1 45.1,29.7 	"/>
	<polygon class="st4" points="42.3,28.4 44.3,30.6 47.7,33.7 44.6,30.3 	"/>
	<polygon class="st4" points="42.3,28.4 43.7,31.1 46.1,34.9 44,30.9 	"/>
	<polygon class="st4" points="42.3,28.4 42.9,31.3 44.3,35.6 43.3,31.2 	"/>
	<polygon class="st4" points="42.3,28.4 42.1,31.4 42.4,35.9 42.6,31.4 	"/>
	<polygon class="st4" points="42.3,28.4 41.4,31.2 40.4,35.6 41.8,31.3 	"/>
	<polygon class="st4" points="42.3,28.4 40.7,30.9 38.6,34.9 41,31.1 	"/>
	<polygon class="st4" points="42.3,28.4 40.1,30.3 37,33.7 40.4,30.7 	"/>
	<polygon class="st4" points="42.3,28.4 39.6,29.7 35.8,32.2 39.9,30.1 	"/>
	<polygon class="st4" points="42.3,28.4 39.4,28.9 35.1,30.3 39.5,29.4 	"/>
	<polygon class="st4" points="42.3,28.4 39.3,28.2 34.8,28.4 39.3,28.6 	"/>
	<polygon class="st4" points="42.3,28.4 39.5,27.4 35.1,26.5 39.4,27.8 	"/>
	<polygon class="st4" points="42.3,28.4 39.8,26.7 35.8,24.6 39.6,27.1 	"/>
	<polygon class="st4" points="42.3,28.4 40.4,26.1 37,23.1 40.1,26.4 	"/>
	<polygon class="st4" points="42.3,28.4 41,25.7 38.6,21.9 40.6,25.9 	"/>
	<polygon class="st4" points="42.3,28.4 41.8,25.4 40.4,21.1 41.3,25.5 	"/>
	<path class="st4" d="M44.7,20.2c-4.6-1.2-9.2,1.5-10.5,6c-1.2,4.6,1.5,9.2,6,10.5c4.6,1.2,9.2-1.5,10.5-6
		C52,26.1,49.3,21.4,44.7,20.2z M40.5,35.7c-4-1.1-6.4-5.2-5.3-9.3c1.1-4,5.2-6.4,9.3-5.3c4,1.1,6.4,5.2,5.3,9.3
		C48.7,34.4,44.6,36.8,40.5,35.7z"/>
	<ellipse transform="matrix(0.2596 -0.9657 0.9657 0.2596 4.0431 62.0711)" class="st4" cx="42.5" cy="28.4" rx="1.5" ry="1.5"/>
	<polygon class="st4" points="45.7,21.6 45.2,21.7 45,21.2 45.5,21.1 	"/>
	<rect x="46.8" y="22.1" class="st4" width="0.5" height="0.5"/>
	<rect x="48.2" y="23.5" transform="matrix(0.2592 -0.9658 0.9658 0.2592 12.983 64.4042)" class="st4" width="0.5" height="0.5"/>
	<rect x="48.3" y="32.7" class="st4" width="0.5" height="0.5"/>
	<polygon class="st4" points="46.8,34.6 47,34.1 47.5,34.2 47.3,34.7 	"/>
	<polygon class="st4" points="45.1,35.5 45.4,35 45.8,35.3 45.5,35.7 	"/>
	<polygon class="st4" points="43.2,35.9 43.5,35.5 43.9,35.9 43.5,36.3 	"/>
	<polygon class="st4" points="41.2,35.8 41.7,35.6 41.9,36 41.5,36.3 	"/>
	<rect x="39.4" y="35.2" transform="matrix(0.9658 -0.2593 0.2593 0.9658 -7.8289 11.4943)" class="st4" width="0.5" height="0.5"/>
	<rect x="37.7" y="34.2" class="st4" width="0.5" height="0.5"/>
	<rect x="36.3" y="32.8" transform="matrix(0.2593 -0.9658 0.9658 0.2593 -4.8742 59.7583)" class="st4" width="0.5" height="0.5"/>
	<rect x="35.3" y="31.1" transform="matrix(0.4997 -0.8662 0.8662 0.4997 -9.3865 46.4511)" class="st4" width="0.5" height="0.5"/>
	<rect x="34.7" y="29.2" transform="matrix(0.7051 -0.7091 0.7091 0.7051 -10.5606 33.497)" class="st4" width="0.5" height="0.5"/>
	<polygon class="st4" points="35.1,27.1 35.3,27.6 34.9,27.8 34.6,27.4 	"/>
	<rect x="35.2" y="25.3" transform="matrix(0.9653 -0.2612 0.2612 0.9653 -5.442 10.1522)" class="st4" width="0.5" height="0.5"/>
	
		<rect x="36.2" y="23.6" transform="matrix(1 -4.163161e-03 4.163161e-03 1 -9.889769e-02 0.152)" class="st4" width="0.5" height="0.5"/>
	<polygon class="st4" points="38.1,22.2 38,22.7 37.5,22.6 37.7,22.1 	"/>
	<polygon class="st4" points="39.9,21.3 39.6,21.8 39.2,21.5 39.5,21.1 	"/>
	<rect x="41.2" y="20.6" transform="matrix(0.705 -0.7092 0.7092 0.705 -2.5901 35.559)" class="st4" width="0.5" height="0.5"/>
</g>
</svg>
