<?xml version="1.0" encoding="utf-8"?>
<!-- Generator: Adobe Illustrator 21.0.0, SVG Export Plug-In . SVG Version: 6.00 Build 0)  -->
<svg version="1.1" id="图层_1" xmlns="http://www.w3.org/2000/svg" xmlns:xlink="http://www.w3.org/1999/xlink" x="0px" y="0px"
	 width="85px" height="56.8px" viewBox="0 0 85 56.8" style="enable-background:new 0 0 85 56.8;" xml:space="preserve">
<style type="text/css">
	.st0{fill:#231F20;}
	.st1{fill:#DA0000;}
	.st2{fill:#FFFFFF;}
	.st3{fill:#239F40;}
</style>
<g>
	<path class="st0" d="M0,56.8V0h85v56.6v0.2H0z M84.8,56.6v-0.2V56.6z M0.4,56.4h84.3l0-56.1H0.4V56.4z"/>
	<rect x="0.2" y="37.8" class="st1" width="84.6" height="18.8"/>
	<rect x="0.2" y="19" class="st2" width="84.6" height="18.8"/>
	<rect x="0.2" y="0.2" class="st3" width="84.6" height="18.8"/>
	<path class="st2" d="M0.2,17.8h0.4v-0.8h1.2v0.8h1.9v-1.2H2.5v0.4h0.8v0.4H2.1v-0.8H0.2V17.8z M1,17.8h0.4v-0.4H1V17.8z M0.2,16.3
		h5v-0.4h-5V16.3z M5.2,17.8H4v-1.2h1.6v-0.8H6v1.5h0.4v-1.5h0.4v1.5h0.4v-1.5h0.4v1.9H5.6v-0.8H4.4v0.4h0.8V17.8z"/>
	<path class="st2" d="M7.9,17.8h0.4v-0.8h1.2v0.8h1.9v-1.2h-1.2v0.4H11v0.4H9.8v-0.8H7.9V17.8z M8.7,17.8h0.4v-0.4H8.7V17.8z
		 M7.9,16.3h5v-0.4h-5V16.3z M12.9,17.8h-1.2v-1.2h1.5v-0.8h0.4v1.5h0.4v-1.5h0.4v1.5h0.4v-1.5h0.4v1.9h-1.9v-0.8h-1.2v0.4h0.8V17.8
		z"/>
	<path class="st2" d="M15.6,17.8H16v-0.8h1.2v0.8h1.9v-1.2H18v0.4h0.8v0.4h-1.2v-0.8h-1.9V17.8z M16.4,17.8h0.4v-0.4h-0.4V17.8z
		 M15.6,16.3h5v-0.4h-5V16.3z M20.7,17.8h-1.2v-1.2h1.5v-0.8h0.4v1.5h0.4v-1.5h0.4v1.5h0.4v-1.5H23v1.9h-1.9v-0.8h-1.2v0.4h0.8V17.8
		z"/>
	<path class="st2" d="M23.4,17.8h0.4v-0.8h1.2v0.8h1.9v-1.2h-1.2v0.4h0.8v0.4h-1.2v-0.8h-1.9V17.8z M24.1,17.8h0.4v-0.4h-0.4V17.8z
		 M23.4,16.3h5v-0.4h-5V16.3z M28.4,17.8h-1.2v-1.2h1.5v-0.8h0.4v1.5h0.4v-1.5h0.4v1.5h0.4v-1.5h0.4v1.9l-1.9,0v-0.8h-1.2v0.4h0.8
		V17.8z"/>
	<path class="st2" d="M31.1,17.8h0.4v-0.8h1.2v0.8h1.9v-1.2h-1.2v0.4h0.8v0.4H33v-0.8h-1.9V17.8z M31.9,17.8h0.4v-0.4h-0.4V17.8z
		 M31.1,16.3h5v-0.4h-5V16.3z M36.1,17.8H35v-1.2h1.5v-0.8h0.4v1.5h0.4v-1.5h0.4v1.5h0.4v-1.5h0.4v1.9h-1.9v-0.8h-1.2v0.4h0.8V17.8z
		"/>
	<path class="st2" d="M38.8,17.8h0.4v-0.8h1.2v0.8h1.9v-1.2h-1.2v0.4h0.8v0.4h-1.2v-0.8h-1.9V17.8z M39.6,17.8H40v-0.4h-0.4V17.8z
		 M38.8,16.3h5v-0.4h-5V16.3z M43.9,17.8h-1.2v-1.2h1.5v-0.8h0.4v1.5H45v-1.5h0.4v1.5h0.4v-1.5h0.4v1.9h-1.9v-0.8h-1.2v0.4h0.8V17.8
		z"/>
	<path class="st2" d="M46.6,17.8h0.4v-0.8h1.2v0.8H50v-1.2h-1.2v0.4h0.8v0.4h-1.2v-0.8h-1.9V17.8z M47.3,17.8h0.4v-0.4h-0.4V17.8z
		 M46.6,16.3h5v-0.4h-5V16.3z M51.6,17.8h-1.2v-1.2H52v-0.8h0.4v1.5h0.4v-1.5h0.4v1.5h0.4v-1.5h0.4v1.9H52v-0.8h-1.2v0.4h0.8V17.8z"
		/>
	<path class="st2" d="M54.3,17.8h0.4v-0.8l1.2,0v0.8h1.9v-1.2h-1.2v0.4h0.8v0.4h-1.2v-0.8h-1.9V17.8z M55.1,17.8h0.4v-0.4h-0.4V17.8
		z M54.3,16.3l5,0v-0.4l-5,0V16.3z M59.3,17.8h-1.2v-1.2h1.5v-0.8h0.4v1.5h0.4v-1.5h0.4v1.5h0.4v-1.5h0.4v1.9h-1.9v-0.8h-1.2v0.4
		h0.8V17.8z"/>
	<path class="st2" d="M62,17.8h0.4v-0.8h1.2v0.8h1.9v-1.2h-1.2v0.4h0.8v0.4H64v-0.8H62V17.8z M62.8,17.8h0.4v-0.4h-0.4V17.8z
		 M62,16.3h5v-0.4h-5V16.3z M67,17.8h-1.2v-1.2h1.5v-0.8h0.4v1.5h0.4v-1.5h0.4v1.5H69v-1.5h0.4v1.9h-1.9v-0.8h-1.2v0.4H67V17.8z"/>
	<path class="st2" d="M69.7,17.8h0.4v-0.8h1.2v0.8h1.9v-1.2h-1.2v0.4h0.8v0.4h-1.2v-0.8h-1.9V17.8z M70.5,17.8h0.4v-0.4h-0.4V17.8z
		 M69.7,16.3h5v-0.4h-5V16.3z M74.8,17.8h-1.2v-1.2h1.5v-0.8h0.4v1.5h0.4v-1.5h0.4v1.5h0.4v-1.5h0.4v1.9h-1.9v-0.8H74v0.4h0.8V17.8z
		"/>
	<path class="st2" d="M77.5,17.8h0.4v-0.8H79v0.8l1.9,0v-1.2h-1.2v0.4h0.8v0.4l-1.2,0v-0.8l-1.9,0V17.8z M78.3,17.8h0.4v-0.4h-0.4
		V17.8z M77.5,16.3l5,0v-0.4l-5,0V16.3z M82.5,17.8h-1.2v-1.2h1.5v-0.8h0.4v1.5h0.4v-1.5h0.4v1.5h0.4v-1.5h0.4v1.9h-1.9v-0.8h-1.2
		v0.4h0.8V17.8z"/>
	<path class="st2" d="M0.2,19h3.5v-0.8H0.2V19z M4,19l3.5,0v-0.8l-3.5,0V19z"/>
	<path class="st2" d="M7.9,19h3.5v-0.8H7.9V19z M11.8,19h3.5v-0.8h-3.5V19z"/>
	<path class="st2" d="M15.6,19h3.5v-0.8h-3.5V19z M19.5,19H23v-0.8h-3.5V19z"/>
	<path class="st2" d="M23.4,19h3.5v-0.8h-3.5V19z M27.2,19l3.5,0v-0.8l-3.5,0V19z"/>
	<path class="st2" d="M31.1,19h3.5v-0.8h-3.5V19z M35,19h3.5v-0.8H35V19z"/>
	<path class="st2" d="M38.8,19h3.5v-0.8h-3.5V19z M42.7,19h3.5v-0.8h-3.5V19z"/>
	<path class="st2" d="M46.6,19H50v-0.8h-3.5V19z M50.4,19h3.5v-0.8h-3.5V19z"/>
	<path class="st2" d="M54.3,19l3.5,0v-0.8h-3.5V19z M58.2,19h3.5v-0.8h-3.5V19z"/>
	<path class="st2" d="M62,19h3.5v-0.8H62V19z M65.9,19h3.5v-0.8h-3.5V19z"/>
	<path class="st2" d="M69.7,19h3.5v-0.8h-3.5V19z M73.6,19h3.5v-0.8h-3.5V19z"/>
	<path class="st2" d="M77.5,19H81v-0.8l-3.5,0V19z M81.3,19h3.5v-0.8h-3.5V19z"/>
	<path class="st2" d="M0.2,40.9h0.4v-0.8h1.2v0.8h1.9v-1.2H2.5v0.4h0.8v0.4H2.1v-0.8H0.2V40.9z M1,40.9h0.4v-0.4H1V40.9z M0.2,39.4
		h5V39h-5V39.4z M5.2,40.9H4v-1.2h1.6V39H6v1.5h0.4V39h0.4v1.5h0.4V39h0.4v1.9H5.6v-0.8H4.4v0.4h0.8V40.9z"/>
	<path class="st2" d="M7.9,40.9h0.4v-0.8h1.2v0.8h1.9v-1.2h-1.2v0.4H11v0.4H9.8v-0.8H7.9V40.9z M8.7,40.9h0.4v-0.4H8.7V40.9z
		 M7.9,39.4h5V39h-5V39.4z M12.9,40.9h-1.2v-1.2h1.5V39h0.4v1.5h0.4V39h0.4v1.5h0.4V39h0.4v1.9h-1.9v-0.8h-1.2v0.4h0.8V40.9z"/>
	<path class="st2" d="M15.6,40.9H16v-0.8h1.2v0.8h1.9v-1.2H18v0.4h0.8v0.4h-1.2v-0.8h-1.9V40.9z M16.4,40.9h0.4v-0.4h-0.4V40.9z
		 M15.6,39.4h5V39h-5V39.4z M20.7,40.9h-1.2v-1.2h1.5V39h0.4v1.5h0.4V39h0.4v1.5h0.4V39H23v1.9h-1.9v-0.8h-1.2v0.4h0.8V40.9z"/>
	<path class="st2" d="M23.4,40.9h0.4v-0.8h1.2v0.8h1.9v-1.2h-1.2v0.4h0.8v0.4h-1.2v-0.8h-1.9V40.9z M24.1,40.9h0.4v-0.4h-0.4V40.9z
		 M23.4,39.4h5V39h-5V39.4z M28.4,40.9h-1.2v-1.2h1.5V39h0.4v1.5h0.4V39h0.4v1.5h0.4V39h0.4v1.9h-1.9v-0.8h-1.2v0.4h0.8V40.9z"/>
	<path class="st2" d="M31.1,40.9h0.4v-0.8h1.2v0.8h1.9v-1.2h-1.2v0.4h0.8v0.4H33v-0.8h-1.9V40.9z M31.9,40.9h0.4v-0.4h-0.4V40.9z
		 M31.1,39.4h5V39h-5V39.4z M36.1,40.9H35v-1.2h1.5V39h0.4v1.5h0.4V39h0.4v1.5h0.4V39h0.4v1.9h-1.9v-0.8h-1.2v0.4h0.8V40.9z"/>
	<path class="st2" d="M38.8,40.9h0.4v-0.8h1.2v0.8h1.9v-1.2h-1.2v0.4h0.8v0.4h-1.2v-0.8h-1.9V40.9z M39.6,40.9H40v-0.4h-0.4V40.9z
		 M38.8,39.4h5V39h-5V39.4z M43.9,40.9h-1.2v-1.2h1.5V39h0.4v1.5H45V39h0.4v1.5h0.4V39h0.4v1.9h-1.9v-0.8h-1.2v0.4h0.8V40.9z"/>
	<path class="st2" d="M46.6,40.9h0.4v-0.8h1.2v0.8H50v-1.2h-1.2v0.4h0.8v0.4h-1.2v-0.8h-1.9V40.9z M47.3,40.9h0.4v-0.4h-0.4V40.9z
		 M46.6,39.4h5V39h-5V39.4z M51.6,40.9h-1.2v-1.2H52V39h0.4v1.5h0.4V39h0.4v1.5h0.4V39h0.4v1.9H52v-0.8h-1.2v0.4h0.8V40.9z"/>
	<path class="st2" d="M54.3,40.9h0.4v-0.8h1.2v0.8h1.9v-1.2h-1.2v0.4h0.8v0.4h-1.2v-0.8h-1.9V40.9z M55.1,40.9h0.4v-0.4h-0.4V40.9z
		 M54.3,39.4h5V39h-5V39.4z M59.3,40.9h-1.2v-1.2h1.5V39h0.4v1.5h0.4V39h0.4v1.5h0.4V39h0.4v1.9h-1.9v-0.8h-1.2v0.4h0.8V40.9z"/>
	<path class="st2" d="M62,40.9h0.4v-0.8h1.2v0.8h1.9v-1.2h-1.2v0.4h0.8v0.4H64v-0.8H62V40.9z M62.8,40.9h0.4v-0.4h-0.4V40.9z
		 M62,39.4h5V39h-5V39.4z M67,40.9h-1.2v-1.2h1.5V39h0.4v1.5h0.4V39h0.4v1.5H69V39h0.4v1.9h-1.9v-0.8h-1.2v0.4H67V40.9z"/>
	<path class="st2" d="M69.7,40.9h0.4v-0.8h1.2v0.8h1.9v-1.2h-1.2v0.4h0.8v0.4h-1.2v-0.8h-1.9V40.9z M70.5,40.9h0.4v-0.4h-0.4V40.9z
		 M69.7,39.4h5V39h-5V39.4z M74.8,40.9h-1.2v-1.2h1.5V39h0.4v1.5h0.4V39h0.4v1.5h0.4V39h0.4v1.9h-1.9v-0.8H74v0.4h0.8V40.9z"/>
	<path class="st2" d="M77.5,40.9h0.4v-0.8H79v0.8H81v-1.2h-1.2v0.4h0.8v0.4h-1.2v-0.8h-1.9V40.9z M78.3,40.9h0.4v-0.4h-0.4V40.9z
		 M77.5,39.4h5V39h-5V39.4z M82.5,40.9h-1.2v-1.2h1.5V39h0.4v1.5h0.4V39h0.4v1.5h0.4V39h0.4v1.9h-1.9v-0.8h-1.2v0.4h0.8V40.9z"/>
	<path class="st2" d="M0.2,38.6h3.5v-0.8H0.2V38.6z M4,38.6h3.5v-0.8H4V38.6z"/>
	<path class="st2" d="M7.9,38.6h3.5v-0.8H7.9V38.6z M11.8,38.6h3.5v-0.8h-3.5V38.6z"/>
	<path class="st2" d="M15.6,38.6h3.5v-0.8h-3.5V38.6z M19.5,38.6H23v-0.8h-3.5V38.6z"/>
	<path class="st2" d="M23.4,38.6h3.5v-0.8h-3.5V38.6z M27.2,38.6h3.5v-0.8h-3.5V38.6z"/>
	<path class="st2" d="M31.1,38.6h3.5v-0.8h-3.5V38.6z M35,38.6h3.5v-0.8H35V38.6z"/>
	<path class="st2" d="M38.8,38.6h3.5v-0.8h-3.5V38.6z M42.7,38.6h3.5v-0.8h-3.5V38.6z"/>
	<path class="st2" d="M46.6,38.6H50v-0.8h-3.5V38.6z M50.4,38.6h3.5v-0.8h-3.5V38.6z"/>
	<path class="st2" d="M54.3,38.6h3.5v-0.8h-3.5V38.6z M58.2,38.6h3.5v-0.8h-3.5V38.6z"/>
	<path class="st2" d="M62,38.6h3.5v-0.8H62V38.6z M65.9,38.6h3.5v-0.8h-3.5V38.6z"/>
	<path class="st2" d="M69.7,38.6h3.5v-0.8h-3.5V38.6z M73.6,38.6h3.5v-0.8h-3.5V38.6z"/>
	<path class="st2" d="M77.5,38.6H81v-0.8h-3.5V38.6z M81.3,38.6h3.5v-0.8h-3.5V38.6z"/>
	<path class="st1" d="M44.5,20.2l0,0.2c0.1,0.4-0.1,0.9-0.5,1.1l-0.9,0.2l-0.7-0.4l-0.7,0.4l-0.9-0.2c-0.4-0.3-0.6-0.8-0.5-1.3
		l0.2,0.3l0.9,0.4l0.9-0.3l0.4,0.2l1-0.1L44.5,20.2z"/>
	<path class="st1" d="M41.5,22.4l1-0.8l1,0.8c0,1.1,0,2.2,0,3.3c0,0.5,0,0.9,0,1.4c0,1.3,0,2.5-0.1,3.8c0,0.5,0,1,0,1.5
		c0,0.4,0,0.8,0,1.2l0.3-0.2c0.6-0.5,1.1-1.1,1.5-1.7c0.7-1,1.2-2.2,1.4-3.4c0.2-1.5,0-3.1-0.6-4.4c-0.2-0.6-0.6-1.2-1-1.7
		c0.8,0.6,1.4,1.4,1.9,2.3c0.6,1.2,1,2.5,1,3.8c0,1.9-0.8,3.8-2.1,5.2c-0.5,0.6-1.2,1.1-1.9,1.5c1.2,0.4,2.4,0.5,3.7,0.4
		c-0.5,0.2-1,0.3-1.5,0.4c-0.9,0.2-1.9,0.2-2.8,0l0,0.1l-0.8,0.9h0l-0.8-0.9l0-0.1l-0.3,0c-1.3,0.2-2.7,0-4-0.5
		c0.6,0.1,1.1,0.1,1.7,0c0.7-0.1,1.3-0.2,2-0.4l-0.5-0.3c-1.1-0.7-2-1.7-2.6-2.8c-0.7-1.2-1-2.6-0.9-3.9c0-1.2,0.4-2.4,1-3.5
		c0.5-0.9,1.1-1.6,1.9-2.2l-0.2,0.3c-0.8,1.1-1.2,2.5-1.4,3.8c-0.1,1.5,0.1,3.1,0.8,4.5c0.6,1.1,1.4,2.1,2.4,2.9l0-1
		c0-0.4,0-0.9,0-1.3c0-1.3,0-2.5-0.1-3.8c0-0.5,0-0.9,0-1.4C41.5,24.8,41.5,23.6,41.5,22.4z"/>
	<path class="st1" d="M36.1,23.5c0.8-0.8,1.8-1.4,2.9-1.7L38.7,22c-0.9,0.7-1.7,1.6-2.2,2.7c-0.6,1.1-0.9,2.3-0.9,3.5
		c-0.1,1.5,0.3,3.1,1.1,4.4c0.3,0.5,0.6,0.9,0.9,1.3l-0.5-0.3c-1.1-0.7-2-1.8-2.4-3c-0.3-0.7-0.5-1.5-0.5-2.3v-0.4
		c0-0.5,0.1-1.1,0.2-1.6C34.7,25.2,35.3,24.2,36.1,23.5z"/>
	<path class="st1" d="M46,21.8l0.3,0.1c0.7,0.2,1.3,0.5,1.9,1c0.9,0.6,1.6,1.5,2,2.5c0.4,0.8,0.6,1.7,0.6,2.7v0.3l-0.1,0.9
		c-0.1,0.7-0.4,1.5-0.7,2.1c-0.6,1.1-1.5,2.1-2.7,2.6c0.7-0.8,1.2-1.7,1.6-2.7c0.3-1,0.5-2,0.4-3.1c-0.1-1.2-0.4-2.4-1-3.5
		C47.9,23.5,47,22.5,46,21.8z"/>
</g>
</svg>
