<?xml version="1.0" encoding="utf-8"?>
<!-- Generator: Adobe Illustrator 21.0.0, SVG Export Plug-In . SVG Version: 6.00 Build 0)  -->
<svg version="1.1" id="图层_1" xmlns="http://www.w3.org/2000/svg" xmlns:xlink="http://www.w3.org/1999/xlink" x="0px" y="0px"
	 width="85.1px" height="57px" viewBox="0 0 85.1 57" style="enable-background:new 0 0 85.1 57;" xml:space="preserve">
<style type="text/css">
	.st0{fill:#FFFFFF;stroke:#231815;stroke-width:0.1;}
	.st1{fill:#E50012;}
	.st2{fill:#0068B6;}
	.st3{fill:#231815;}
</style>
<g>
	<rect x="0" y="0" class="st0" width="85" height="57"/>
	<g>
		<ellipse transform="matrix(0.533 -0.8461 0.8461 0.533 -4.2494 49.3161)" class="st1" cx="42.5" cy="28.5" rx="14.1" ry="14.1"/>
		<path class="st2" d="M54.5,36c-4.1,6.6-12.8,8.6-19.4,4.4c-6.6-4.1-8.6-12.8-4.4-19.4c-2.1,3.3-1.1,7.6,2.2,9.7
			c3.3,2.1,7.6,1.1,9.7-2.2c2.1-3.3,6.4-4.3,9.7-2.2C55.6,28.4,56.5,32.7,54.5,36z"/>
	</g>
	<rect x="62.9" y="6.6" transform="matrix(0.8299 -0.5579 0.5579 0.8299 3.0914 38.0207)" class="st3" width="1.9" height="14.8"/>
	<g>
		<rect x="57.4" y="9.4" transform="matrix(0.8299 -0.5579 0.5579 0.8299 2.8971 34.7266)" class="st3" width="1.9" height="6.4"/>
		<rect x="62.1" y="16.3" transform="matrix(0.8299 -0.558 0.558 0.8299 -0.1734 38.5068)" class="st3" width="1.9" height="6.4"/>
	</g>
	<g>
		<rect x="63.8" y="5.1" transform="matrix(0.8299 -0.5579 0.5579 0.8299 6.3586 37.5421)" class="st3" width="1.9" height="6.4"/>
		<rect x="68.4" y="12.1" transform="matrix(0.83 -0.5578 0.5578 0.83 3.2826 41.3075)" class="st3" width="1.9" height="6.4"/>
	</g>
	<rect x="22.3" y="33.6" transform="matrix(0.83 -0.5578 0.5578 0.83 -18.887 19.9216)" class="st3" width="1.9" height="14.8"/>
	<g>
		
			<rect x="16.8" y="36.4" transform="matrix(0.8297 -0.5582 0.5582 0.8297 -19.0926 16.644)" class="st3" width="1.9" height="6.4"/>
		
			<rect x="21.4" y="43.3" transform="matrix(0.8301 -0.5577 0.5577 0.8301 -22.149 20.3957)" class="st3" width="1.9" height="6.4"/>
	</g>
	
		<rect x="15.9" y="37.8" transform="matrix(0.8296 -0.5583 0.5583 0.8296 -22.3633 17.1292)" class="st3" width="1.9" height="14.8"/>
	<rect x="15.9" y="15.1" transform="matrix(0.5581 -0.8298 0.8298 0.5581 -3.071 26.3838)" class="st3" width="14.8" height="1.9"/>
	<rect x="12.7" y="13" transform="matrix(0.5581 -0.8298 0.8298 0.5581 -2.7032 22.8052)" class="st3" width="14.8" height="1.9"/>
	<rect x="9.5" y="10.8" transform="matrix(0.5581 -0.8298 0.8298 0.5581 -2.3338 19.2294)" class="st3" width="14.8" height="1.9"/>
	<g>
		
			<rect x="59.9" y="36.5" transform="matrix(0.5573 -0.8303 0.8303 0.5573 -3.2047 68.9462)" class="st3" width="6.4" height="1.9"/>
		<rect x="55.2" y="43.4" transform="matrix(0.5577 -0.83 0.83 0.5577 -11.0291 68.1099)" class="st3" width="6.4" height="1.9"/>
		<rect x="63" y="38.6" transform="matrix(0.5578 -0.83 0.83 0.5578 -3.5927 72.4813)" class="st3" width="6.4" height="1.9"/>
		
			<rect x="58.4" y="45.6" transform="matrix(0.5584 -0.8296 0.8296 0.5584 -11.417 71.6313)" class="st3" width="6.4" height="1.9"/>
		<rect x="66.2" y="40.8" transform="matrix(0.558 -0.8298 0.8298 0.558 -3.9697 76.0399)" class="st3" width="6.4" height="1.9"/>
		
			<rect x="61.5" y="47.7" transform="matrix(0.5584 -0.8296 0.8296 0.5584 -11.7867 75.2021)" class="st3" width="6.4" height="1.9"/>
	</g>
</g>
</svg>
