<?xml version="1.0" encoding="utf-8"?>
<!-- Generator: Adobe Illustrator 21.0.0, SVG Export Plug-In . SVG Version: 6.00 Build 0)  -->
<svg version="1.1" id="图层_1" xmlns="http://www.w3.org/2000/svg" xmlns:xlink="http://www.w3.org/1999/xlink" x="0px" y="0px"
	 width="40px" height="40px" viewBox="0 0 40 40" enable-background="new 0 0 40 40" xml:space="preserve">
<g>
	<path fill="#D0002E" d="M40,33.8c0,3.5-2.8,6.3-6.3,6.3H6.3C2.8,40,0,37.2,0,33.8V6.3C0,2.8,2.8,0,6.3,0h27.5C37.2,0,40,2.8,40,6.3
		V33.8z"/>
	<g>
		<path fill="#FFFFFF" d="M12.2,35L10.6,29h0.7h0.7l1,4.4h0l0.9-4.4h0.7h0.7l0.9,4.4h0l1-4.4h0.6h0.6L16.6,35H16h-0.6l-1-4.8l0,0
			l-1,4.8h-0.6H12.2z"/>
		<path fill="#FFFFFF" d="M20.7,29h0.7h0.7l2.1,6.1h-0.7H23l-0.4-1.2h-2.3L19.9,35h-0.7h-0.7L20.7,29z M20.6,32.8h1.6l-0.8-2.4h0
			L20.6,32.8z"/>
		<path fill="#FFFFFF" d="M25.1,35V29h4.3v0.5V30h-3v1.4H29v0.5v0.5h-2.7V35h-0.6H25.1z"/>
	</g>
	<path opacity="0.55" fill-rule="evenodd" clip-rule="evenodd" fill="#FFFFFF" d="M35.7,11.2c-1-0.4-2-0.4-3.1-0.3
		c-1.8,0.2-3.6,0.7-5.3,1.5c0.1,0.4,0.3,0.7,0.4,1.1c0.2,0.9,0.3,1.9,0.3,2.9c0,0.2-0.1,0.4-0.1,0.6c-0.1,0.3-0.1,0.6-0.2,0.9
		c-0.3,1.2-0.7,2.2-1.4,3.2l0,0c-0.2,0.2-0.3,0.4-0.5,0.6c-0.1,0.1-0.3,0.3-0.4,0.4c0,0-0.1,0.1-0.1,0.1c-0.1,0.1-0.3,0.2-0.4,0.4
		l0,0l0,0c-0.8,0.7-1.7,1.3-2.7,1.7c-0.1,0-0.2,0.1-0.3,0.1c-0.1,0-0.1,0-0.2,0c-0.1,0-0.2,0-0.2,0.1c0.1,0,0.1,0,0.2,0l0,0
		c0.1,0,0.1,0,0.2-0.1h0c0.1,0,0.3,0,0.4-0.1l0,0c0.3,0,0.5-0.1,0.7-0.2c2.4-0.8,4.7-1.8,6.8-3.2c2.1-1.4,4.1-3,5.6-5
		c0.6-0.8,1.1-1.6,1.3-2.6C37,12.4,36.6,11.6,35.7,11.2z"/>
	<path fill-rule="evenodd" clip-rule="evenodd" fill="#FFFFFF" d="M28,16.3c0,0.2-0.1,0.4-0.1,0.6c-0.1,0.3-0.1,0.6-0.2,0.9
		c-0.3,1.2-0.7,2.2-1.4,3.2c-0.2,0.2-0.3,0.4-0.4,0.6c-0.1,0.1-0.3,0.3-0.4,0.4c0,0-0.1,0.1-0.1,0.1c-0.1,0.1-0.3,0.3-0.4,0.4
		c-0.8,0.7-1.7,1.3-2.7,1.7c-0.1,0-0.2,0.1-0.3,0.1c-0.1,0-0.1,0-0.2,0c-0.1,0-0.2,0-0.2,0.1c-0.5,0.1-1.1,0.3-1.6,0.3
		c-2.1,0.2-4-0.2-5.8-1.3c-2.4-1.5-3.8-3.6-4.2-6.3c-0.4-2.2,0.1-4.3,1.3-6.3c0.1-0.1,0.2-0.2,0.4-0.2c1.5,0,3,0,4.5,0
		c0.3,0,0.5-0.1,0.8-0.3c0.1-0.1,0.3-0.2,0.4-0.4c0,0,0,0,0-0.1h-5.4c0-0.1,0.1-0.2,0.1-0.3c1.9-2.1,4.3-3.2,7.2-3.1
		c2.5,0.1,4.5,1.1,6.2,2.9c0.7,0.7,1.2,1.5,1.6,2.4c0,0.1,0.1,0.1,0.1,0.2c0.1,0.4,0.3,0.8,0.4,1.1C27.9,14.4,28.1,15.4,28,16.3z"/>
	<path fill-rule="evenodd" clip-rule="evenodd" fill="#FFFFFF" d="M5.8,18.5C6,18,6.2,17.5,6.3,17c0.4-1.1,0.7-2.2,1.1-3.3
		c0.1-0.2,0-0.3-0.1-0.4c-1.3-1-2.7-1.9-4-2.9c-0.1,0-0.1-0.1-0.2-0.2c0.1-0.1,0.2,0,0.3,0c1.6,0,3.2,0,4.9,0c0.3,0,0.3,0,0.2,0.3
		c-0.1,0.3-0.2,0.3-0.5,0.3c-0.9,0-1.7,0-2.6,0c-0.1,0-0.2,0-0.3,0c0.4,0.3,0.8,0.6,1.2,0.9c0.6,0.4,1.2,0.9,1.8,1.3
		c0.1,0.1,0.2,0.2,0.1,0.4c-0.5,1.4-1,2.9-1.4,4.3c-0.1,0.2-0.2,0.4-0.4,0.5C6.2,18.3,6,18.4,5.8,18.5C5.9,18.5,5.8,18.5,5.8,18.5z"
		/>
	<path fill-rule="evenodd" clip-rule="evenodd" fill="#FFFFFF" d="M10.3,5c0.3,0.8,0.5,1.6,0.8,2.3c0.3,0.8,0.5,1.6,0.8,2.5
		c0.1,0.2,0.1,0.4-0.1,0.6c-0.1,0.1-0.2,0.3-0.3,0.3c-0.1,0-0.1-0.2-0.2-0.4c-0.5-1.4-0.9-2.8-1.4-4.2c0-0.1-0.1-0.2,0-0.4
		C10.1,5.5,10.1,5.2,10.3,5C10.2,5,10.3,5,10.3,5z"/>
	<g>
		<g>
			<g>
				<path fill-rule="evenodd" clip-rule="evenodd" fill="#D0002E" d="M13.4,16.7c-0.3-0.9-0.6-1.8-0.9-2.7c-0.1-0.2,0-0.3,0.1-0.4
					c0.4-0.3,0.4-0.3,0.6,0.2c0.5,1.5,0.9,3,1.4,4.5c0,0.1,0.1,0.2,0,0.3c-0.1,0-0.2,0-0.2-0.1c-1.4-1-2.8-2-4.1-3
					c-0.2-0.1-0.2-0.2,0-0.3c0.5-0.3,0.5-0.3,1,0c0.6,0.5,1.2,0.9,1.9,1.4C13.2,16.7,13.3,16.7,13.4,16.7
					C13.3,16.8,13.4,16.7,13.4,16.7z"/>
			</g>
			<g>
				<path fill-rule="evenodd" clip-rule="evenodd" fill="#D0002E" d="M16.4,12.1c0.1-0.2,0.1-0.4,0.3-0.6c0.3-0.4,0.7-0.4,0.9,0.1
					c0.2,0.4,0.3,0.8,0.5,1.2c0.1,0.2,0.1,0.5,0.4,0.3c0.1,0,0.1,0.1,0,0.1c-0.3,0.2-0.6,0.4-0.9,0.6c0,0-0.1,0-0.1,0
					c0,0,0-0.1,0-0.1c0.2-0.2,0.2-0.4,0.1-0.6c-0.2-0.4-0.3-0.8-0.4-1.2c-0.1-0.1-0.1-0.3-0.3-0.3c-0.2,0-0.3,0.1-0.3,0.3
					c-0.1,0.2-0.2,0.5-0.1,0.8c0.2,0.3,0.3,0.7,0.4,1.1c0.1,0.2,0.1,0.3,0.4,0.2c0,0,0.1,0,0.1,0c0,0,0,0.1,0,0.1
					c-0.3,0.2-0.6,0.4-0.9,0.6c0,0-0.1,0-0.1,0c0,0,0-0.1,0-0.1c0.2-0.1,0.2-0.3,0.1-0.5c-0.2-0.5-0.3-0.9-0.5-1.4
					c-0.1-0.1-0.1-0.3-0.3-0.1c0,0-0.1,0.1-0.1,0c0,0,0-0.1,0-0.1c0.1-0.2,0.3-0.5,0.4-0.6c0.2-0.2,0.2,0.1,0.2,0.1
					C16.4,12.1,16.4,12.1,16.4,12.1z"/>
			</g>
			<g>
				<path fill-rule="evenodd" clip-rule="evenodd" fill="#D0002E" d="M20,11.8c-0.1,0.2-0.1,0.5-0.3,0.6c-0.3,0.4-0.7,0.3-0.9-0.1
					c-0.2-0.4-0.3-0.9-0.5-1.3c-0.1-0.2-0.1-0.5-0.4-0.3c0,0-0.1,0-0.1,0c0,0,0-0.1,0-0.1c0.2-0.1,0.4-0.3,0.6-0.4
					c0.1-0.1,0.1,0.1,0.2,0.1c0.2,0.5,0.3,0.9,0.5,1.4c0.1,0.2,0.1,0.4,0.3,0.4c0.3,0,0.3-0.2,0.4-0.4c0.1-0.2,0.1-0.4,0-0.6
					c-0.1-0.4-0.3-0.7-0.4-1.1c-0.1-0.2-0.1-0.3-0.3-0.2c0,0-0.1,0-0.1,0c0,0,0-0.1,0-0.1c0.2-0.1,0.3-0.3,0.5-0.4
					c0.1-0.1,0.2,0,0.2,0.1c0.2,0.5,0.3,0.9,0.5,1.4c0,0.1,0.1,0.2,0.1,0.3c0.1,0.1,0.1,0.3,0.3,0.1c0,0,0.1-0.1,0.1,0
					c0,0,0,0.1,0,0.1c-0.1,0.2-0.3,0.5-0.5,0.7c-0.2,0.2-0.1-0.1-0.2-0.2C20,11.9,20,11.8,20,11.8z"/>
			</g>
			<g>
				<g>
					<path fill-rule="evenodd" clip-rule="evenodd" fill="#D0002E" d="M16,14.3c0-0.1,0-0.2-0.1-0.2c-0.1,0-0.1,0.1-0.1,0.2
						c0,0.1,0,0.1,0,0.2c-0.1,0.4-0.3,0.6-0.6,0.7c-0.3,0.1-0.6-0.1-0.8-0.5c-0.1-0.2-0.1-0.3,0.1-0.4c0.3-0.2,0.7-0.5,1-0.7
						c0.1-0.1,0.1-0.1,0.1-0.2c-0.1-0.4-0.5-0.6-0.9-0.4c-0.2,0.1-0.4,0.2-0.5,0.4c-0.4,0.6-0.4,1.7,0.2,2.2c0.3,0.3,0.8,0.3,1.1,0
						c0.3-0.3,0.4-0.7,0.4-1.1C16,14.4,16,14.3,16,14.3z M14.3,14.2c-0.1,0,0-0.2-0.1-0.2c0-0.2,0.1-0.4,0.2-0.6
						c0.2-0.2,0.4-0.2,0.6,0c0.1,0.1,0.2,0.3,0,0.4c-0.2,0.1-0.3,0.2-0.5,0.3C14.5,14.1,14.4,14.2,14.3,14.2z"/>
				</g>
			</g>
			<g>
				<path fill-rule="evenodd" clip-rule="evenodd" fill="#D0002E" d="M21.4,9.9c-0.2,0-0.4,0.1-0.6,0c-0.2,0-0.3-0.1-0.4-0.3
					c-0.2-0.5,0-1.1,0.5-1.4c0.1,0,0.2,0,0.3-0.2c0.1-0.2,0.2-0.1,0.2,0c0.1,0.2,0.1,0.3,0.2,0.5c0,0.1,0,0.1,0,0.2
					c-0.1,0.1-0.1,0-0.2-0.1c-0.3-0.3-0.6-0.3-0.8,0c-0.2,0.3,0,0.6,0.3,0.6c0.2,0,0.3,0,0.5,0c0.6-0.1,0.9,0.3,0.8,0.8
					c-0.1,0.4-0.3,0.7-0.7,0.9c-0.1,0.1-0.3,0.1-0.4,0.2c0,0.1-0.1,0-0.1,0c-0.1-0.2-0.2-0.4-0.2-0.6c0-0.1,0-0.1,0-0.2
					c0.1,0,0.1,0,0.1,0.1c0,0,0.1,0.1,0.1,0.1c0.2,0.2,0.4,0.2,0.6,0c0.2-0.1,0.3-0.3,0.2-0.6C21.9,9.9,21.7,9.9,21.4,9.9z"/>
			</g>
		</g>
	</g>
	<path fill-rule="evenodd" clip-rule="evenodd" fill="#FFFFFF" d="M20,11.8C20,11.8,20,11.7,20,11.8c0.1-0.1,0.1,0,0.1,0
		C20,11.9,20,11.8,20,11.8z"/>
	<path fill-rule="evenodd" clip-rule="evenodd" fill="#FFFFFF" d="M16.4,12.1C16.4,12.1,16.4,12.2,16.4,12.1c-0.1,0.1-0.1,0-0.1-0.1
		C16.4,12,16.4,12.1,16.4,12.1z"/>
</g>
<g>
	<path opacity="0.35" enable-background="new    " d="M40,6.2v27.5c0,3.4-2.8,6.3-6.3,6.3H6.2c-2,0-3.7-0.9-4.9-2.3
		c1.1,0.9,2.4,1.4,3.9,1.4h27.5c3.4,0,6.3-2.8,6.3-6.3V5.3c0-1.5-0.5-2.8-1.4-3.9C39.1,2.5,40,4.3,40,6.2z"/>
	<path opacity="0.24" fill="#FFFFFF" enable-background="new    " d="M38.6,2.3c-1.1-0.9-2.4-1.4-3.9-1.4H7.2
		c-3.4,0-6.3,2.8-6.3,6.3v27.5c0,1.5,0.5,2.8,1.4,3.9C0.9,37.5,0,35.7,0,33.7V6.2c0-3.4,2.8-6.3,6.3-6.3h27.5
		C35.7,0,37.5,0.9,38.6,2.3z"/>
</g>
</svg>
