<?xml version="1.0" encoding="utf-8"?>
<!-- Generator: Adobe Illustrator 21.0.0, SVG Export Plug-In . SVG Version: 6.00 Build 0)  -->
<svg version="1.1" id="图层_1" xmlns="http://www.w3.org/2000/svg" xmlns:xlink="http://www.w3.org/1999/xlink" x="0px" y="0px"
	 width="40px" height="40px" viewBox="0 0 40 40" style="enable-background:new 0 0 40 40;" xml:space="preserve">
<style type="text/css">
	.st0{fill:#0167B2;}
	.st1{opacity:0.35;}
	.st2{opacity:0.24;fill:#FFFFFF;}
	.st3{fill:#FFFFFF;}
</style>
<g>
	<path class="st0" d="M40,33.8c0,3.5-2.8,6.3-6.3,6.3H6.3C2.8,40,0,37.2,0,33.8V6.3C0,2.8,2.8,0,6.3,0h27.5C37.2,0,40,2.8,40,6.3
		V33.8z"/>
	<g>
		<path class="st1" d="M40,6.3v27.5c0,3.4-2.8,6.3-6.3,6.3H6.3c-2,0-3.7-0.9-4.9-2.3c1.1,0.9,2.4,1.4,3.9,1.4h27.5
			c3.4,0,6.3-2.8,6.3-6.3V5.3c0-1.5-0.5-2.8-1.4-3.9C39.1,2.5,40,4.3,40,6.3z"/>
		<path class="st2" d="M38.6,2.3c-1.1-0.9-2.4-1.4-3.9-1.4H7.2c-3.4,0-6.3,2.8-6.3,6.3v27.5c0,1.5,0.5,2.8,1.4,3.9
			C0.9,37.5,0,35.7,0,33.8V6.3C0,2.8,2.8,0,6.3,0h27.5C35.7,0,37.5,0.9,38.6,2.3z"/>
	</g>
	<g>
		<path class="st3" d="M15.9,18c-0.6-0.8-1.7-0.9-2.6-0.4c-0.3,0.2-0.5,0.3-0.9,0c-0.7-0.5-1.6-0.4-2.4,0.2c-0.2,0.1-0.3,0.1-0.5,0
			c-0.9-0.8-2.2-0.6-2.7,0.6c-0.3,0.6-0.5,1.2-0.8,1.8c-0.1,0.2-0.2,0.4-0.3,0.6c-0.1-0.2-0.1-0.2-0.2-0.3c-0.4-0.9-0.8-1.8-1.1-2.7
			c-0.2-0.5-0.8-0.7-1.2-0.3c-0.2,0.3-0.2,0.5-0.1,0.8c0.4,0.8,0.8,1.7,1.1,2.5c0.2,0.5,0.4,1,0.7,1.4c0.4,0.5,1.1,0.5,1.5,0
			c0.1-0.1,0.2-0.3,0.3-0.5c0.4-0.9,0.8-1.9,1.3-2.8c0.1-0.2,0.1-0.4,0.4-0.4c0.3,0.1,0.2,0.3,0.2,0.5c0,0.9,0,1.9,0,2.8
			c0,0.5,0.3,0.7,0.7,0.7c0.4,0,0.7-0.3,0.7-0.7c0-0.8,0-1.6,0-2.5c0-0.5,0.3-0.9,0.8-0.9c0.5,0,0.8,0.3,0.8,0.9c0,0.8,0,1.5,0,2.3
			c0,0.1,0,0.3,0.1,0.4c0.1,0.3,0.3,0.4,0.7,0.4c0.3,0,0.6-0.2,0.6-0.5c0-0.2,0.1-0.3,0.1-0.5c0-0.8,0-1.6,0-2.3
			c0-0.5,0.5-0.9,1-0.8c0.4,0.1,0.6,0.4,0.6,0.9c0,0.8,0,1.6,0,2.4c0,0.5,0.3,0.8,0.7,0.8c0.5,0,0.7-0.3,0.7-0.8c0-1,0-1.9,0-2.9
			C16.2,18.6,16.1,18.3,15.9,18z"/>
		<path class="st3" d="M23.8,17.5c-0.3-0.1-0.4,0-0.4,0.2c0,0,0,0.1,0,0.1c-0.4,1.1-0.7,2.1-1.1,3.2c0,0.1-0.1,0.2-0.1,0.4
			c-0.1-0.1-0.1-0.2-0.2-0.3c-0.4-1.1-0.8-2.2-1.1-3.3c-0.1-0.2-0.2-0.4-0.4-0.4c-0.2,0-0.3,0.2-0.4,0.4c-0.4,1.1-0.8,2.2-1.2,3.3
			c0,0.1-0.1,0.2-0.1,0.3c-0.1-0.2-0.1-0.2-0.1-0.3c-0.4-1.1-0.8-2.2-1.1-3.3c-0.1-0.3-0.3-0.4-0.5-0.4c-0.2,0.1-0.3,0.3-0.2,0.6
			c0.2,0.5,0.4,1.1,0.6,1.6c0.3,0.9,0.6,1.7,0.9,2.6c0.1,0.2,0.2,0.4,0.4,0.4c0.3,0,0.4-0.1,0.4-0.4c0.4-1.1,0.7-2.1,1.1-3.2
			c0-0.1,0.1-0.2,0.1-0.3c0,0,0,0,0.1,0c0.1,0.1,0.1,0.2,0.2,0.4c0.4,1.1,0.7,2.1,1.1,3.2c0.1,0.3,0.3,0.4,0.5,0.3
			c0.1-0.1,0.2-0.2,0.3-0.4c0.2-0.5,0.4-1.1,0.6-1.6c0.3-0.9,0.6-1.8,0.9-2.6C24,17.7,24,17.6,23.8,17.5z"/>
		<path class="st3" d="M27,17.5c-0.7-0.1-1.4-0.1-2.1,0.2c-0.2,0.1-0.3,0.2-0.3,0.4c0.1,0.2,0.3,0.2,0.5,0.1c0.5-0.2,1-0.3,1.6-0.1
			c0.6,0.1,0.9,0.5,1,1.1c0.1,0.5,0.1,0.5-0.4,0.4c-0.8-0.2-1.6-0.2-2.4,0.1c-0.5,0.2-0.8,0.6-0.9,1.2c-0.1,0.6,0.1,1.1,0.7,1.4
			c0.8,0.5,2,0.4,2.7-0.3c0.1-0.1,0.1-0.1,0.2-0.2c0,0,0.1,0,0.1,0c0,0.1,0,0.3,0,0.4c0,0.2,0.1,0.3,0.3,0.3c0.1,0,0.2-0.1,0.3-0.2
			c0,0,0-0.1,0-0.2c0-1,0-1.9,0-2.9C28.4,18.3,27.9,17.7,27,17.5z M26.5,22.1c-0.3,0-0.6,0-0.9,0c-0.6-0.1-0.9-0.6-0.9-1
			c0-0.5,0.4-0.9,1-1c0.2,0,0.4-0.1,0.7-0.1c0.3,0.1,0.8,0.1,1.2,0.2c0.1,0,0.2,0.2,0.2,0.2C27.9,21.3,27.4,21.9,26.5,22.1z"/>
		<path class="st3" d="M33.2,20.3c0.5,0,1.1,0,1.6,0c0,0,0,0,0,0c0.6,0,1.1,0,1.7,0c0.3,0,0.4-0.1,0.4-0.4c0-0.2,0-0.3-0.1-0.5
			c-0.2-0.9-0.6-1.6-1.5-1.8c-0.9-0.3-1.7-0.1-2.3,0.6c-0.6,0.6-0.8,1.4-0.7,2.2c0.1,1.3,1.1,2.3,2.4,2.3c0.7,0,1.4-0.2,1.9-0.7
			c0.1-0.1,0.2-0.3,0-0.4c-0.1-0.1-0.3-0.2-0.4,0c-0.1,0.1-0.2,0.1-0.3,0.2c-1,0.7-2.6,0.4-2.9-1.1C32.9,20.4,33,20.3,33.2,20.3z
			 M33,19.5c0.1-0.3,0.2-0.7,0.5-1c0.8-0.9,2.2-0.6,2.6,0.5c0.2,0.7,0.2,0.7-0.5,0.7c-0.3,0-0.7,0-1,0c0,0,0,0,0,0
			c-0.5,0-0.9,0-1.4,0C33,19.8,32.9,19.7,33,19.5z"/>
		<path class="st3" d="M31.8,17.5c-0.6,0.1-1.1,0.4-1.5,0.9c0,0.1-0.1,0.1-0.1,0.2c0,0-0.1,0-0.1,0c0-0.2,0-0.5,0-0.7
			c0-0.3-0.1-0.4-0.4-0.4c-0.3,0-0.3,0.2-0.3,0.4c0,1.4,0,2.9,0,4.3c0,0.3,0.1,0.4,0.3,0.4c0.2,0,0.3-0.1,0.3-0.4c0-0.6,0-1.2,0-1.8
			c0-1.1,0.6-2,1.8-2.2c0.2,0,0.3-0.2,0.3-0.4C32.2,17.6,32,17.4,31.8,17.5z"/>
	</g>
</g>
</svg>
