<?xml version="1.0" encoding="utf-8"?>
<!-- Generator: Adobe Illustrator 21.0.0, SVG Export Plug-In . SVG Version: 6.00 Build 0)  -->
<svg version="1.1" id="图层_1" xmlns="http://www.w3.org/2000/svg" xmlns:xlink="http://www.w3.org/1999/xlink" x="0px" y="0px"
	 width="40px" height="40px" viewBox="0 0 40 40" style="enable-background:new 0 0 40 40;" xml:space="preserve">
<style type="text/css">
	.st0{fill:#1F5FA3;}
	.st1{opacity:0.35;enable-background:new    ;}
	.st2{opacity:0.24;fill:#FFFFFF;enable-background:new    ;}
</style>
<g>
	<path class="st0" d="M40,33.8c0,3.5-2.7,6.2-6.2,6.2H6.3C2.8,40,0,37.2,0,33.8V6.3C0,2.8,2.9,0,6.3,0h27.5C37.3,0,40,2.8,40,6.3
		V33.8z"/>
</g>
<g>
	<path class="st1" d="M40,6.2v27.5c0,3.4-2.8,6.3-6.3,6.3H6.2c-2,0-3.7-0.9-4.9-2.3c1.1,0.9,2.4,1.4,3.9,1.4h27.5
		c3.4,0,6.3-2.8,6.3-6.3V5.3c0-1.5-0.5-2.8-1.4-3.9C39.1,2.5,40,4.3,40,6.2z"/>
	<path class="st2" d="M38.6,2.3c-1.1-0.9-2.4-1.4-3.9-1.4H7.2c-3.4,0-6.3,2.8-6.3,6.3v27.5c0,1.5,0.5,2.8,1.4,3.9
		C0.9,37.5,0,35.7,0,33.7V6.2c0-3.4,2.8-6.3,6.3-6.3h27.5C35.7,0,37.5,0.9,38.6,2.3z"/>
</g>
<image style="overflow:visible;" width="144" height="144" xlink:href="../../AIX.png"  transform="matrix(0.2569 0 0 0.2569 1.5 1.5)">
</image>
</svg>
